<svg width="211" height="83" viewBox="0 0 211 83" fill="none" xmlns="http://www.w3.org/2000/svg">
<g filter="url(#filter0_d_2410_1820)">
<path d="M176.618 9.61346L29.5272 28.1773C19.2658 29.4724 12.0018 38.8778 13.3026 49.185C14.6035 59.4921 23.9765 66.7979 34.2379 65.5028L181.329 46.939C191.59 45.6439 198.854 36.2385 197.553 25.9313C196.252 15.6242 186.879 8.3184 176.618 9.61346Z" fill="#1B1B1B"/>
<path d="M48.7021 43.3648C48.7607 43.8293 48.7042 44.2788 48.5325 44.7134C48.3691 45.147 48.0678 45.5178 47.6285 45.8261C47.1975 46.1333 46.6268 46.3317 45.9167 46.4213L44.4675 46.6042L44.8883 49.9386L43.1542 50.1575L42.0581 41.4731L45.2415 41.0713C45.9104 40.9869 46.4948 41.0311 46.9948 41.204C47.4948 41.3768 47.886 41.6518 48.1686 42.0291C48.4593 42.4053 48.6372 42.8506 48.7021 43.3648ZM45.6649 45.0248C46.1439 44.9643 46.4853 44.8116 46.6894 44.5668C46.8923 44.3137 46.9687 43.9881 46.9184 43.5899C46.8116 42.7439 46.2876 42.3803 45.3462 42.4991L43.9713 42.6726L44.29 45.1983L45.6649 45.0248ZM49.8062 45.7914C49.7182 45.0946 49.7765 44.4595 49.9809 43.886C50.1937 43.3114 50.517 42.8492 50.9511 42.4995C51.3934 42.1488 51.9077 41.9364 52.494 41.8624C53.006 41.7978 53.465 41.8452 53.871 42.0046C54.2853 42.163 54.6279 42.3852 54.8989 42.6712L54.7749 41.6883L56.5214 41.4679L57.3913 48.3607L55.6448 48.5811L55.5176 47.5733C55.3355 47.9249 55.0598 48.2336 54.6907 48.4993C54.3288 48.7556 53.8918 48.9161 53.3798 48.9807C52.8017 49.0537 52.2545 48.971 51.7378 48.7329C51.2294 48.4937 50.8008 48.1222 50.452 47.6185C50.1104 47.1055 49.8951 46.4965 49.8062 45.7914ZM55.2098 45.1347C55.1565 44.7117 55.0283 44.3613 54.8255 44.0835C54.6216 43.7974 54.3694 43.5934 54.0687 43.4712C53.767 43.3408 53.4551 43.2958 53.1331 43.3365C52.811 43.3771 52.5237 43.4934 52.2711 43.6854C52.0185 43.8774 51.8248 44.1378 51.6901 44.4666C51.5627 44.786 51.5251 45.1531 51.5774 45.5678C51.6298 45.9825 51.7584 46.3371 51.9633 46.6315C52.1755 46.9165 52.4283 47.1248 52.7217 47.2562C53.0234 47.3867 53.3312 47.4321 53.645 47.3925C53.967 47.3519 54.2585 47.2351 54.5194 47.042C54.7792 46.8407 54.9729 46.5803 55.1003 46.2608C55.2267 45.9331 55.2632 45.5577 55.2098 45.1347ZM64.7799 40.4256L61.8126 51.1143L59.967 51.3473L61.02 47.7257L57.4223 41.3542L59.367 41.1087L61.7459 45.7002L62.9343 40.6585L64.7799 40.4256ZM75.1444 39.1175L76.0143 46.0103L74.2678 46.2307L74.1579 45.3598C73.9726 45.6865 73.7094 45.9599 73.368 46.18C73.0339 46.3907 72.6562 46.5226 72.235 46.5758C71.6983 46.6435 71.2094 46.5914 70.7682 46.4196C70.326 46.2394 69.9574 45.9447 69.6624 45.5353C69.3747 45.1166 69.1921 44.6003 69.1146 43.9865L68.6043 39.9429L70.3384 39.7241L70.8173 43.5188C70.8864 44.0663 71.0761 44.4721 71.3863 44.7363C71.6954 44.9922 72.0853 45.0905 72.556 45.0311C73.035 44.9706 73.3924 44.778 73.6282 44.4534C73.863 44.1204 73.9459 43.6802 73.8768 43.1327L73.3979 39.3379L75.1444 39.1175ZM80.3655 45.5749C79.8039 45.6458 79.2877 45.6098 78.8166 45.467C78.3445 45.3159 77.9544 45.0829 77.6462 44.7679C77.3462 44.4518 77.1571 44.0838 77.079 43.6639L78.8255 43.4435C78.892 43.7048 79.0478 43.9084 79.2927 44.0545C79.5459 44.1995 79.8417 44.2506 80.1803 44.2079C80.5106 44.1662 80.7583 44.0676 80.9232 43.9119C81.0964 43.7552 81.1702 43.5732 81.144 43.3658C81.1158 43.1418 80.9787 42.9906 80.7341 42.9119C80.4965 42.824 80.1215 42.7449 79.6093 42.6747C79.0816 42.6149 78.6442 42.5395 78.2972 42.4484C77.9584 42.3563 77.652 42.1886 77.378 41.9451C77.1122 41.7005 76.95 41.346 76.8914 40.8815C76.8433 40.4999 76.9066 40.138 77.0816 39.7958C77.2647 39.4525 77.5471 39.164 77.9287 38.9304C78.3186 38.6958 78.7901 38.5437 79.3434 38.4738C80.1609 38.3706 80.8393 38.4957 81.3793 38.8489C81.9176 39.1939 82.2558 39.7115 82.3933 40.402L80.7335 40.6115C80.6742 40.3409 80.531 40.1399 80.3047 40.0083C80.0856 39.8675 79.8067 39.8184 79.4682 39.8611C79.1543 39.9007 78.9181 39.9896 78.7593 40.1275C78.6088 40.2645 78.5467 40.4366 78.5728 40.644C78.6022 40.8763 78.7403 41.04 78.9872 41.1353C79.233 41.2222 79.6074 41.2972 80.1104 41.3601C80.6215 41.422 81.0468 41.4989 81.3856 41.591C81.7244 41.6831 82.027 41.8555 82.294 42.1083C82.5678 42.3518 82.7377 42.7012 82.8038 43.1563C82.8541 43.5544 82.7876 43.9252 82.6044 44.2685C82.429 44.6108 82.1469 44.8992 81.7573 45.1338C81.3744 45.3591 80.9105 45.5061 80.3655 45.5749ZM84.3807 37.1176C84.0757 37.1561 83.8074 37.093 83.5766 36.9284C83.3533 36.7543 83.2234 36.5221 83.1867 36.2318C83.1501 35.9415 83.2188 35.6884 83.3929 35.4727C83.5745 35.2475 83.8182 35.1156 84.1232 35.0771C84.429 35.0385 84.6932 35.1063 84.9165 35.2804C85.1472 35.445 85.2806 35.6726 85.3172 35.9629C85.3538 36.2532 85.2818 36.5109 85.1002 36.7361C84.9261 36.9518 84.6865 37.079 84.3807 37.1176ZM85.339 37.8309L86.209 44.7237L84.4748 44.9425L83.6049 38.0498L85.339 37.8309ZM90.8424 37.0352C91.6599 36.932 92.354 37.1099 92.9232 37.5689C93.492 38.0196 93.8347 38.7094 93.952 39.6384L94.4623 43.682L92.7282 43.9009L92.2477 40.0937C92.1786 39.5463 91.9895 39.1446 91.6803 38.8887C91.3701 38.6245 90.9797 38.522 90.509 38.5815C90.0306 38.6418 89.6693 38.8391 89.426 39.1732C89.1901 39.4979 89.1067 39.934 89.1758 40.4814L89.6563 44.2886L87.9222 44.5075L87.0523 37.6147L88.7864 37.3958L88.8947 38.2543C89.0885 37.9265 89.3526 37.6572 89.6862 37.4466C90.0281 37.2265 90.4135 37.0893 90.8424 37.0352ZM97.9159 36.1299C98.4276 36.0653 98.8905 36.1122 99.3053 36.2705C99.7182 36.4206 100.057 36.6433 100.321 36.9387L100.197 35.9557L101.943 35.7353L102.819 42.6779C102.9 43.3165 102.843 43.901 102.651 44.4309C102.458 44.9692 102.124 45.4158 101.649 45.7707C101.175 46.134 100.574 46.3614 99.8479 46.4531C98.8733 46.5761 98.0432 46.4491 97.3586 46.072C96.6817 45.694 96.2517 45.1162 96.0702 44.3386L97.7919 44.1214C97.9223 44.4251 98.148 44.6494 98.4683 44.7944C98.7974 44.9466 99.1772 44.9956 99.6068 44.9414C100.11 44.8779 100.499 44.6729 100.775 44.3263C101.051 43.9881 101.15 43.5121 101.073 42.8983L100.938 41.8283C100.756 42.1799 100.48 42.4886 100.111 42.7543C99.7496 43.0189 99.3173 43.1831 98.8141 43.2466C98.2358 43.3196 97.6882 43.237 97.172 42.9988C96.6551 42.7607 96.2222 42.3897 95.8739 41.886C95.5323 41.3729 95.317 40.7639 95.228 40.0588C95.1401 39.3621 95.1983 38.7269 95.4028 38.1534C95.615 37.5789 95.9389 37.1167 96.373 36.767C96.8148 36.4163 97.3291 36.2039 97.9159 36.1299ZM100.632 39.4021C100.578 38.9791 100.45 38.6288 100.247 38.351C100.043 38.0649 99.7907 37.8609 99.4906 37.7386C99.1886 37.6082 98.877 37.5633 98.5549 37.6039C98.2329 37.6446 97.9455 37.7609 97.6929 37.9529C97.4403 38.1449 97.2467 38.4052 97.112 38.734C96.984 39.0535 96.947 39.4206 96.9993 39.8353C97.0516 40.25 97.1798 40.6047 97.3852 40.8989C97.5974 41.184 97.8501 41.3922 98.1436 41.5237C98.4448 41.6542 98.7525 41.6996 99.0668 41.66C99.3889 41.6193 99.6801 41.5025 99.9412 41.3095C100.201 41.1082 100.394 40.8478 100.522 40.5283C100.648 40.2006 100.685 39.8252 100.632 39.4021ZM112.551 39.718L109.107 40.1526L108.746 41.8793L106.926 42.1091L108.937 33.0199L110.956 32.7651L115.163 41.0695L113.329 41.3009L112.551 39.718ZM111.904 38.384L110.195 34.9088L109.402 38.6997L111.904 38.384ZM117.314 34.8066C117.498 34.4633 117.77 34.1634 118.132 33.9071C118.501 33.6414 118.937 33.4768 119.441 33.4132C120.027 33.3392 120.575 33.4177 121.082 33.6485C121.598 33.8783 122.026 34.2457 122.366 34.7505C122.714 35.2459 122.932 35.8461 123.021 36.5512C123.11 37.2562 123.049 37.9001 122.837 38.483C122.633 39.0565 122.31 39.5228 121.869 39.8819C121.436 40.2399 120.926 40.456 120.34 40.5299C119.836 40.5935 119.377 40.5461 118.963 40.3877C118.556 40.2283 118.214 40.0061 117.935 39.7211L118.473 43.9887L116.739 44.2075L115.455 34.0301L117.189 33.8112L117.314 34.8066ZM121.25 36.7747C121.198 36.36 121.066 36.0143 120.855 35.7375C120.651 35.4514 120.399 35.2474 120.098 35.1252C119.806 35.002 119.498 34.9607 119.176 35.0014C118.863 35.0409 118.576 35.1614 118.316 35.3628C118.063 35.5548 117.87 35.8151 117.735 36.1439C117.609 36.4717 117.571 36.8429 117.624 37.2576C117.676 37.6723 117.804 38.0227 118.008 38.3088C118.22 38.5938 118.473 38.8021 118.767 38.9336C119.067 39.0557 119.375 39.097 119.688 39.0574C120.01 39.0168 120.297 38.8963 120.549 38.696C120.809 38.4947 121.002 38.2302 121.128 37.9024C121.263 37.5736 121.303 37.1977 121.25 36.7747ZM125.709 33.7471C125.893 33.4038 126.165 33.104 126.527 32.8476C126.896 32.5819 127.332 32.4173 127.836 32.3537C128.422 32.2797 128.97 32.3582 129.477 32.589C129.992 32.8189 130.421 33.1862 130.761 33.691C131.108 34.1865 131.327 34.7866 131.416 35.4916C131.505 36.1967 131.443 36.8407 131.232 37.4235C131.028 37.997 130.704 38.4634 130.264 38.8224C129.831 39.1804 129.321 39.3964 128.735 39.4704C128.231 39.534 127.772 39.4866 127.358 39.3282C126.951 39.1688 126.609 38.9466 126.33 38.6616L126.868 42.9292L125.134 43.148L123.85 32.9706L125.584 32.7517L125.709 33.7471ZM129.645 35.7152C129.593 35.3005 129.461 34.9547 129.25 34.678C129.045 34.392 128.793 34.188 128.493 34.0657C128.201 33.9425 127.893 33.9012 127.571 33.9419C127.257 33.9815 126.97 34.102 126.711 34.3033C126.458 34.4953 126.265 34.7556 126.13 35.0844C126.003 35.4122 125.966 35.7834 126.019 36.1981C126.071 36.6128 126.199 36.9633 126.403 37.2493C126.615 37.5343 126.868 37.7426 127.162 37.8741C127.462 37.9963 127.769 38.0376 128.083 37.9979C128.405 37.9573 128.692 37.8368 128.944 37.6365C129.203 37.4353 129.396 37.1707 129.523 36.8429C129.658 36.5141 129.698 36.1382 129.645 35.7152ZM133.686 29.3781L134.848 38.5851L133.114 38.804L131.952 29.597L133.686 29.3781ZM142.487 33.968C142.519 34.2168 142.53 34.4429 142.523 34.6461L137.506 35.2792C137.61 35.7717 137.832 36.1397 138.174 36.3831C138.514 36.6267 138.908 36.7202 139.354 36.6639C139.998 36.5826 140.422 36.2469 140.624 35.6568L142.494 35.4207C142.38 36.1093 142.069 36.7047 141.562 37.2068C141.053 37.7008 140.391 37.9993 139.574 38.1024C138.913 38.1859 138.3 38.1157 137.735 37.8921C137.177 37.6591 136.716 37.2918 136.35 36.7902C135.993 36.2876 135.77 35.6837 135.681 34.9787C135.591 34.2654 135.656 33.6209 135.878 33.0452C136.098 32.4697 136.451 32.0038 136.934 31.6479C137.418 31.2919 137.998 31.0712 138.675 30.9857C139.327 30.9034 139.927 30.971 140.475 31.1883C141.031 31.4047 141.482 31.7564 141.829 32.2435C142.183 32.7213 142.402 33.2961 142.487 33.968ZM140.628 33.697C140.563 33.2502 140.357 32.9138 140.01 32.688C139.661 32.4539 139.26 32.3655 138.807 32.4228C138.377 32.477 138.031 32.6556 137.767 32.9585C137.51 33.2522 137.378 33.6354 137.371 34.1081L140.628 33.697ZM152.706 30.2388C152.764 30.7033 152.708 31.1528 152.536 31.5874C152.373 32.021 152.072 32.3918 151.632 32.7001C151.201 33.0073 150.63 33.2057 149.92 33.2953L148.471 33.4782L148.892 36.8126L147.158 37.0315L146.062 28.3471L149.245 27.9453C149.914 27.8609 150.499 27.9051 150.999 28.078C151.499 28.2508 151.89 28.5259 152.172 28.9031C152.463 29.2794 152.641 29.7246 152.706 30.2388ZM149.669 31.8988C150.148 31.8383 150.489 31.6857 150.693 31.4408C150.896 31.1877 150.972 30.8621 150.922 30.4639C150.815 29.6179 150.291 29.2543 149.35 29.3731L147.975 29.5466L148.294 32.0723L149.669 31.8988ZM153.81 32.6654C153.722 31.9687 153.78 31.3335 153.984 30.76C154.197 30.1854 154.521 29.7233 154.955 29.3736C155.397 29.0228 155.911 28.8104 156.497 28.7365C157.01 28.6718 157.469 28.7192 157.874 28.8787C158.289 29.037 158.632 29.2592 158.902 29.5453L158.778 28.5624L160.525 28.3419L161.395 35.2347L159.648 35.4551L159.521 34.4473C159.339 34.799 159.063 35.1077 158.694 35.3733C158.332 35.6297 157.896 35.7901 157.383 35.8548C156.806 35.9276 156.258 35.8451 155.741 35.6069C155.233 35.3677 154.805 34.9962 154.455 34.4926C154.114 33.9795 153.899 33.3705 153.81 32.6654ZM159.213 32.0087C159.16 31.5857 159.032 31.2353 158.829 30.9576C158.625 30.6715 158.373 30.4674 158.072 30.3452C157.771 30.2147 157.459 30.1699 157.137 30.2105C156.814 30.2512 156.527 30.3675 156.275 30.5595C156.022 30.7515 155.828 31.0118 155.694 31.3406C155.566 31.6601 155.529 32.0272 155.581 32.4419C155.633 32.8566 155.762 33.2112 155.967 33.5055C156.179 33.7906 156.432 33.9988 156.725 34.1303C157.027 34.2607 157.335 34.3061 157.648 34.2666C157.97 34.2259 158.262 34.109 158.523 33.9161C158.783 33.7147 158.977 33.4543 159.104 33.1349C159.231 32.8071 159.267 32.4318 159.213 32.0087ZM168.784 27.2996L165.816 37.9884L163.971 38.2213L165.024 34.5998L161.426 28.2282L163.371 27.9828L165.75 32.5742L166.938 27.5325L168.784 27.2996Z" fill="white"/>
</g>
<defs>
<filter id="filter0_d_2410_1820" x="0.551855" y="0.864843" width="209.752" height="81.3868" filterUnits="userSpaceOnUse" color-interpolation-filters="sRGB">
<feFlood flood-opacity="0" result="BackgroundImageFix"/>
<feColorMatrix in="SourceAlpha" type="matrix" values="0 0 0 0 0 0 0 0 0 0 0 0 0 0 0 0 0 0 127 0" result="hardAlpha"/>
<feOffset dy="4"/>
<feGaussianBlur stdDeviation="6.3"/>
<feComposite in2="hardAlpha" operator="out"/>
<feColorMatrix type="matrix" values="0 0 0 0 0 0 0 0 0 0 0 0 0 0 0 0 0 0 0.03 0"/>
<feBlend mode="normal" in2="BackgroundImageFix" result="effect1_dropShadow_2410_1820"/>
<feBlend mode="normal" in="SourceGraphic" in2="effect1_dropShadow_2410_1820" result="shape"/>
</filter>
</defs>
</svg>
