<svg width="197" height="197" viewBox="0 0 197 197" fill="none" xmlns="http://www.w3.org/2000/svg">
<g clip-path="url(#clip0_2537_6163)">
<path d="M140.645 95.6226C137.008 94.0026 133.303 92.5133 129.517 91.2306C125.726 89.9413 121.861 88.8806 117.944 88.0541C113.771 87.1746 109.539 86.6001 105.283 86.3352C99.5745 85.9499 93.8403 86.3553 88.243 87.5399C85.4253 88.1468 82.6668 89.0018 79.9997 90.0948C78.6171 90.6478 77.2842 91.3177 76.0154 92.0973C74.6597 92.9244 73.4501 93.9699 72.4353 95.1915C71.8811 95.8662 71.4313 96.6203 71.1007 97.4284C70.7272 98.3319 70.5739 99.3113 70.6537 100.286C70.7461 101.297 71.1085 102.266 71.7032 103.089C72.253 103.848 72.9505 104.488 73.7538 104.971C74.4937 105.421 75.2937 105.764 76.1298 105.989C76.9092 106.194 77.706 106.325 78.5099 106.382C79.9967 106.5 81.4908 106.496 82.9769 106.368C85.9143 106.118 88.8047 105.473 91.57 104.451C94.3465 103.426 96.9606 102.005 99.3313 100.233C102.29 98.0355 104.767 95.2554 106.611 92.0642C106.855 91.6258 107.071 91.1725 107.259 90.707C107.453 90.2259 107.607 89.7296 107.719 89.2231C107.967 88.1958 108.034 87.1332 107.918 86.0828C107.795 85.0171 107.472 83.9842 106.966 83.0384C106.481 82.1376 105.866 81.3132 105.141 80.5921C103.778 79.2666 102.203 78.1773 100.482 77.3689C99.6634 76.9657 98.8246 76.6058 97.9686 76.2907C97.5436 76.1343 97.1171 75.9841 96.687 75.8481C96.2565 75.7082 95.8455 75.5956 95.4237 75.4683C92.0731 74.4752 88.661 73.703 85.2093 73.1568C71.3765 71.0246 57.2302 72.3794 44.0535 77.0985C43.5568 77.2656 43.0691 77.4596 42.5791 77.6483C42.0906 77.8408 41.5974 78.0217 41.1135 78.2268C40.147 78.6396 39.1753 79.0399 38.2291 79.4944C36.3198 80.3648 34.4711 81.3457 32.6688 82.3528C31.2335 83.1612 29.8495 84.0573 28.5245 85.0361C27.9931 85.4398 27.527 85.806 27.1254 86.146C26.7301 86.4958 26.3947 86.8117 26.1124 87.0967C25.2907 87.9263 25.4327 88.1108 26.3567 87.7314C26.5877 87.6364 26.8677 87.5061 27.1938 87.3415C27.5176 87.174 27.8923 86.9803 28.3178 86.7604C28.7413 86.5399 29.2084 86.2875 29.719 86.0033C30.2349 85.7294 30.7983 85.4334 31.399 85.103C34.58 83.3874 37.8527 81.8474 41.2023 80.49C48.8552 77.3867 56.9487 75.5069 65.186 74.9195C73.3873 74.3053 81.634 75.0213 89.6068 77.0399C90.152 77.1846 90.6997 77.3299 91.2499 77.4758C91.795 77.6377 92.3416 77.8 92.8897 77.9627C93.4397 78.1169 93.9783 78.312 94.523 78.4855C95.0679 78.6641 95.6143 78.8369 96.1232 79.0286C98.1206 79.7304 100.005 80.7195 101.718 81.9645C102.976 82.9136 103.965 84.0888 104.401 85.3907C104.615 86.0482 104.698 86.7412 104.645 87.4307C104.617 87.7904 104.559 88.1472 104.47 88.4971C104.39 88.8519 104.276 89.1984 104.13 89.5318C103.979 89.8827 103.806 90.2236 103.612 90.5524L102.947 91.6087C102.706 91.9509 102.469 92.2959 102.223 92.6348C101.961 92.9623 101.712 93.2997 101.441 93.6202C100.354 94.9092 99.1368 96.0822 97.8085 97.1204C95.1287 99.2065 92.0867 100.78 88.8356 101.761C87.2069 102.253 85.5407 102.609 83.8537 102.828C82.1886 103.051 80.5052 103.108 78.8288 102.996L78.37 102.955L78.1407 102.934L77.9334 102.906C77.661 102.87 77.3908 102.819 77.124 102.753C76.6117 102.629 76.118 102.437 75.6552 102.185C75.2371 101.958 74.8641 101.657 74.5551 101.296C74.4179 101.136 74.3019 100.959 74.2102 100.769C74.1196 100.593 74.0552 100.404 74.0191 100.209C73.9773 100.013 73.9641 99.8121 73.98 99.6122C73.9928 99.3957 74.0309 99.1813 74.0935 98.9736C74.2444 98.4975 74.4693 98.0481 74.7598 97.6419C75.0856 97.1837 75.4572 96.76 75.869 96.3773C76.2989 95.9741 76.758 95.6032 77.2425 95.2675C78.2664 94.5726 79.3519 93.973 80.4855 93.4765C81.064 93.2153 81.6562 92.9688 82.2602 92.7313C82.8598 92.4978 83.4639 92.2757 84.0724 92.065C86.5219 91.2344 89.0319 90.5938 91.5799 90.1489C96.1552 89.3569 100.807 89.0977 105.442 89.3766C110.105 89.6578 114.734 90.3549 119.274 91.4597C121.551 92.0064 123.808 92.6342 126.047 93.3432C127.164 93.701 128.277 94.0686 129.38 94.4735L131.037 95.0736L132.682 95.7079C133.783 96.1215 134.863 96.5913 135.954 97.0329C137.032 97.5072 138.119 97.9581 139.188 98.4561C141.339 99.4192 143.459 100.459 145.572 101.513C152.301 104.913 158.598 108.272 164.47 110.823C167.169 111.998 167.42 111.192 164.611 109.273C160.603 106.605 156.322 103.915 151.937 101.412C148.336 99.3487 144.496 97.4651 140.655 95.6909C140.652 95.6681 140.65 95.647 140.645 95.6226Z" fill="#434141"/>
<path d="M139.515 109.288C141.986 109.11 144.468 109.124 146.937 109.33C147.591 109.403 148.249 109.469 148.906 109.552C149.56 109.657 150.214 109.77 150.862 109.902C153.658 110.523 156.428 111.365 159.205 112.26L163.377 113.63C164.769 114.089 166.165 114.565 167.574 114.99L167.595 114.997C168.079 115.143 168.602 115.091 169.049 114.852C169.495 114.612 169.828 114.206 169.974 113.721C170.065 113.415 170.078 113.091 170.012 112.778C169.947 112.465 169.805 112.174 169.599 111.93L166.908 108.777C164.026 105.363 161.14 101.947 158.226 98.5435C155.311 95.141 152.369 91.7504 149.325 88.4236C148.39 87.4291 147.402 86.4863 146.364 85.5994C145.394 84.7417 144.52 84.4218 143.805 84.4051C142.762 84.3857 142.74 85.4707 143.83 86.8989C144.557 87.8351 145.338 88.7274 146.17 89.571C149.915 93.5057 153.403 97.6774 156.612 102.06C157.506 103.269 158.393 104.564 159.41 105.617C162.048 108.349 164.407 111.343 166.838 114.27L168.647 111.534C167.808 111.264 166.965 111.006 166.115 110.777C162.763 109.858 159.435 108.748 156.005 107.892C152.928 107.1 149.794 106.547 146.632 106.239C143.466 105.962 140.282 105.963 137.116 106.24C136.488 106.297 135.872 106.369 135.269 106.459C134.669 106.568 134.084 106.697 133.513 106.846C132.408 107.129 131.342 107.546 130.339 108.088C129.892 108.332 129.714 108.634 129.79 108.897C129.864 109.153 130.195 109.398 130.754 109.452C131.54 109.485 132.337 109.472 133.138 109.474C133.939 109.481 134.743 109.463 135.541 109.434C136.197 109.432 136.856 109.389 137.519 109.335L138.015 109.294L138.511 109.271C138.842 109.257 139.172 109.244 139.502 109.23L139.515 109.288Z" fill="#434141"/>
</g>
<defs>
<clipPath id="clip0_2537_6163">
<rect width="138.773" height="138.773" fill="white" transform="matrix(-0.660655 0.75069 0.75069 0.660655 92.2871 0.606064)"/>
</clipPath>
</defs>
</svg>
