<svg width="157" height="156" viewBox="0 0 157 156" fill="none" xmlns="http://www.w3.org/2000/svg">
<path d="M110.419 53.8102C112.745 55.8908 114.819 58.2103 116.636 60.6984L117.34 61.702C117.574 62.0368 117.815 62.3667 118.03 62.7142C118.469 63.4031 118.938 64.0713 119.357 64.7693C120.04 65.8257 120.66 66.922 121.255 68.0319C121.537 68.5949 121.833 69.1518 122.103 69.7212L122.879 71.4474L119.595 71.8684C119.899 68.8198 120.455 65.8006 121.243 62.8621C122.015 59.9166 123.007 57.0521 124.093 54.2478C125.04 51.8196 126.059 49.4358 127.093 47.0757L127.117 47.0198L127.129 46.9887C127.135 46.9684 127.14 46.9509 127.143 46.9395C127.149 46.92 127.137 46.923 127.14 47.0411C127.144 47.094 127.152 47.2006 127.197 47.329C127.243 47.4766 127.333 47.6475 127.485 47.8235C127.562 47.9032 127.64 47.9841 127.734 48.0441C127.814 48.1054 127.898 48.1494 127.994 48.1909C128.189 48.2751 128.349 48.2962 128.435 48.3016C128.518 48.3068 128.541 48.3009 128.512 48.3044L128.311 48.3271L127.827 48.3823L126.859 48.4922L122.988 48.9149C117.826 49.4626 112.668 49.9575 107.523 50.4839C105.971 50.6429 104.389 50.6684 102.842 50.6931C101.36 50.7157 100.356 50.3528 99.6932 49.8036C98.7271 49.0041 99.4754 47.9465 101.539 47.4885C102.843 47.1987 104.288 47.0435 105.661 46.9548C111.98 46.5405 118.242 45.8881 124.455 44.8944C125.312 44.756 126.185 44.6024 127.053 44.4717C127.271 44.4411 127.488 44.4106 127.704 44.3802L128.046 44.3378C128.201 44.323 128.442 44.2931 128.805 44.3306C128.986 44.3507 129.198 44.3918 129.423 44.4726C129.655 44.5539 129.868 44.6733 130.065 44.8092C130.484 45.1029 130.804 45.5602 130.95 45.9551C131.103 46.3524 131.136 46.7002 131.134 46.9665C131.131 47.2377 131.098 47.4719 131.052 47.6694C130.978 47.9924 130.879 48.2568 130.761 48.5152L130.716 48.6116L130.686 48.6714L130.628 48.7826L130.513 49.0053L130.06 49.8999C129.765 50.4983 129.477 51.1002 129.199 51.7055C128.644 52.9162 128.118 54.1384 127.626 55.3692C126.63 57.8292 125.764 60.3189 124.933 62.8035C124.427 64.3398 123.992 65.9003 123.644 67.4776C123.302 69.0557 123.035 70.6472 122.831 72.2441L122.83 72.2487C122.722 73.0915 121.945 73.6843 121.094 73.5727C120.522 73.4976 120.061 73.1201 119.854 72.6257L119.103 70.8164L118.557 69.6434C118.465 69.4482 118.377 69.2507 118.282 69.0572L117.981 68.4831L117.378 67.3346L116.723 66.2128L116.395 65.6522L116.041 65.1064L115.334 64.014L114.577 62.9543L114.199 62.4239L113.796 61.9121L112.99 60.8867L112.136 59.9006L111.708 59.407L111.259 58.9343L110.356 57.9895L109.41 57.0894L108.936 56.6396C108.774 56.4934 108.606 56.3556 108.441 56.213L107.447 55.3634C107.106 55.0929 106.757 54.8321 106.412 54.5656C104.191 52.8842 102.061 51.3808 100.138 49.7688C99.2577 49.0164 99.5982 48.2586 100.91 48.6171C101.845 48.8469 102.753 49.2078 103.68 49.572C104.139 49.7605 104.58 49.9884 105.032 50.2041L105.705 50.5379C105.925 50.6556 106.138 50.7848 106.355 50.9093C106.71 51.1161 107.062 51.3332 107.412 51.5566C107.761 51.7806 108.087 52.0394 108.423 52.2854C108.753 52.5381 109.094 52.781 109.414 53.046C109.734 53.3123 110.053 53.5785 110.371 53.8438C110.386 53.8329 110.401 53.8226 110.419 53.8102Z" fill="#434141"/>
<path d="M90.3472 75.6036C88.775 76.0285 87.2822 76.5466 85.9365 77.239C84.6009 77.9421 83.4357 78.8401 82.4677 79.9454L82.5632 79.82C81.9904 80.6097 81.5162 81.6186 80.9841 82.7265C80.4487 83.8283 79.84 85.0623 78.8734 86.1914L78.8471 86.222C78.8201 86.2535 78.7906 86.2844 78.7611 86.3124C77.4632 87.5419 75.9383 88.497 74.3638 89.1971C73.373 89.6275 72.3644 89.9696 71.3557 90.2567C70.3462 90.5406 69.3382 90.7573 68.3369 90.9554C66.3352 91.3402 64.3639 91.6146 62.4535 91.9539C60.1886 92.356 57.986 92.831 56.0227 93.6471C55.0436 94.0549 54.1321 94.5503 53.3255 95.1526C52.518 95.7538 51.8174 96.4627 51.2316 97.268L51.344 97.0921C51.0123 97.7087 50.7779 98.3447 50.6507 99.0041C50.5238 99.6638 50.5081 100.352 50.5775 101.071C50.7146 102.51 51.2045 104.052 51.7075 105.694C52.209 107.336 52.7276 109.114 52.8893 111.035C52.9709 111.993 52.9597 112.979 52.8336 113.954C52.7091 114.93 52.4707 115.891 52.1435 116.809C51.8115 117.74 50.7789 118.225 49.8373 117.891C49.6452 117.822 49.4717 117.725 49.32 117.606L49.2898 117.582C47.0609 115.815 44.6701 114.281 42.1558 113.11C40.8982 112.533 39.6101 112.037 38.3072 111.698C37.9816 111.625 37.656 111.537 37.3312 111.473C37.0071 111.417 36.681 111.344 36.3612 111.311C36.0384 111.262 35.7231 111.238 35.4124 111.216C35.2639 111.214 35.1032 111.201 34.9649 111.205L34.7576 111.208L34.672 111.213L34.6336 111.215C34.6354 111.215 34.6373 111.215 34.639 111.214L32.7216 110.24C31.7604 108.519 31.0457 106.706 30.545 104.849C30.0541 102.99 29.7655 101.087 29.6829 99.1698C29.5962 96.829 29.8033 94.4581 30.4269 92.1496L30.5402 91.7166L30.6776 91.2883C30.7726 91.0036 30.8575 90.7162 30.9627 90.4343C31.1831 89.8728 31.3969 89.3092 31.6716 88.7658C31.9169 88.2117 32.2385 87.6885 32.5377 87.1574C32.8776 86.6466 33.2004 86.125 33.5942 85.6477C33.9578 85.1497 34.3913 84.7047 34.8071 84.2467C35.0282 84.0298 35.2578 83.8205 35.4839 83.6083C35.5989 83.5042 35.7082 83.3937 35.8283 83.2955L36.1926 83.0055C37.149 82.2101 38.2259 81.5759 39.3283 81.0258C41.5584 79.9639 43.9586 79.3876 46.3285 79.1764L46.1543 79.1992C47.9404 78.8887 49.6709 78.8221 51.3381 78.7935C53.0059 78.7677 54.6187 78.7885 56.172 78.7236C57.7228 78.6595 59.216 78.5102 60.5798 78.1565C61.9447 77.8057 63.1629 77.2436 64.1877 76.4262L64.0367 76.5592C64.6821 75.9317 65.2074 74.9861 65.7174 73.8325C65.9759 73.2593 66.2342 72.6422 66.5386 71.994C66.6156 71.8316 66.689 71.6738 66.7832 71.4892L66.9185 71.2245L67.0634 70.9868L67.647 70.0382C67.8329 69.7147 68.0666 69.4304 68.2806 69.1298L68.6087 68.6846L68.7732 68.4624L68.9565 68.2508L69.6964 67.4089C69.9485 67.1325 70.2361 66.8824 70.506 66.6196C71.6197 65.6023 72.8833 64.7065 74.2498 64.0527C75.6126 63.3948 77.0359 62.9334 78.4485 62.606C79.8646 62.2722 81.2647 62.097 82.6408 61.9514C85.3952 61.6707 88.0498 61.5945 90.6246 61.3335C92.5125 61.1496 94.3692 60.9172 96.175 60.5415C97.9803 60.1682 99.734 59.6489 101.401 58.9546C104.578 57.6064 106.633 56.5316 108.148 56.0621C109.256 55.7255 109.592 56.0557 109.116 56.9581C108.873 57.4033 108.455 58.0202 107.764 58.676C107.422 59.0074 107.045 59.3881 106.573 59.7357C106.105 60.0887 105.605 60.4943 105.005 60.8431C103.531 61.7954 101.847 62.5832 100.098 63.1994C98.3473 63.8172 96.5259 64.247 94.7566 64.5264C93.222 64.7623 91.6929 64.9164 90.1791 65.0323C88.6641 65.1483 87.171 65.2161 85.6992 65.3083C82.7629 65.4875 79.892 65.7274 77.3532 66.6223C74.82 67.5023 72.6728 69.0851 71.1502 71.3099L70.8546 71.7155C70.7618 71.8538 70.6813 71.9988 70.5937 72.1399C70.4244 72.4233 70.2429 72.7077 70.0812 72.9885C69.951 73.2521 69.8 73.5736 69.6597 73.894L69.228 74.8935C68.9335 75.5786 68.6164 76.3025 68.2062 77.0357C67.8043 77.7669 67.2813 78.5089 66.6263 79.1695C66.5957 79.2003 66.5638 79.2291 66.5308 79.2558L66.5011 79.2797C65.6277 79.9845 64.6522 80.5675 63.636 81.0172C62.6189 81.4698 61.5638 81.776 60.5177 82.002C58.4193 82.4452 56.3597 82.5404 54.3816 82.6057C51.755 82.6872 49.1586 82.7012 46.8752 83.1227C46.8349 83.1302 46.7946 83.136 46.7544 83.1402L46.7013 83.1455C45.0851 83.3095 43.5419 83.6333 42.123 84.1222C41.0352 84.5053 40.0011 85.0122 39.0596 85.6567C38.1232 86.3074 37.2912 87.1015 36.5725 87.9979C35.1322 89.7921 34.1825 92.0194 33.7298 94.3759C33.2667 96.7314 33.242 99.2105 33.6216 101.624C33.997 104.034 34.7441 106.406 35.9051 108.491L34.1941 107.622L34.3311 107.609L34.4284 107.604L34.616 107.595L34.9592 107.592C35.1877 107.591 35.3966 107.607 35.6161 107.614C36.0413 107.646 36.4623 107.685 36.8709 107.75C37.2864 107.8 37.683 107.892 38.0874 107.967C38.4868 108.053 38.8776 108.159 39.2724 108.255C40.833 108.684 42.3127 109.284 43.7319 109.972C46.5118 111.334 49.0677 113.037 51.43 114.952L48.934 115.628C49.4491 114.238 49.6545 112.783 49.5359 111.28C49.4266 109.774 49.0103 108.232 48.5287 106.612C48.0567 104.992 47.496 103.27 47.324 101.333C47.2412 100.37 47.2703 99.3554 47.4752 98.3622C47.6782 97.3691 48.0498 96.4137 48.5314 95.5522L48.5598 95.5015C48.5809 95.4637 48.6076 95.4249 48.6339 95.392L49.2586 94.6186C50.1725 93.5642 51.2682 92.6673 52.4455 91.9618C53.6235 91.2529 54.8741 90.727 56.1281 90.3186C58.6439 89.5064 61.1671 89.124 63.6169 88.739C66.0663 88.3583 68.4708 88.0019 70.7217 87.3454C72.9676 86.6957 75.044 85.7031 76.6273 84.1713L76.5429 84.2623C77.1994 83.5004 77.7078 82.5178 78.2157 81.4464C78.7275 80.3776 79.2453 79.2041 80.0309 78.085L80.0379 78.0751C80.0559 78.0494 80.0762 78.0232 80.0959 77.9996C81.083 76.8263 82.2798 75.8232 83.5757 75.0335C84.8722 74.2395 86.2553 73.6483 87.6442 73.1765C90.4304 72.2398 93.2343 71.724 95.9629 71.1134C99.4389 70.3569 102.726 69.5141 105.737 68.2857C108.757 67.0822 111.464 65.4794 113.9 63.7078C115.005 62.8802 115.668 62.6008 115.804 62.8656C115.869 62.9959 115.797 63.2586 115.569 63.6461C115.455 63.8399 115.302 64.0647 115.108 64.3193C114.914 64.5727 114.659 64.8374 114.369 65.1374C112.714 66.8162 110.791 68.3584 108.656 69.6108L107.854 70.0788L107.03 70.5119C106.483 70.8101 105.913 71.0533 105.351 71.322C104.212 71.8133 103.054 72.2725 101.884 72.6529C98.0405 73.9493 93.9895 74.5265 90.3635 75.5406C90.3587 75.5617 90.3543 75.5813 90.3472 75.6036Z" fill="#434141"/>
</svg>
