<svg width="215" height="57" viewBox="0 0 215 57" fill="none" xmlns="http://www.w3.org/2000/svg">
<path d="M1.257 34.036C0.562776 27.4451 5.34303 21.5393 11.934 20.8451L197.905 1.25686C204.496 0.562644 210.402 5.3429 211.096 11.9339L213.61 35.8018C214.304 42.3928 209.524 48.2986 202.933 48.9928L5.02798 69.838L1.257 34.036Z" fill="#F7F7F7"/>
<path d="M23.4821 36.6986L24.6369 47.662L23.1411 47.8195L22.6383 43.0459L17.3397 43.604L17.8425 48.3776L16.3626 48.5335L15.2079 37.5701L16.6877 37.4143L17.1972 42.2515L22.4959 41.6934L21.9864 36.8562L23.4821 36.6986ZM27.3706 43.0301L31.9851 42.5441C31.6776 41.3055 30.7254 40.6657 29.5161 40.7931C28.2908 40.9221 27.4132 41.7546 27.3706 43.0301ZM33.4758 42.9502C33.4942 43.1252 33.5177 43.348 33.5202 43.5247L27.4896 44.1599C27.797 45.3985 28.8322 46.0617 30.1052 45.9276C30.9962 45.8338 31.7658 45.3505 32.1167 44.5574C32.517 44.6922 32.9919 44.7709 33.4081 44.904C32.9107 46.2917 31.6428 47.0849 30.1948 47.2374C28.0786 47.4603 26.2293 46.0945 25.9813 43.7396C25.7332 41.3846 27.2623 39.7112 29.3786 39.4883C31.4949 39.2654 33.2278 40.5952 33.4758 42.9502ZM37.6374 49.9447L36.1257 50.1039L37.2812 46.1049L33.5464 39.2102L35.0899 39.0476L37.8841 44.1912L39.5453 38.5783L41.0887 38.4158L37.6374 49.9447ZM42.7143 47.785L41.6608 47.5581C42.1892 46.6176 42.5827 45.4661 42.3741 43.9435L43.9016 43.7827C43.9838 45.7851 43.3399 47.1561 42.7143 47.785ZM51.6895 40.6456L55.3174 40.2635L52.9906 35.5855L51.6895 40.6456ZM55.9674 41.5465L51.3211 42.0359L50.5483 44.9327L48.973 45.0987L51.9872 33.6962L53.5784 33.5286L58.8862 44.0545L57.3268 44.2188L55.9674 41.5465ZM62.3297 40.6189L61.2862 40.4875C59.8952 40.264 59.061 39.6761 59.0425 38.2784C59.0558 37.1829 60.0842 36.2541 61.4208 36.1133C62.6778 35.9809 63.9332 36.444 64.2197 37.9422L62.8354 38.088C62.6972 37.5395 62.1578 37.3067 61.585 37.367C61.0281 37.4257 60.611 37.7431 60.5415 38.1527C60.503 38.398 60.5231 38.589 60.6195 38.7397C60.7945 39.027 61.1613 39.1492 61.555 39.2204L62.6814 39.3752C64.2492 39.5962 64.7458 40.4931 64.8347 41.3365C64.9822 42.7367 63.7327 43.7049 62.1892 43.8675C60.8526 44.0083 59.3778 43.2948 59.1692 41.7723L60.4898 41.6332C60.5711 41.9464 60.7989 42.2764 61.1833 42.4129C61.5393 42.5845 61.9295 42.6239 62.3876 42.5434C63.0668 42.4236 63.4579 42.0124 63.4151 41.4538C63.3724 40.8952 62.9001 40.6875 62.3297 40.6189ZM67.6448 39.0777L68.0671 43.0875L66.6191 43.24L65.4107 31.7675L66.8587 31.615L67.4017 36.7704C67.7375 35.8341 68.9225 35.3232 69.7181 35.2394C71.5798 35.0433 72.8671 36.1143 73.0724 38.2164L73.5249 42.5126L72.0769 42.6651L71.6345 38.4644C71.5054 37.2392 70.6947 36.5684 69.6763 36.6757C68.658 36.7829 67.4772 37.4865 67.6448 39.0777ZM76.7533 34.6593L78.3286 34.4933L78.4576 35.7186L76.8823 35.8845L77.536 42.0902L76.088 42.2427L75.4344 36.037L74.0978 36.1778L73.9687 34.9526L75.3053 34.8118L75.0103 32.0113L76.4583 31.8587L76.7533 34.6593ZM83.7312 41.5985C81.6149 41.8214 79.6861 40.464 79.4381 38.109C79.19 35.754 80.7987 34.0723 82.915 33.8494C85.0313 33.6265 86.971 34.9345 87.219 37.2894C87.4671 39.6444 85.8475 41.3756 83.7312 41.5985ZM83.5837 40.1982C84.9044 40.0591 85.9319 38.9695 85.771 37.442C85.6135 35.9462 84.3848 35.1264 83.0642 35.2655C81.7116 35.408 80.7126 36.4624 80.8701 37.9582C81.031 39.4857 82.2312 40.3407 83.5837 40.1982ZM90.2472 36.697L90.6696 40.7068L89.2216 40.8593L88.4389 33.4284L89.8869 33.2759L90.0042 34.3897C90.34 33.4534 91.3818 32.9576 92.1933 32.8721C94.055 32.676 95.1831 33.7638 95.4044 35.8642L95.8569 40.1604L94.4089 40.3129L93.9664 36.1122C93.834 34.8551 93.1381 34.2045 92.1197 34.3117C91.0695 34.4223 90.0813 35.1217 90.2472 36.697ZM102.911 40.4954C103.443 41.2759 104.365 41.6292 105.193 41.5421C106.8 41.3728 107.739 40.3569 107.479 37.8905C107.472 37.8269 107.451 37.7808 107.445 37.7172C107.077 38.6569 106.029 39.2499 104.979 39.3605C102.942 39.575 101.05 38.262 100.802 35.907C100.554 33.552 102.126 31.8259 104.163 31.6113C105.197 31.5024 106.314 31.8675 106.912 32.6572L106.789 31.4956L108.221 31.3448L108.885 37.6459C109.254 41.1465 107.803 42.6507 105.337 42.9105C103.953 43.0563 102.624 42.5045 101.768 41.2592C101.933 41.1453 102.728 40.5951 102.911 40.4954ZM107.166 35.2207C106.998 33.6295 105.76 32.875 104.439 33.0141C103.103 33.1549 102.128 34.2872 102.281 35.7352C102.441 37.2628 103.621 38.0717 104.957 37.9309C106.167 37.8035 107.333 36.8119 107.166 35.2207ZM114.5 38.3577C112.383 38.5806 110.455 37.2232 110.207 34.8682C109.959 32.5132 111.567 30.8315 113.684 30.6085C115.8 30.3856 117.74 31.6937 117.988 34.0486C118.236 36.4036 116.616 38.1348 114.5 38.3577ZM114.352 36.9574C115.673 36.8183 116.7 35.7287 116.54 34.2011C116.382 32.7054 115.153 31.8856 113.833 32.0247C112.48 32.1672 111.481 33.2216 111.639 34.7173C111.8 36.2449 113 37.0999 114.352 36.9574ZM123.396 37.4206C121.28 37.6435 119.351 36.2861 119.103 33.9311C118.855 31.5762 120.464 29.8944 122.58 29.6715C124.696 29.4486 126.636 30.7566 126.884 33.1116C127.132 35.4665 125.512 37.1977 123.396 37.4206ZM123.249 36.0204C124.569 35.8813 125.597 34.7916 125.436 33.2641C125.278 31.7684 124.05 30.9486 122.729 31.0877C121.377 31.2301 120.378 32.2846 120.535 33.7803C120.696 35.3078 121.896 36.1628 123.249 36.0204ZM134.758 36.063L134.637 34.9173C134.231 35.7967 133.2 36.388 132.165 36.497C130.129 36.7115 128.249 35.365 128.001 33.01C127.751 30.6391 129.296 28.9641 131.333 28.7495C132.431 28.6339 133.511 28.9546 134.093 29.7459L133.55 24.5905L134.998 24.4379L136.206 35.9105L134.758 36.063ZM134.348 32.3254C134.181 30.7342 132.835 30.0232 131.626 30.1506C130.289 30.2914 129.325 31.3743 129.479 32.8382C129.633 34.3021 130.807 35.2082 132.143 35.0674C133.464 34.9283 134.514 33.9006 134.348 32.3254ZM150.021 28.213C148.796 28.3421 148.145 29.3438 148.276 30.5849L148.698 34.5947L147.25 34.7472L146.806 30.5306C146.677 29.3053 145.963 28.6404 144.993 28.7427C143.958 28.8516 142.988 29.5652 143.152 31.1246L143.574 35.1344L142.126 35.2869L141.344 27.856L142.792 27.7035L142.909 28.8173C143.204 27.9497 144.231 27.4714 144.831 27.36C145.116 27.3139 145.388 27.3013 145.648 27.3222C146.601 27.3666 147.306 27.7911 147.741 28.5658C148.286 27.173 149.442 26.8421 150.158 26.7667C152.02 26.5706 153.148 27.6584 153.369 29.7588L153.822 34.055L152.374 34.2076L151.931 30.0068C151.802 28.7816 151.103 28.0991 150.021 28.213ZM159.23 33.6462C157.114 33.8691 155.185 32.5117 154.937 30.1567C154.689 27.8018 156.298 26.12 158.414 25.8971C160.531 25.6742 162.47 26.9822 162.718 29.3372C162.966 31.6922 161.347 33.4233 159.23 33.6462ZM159.083 32.246C160.404 32.1069 161.431 31.0172 161.27 29.4897C161.113 27.994 159.884 27.1742 158.563 27.3133C157.211 27.4557 156.212 28.5102 156.369 30.0059C156.53 31.5334 157.73 32.3884 159.083 32.246ZM165.884 30.0495L166.169 32.7545L164.721 32.907L163.938 25.4762L165.386 25.3236L165.562 26.9944C165.805 25.6335 166.467 25.0489 167.438 24.9466C167.963 24.8913 168.535 24.9759 168.757 25.0973L168.677 26.4733C168.259 26.3242 167.854 26.3025 167.552 26.3343C166.12 26.4852 165.676 28.0764 165.884 30.0495ZM171.706 28.117L172.128 32.1268L170.68 32.2793L169.898 24.8484L171.346 24.6959L171.463 25.8098C171.799 24.8734 172.841 24.3776 173.652 24.2921C175.514 24.096 176.642 25.1838 176.863 27.2842L177.316 31.5804L175.868 31.733L175.425 27.5322C175.293 26.2752 174.597 25.6245 173.578 25.7317C172.528 25.8424 171.54 26.5417 171.706 28.117ZM179.978 23.7867L180.76 31.2176L179.328 31.3685L178.545 23.9376L179.978 23.7867ZM177.971 21.2309C177.912 20.674 178.317 20.2452 178.874 20.1865C179.431 20.1278 179.917 20.4628 179.976 21.0197C180.034 21.5766 179.629 22.0054 179.072 22.0641C178.515 22.1228 178.029 21.7878 177.971 21.2309ZM183.889 26.8338L184.312 30.8436L182.864 30.9961L182.081 23.5652L183.529 23.4127L183.646 24.5265C183.982 23.5902 185.024 23.0943 185.835 23.0089C187.697 22.8128 188.825 23.9006 189.046 26.001L189.499 30.2972L188.051 30.4497L187.608 26.2489C187.476 24.9919 186.78 24.3412 185.762 24.4485C184.711 24.5591 183.723 25.2585 183.889 26.8338ZM192.738 31.034C193.27 31.8145 194.192 32.1679 195.02 32.0807C196.627 31.9114 197.566 30.8955 197.306 28.4291C197.299 28.3655 197.278 28.3194 197.271 28.2558C196.904 29.1955 195.856 29.7885 194.806 29.8991C192.769 30.1136 190.877 28.8006 190.629 26.4456C190.381 24.0906 191.953 22.3645 193.99 22.15C195.024 22.041 196.14 22.4061 196.738 23.1958L196.616 22.0342L198.048 21.8834L198.712 28.1845C199.081 31.6851 197.63 33.1894 195.164 33.4491C193.779 33.5949 192.45 33.0431 191.595 31.7979C191.76 31.684 192.555 31.1337 192.738 31.034ZM196.992 25.7593C196.825 24.1681 195.587 23.4136 194.266 23.5527C192.93 23.6935 191.955 24.8258 192.107 26.2738C192.268 27.8014 193.448 28.6103 194.784 28.4695C195.993 28.3421 197.16 27.3505 196.992 25.7593Z" fill="black"/>
</svg>
