<svg width="414" height="129" viewBox="0 0 414 129" fill="none" xmlns="http://www.w3.org/2000/svg">
<g clip-path="url(#clip0_3006_512)">
<g filter="url(#filter0_d_3006_512)">
<path d="M15.5583 42.0086C14.9706 35.016 20.1546 28.8716 27.1371 28.2848L379.032 -1.29035C386.014 -1.87716 392.151 3.31572 392.739 10.3083L397.35 65.1737C397.938 72.1663 392.753 78.3107 385.771 78.8975L33.8765 108.473C26.894 109.06 20.7571 103.867 20.1694 96.874L15.5583 42.0086Z" fill="white"/>
<path d="M27.1816 28.8123L379.076 -0.7628C385.768 -1.32517 391.649 3.65131 392.212 10.3526L396.823 65.218C397.387 71.9193 392.418 77.8076 385.727 78.37L33.8323 107.945C27.1407 108.507 21.2596 103.531 20.6964 96.8297L16.0852 41.9643C15.522 35.263 20.49 29.3747 27.1816 28.8123Z" stroke="#C5C5C5" stroke-opacity="0.2"/>
<path d="M81.0788 64.1284C80.0013 51.3086 68.7504 41.7883 55.9492 42.8642C43.148 43.94 33.6439 55.2047 34.7214 68.0245C35.7988 80.8443 47.0497 90.3646 59.851 89.2887C72.6522 88.2128 82.1562 76.9482 81.0788 64.1284Z" fill="#FFF2F3"/>
<path d="M52.2873 75.0486C51.4094 75.1224 50.6371 74.8773 49.9709 74.3135C49.3046 73.7497 48.9344 73.0281 48.8605 72.1489L47.807 72.2374C47.5085 72.2625 47.2457 72.1872 47.0187 72.0115C46.8079 71.8167 46.6898 71.5698 46.6647 71.2709L45.7779 60.7199C45.7292 60.1396 45.8898 59.6302 46.2596 59.1918C46.6456 58.7343 47.1283 58.4813 47.7077 58.4326L60.3507 57.37C60.9301 57.3213 61.4396 57.491 61.8789 57.8791C62.3343 58.2481 62.5864 58.7228 62.6352 59.3031L62.8125 61.4133L64.9197 61.2362C65.2533 61.2082 65.5761 61.2607 65.8879 61.3939C66.1982 61.5095 66.4611 61.6911 66.6763 61.9386L69.2536 64.83C69.3313 64.912 69.3921 65.0043 69.436 65.1068C69.48 65.2094 69.5072 65.3222 69.5175 65.4453L69.8434 69.3228C69.8685 69.6217 69.7846 69.8856 69.5916 70.1143C69.4148 70.324 69.177 70.4414 68.8785 70.4665L67.8249 70.555C67.8988 71.4343 67.6543 72.2075 67.0915 72.8746C66.5287 73.5417 65.8082 73.9122 64.9302 73.986C64.0523 74.0598 63.2801 73.8147 62.6138 73.2509C61.9475 72.6871 61.5774 71.9655 61.5035 71.0863L55.182 71.6176C55.2559 72.4968 55.0114 73.2701 54.4486 73.9372C53.8857 74.6043 53.1652 74.9748 52.2873 75.0486ZM48.6832 70.0387L49.526 69.9679C49.7979 69.6262 50.1189 69.3424 50.489 69.1166C50.8591 68.8907 51.2811 68.7578 51.7552 68.7179C52.2293 68.6781 52.6677 68.7387 53.0703 68.8996C53.4729 69.0606 53.8367 69.2868 54.1618 69.5782L61.3261 68.9761L60.528 59.4802L47.8851 60.5428L48.6832 70.0387ZM63.2559 66.6888L67.7336 66.3125L65.097 63.3464L62.9899 63.5235L63.2559 66.6888ZM52.1099 72.9384C52.4084 72.9133 52.6462 72.7959 52.8231 72.5862C53.016 72.3575 53.1 72.0936 53.0748 71.7947C53.0497 71.4958 52.9237 71.2584 52.6967 71.0827C52.4858 70.8879 52.2311 70.8031 51.9326 70.8282C51.6341 70.8532 51.3883 70.9802 51.1954 71.2089C51.0185 71.4185 50.9426 71.6729 50.9677 71.9718C50.9928 72.2707 51.1109 72.5176 51.3217 72.7124C51.5487 72.8881 51.8115 72.9634 52.1099 72.9384ZM64.7529 71.8758C65.0513 71.8507 65.2891 71.7333 65.466 71.5236C65.659 71.2949 65.7429 71.031 65.7178 70.7321C65.6926 70.4332 65.5666 70.1958 65.3396 70.0201C65.1288 69.8253 64.874 69.7405 64.5755 69.7656C64.277 69.7907 64.0313 69.9176 63.8383 70.1463C63.6614 70.3559 63.5855 70.6103 63.6106 70.9092C63.6357 71.2081 63.7538 71.455 63.9646 71.6498C64.1916 71.8255 64.4544 71.9009 64.7529 71.8758Z" fill="#F71D3B"/>
<path d="M101.439 44.5961L98.5225 51.6096L98.8241 55.1991L96.7591 55.3726L96.4574 51.7832L92.3968 45.356L94.7273 45.1601L97.3359 49.6863L99.1376 44.7894L101.439 44.5961ZM102.619 50.7298C102.549 49.9026 102.65 49.1554 102.921 48.488C103.201 47.8197 103.607 47.2898 104.139 46.898C104.68 46.5054 105.3 46.2798 105.998 46.2211C106.608 46.1699 107.149 46.2484 107.622 46.4565C108.105 46.6638 108.5 46.943 108.806 47.2942L108.708 46.1272L110.788 45.9524L111.475 54.1358L109.396 54.3106L109.295 53.1141C109.062 53.5205 108.721 53.8715 108.27 54.1672C107.829 54.4522 107.303 54.6204 106.693 54.6716C106.005 54.7295 105.361 54.6051 104.761 54.2985C104.17 53.9911 103.681 53.5314 103.293 52.9194C102.914 52.2967 102.689 51.5668 102.619 50.7298ZM109.052 50.2189C109.01 49.7167 108.876 49.2965 108.649 48.9586C108.422 48.6108 108.133 48.3573 107.783 48.1983C107.432 48.0294 107.065 47.9611 106.682 47.9934C106.298 48.0256 105.952 48.1489 105.643 48.3633C105.334 48.5776 105.092 48.8757 104.916 49.2574C104.749 49.6285 104.687 50.0601 104.728 50.5526C104.769 51.045 104.904 51.4699 105.132 51.8276C105.369 52.1746 105.658 52.433 106 52.6027C106.35 52.7716 106.713 52.8403 107.086 52.8089C107.47 52.7766 107.821 52.6529 108.14 52.4377C108.457 52.2126 108.7 51.9146 108.866 51.5436C109.032 51.1627 109.094 50.7211 109.052 50.2189ZM120.623 45.1258L116.577 57.6045L114.379 57.7892L115.806 53.5636L111.861 45.8622L114.177 45.6676L116.767 51.2068L118.425 45.3105L120.623 45.1258ZM124.212 42.5036L124.575 49.658L122.835 49.8043L121.984 42.6908L124.212 42.5036ZM124.04 53.184C123.667 53.2153 123.347 53.1281 123.082 52.9223C122.826 52.7058 122.684 52.4253 122.655 52.0806C122.626 51.7359 122.72 51.4404 122.937 51.1941C123.163 50.937 123.463 50.7928 123.836 50.7615C124.201 50.7308 124.51 50.8238 124.766 51.0404C125.021 51.247 125.163 51.5226 125.192 51.8673C125.221 52.212 125.127 52.5124 124.911 52.7686C124.694 53.015 124.404 53.1533 124.04 53.184ZM138.282 43.6417L134.236 56.1204L132.038 56.3051L133.465 52.0794L129.52 44.378L131.836 44.1834L134.426 49.7227L136.084 43.8264L138.282 43.6417ZM143.723 51.5594C142.936 51.6256 142.213 51.5128 141.555 51.221C140.897 50.9193 140.358 50.4638 139.94 49.8542C139.533 49.2439 139.293 48.5202 139.223 47.6832C139.153 46.8461 139.273 46.0922 139.583 45.4216C139.903 44.75 140.367 44.2152 140.978 43.8167C141.587 43.4085 142.285 43.1714 143.072 43.1052C143.859 43.0391 144.586 43.1565 145.255 43.4572C145.924 43.7482 146.467 44.1983 146.884 44.8079C147.312 45.4166 147.56 46.1395 147.631 46.9765C147.701 47.8136 147.571 48.5682 147.242 49.2406C146.921 49.9122 146.452 50.4524 145.833 50.8614C145.222 51.2599 144.519 51.4925 143.723 51.5594ZM143.572 49.7573C143.946 49.7259 144.287 49.6079 144.596 49.4034C144.915 49.1883 145.157 48.8902 145.323 48.5093C145.49 48.1284 145.551 47.677 145.507 47.1551C145.441 46.3771 145.185 45.7987 144.737 45.4198C144.298 45.0303 143.784 44.8602 143.194 44.9098C142.604 44.9594 142.125 45.2129 141.757 45.6702C141.399 46.1168 141.252 46.7292 141.318 47.5071C141.383 48.285 141.625 48.8697 142.044 49.2609C142.472 49.6415 142.981 49.8069 143.572 49.7573ZM156.516 42.1092L157.204 50.2925L155.124 50.4673L155.037 49.4333C154.802 49.8102 154.475 50.1202 154.061 50.3633C153.654 50.5959 153.201 50.7331 152.699 50.7753C152.06 50.829 151.483 50.7436 150.969 50.519C150.454 50.2847 150.032 49.9185 149.703 49.4205C149.383 48.9119 149.193 48.2932 149.132 47.5644L148.728 42.7637L150.793 42.5902L151.172 47.0954C151.226 47.7454 151.431 48.234 151.785 48.5612C152.139 48.8787 152.596 49.0138 153.156 48.9667C153.726 48.9188 154.159 48.7088 154.455 48.3368C154.75 47.9551 154.87 47.4392 154.815 46.7892L154.436 42.284L156.516 42.1092ZM160.726 43.0347C160.955 42.5791 161.27 42.2104 161.672 41.9287C162.084 41.6462 162.565 41.4817 163.116 41.4354L163.299 43.6068L162.753 43.6527C162.104 43.7073 161.625 43.9013 161.317 44.2346C161.018 44.5671 160.9 45.1125 160.964 45.8708L161.307 49.9477L159.242 50.1213L158.554 41.9379L160.619 41.7644L160.726 43.0347ZM168.997 40.0784C168.633 40.109 168.319 40.0214 168.054 39.8155C167.798 39.599 167.656 39.3185 167.627 38.9737C167.598 38.629 167.692 38.3336 167.909 38.0873C168.134 37.8303 168.429 37.6865 168.793 37.6559C169.157 37.6253 169.467 37.7183 169.723 37.9348C169.988 38.1407 170.135 38.4158 170.164 38.7605C170.193 39.1052 170.094 39.4061 169.868 39.663C169.651 39.9094 169.361 40.0478 168.997 40.0784ZM170.097 40.9678L170.785 49.1512L168.719 49.3247L168.032 41.1413L170.097 40.9678ZM174.683 42.293L175.016 46.2517C175.039 46.5274 175.121 46.724 175.259 46.8413C175.407 46.9478 175.637 46.988 175.952 46.9615L176.911 46.8809L177.057 48.6239L175.759 48.733C174.019 48.8793 173.078 48.1055 172.935 46.4118L172.604 42.4678L171.63 42.5496L171.487 40.8509L172.461 40.7691L172.291 38.7454L174.371 38.5706L174.541 40.5943L176.37 40.4406L176.512 42.1393L174.683 42.293ZM185.781 43.5917C185.805 43.8871 185.808 44.1547 185.789 44.3943L179.815 44.8964C179.914 45.4831 180.159 45.9286 180.551 46.2328C180.943 46.5371 181.404 46.6669 181.935 46.6223C182.702 46.5578 183.22 46.182 183.49 45.495L185.717 45.3078C185.547 46.1155 185.15 46.8034 184.524 47.3717C183.897 47.9301 183.097 48.2502 182.124 48.332C181.337 48.3982 180.614 48.2854 179.956 47.9935C179.307 47.6911 178.778 47.2347 178.371 46.6244C177.972 46.0132 177.739 45.289 177.668 44.452C177.597 43.6051 177.706 42.8472 177.997 42.1781C178.288 41.5091 178.728 40.9763 179.318 40.5795C179.909 40.1827 180.608 39.9505 181.414 39.8828C182.19 39.8175 182.897 39.9267 183.536 40.2102C184.183 40.4929 184.701 40.9304 185.087 41.5228C185.483 42.1044 185.714 42.794 185.781 43.5917ZM183.592 43.1806C183.538 42.6496 183.311 42.2423 182.91 41.9586C182.509 41.6651 182.038 41.541 181.497 41.5864C180.986 41.6294 180.567 41.8233 180.239 42.1682C179.92 42.5024 179.746 42.9485 179.713 43.5066L183.592 43.1806ZM197.096 38.5796C198.099 38.4953 198.932 38.7377 199.594 39.3069C200.264 39.8654 200.646 40.6961 200.739 41.799L201.142 46.5997L199.077 46.7733L198.697 42.2532C198.644 41.6131 198.44 41.1393 198.088 40.8318C197.734 40.5143 197.277 40.3792 196.717 40.4263C196.156 40.4734 195.724 40.6833 195.418 41.0561C195.122 41.4182 195 41.9193 195.054 42.5594L195.434 47.0795L193.369 47.253L192.989 42.733C192.935 42.0928 192.732 41.619 192.379 41.3115C192.026 40.9941 191.569 40.859 191.008 40.9061C190.438 40.954 190.001 41.1643 189.695 41.5371C189.399 41.8992 189.277 42.4003 189.331 43.0404L189.711 47.5605L187.646 47.734L186.958 39.5506L189.023 39.3771L189.106 40.3668C189.343 39.9998 189.659 39.7005 190.056 39.4688C190.463 39.2362 190.916 39.099 191.418 39.0569C192.057 39.0031 192.639 39.0931 193.163 39.3266C193.687 39.5504 194.108 39.9018 194.425 40.3809C194.651 39.8859 195.003 39.4746 195.48 39.1468C195.968 38.8181 196.506 38.6292 197.096 38.5796ZM206.894 36.8933C206.531 36.9239 206.217 36.8362 205.951 36.6304C205.695 36.4139 205.553 36.1334 205.524 35.7887C205.495 35.444 205.589 35.1485 205.806 34.9022C206.033 34.6451 206.327 34.5013 206.691 34.4708C207.055 34.4402 207.364 34.5332 207.62 34.7497C207.886 34.9555 208.032 35.2307 208.061 35.5754C208.09 35.9201 207.992 36.2209 207.765 36.4779C207.548 36.7243 207.259 36.8627 206.894 36.8933ZM207.994 37.7827L208.682 45.9661L206.617 46.1396L205.929 37.9562L207.994 37.7827ZM213.861 45.6647C213.192 45.7209 212.582 45.6531 212.031 45.4614C211.48 45.2599 211.028 44.9656 210.68 44.5783C210.339 44.1904 210.134 43.7465 210.063 43.2467L212.142 43.0719C212.208 43.3838 212.383 43.6319 212.666 43.8164C212.958 44.0001 213.306 44.075 213.709 44.0411C214.102 44.008 214.4 43.9036 214.604 43.7279C214.816 43.5514 214.913 43.3399 214.892 43.0937C214.87 42.8278 214.715 42.6425 214.43 42.5376C214.153 42.422 213.712 42.3102 213.109 42.2023C212.487 42.1058 211.972 41.9953 211.566 41.8708C211.169 41.7455 210.814 41.5324 210.502 41.2313C210.199 40.9295 210.025 40.5029 209.979 39.9514C209.941 39.4984 210.033 39.0741 210.258 38.6783C210.492 38.2818 210.84 37.955 211.305 37.6978C211.777 37.44 212.343 37.2832 213.003 37.2278C213.977 37.146 214.774 37.3269 215.396 37.7705C216.016 38.2043 216.391 38.8323 216.519 39.6545L214.543 39.8207C214.486 39.4982 214.327 39.2537 214.065 39.0873C213.813 38.9101 213.484 38.8386 213.082 38.8724C212.708 38.9038 212.424 38.9971 212.229 39.1523C212.044 39.3068 211.962 39.5071 211.982 39.7532C212.006 40.0289 212.16 40.2292 212.449 40.3537C212.735 40.4685 213.175 40.5753 213.768 40.6742C214.37 40.7723 214.87 40.8841 215.267 41.0094C215.663 41.1347 216.013 41.3533 216.317 41.6649C216.629 41.966 216.813 42.3869 216.869 42.9276C216.909 43.4003 216.811 43.8349 216.577 44.2314C216.353 44.6272 216.004 44.9541 215.531 45.2119C215.066 45.4593 214.51 45.6101 213.861 45.6647ZM225.915 44.6516C225.128 44.7178 224.405 44.605 223.747 44.3131C223.087 44.0116 222.549 43.556 222.132 42.9464C221.724 42.336 221.485 41.6123 221.415 40.7753C221.344 39.9383 221.464 39.1845 221.774 38.5137C222.093 37.8423 222.559 37.3074 223.169 36.9089C223.778 36.5007 224.476 36.2635 225.263 36.1974C226.049 36.1313 226.778 36.2486 227.447 36.5494C228.114 36.8404 228.657 37.2906 229.076 37.9001C229.502 38.5089 229.752 39.2317 229.822 40.0687C229.893 40.9057 229.763 41.6604 229.433 42.3328C229.113 43.0043 228.644 43.5446 228.025 43.9536C227.414 44.3521 226.711 44.5847 225.915 44.6516ZM225.763 42.8495C226.136 42.8181 226.478 42.7001 226.788 42.4956C227.106 42.2804 227.349 41.9823 227.515 41.6014C227.68 41.2206 227.742 40.7692 227.698 40.2472C227.633 39.4693 227.376 38.8908 226.929 38.5119C226.489 38.1224 225.975 37.9524 225.385 38.002C224.795 38.0516 224.316 38.3051 223.949 38.7624C223.59 39.2091 223.444 39.8214 223.509 40.5993C223.575 41.3772 223.817 41.9619 224.236 42.3531C224.664 42.7336 225.173 42.8991 225.763 42.8495ZM235.511 35.351C236.484 35.2692 237.297 35.5133 237.949 36.0833C238.601 36.6434 238.972 37.475 239.065 38.5779L239.468 43.3786L237.403 43.5522L237.023 39.0321C236.969 38.3822 236.765 37.8985 236.411 37.5811C236.057 37.2538 235.6 37.1138 235.039 37.1609C234.469 37.2088 234.032 37.424 233.727 37.8067C233.431 38.1787 233.311 38.6896 233.365 39.3395L233.745 43.8596L231.68 44.0332L230.992 35.8498L233.057 35.6762L233.143 36.6954C233.389 36.3177 233.715 36.0127 234.121 35.7802C234.536 35.537 235 35.394 235.511 35.351ZM246.806 36.2314L247.139 40.1902C247.162 40.4659 247.243 40.6624 247.381 40.7797C247.529 40.8863 247.761 40.9263 248.075 40.8999L249.034 40.8193L249.18 42.5624L247.882 42.6715C246.142 42.8177 245.2 42.0439 245.058 40.3502L244.726 36.4062L243.753 36.488L243.61 34.7893L244.584 34.7075L244.414 32.6838L246.493 32.509L246.663 34.5327L248.492 34.379L248.635 36.0777L246.806 36.2314ZM254.57 33.7492C255.189 33.6971 255.752 33.7887 256.257 34.0239C256.761 34.2494 257.168 34.6168 257.478 35.1262C257.797 35.6251 257.988 36.2437 258.05 36.9822L258.454 41.783L256.389 41.9565L256.009 37.4365C255.954 36.7865 255.75 36.3029 255.397 35.9854C255.042 35.6582 254.585 35.5181 254.024 35.5652C253.454 35.6132 253.016 35.8285 252.712 36.2111C252.417 36.583 252.296 37.094 252.351 37.7439L252.731 42.264L250.666 42.4375L249.747 31.5066L251.812 31.3331L252.129 35.0998C252.364 34.723 252.695 34.4175 253.121 34.1833C253.546 33.9394 254.029 33.7946 254.57 33.7492ZM267.655 36.7105C267.68 37.006 267.682 37.2735 267.663 37.5131L261.689 38.0152C261.787 38.602 262.033 39.0475 262.426 39.3517C262.817 39.6559 263.279 39.7857 263.81 39.7411C264.577 39.6766 265.095 39.3008 265.364 38.6138L267.591 38.4266C267.422 39.2343 267.023 39.9223 266.398 40.4905C265.771 41.0489 264.972 41.369 263.998 41.4509C263.211 41.517 262.489 41.4042 261.831 41.1124C261.182 40.8099 260.653 40.3536 260.245 39.7432C259.847 39.132 259.613 38.4079 259.543 37.5709C259.472 36.7239 259.581 35.9661 259.871 35.297C260.161 34.628 260.602 34.0951 261.193 33.6983C261.783 33.3016 262.481 33.0694 263.288 33.0016C264.065 32.9363 264.772 33.0455 265.41 33.329C266.058 33.6117 266.574 34.0494 266.961 34.6416C267.356 35.2233 267.588 35.9129 267.655 36.7105ZM265.467 36.2994C265.411 35.7685 265.184 35.3612 264.785 35.0774C264.383 34.7839 263.912 34.6598 263.372 34.7053C262.86 34.7483 262.441 34.9421 262.114 35.287C261.795 35.6212 261.619 36.0674 261.587 36.6255L265.467 36.2994ZM282.486 31.403C283.489 31.3187 284.322 31.5611 284.983 32.1303C285.654 32.6888 286.035 33.5195 286.128 34.6224L286.532 39.4232L284.467 39.5967L284.087 35.0766C284.033 34.4365 283.83 33.9627 283.477 33.6552C283.124 33.3378 282.667 33.2026 282.106 33.2498C281.546 33.2969 281.113 33.5067 280.807 33.8796C280.511 34.2416 280.39 34.7427 280.443 35.3828L280.823 39.9029L278.758 40.0765L278.378 35.5564C278.325 34.9163 278.121 34.4424 277.769 34.1349C277.415 33.8175 276.958 33.6824 276.398 33.7295C275.828 33.7774 275.39 33.9877 275.084 34.3606C274.788 34.7226 274.667 35.2237 274.72 35.8638L275.1 40.3839L273.035 40.5575L272.347 32.3741L274.412 32.2005L274.496 33.1902C274.732 32.8232 275.049 32.5239 275.445 32.2922C275.852 32.0597 276.305 31.9224 276.807 31.8803C277.446 31.8265 278.028 31.9165 278.553 32.1501C279.076 32.3738 279.497 32.7252 279.815 33.2043C280.04 32.7093 280.392 32.298 280.87 31.9702C281.358 31.6416 281.896 31.4526 282.486 31.403ZM292.131 39.0864C291.345 39.1525 290.622 39.0397 289.963 38.748C289.305 38.4463 288.767 37.9907 288.348 37.3812C287.94 36.7709 287.701 36.0472 287.631 35.2102C287.561 34.3731 287.681 33.6192 287.991 32.9486C288.311 32.277 288.776 31.7421 289.386 31.3437C289.995 30.9355 290.694 30.6983 291.48 30.6322C292.267 30.5661 292.995 30.6834 293.663 30.9842C294.332 31.2752 294.875 31.7253 295.292 32.3349C295.72 32.9436 295.968 33.6665 296.039 34.5035C296.109 35.3406 295.979 36.0952 295.65 36.7676C295.33 37.4391 294.86 37.9794 294.241 38.3884C293.631 38.7868 292.927 39.0195 292.131 39.0864ZM291.979 37.2843C292.353 37.2529 292.695 37.1349 293.004 36.9304C293.324 36.7152 293.566 36.4171 293.731 36.0363C293.898 35.6554 293.958 35.204 293.915 34.6821C293.849 33.9041 293.593 33.3257 293.145 32.9468C292.707 32.5572 292.192 32.3872 291.602 32.4368C291.012 32.4864 290.533 32.7399 290.165 33.1972C289.807 33.6438 289.66 34.2562 289.726 35.0341C289.791 35.812 290.033 36.3967 290.452 36.7879C290.881 37.1684 291.389 37.3339 291.979 37.2843ZM301.145 36.276L302.682 29.8246L304.88 29.6399L302.544 38.0774L300.036 38.2881L296.34 30.3577L298.552 30.1717L301.145 36.276ZM313.965 32.8184C313.99 33.1138 313.992 33.3814 313.973 33.621L307.999 34.1231C308.099 34.7098 308.344 35.1553 308.736 35.4595C309.127 35.7638 309.589 35.8936 310.12 35.8489C310.887 35.7845 311.405 35.4087 311.674 34.7217L313.901 34.5345C313.732 35.3421 313.334 36.0301 312.708 36.5983C312.081 37.1568 311.282 37.4769 310.308 37.5587C309.521 37.6249 308.799 37.5121 308.141 37.2202C307.492 36.9178 306.963 36.4614 306.555 35.851C306.157 35.2399 305.923 34.5157 305.853 33.6787C305.781 32.8318 305.891 32.0739 306.181 31.4048C306.472 30.7357 306.912 30.203 307.503 29.8062C308.093 29.4094 308.792 29.1772 309.598 29.1094C310.375 29.0442 311.082 29.1534 311.72 29.4369C312.368 29.7196 312.885 30.1571 313.271 30.7495C313.667 31.3311 313.898 32.0207 313.965 32.8184ZM311.777 32.4073C311.722 31.8763 311.495 31.469 311.095 31.1853C310.693 30.8917 310.222 30.7677 309.682 30.8131C309.171 30.8561 308.751 31.05 308.424 31.3949C308.105 31.7291 307.93 32.1752 307.897 32.7333L311.777 32.4073Z" fill="#1B1B1B"/>
<path d="M96.9335 71.5917L97.2228 75.0334L100.969 74.7186L101.062 75.8264L97.3159 76.1413L97.6138 79.6865L101.803 79.3344L101.896 80.4422L96.3647 80.9071L95.4981 70.5966L101.029 70.1318L101.123 71.2396L96.9335 71.5917ZM106.8 80.164C106.18 80.2161 105.616 80.1594 105.107 79.9939C104.597 79.8186 104.184 79.5558 103.867 79.2055C103.55 78.8454 103.355 78.4205 103.285 77.9305L104.671 77.814C104.744 78.2145 104.959 78.5286 105.315 78.7566C105.68 78.9837 106.139 79.0741 106.689 79.0278C107.201 78.9848 107.594 78.8378 107.87 78.5864C108.146 78.3351 108.27 78.0372 108.241 77.6925C108.211 77.338 108.032 77.0903 107.703 76.9493C107.373 76.7985 106.872 76.6671 106.199 76.555C105.586 76.4479 105.081 76.3316 104.684 76.2063C104.297 76.0702 103.952 75.8563 103.65 75.5643C103.357 75.2617 103.189 74.8494 103.145 74.3274C103.11 73.9138 103.201 73.5244 103.418 73.159C103.635 72.7937 103.962 72.4936 104.397 72.2586C104.832 72.0138 105.34 71.867 105.92 71.8182C106.815 71.743 107.557 71.9088 108.145 72.3155C108.734 72.7222 109.081 73.3178 109.187 74.1023L107.844 74.2151C107.779 73.7942 107.579 73.4689 107.243 73.2393C106.916 73.0088 106.493 72.9155 105.971 72.9593C105.49 72.9998 105.115 73.1355 104.847 73.3662C104.579 73.597 104.459 73.8798 104.487 74.2146C104.51 74.4805 104.612 74.695 104.794 74.8583C104.985 75.0108 105.213 75.1304 105.478 75.2173C105.752 75.2934 106.125 75.3762 106.598 75.4653C107.191 75.5741 107.677 75.6921 108.054 75.819C108.43 75.9361 108.759 76.1366 109.04 76.4204C109.331 76.7033 109.502 77.0906 109.553 77.5822C109.591 78.0253 109.501 78.4345 109.285 78.8096C109.069 79.1848 108.744 79.4948 108.309 79.7396C107.883 79.9738 107.38 80.1152 106.8 80.164ZM112.683 72.4994L113.084 77.2706C113.117 77.6644 113.225 77.938 113.406 78.0915C113.586 78.2349 113.883 78.2894 114.296 78.2547L115.284 78.1716L115.38 79.309L114.17 79.4107C113.423 79.4734 112.848 79.3482 112.445 79.035C112.043 78.7216 111.808 78.1712 111.742 77.3834L111.341 72.6122L110.294 72.7002L110.201 71.5923L111.248 71.5043L111.076 69.4659L112.419 69.3531L112.59 71.3915L114.699 71.2142L114.792 72.3221L112.683 72.4994ZM116.909 69.7046C116.653 69.7261 116.429 69.6556 116.237 69.4933C116.046 69.3309 115.939 69.1217 115.917 68.8656C115.896 68.6096 115.966 68.3855 116.128 68.1934C116.29 68.0012 116.499 67.8945 116.755 67.8729C117 67.8523 117.214 67.9236 117.397 68.0868C117.589 68.2491 117.695 68.4583 117.717 68.7144C117.738 68.9705 117.668 69.1945 117.506 69.3867C117.353 69.578 117.154 69.684 116.909 69.7046ZM117.668 70.9647L118.349 79.0595L117.006 79.1723L116.326 71.0775L117.668 70.9647ZM129.664 69.8078C130.292 69.755 130.864 69.8408 131.379 70.0653C131.892 70.28 132.312 70.6364 132.642 71.1343C132.971 71.6323 133.167 72.2555 133.23 73.0039L133.631 77.7751L132.303 77.8866L131.918 73.3075C131.851 72.5 131.598 71.9014 131.158 71.5119C130.729 71.1116 130.175 70.94 129.496 70.9971C128.798 71.0558 128.261 71.329 127.886 71.8166C127.511 72.2945 127.358 72.9568 127.43 73.8038L127.804 78.2648L126.477 78.3763L126.092 73.7972C126.024 72.9897 125.771 72.3911 125.332 72.0016C124.903 71.6013 124.348 71.4297 123.67 71.4867C122.971 71.5455 122.435 71.8187 122.06 72.3063C121.684 72.7842 121.532 73.4465 121.603 74.2934L121.978 78.7544L120.636 78.8672L119.956 70.7725L121.298 70.6597L121.396 71.8266C121.626 71.3809 121.953 71.0262 122.376 70.7624C122.809 70.4979 123.297 70.3429 123.837 70.2975C124.516 70.2405 125.128 70.3428 125.675 70.6042C126.222 70.8656 126.648 71.2811 126.953 71.8504C127.132 71.2603 127.468 70.7858 127.963 70.4268C128.458 70.0678 129.024 69.8616 129.664 69.8078ZM134.989 73.5552C134.919 72.728 135.026 71.9902 135.308 71.3417C135.589 70.6834 136.005 70.1575 136.556 69.764C137.117 69.3697 137.757 69.1424 138.475 69.0821C139.183 69.0226 139.81 69.1237 140.357 69.3851C140.904 69.6465 141.324 69.998 141.619 70.4393L141.495 68.9622L142.852 68.8481L143.532 76.9429L142.175 77.057L142.049 75.5503C141.823 76.0453 141.458 76.4726 140.953 76.8324C140.457 77.1815 139.861 77.3853 139.163 77.444C138.445 77.5043 137.781 77.3816 137.171 77.0759C136.561 76.7702 136.062 76.3113 135.674 75.6993C135.286 75.0872 135.057 74.3726 134.989 73.5552ZM141.834 72.9948C141.783 72.3842 141.615 71.8628 141.331 71.4305C141.047 70.9982 140.683 70.6816 140.241 70.4808C139.807 70.2693 139.34 70.1846 138.838 70.2268C138.337 70.2689 137.89 70.4255 137.496 70.6966C137.103 70.9676 136.802 71.3401 136.595 71.8136C136.388 72.2872 136.309 72.8294 136.36 73.44C136.412 74.0604 136.581 74.5916 136.866 75.0338C137.149 75.4661 137.508 75.7881 137.942 75.9995C138.375 76.2012 138.842 76.2809 139.344 76.2388C139.845 76.1966 140.292 76.04 140.686 75.769C141.087 75.4873 141.393 75.1095 141.6 74.6359C141.807 74.1524 141.885 73.6054 141.834 72.9948ZM146.851 69.6278L147.252 74.3989C147.285 74.7928 147.392 75.0665 147.573 75.2198C147.754 75.3633 148.05 75.4177 148.463 75.383L149.452 75.3L149.547 76.4374L148.338 76.539C147.591 76.6018 147.016 76.4766 146.613 76.1634C146.21 75.8501 145.976 75.2996 145.909 74.5117L145.508 69.7406L144.461 69.8286L144.368 68.7207L145.415 68.6327L145.244 66.5942L146.586 66.4814L146.758 68.5199L148.867 68.3426L148.96 69.4505L146.851 69.6278ZM158.182 71.3233C158.203 71.5794 158.211 71.8514 158.206 72.1395L151.745 72.6825C151.862 73.476 152.185 74.0786 152.714 74.4903C153.253 74.8912 153.876 75.062 154.584 75.0025C155.165 74.9537 155.635 74.7803 155.996 74.4822C156.367 74.1734 156.611 73.7858 156.73 73.3197L158.176 73.1982C158.025 73.9943 157.646 74.6658 157.038 75.2128C156.429 75.7498 155.644 76.0589 154.68 76.1399C153.913 76.2044 153.21 76.0899 152.571 75.7964C151.943 75.5021 151.43 75.0543 151.032 74.4531C150.635 73.8418 150.4 73.1178 150.33 72.2808C150.26 71.4437 150.365 70.6959 150.646 70.0377C150.928 69.3793 151.355 68.8575 151.926 68.4723C152.507 68.0763 153.191 67.8453 153.977 67.7792C154.744 67.7148 155.437 67.8252 156.055 68.1104C156.673 68.3956 157.165 68.8204 157.529 69.3849C157.902 69.9386 158.12 70.5848 158.182 71.3233ZM156.772 71.1592C156.728 70.6472 156.579 70.2184 156.322 69.8731C156.065 69.5178 155.732 69.2631 155.322 69.1092C154.922 68.9444 154.486 68.8819 154.014 68.9216C153.335 68.9786 152.774 69.2439 152.328 69.7178C151.892 70.1908 151.673 70.8142 151.668 71.5881L156.772 71.1592ZM159.476 71.4972C159.406 70.67 159.513 69.9321 159.795 69.2836C160.076 68.6254 160.492 68.0995 161.044 67.706C161.605 67.3117 162.249 67.0841 162.977 67.0229C163.606 66.97 164.204 67.0685 164.769 67.3185C165.334 67.5587 165.779 67.9031 166.104 68.3518L165.744 64.068L167.101 63.954L168.02 74.8849L166.663 74.9989L166.535 73.4775C166.31 73.9823 165.95 74.4141 165.455 74.7731C164.959 75.1222 164.363 75.326 163.665 75.3847C162.947 75.4451 162.278 75.3228 161.658 75.0179C161.048 74.7121 160.549 74.2533 160.161 73.6412C159.773 73.0292 159.545 72.3146 159.476 71.4972ZM166.321 70.9368C166.27 70.3262 166.102 69.8048 165.818 69.3724C165.535 68.9401 165.171 68.6236 164.728 68.4227C164.295 68.2113 163.827 68.1266 163.326 68.1687C162.824 68.2109 162.377 68.3675 161.984 68.6385C161.59 68.9096 161.29 69.282 161.082 69.7556C160.875 70.2292 160.796 70.7713 160.848 71.3819C160.9 72.0023 161.069 72.5335 161.353 72.9758C161.636 73.4081 161.996 73.73 162.429 73.9415C162.862 74.1431 163.329 74.2229 163.831 74.1807C164.332 74.1386 164.78 73.982 165.173 73.7109C165.575 73.4292 165.88 73.0514 166.088 72.5778C166.294 72.0943 166.372 71.5474 166.321 70.9368ZM176.555 63.799C177.676 63.7048 178.663 63.8351 179.514 64.19C180.375 64.5342 181.055 65.077 181.553 65.8187C182.061 66.5594 182.359 67.4566 182.447 68.5104C182.536 69.5641 182.392 70.4985 182.014 71.3136C181.647 72.1181 181.067 72.7619 180.275 73.2449C179.494 73.7172 178.542 74.0005 177.421 74.0947L174.22 74.3638L173.355 64.0681L176.555 63.799ZM177.327 72.9869C178.655 72.8753 179.639 72.4406 180.278 71.6827C180.917 70.915 181.182 69.896 181.076 68.6257C180.968 67.3455 180.53 66.3757 179.762 65.7163C179.004 65.0561 177.965 64.7814 176.647 64.8921L174.789 65.0483L175.469 73.1431L177.327 72.9869ZM191.658 68.5098C191.679 68.7659 191.687 69.0379 191.682 69.3259L185.221 69.8689C185.338 70.6624 185.66 71.2651 186.19 71.6767C186.729 72.0777 187.353 72.2485 188.061 72.189C188.641 72.1402 189.111 71.9668 189.473 71.6686C189.842 71.3599 190.088 70.9723 190.207 70.5061L191.652 70.3846C191.502 71.1807 191.122 71.8523 190.514 72.3992C189.906 72.9363 189.12 73.2453 188.156 73.3264C187.389 73.3908 186.687 73.2763 186.048 72.9829C185.419 72.6886 184.906 72.2408 184.509 71.6395C184.11 71.0284 183.877 70.3042 183.806 69.4672C183.736 68.6302 183.842 67.8824 184.123 67.2241C184.404 66.5658 184.831 66.0439 185.402 65.6588C185.983 65.2628 186.666 65.0319 187.453 64.9657C188.22 64.9013 188.913 65.0117 189.531 65.2969C190.149 65.5821 190.64 66.007 191.005 66.5713C191.378 67.1251 191.596 67.7712 191.658 68.5098ZM190.248 68.3457C190.205 67.8336 190.055 67.4048 189.798 67.0595C189.54 66.7043 189.207 66.4497 188.798 66.2957C188.398 66.1309 187.962 66.0684 187.49 66.1081C186.812 66.1651 186.249 66.4305 185.804 66.9043C185.369 67.3773 185.148 68.0007 185.144 68.7746L190.248 68.3457ZM194.22 61.6748L195.139 72.6056L193.796 72.7184L192.878 61.7876L194.22 61.6748ZM197.328 62.9457C197.072 62.9672 196.849 62.8968 196.657 62.7344C196.465 62.572 196.358 62.3628 196.337 62.1067C196.315 61.8507 196.386 61.6266 196.548 61.4345C196.71 61.2424 196.918 61.1356 197.174 61.1141C197.42 61.0934 197.634 61.1647 197.816 61.3279C198.008 61.4903 198.115 61.6994 198.136 61.9555C198.158 62.2116 198.088 62.4356 197.925 62.6278C197.773 62.8191 197.574 62.9251 197.328 62.9457ZM198.088 64.2058L198.768 72.3006L197.426 72.4134L196.746 64.3186L198.088 64.2058ZM203.96 70.6146L205.892 63.5499L207.322 63.4297L204.832 71.791L203.268 71.9224L199.416 64.0942L200.862 63.9727L203.96 70.6146ZM216.333 66.436C216.354 66.6921 216.362 66.9641 216.357 67.2521L209.896 67.7951C210.013 68.5886 210.335 69.1913 210.865 69.6029C211.404 70.0039 212.027 70.1747 212.735 70.1152C213.316 70.0664 213.786 69.893 214.147 69.5948C214.517 69.2861 214.763 68.8985 214.881 68.4323L216.327 68.3108C216.176 69.1069 215.797 69.7785 215.189 70.3254C214.581 70.8625 213.795 71.1715 212.831 71.2526C212.064 71.317 211.361 71.2025 210.722 70.9091C210.094 70.6148 209.581 70.167 209.184 69.5657C208.785 68.9546 208.551 68.2304 208.481 67.3934C208.411 66.5564 208.517 65.8086 208.798 65.1503C209.079 64.492 209.506 63.9701 210.077 63.585C210.658 63.189 211.341 62.9581 212.128 62.8919C212.895 62.8275 213.588 62.9379 214.206 63.2231C214.824 63.5083 215.315 63.9332 215.68 64.4975C216.053 65.0513 216.271 65.6974 216.333 66.436ZM214.923 66.2719C214.88 65.7598 214.73 65.331 214.473 64.9857C214.215 64.6305 213.882 64.3759 213.473 64.2219C213.073 64.0571 212.637 63.9946 212.165 64.0343C211.486 64.0913 210.924 64.3567 210.479 64.8305C210.043 65.3035 209.823 65.9269 209.819 66.7008L214.923 66.2719ZM219.242 63.7518C219.44 63.2691 219.744 62.8816 220.155 62.5892C220.576 62.2959 221.101 62.1229 221.73 62.07L221.847 63.4585L221.493 63.4883C219.989 63.6147 219.305 64.4954 219.442 66.13L219.812 70.5319L218.47 70.6447L217.79 62.55L219.132 62.4372L219.242 63.7518ZM230.255 61.5024L226.388 73.8172L225.001 73.9338L226.266 69.9002L222.334 62.1681L223.824 62.0429L226.912 68.3882L228.868 61.6189L230.255 61.5024ZM237.005 62.4523C237.241 61.9466 237.61 61.5188 238.115 61.169C238.621 60.8191 239.213 60.6156 239.891 60.5586C240.619 60.4974 241.288 60.6147 241.896 60.9107C242.506 61.2066 243.004 61.6556 243.391 62.2578C243.778 62.85 244.005 63.5598 244.075 64.387C244.144 65.2044 244.038 65.9471 243.757 66.6154C243.477 67.2836 243.056 67.8197 242.496 68.2238C241.946 68.627 241.312 68.8588 240.594 68.9192C239.896 68.9778 239.268 68.8769 238.711 68.6163C238.165 68.3548 237.739 67.9989 237.433 67.5485L237.559 69.0404L236.216 69.1532L235.298 58.2223L236.64 58.1095L237.005 62.4523ZM242.703 64.5023C242.652 63.8917 242.485 63.3702 242.2 62.938C241.917 62.5057 241.554 62.1891 241.11 61.9883C240.678 61.7867 240.21 61.7069 239.709 61.7491C239.218 61.7903 238.771 61.9519 238.368 62.2337C237.975 62.5047 237.67 62.8823 237.453 63.3667C237.246 63.8403 237.167 64.3776 237.217 64.9783C237.269 65.5889 237.437 66.1151 237.721 66.5574C238.016 66.9888 238.379 67.3104 238.813 67.5218C239.256 67.7226 239.723 67.8023 240.214 67.7611C240.716 67.7189 241.163 67.5623 241.556 67.2913C241.959 67.0095 242.264 66.6318 242.471 66.1582C242.679 65.6746 242.755 65.1227 242.703 64.5023ZM252.466 59.6356L248.599 71.9505L247.213 72.067L248.478 68.0334L244.545 60.3013L246.035 60.1761L249.123 66.5214L251.08 59.7521L252.466 59.6356Z" fill="#949191"/>
</g>
</g>
<defs>
<filter id="filter0_d_3006_512" x="2.91269" y="-9.93557" width="407.083" height="135.053" filterUnits="userSpaceOnUse" color-interpolation-filters="sRGB">
<feFlood flood-opacity="0" result="BackgroundImageFix"/>
<feColorMatrix in="SourceAlpha" type="matrix" values="0 0 0 0 0 0 0 0 0 0 0 0 0 0 0 0 0 0 127 0" result="hardAlpha"/>
<feOffset dy="4"/>
<feGaussianBlur stdDeviation="6.3"/>
<feComposite in2="hardAlpha" operator="out"/>
<feColorMatrix type="matrix" values="0 0 0 0 0 0 0 0 0 0 0 0 0 0 0 0 0 0 0.03 0"/>
<feBlend mode="normal" in2="BackgroundImageFix" result="effect1_dropShadow_3006_512"/>
<feBlend mode="normal" in="SourceGraphic" in2="effect1_dropShadow_3006_512" result="shape"/>
</filter>
<clipPath id="clip0_3006_512">
<rect width="406" height="108" fill="white" transform="translate(0 21.0025) rotate(-4.80415)"/>
</clipPath>
</defs>
</svg>
