<svg width="532" height="388" viewBox="0 0 532 388" fill="none" xmlns="http://www.w3.org/2000/svg">
<g filter="url(#filter0_d_3006_486)">
<path d="M104.822 72.6706C105.555 65.9682 111.563 61.1271 118.241 61.8577L454.8 98.6758C461.477 99.4063 466.297 105.432 465.564 112.134L427.064 464.071C426.33 470.773 420.322 475.614 413.644 474.884L77.0857 438.066C70.4076 437.335 65.5882 431.309 66.3214 424.607L104.822 72.6706Z" fill="white"/>
<path d="M118.186 62.3633L454.744 99.1814C461.144 99.8815 465.763 105.656 465.06 112.079L426.56 464.016C425.857 470.438 420.099 475.078 413.699 474.378L77.1408 437.56C70.7408 436.86 66.1223 431.085 66.825 424.662L105.325 72.7257C106.028 66.3026 111.786 61.6632 118.186 62.3633Z" stroke="#C5C5C5" stroke-opacity="0.2"/>
<path d="M440.938 113.534L128.563 79.3615C124.111 78.8744 120.106 82.1018 119.617 86.5701L116.962 110.842C116.473 115.31 119.686 119.327 124.138 119.814L436.512 153.986C440.965 154.473 444.97 151.246 445.459 146.778L448.114 122.506C448.603 118.038 445.39 114.021 440.938 113.534Z" fill="#F7F7F7"/>
<path d="M132.069 103.398L135.019 103.721L134.921 104.619L130.87 104.176L131.795 95.7171L132.896 95.8375L132.069 103.398ZM136.045 101.352C136.119 100.673 136.321 100.093 136.651 99.6133C136.982 99.1255 137.4 98.766 137.907 98.5349C138.422 98.3046 138.973 98.2217 139.562 98.2861C140.142 98.3496 140.632 98.5301 141.032 98.8276C141.432 99.1252 141.716 99.4755 141.884 99.8787L142.017 98.6651L143.129 98.7868L142.401 105.437L141.289 105.316L141.424 104.078C141.164 104.442 140.802 104.73 140.339 104.941C139.884 105.145 139.371 105.216 138.798 105.154C138.21 105.089 137.694 104.885 137.25 104.542C136.806 104.199 136.476 103.749 136.259 103.193C136.043 102.637 135.971 102.024 136.045 101.352ZM141.654 101.978C141.709 101.477 141.656 101.029 141.495 100.634C141.334 100.24 141.091 99.9271 140.766 99.695C140.449 99.4557 140.086 99.3136 139.675 99.2686C139.263 99.2236 138.878 99.2797 138.518 99.4368C138.158 99.594 137.857 99.8476 137.615 100.198C137.373 100.548 137.224 100.974 137.169 101.475C137.114 101.985 137.166 102.441 137.326 102.843C137.486 103.237 137.725 103.554 138.041 103.794C138.359 104.025 138.723 104.163 139.134 104.208C139.545 104.253 139.931 104.197 140.291 104.04C140.659 103.875 140.965 103.618 141.207 103.268C141.45 102.91 141.599 102.48 141.654 101.978ZM146.595 106.006C146.087 105.951 145.641 105.816 145.256 105.602C144.873 105.38 144.581 105.103 144.381 104.77C144.182 104.428 144.092 104.054 144.112 103.647L145.249 103.771C145.245 104.107 145.368 104.394 145.619 104.635C145.878 104.876 146.234 105.021 146.685 105.071C147.104 105.117 147.445 105.06 147.707 104.9C147.969 104.74 148.116 104.519 148.147 104.236C148.179 103.945 148.073 103.716 147.83 103.55C147.588 103.376 147.205 103.191 146.68 102.995C146.202 102.811 145.813 102.638 145.513 102.474C145.222 102.303 144.977 102.076 144.78 101.792C144.591 101.501 144.521 101.141 144.568 100.713C144.605 100.373 144.74 100.072 144.972 99.8113C145.205 99.5502 145.515 99.359 145.904 99.2377C146.293 99.1084 146.726 99.0698 147.201 99.1218C147.935 99.202 148.507 99.4529 148.918 99.8745C149.328 100.296 149.514 100.832 149.476 101.483L148.376 101.363C148.389 101.012 148.279 100.717 148.044 100.479C147.817 100.241 147.49 100.099 147.063 100.052C146.668 100.009 146.344 100.06 146.092 100.204C145.839 100.348 145.698 100.558 145.668 100.833C145.644 101.051 145.693 101.241 145.814 101.402C145.944 101.555 146.109 101.688 146.309 101.8C146.517 101.904 146.806 102.03 147.173 102.177C147.634 102.358 148.007 102.53 148.291 102.692C148.576 102.846 148.81 103.06 148.992 103.334C149.182 103.608 149.259 103.948 149.223 104.354C149.183 104.718 149.047 105.034 148.813 105.304C148.58 105.573 148.268 105.772 147.879 105.901C147.499 106.023 147.071 106.059 146.595 106.006ZM152.549 100.738L152.12 104.658C152.084 104.982 152.128 105.22 152.25 105.372C152.373 105.517 152.603 105.608 152.942 105.645L153.752 105.733L153.65 106.668L152.658 106.559C152.046 106.492 151.602 106.3 151.326 105.984C151.051 105.667 150.949 105.185 151.02 104.538L151.448 100.618L150.59 100.524L150.689 99.6139L151.548 99.7078L151.731 98.0331L152.831 98.1535L152.648 99.8282L154.377 100.017L154.278 100.928L152.549 100.738ZM160.208 98.8254L159.623 104.177C159.541 104.93 159.661 105.508 159.984 105.911C160.315 106.316 160.807 106.554 161.46 106.626C162.105 106.696 162.628 106.569 163.031 106.245C163.442 105.921 163.688 105.383 163.77 104.631L164.356 99.2791L165.456 99.3995L164.872 104.739C164.795 105.443 164.589 106.022 164.254 106.477C163.919 106.923 163.497 107.237 162.988 107.419C162.487 107.602 161.938 107.66 161.341 107.595C160.745 107.53 160.218 107.353 159.76 107.066C159.31 106.779 158.97 106.382 158.74 105.874C158.519 105.358 158.447 104.749 158.524 104.045L159.108 98.705L160.208 98.8254ZM168.06 102.755C168.32 102.398 168.677 102.118 169.131 101.914C169.595 101.703 170.113 101.628 170.685 101.691C171.274 101.755 171.79 101.955 172.235 102.29C172.688 102.626 173.023 103.068 173.24 103.616C173.458 104.156 173.53 104.765 173.456 105.445C173.383 106.116 173.18 106.7 172.848 107.196C172.517 107.692 172.093 108.059 171.578 108.297C171.07 108.537 170.522 108.624 169.934 108.56C169.37 108.498 168.883 108.318 168.476 108.019C168.077 107.714 167.785 107.359 167.601 106.954L167.122 111.335L166.021 111.214L167.094 101.409L168.194 101.529L168.06 102.755ZM172.332 105.322C172.386 104.82 172.333 104.372 172.173 103.978C172.012 103.584 171.769 103.271 171.443 103.039C171.126 102.807 170.762 102.669 170.351 102.624C169.948 102.58 169.562 102.64 169.193 102.805C168.833 102.962 168.528 103.219 168.276 103.576C168.034 103.927 167.886 104.348 167.832 104.842C167.777 105.344 167.83 105.796 167.99 106.198C168.158 106.593 168.401 106.91 168.718 107.149C169.043 107.381 169.407 107.52 169.81 107.564C170.221 107.609 170.607 107.553 170.967 107.395C171.335 107.231 171.641 106.974 171.883 106.624C172.126 106.266 172.276 105.832 172.332 105.322ZM174.493 105.558C174.568 104.879 174.77 104.299 175.1 103.819C175.43 103.332 175.849 102.972 176.356 102.741C176.87 102.511 177.426 102.428 178.022 102.493C178.538 102.55 179.005 102.724 179.421 103.015C179.839 103.298 180.144 103.647 180.335 104.061L180.72 100.541L181.832 100.663L180.85 109.643L179.737 109.522L179.874 108.272C179.613 108.644 179.255 108.937 178.799 109.149C178.345 109.353 177.831 109.424 177.259 109.361C176.67 109.297 176.15 109.092 175.698 108.748C175.255 108.405 174.924 107.955 174.708 107.399C174.491 106.844 174.42 106.23 174.493 105.558ZM180.103 106.184C180.157 105.683 180.104 105.235 179.944 104.841C179.783 104.446 179.54 104.133 179.214 103.901C178.898 103.662 178.534 103.52 178.123 103.475C177.712 103.43 177.326 103.486 176.967 103.643C176.607 103.8 176.306 104.054 176.063 104.404C175.821 104.754 175.673 105.18 175.618 105.681C175.562 106.191 175.614 106.647 175.774 107.049C175.935 107.444 176.174 107.76 176.49 108C176.807 108.231 177.172 108.369 177.583 108.414C177.994 108.459 178.379 108.403 178.739 108.246C179.108 108.081 179.413 107.824 179.656 107.474C179.899 107.116 180.048 106.686 180.103 106.184ZM182.665 106.452C182.739 105.773 182.941 105.193 183.271 104.713C183.602 104.226 184.02 103.866 184.527 103.635C185.042 103.405 185.593 103.322 186.182 103.386C186.762 103.45 187.252 103.63 187.652 103.928C188.052 104.225 188.336 104.576 188.504 104.979L188.637 103.765L189.749 103.887L189.021 110.537L187.909 110.416L188.044 109.178C187.784 109.542 187.422 109.83 186.959 110.041C186.504 110.245 185.991 110.316 185.418 110.254C184.83 110.189 184.314 109.985 183.87 109.642C183.426 109.299 183.096 108.849 182.879 108.293C182.663 107.738 182.591 107.124 182.665 106.452ZM188.274 107.078C188.329 106.577 188.276 106.129 188.115 105.734C187.954 105.34 187.711 105.027 187.386 104.795C187.069 104.556 186.706 104.414 186.294 104.369C185.883 104.324 185.498 104.38 185.138 104.537C184.778 104.694 184.477 104.948 184.235 105.298C183.993 105.648 183.844 106.074 183.789 106.575C183.734 107.085 183.786 107.541 183.946 107.943C184.106 108.338 184.345 108.654 184.661 108.894C184.979 109.125 185.343 109.263 185.754 109.308C186.165 109.353 186.551 109.297 186.911 109.14C187.279 108.975 187.585 108.718 187.827 108.368C188.07 108.01 188.219 107.58 188.274 107.078ZM192.851 105.147L192.423 109.067C192.387 109.391 192.431 109.629 192.553 109.781C192.675 109.926 192.906 110.017 193.245 110.054L194.055 110.142L193.953 111.077L192.961 110.968C192.348 110.901 191.904 110.709 191.629 110.393C191.354 110.076 191.251 109.594 191.322 108.947L191.751 105.027L190.893 104.933L190.992 104.023L191.851 104.117L192.034 102.442L193.134 102.562L192.951 104.237L194.68 104.426L194.581 105.336L192.851 105.147ZM201.723 108.304C201.7 108.514 201.664 108.735 201.614 108.967L196.318 108.388C196.286 109.048 196.452 109.586 196.814 110.002C197.186 110.411 197.661 110.647 198.242 110.711C198.717 110.763 199.124 110.697 199.463 110.513C199.81 110.322 200.068 110.047 200.238 109.689L201.423 109.818C201.176 110.438 200.764 110.921 200.188 111.268C199.612 111.606 198.93 111.732 198.14 111.645C197.511 111.576 196.962 111.373 196.493 111.035C196.032 110.698 195.689 110.256 195.464 109.707C195.239 109.15 195.165 108.528 195.24 107.84C195.315 107.153 195.518 106.565 195.849 106.077C196.179 105.589 196.606 105.235 197.128 105.013C197.658 104.785 198.246 104.706 198.891 104.776C199.52 104.845 200.061 105.044 200.515 105.372C200.968 105.7 201.297 106.12 201.502 106.634C201.716 107.141 201.79 107.697 201.723 108.304ZM200.612 107.949C200.658 107.528 200.605 107.158 200.452 106.838C200.3 106.511 200.072 106.252 199.766 106.063C199.469 105.867 199.127 105.748 198.74 105.706C198.184 105.645 197.689 105.771 197.255 106.083C196.829 106.397 196.554 106.866 196.428 107.491L200.612 107.949ZM202.739 108.648C202.813 107.969 203.016 107.389 203.345 106.909C203.676 106.422 204.095 106.062 204.601 105.831C205.116 105.601 205.672 105.518 206.268 105.583C206.784 105.64 207.25 105.814 207.667 106.105C208.085 106.388 208.389 106.737 208.581 107.151L208.966 103.631L210.078 103.753L209.096 112.733L207.983 112.612L208.12 111.362C207.859 111.734 207.501 112.027 207.045 112.239C206.59 112.443 206.077 112.514 205.505 112.451C204.916 112.387 204.396 112.182 203.944 111.838C203.5 111.495 203.17 111.045 202.954 110.489C202.737 109.934 202.666 109.32 202.739 108.648ZM208.348 109.274C208.403 108.773 208.35 108.325 208.189 107.931C208.029 107.536 207.786 107.223 207.46 106.991C207.144 106.752 206.78 106.61 206.369 106.565C205.958 106.52 205.572 106.576 205.212 106.733C204.853 106.89 204.552 107.144 204.309 107.494C204.067 107.844 203.918 108.27 203.864 108.771C203.808 109.281 203.86 109.737 204.02 110.139C204.181 110.534 204.419 110.85 204.736 111.09C205.053 111.321 205.417 111.459 205.828 111.504C206.24 111.549 206.625 111.493 206.985 111.336C207.354 111.171 207.659 110.914 207.901 110.564C208.145 110.206 208.294 109.776 208.348 109.274ZM211.299 113.048C211.089 113.025 210.92 112.933 210.79 112.771C210.661 112.61 210.608 112.424 210.631 112.214C210.654 112.003 210.746 111.833 210.907 111.703C211.068 111.574 211.254 111.52 211.463 111.543C211.665 111.565 211.826 111.657 211.947 111.817C212.076 111.979 212.129 112.165 212.106 112.375C212.083 112.585 211.991 112.755 211.83 112.885C211.677 113.016 211.5 113.07 211.299 113.048ZM211.867 107.854C211.657 107.831 211.488 107.739 211.359 107.577C211.229 107.416 211.176 107.23 211.199 107.019C211.222 106.809 211.314 106.639 211.475 106.509C211.637 106.38 211.822 106.326 212.031 106.349C212.233 106.371 212.394 106.462 212.515 106.623C212.645 106.785 212.698 106.97 212.675 107.181C212.652 107.391 212.56 107.561 212.399 107.691C212.246 107.822 212.068 107.876 211.867 107.854Z" fill="#434141"/>
<path d="M352.865 128.461L351.299 124.876L350.247 124.761L349.878 128.134L348.5 127.984L349.422 119.549L352.324 119.867C352.969 119.937 353.501 120.11 353.919 120.385C354.346 120.661 354.647 121.001 354.824 121.405C355.008 121.81 355.074 122.247 355.023 122.716C354.963 123.267 354.746 123.751 354.374 124.168C354.011 124.579 353.49 124.829 352.812 124.918L354.509 128.641L352.865 128.461ZM350.368 123.656L351.891 123.823C352.407 123.879 352.808 123.792 353.095 123.562C353.389 123.332 353.56 122.998 353.608 122.562C353.656 122.125 353.564 121.771 353.333 121.5C353.102 121.221 352.725 121.053 352.201 120.995L350.677 120.829L350.368 123.656ZM362.63 125.98C362.602 126.231 362.561 126.456 362.507 126.654L357.416 126.098C357.398 126.636 357.549 127.086 357.868 127.449C358.187 127.811 358.605 128.021 359.121 128.077C359.863 128.158 360.421 127.904 360.795 127.315L362.282 127.477C362.014 128.07 361.591 128.536 361.016 128.874C360.45 129.205 359.775 129.328 358.993 129.242C358.357 129.172 357.8 128.968 357.323 128.63C356.855 128.284 356.504 127.836 356.271 127.286C356.046 126.73 355.971 126.107 356.047 125.42C356.122 124.732 356.325 124.144 356.655 123.656C356.995 123.161 357.43 122.8 357.961 122.571C358.5 122.344 359.096 122.265 359.749 122.337C360.378 122.406 360.923 122.604 361.384 122.933C361.846 123.262 362.187 123.692 362.406 124.224C362.626 124.748 362.7 125.333 362.63 125.98ZM361.239 125.386C361.286 124.875 361.15 124.447 360.828 124.101C360.507 123.754 360.085 123.553 359.561 123.495C359.085 123.443 358.661 123.552 358.289 123.823C357.918 124.085 357.672 124.472 357.551 124.982L361.239 125.386ZM367.004 124.383L365.77 124.248L365.162 129.806L363.772 129.654L364.38 124.096L363.594 124.01L363.717 122.882L364.503 122.968L364.555 122.494C364.639 121.726 364.902 121.189 365.343 120.886C365.793 120.575 366.453 120.467 367.324 120.562L367.198 121.715C366.778 121.669 366.475 121.718 366.288 121.861C366.102 121.996 365.988 122.258 365.945 122.646L365.894 123.12L367.127 123.255L367.004 124.383ZM369.622 124.51C369.86 124.192 370.155 123.958 370.506 123.808C370.866 123.651 371.275 123.598 371.735 123.648L371.578 125.08L371.228 125.042C370.688 124.983 370.261 125.075 369.949 125.319C369.645 125.565 369.456 126.027 369.381 126.707L368.996 130.226L367.618 130.075L368.349 123.388L369.728 123.539L369.622 124.51ZM378.748 127.743C378.721 127.994 378.68 128.219 378.625 128.418L373.535 127.861C373.517 128.399 373.667 128.85 373.987 129.212C374.306 129.575 374.723 129.784 375.239 129.84C375.981 129.922 376.539 129.667 376.914 129.078L378.401 129.241C378.132 129.833 377.71 130.299 377.135 130.637C376.568 130.968 375.894 131.091 375.112 131.005C374.475 130.936 373.918 130.732 373.441 130.393C372.973 130.047 372.623 129.599 372.389 129.05C372.164 128.493 372.09 127.871 372.165 127.183C372.24 126.495 372.443 125.908 372.774 125.42C373.114 124.925 373.549 124.563 374.08 124.334C374.618 124.107 375.214 124.029 375.867 124.1C376.496 124.169 377.041 124.368 377.503 124.697C377.965 125.026 378.305 125.456 378.524 125.987C378.744 126.511 378.819 127.096 378.748 127.743ZM377.357 127.149C377.405 126.639 377.268 126.21 376.947 125.864C376.626 125.518 376.203 125.316 375.679 125.259C375.204 125.207 374.78 125.316 374.408 125.586C374.036 125.848 373.79 126.235 373.669 126.746L377.357 127.149ZM382.127 131.773C381.603 131.716 381.142 131.571 380.743 131.339C380.353 131.1 380.055 130.805 379.849 130.455C379.643 130.097 379.554 129.715 379.582 129.308L381.009 129.465C381.003 129.75 381.109 130.004 381.33 130.224C381.56 130.438 381.86 130.565 382.231 130.605C382.617 130.648 382.924 130.607 383.149 130.485C383.384 130.355 383.514 130.172 383.539 129.938C383.567 129.687 383.466 129.488 383.238 129.34C383.017 129.193 382.657 129.018 382.157 128.816C381.672 128.624 381.28 128.446 380.98 128.282C380.679 128.118 380.427 127.89 380.222 127.598C380.026 127.306 379.951 126.942 379.999 126.505C380.038 126.149 380.178 125.837 380.42 125.568C380.662 125.292 380.986 125.09 381.392 124.962C381.805 124.836 382.266 124.8 382.774 124.856C383.532 124.939 384.119 125.199 384.536 125.638C384.962 126.069 385.155 126.619 385.114 127.286L383.736 127.135C383.745 126.833 383.65 126.581 383.452 126.379C383.253 126.177 382.969 126.056 382.598 126.015C382.235 125.976 381.95 126.014 381.741 126.131C381.533 126.247 381.416 126.418 381.391 126.645C381.372 126.823 381.42 126.98 381.536 127.115C381.651 127.251 381.798 127.365 381.975 127.458C382.154 127.543 382.418 127.658 382.77 127.803C383.239 127.985 383.62 128.162 383.911 128.333C384.211 128.497 384.46 128.72 384.657 129.004C384.855 129.288 384.934 129.644 384.895 130.074C384.853 130.454 384.712 130.782 384.469 131.059C384.227 131.335 383.903 131.537 383.497 131.665C383.1 131.793 382.643 131.829 382.127 131.773ZM390.371 125.687C390.878 125.742 391.318 125.901 391.689 126.163C392.068 126.425 392.347 126.783 392.526 127.237C392.713 127.691 392.773 128.222 392.707 128.828L392.275 132.772L390.909 132.623L391.318 128.885C391.383 128.287 391.284 127.813 391.02 127.465C390.758 127.109 390.368 126.902 389.852 126.846C389.336 126.789 388.907 126.906 388.566 127.196C388.233 127.479 388.034 127.92 387.968 128.519L387.559 132.257L386.181 132.106L387.163 123.125L388.542 123.276L388.206 126.346C388.471 126.089 388.789 125.903 389.16 125.788C389.54 125.674 389.943 125.64 390.371 125.687ZM399.581 133.682C399.057 133.625 398.596 133.48 398.197 133.248C397.807 133.009 397.509 132.715 397.302 132.365C397.097 132.006 397.008 131.624 397.036 131.218L398.463 131.374C398.456 131.66 398.563 131.913 398.784 132.134C399.013 132.347 399.313 132.474 399.684 132.515C400.071 132.557 400.377 132.517 400.603 132.394C400.837 132.264 400.967 132.082 400.993 131.847C401.021 131.596 400.92 131.397 400.691 131.249C400.471 131.102 400.111 130.928 399.611 130.726C399.126 130.534 398.733 130.356 398.433 130.192C398.133 130.028 397.881 129.8 397.676 129.507C397.48 129.215 397.405 128.851 397.453 128.414C397.492 128.058 397.632 127.746 397.874 127.478C398.116 127.201 398.44 126.999 398.845 126.872C399.259 126.745 399.72 126.71 400.228 126.765C400.985 126.848 401.573 127.109 401.99 127.547C402.416 127.979 402.608 128.528 402.568 129.195L401.19 129.044C401.198 128.742 401.103 128.49 400.905 128.288C400.707 128.087 400.423 127.965 400.052 127.925C399.689 127.885 399.403 127.923 399.195 128.04C398.986 128.156 398.87 128.328 398.845 128.554C398.825 128.732 398.873 128.889 398.989 129.024C399.105 129.16 399.251 129.274 399.429 129.367C399.607 129.452 399.872 129.567 400.223 129.712C400.693 129.894 401.073 130.071 401.364 130.242C401.665 130.406 401.914 130.63 402.111 130.913C402.308 131.197 402.388 131.554 402.349 131.983C402.307 132.363 402.165 132.692 401.923 132.968C401.681 133.245 401.357 133.447 400.951 133.574C400.554 133.703 400.097 133.739 399.581 133.682ZM405.85 128.633L405.445 132.334C405.418 132.585 405.454 132.773 405.555 132.899C405.664 133.017 405.86 133.092 406.142 133.123L406.988 133.215L406.862 134.368L405.774 134.249C405.153 134.181 404.693 133.984 404.395 133.656C404.096 133.329 403.983 132.837 404.054 132.182L404.459 128.481L403.673 128.395L403.797 127.266L404.583 127.352L404.765 125.689L406.155 125.842L405.973 127.504L407.594 127.681L407.47 128.81L405.85 128.633ZM408.042 131.083C408.116 130.412 408.318 129.832 408.649 129.344C408.987 128.857 409.41 128.498 409.917 128.267C410.432 128.029 410.98 127.941 411.561 128.005C412.085 128.062 412.529 128.217 412.893 128.47C413.265 128.715 413.552 129.005 413.752 129.338L413.858 128.367L415.249 128.519L414.517 135.206L413.127 135.054L413.236 134.058C412.967 134.348 412.62 134.576 412.194 134.743C411.768 134.909 411.297 134.964 410.781 134.907C410.209 134.845 409.701 134.642 409.257 134.299C408.814 133.947 408.48 133.493 408.256 132.936C408.04 132.372 407.969 131.755 408.042 131.083ZM413.493 131.704C413.544 131.243 413.491 130.832 413.334 130.471C413.186 130.111 412.969 129.825 412.682 129.614C412.395 129.402 412.074 129.277 411.719 129.238C411.365 129.199 411.025 129.252 410.699 129.397C410.374 129.533 410.096 129.76 409.865 130.079C409.644 130.391 409.508 130.777 409.457 131.238C409.407 131.699 409.455 132.114 409.602 132.482C409.758 132.851 409.979 133.145 410.265 133.365C410.56 133.577 410.88 133.703 411.227 133.74C411.582 133.779 411.922 133.726 412.248 133.582C412.573 133.437 412.848 133.205 413.07 132.886C413.302 132.559 413.443 132.165 413.493 131.704ZM418.544 130.022L418.139 133.723C418.112 133.974 418.149 134.162 418.249 134.288C418.358 134.406 418.554 134.481 418.836 134.511L419.683 134.604L419.557 135.757L418.468 135.638C417.848 135.57 417.388 135.372 417.089 135.045C416.791 134.718 416.677 134.226 416.749 133.571L417.154 129.869L416.368 129.783L416.491 128.655L417.277 128.741L417.459 127.078L418.85 127.23L418.668 128.893L420.288 129.07L420.165 130.199L418.544 130.022ZM427.592 129.869L426.86 136.556L425.482 136.405L425.568 135.616C425.32 135.868 425.01 136.055 424.638 136.178C424.274 136.294 423.895 136.33 423.5 136.287C422.976 136.229 422.516 136.068 422.121 135.804C421.734 135.541 421.443 135.181 421.248 134.726C421.061 134.272 421.001 133.741 421.067 133.134L421.497 129.202L422.864 129.352L422.456 133.078C422.391 133.676 422.489 134.154 422.752 134.51C423.016 134.858 423.406 135.06 423.922 135.117C424.438 135.173 424.862 135.06 425.195 134.777C425.537 134.487 425.74 134.043 425.806 133.444L426.213 129.718L427.592 129.869ZM431.085 137.129C430.561 137.071 430.1 136.927 429.701 136.695C429.311 136.456 429.013 136.161 428.807 135.811C428.601 135.453 428.512 135.071 428.541 134.664L429.967 134.82C429.961 135.106 430.068 135.359 430.288 135.58C430.518 135.793 430.818 135.92 431.189 135.961C431.576 136.003 431.882 135.963 432.107 135.84C432.342 135.711 432.472 135.528 432.498 135.294C432.525 135.043 432.424 134.844 432.196 134.696C431.975 134.549 431.615 134.374 431.115 134.172C430.63 133.98 430.238 133.802 429.938 133.638C429.637 133.474 429.385 133.246 429.18 132.954C428.984 132.662 428.91 132.298 428.957 131.861C428.996 131.505 429.137 131.193 429.378 130.924C429.62 130.648 429.944 130.446 430.35 130.318C430.763 130.192 431.224 130.156 431.732 130.212C432.49 130.294 433.077 130.555 433.494 130.994C433.92 131.425 434.113 131.974 434.073 132.641L432.694 132.491C432.703 132.189 432.608 131.937 432.41 131.735C432.212 131.533 431.927 131.412 431.556 131.371C431.193 131.332 430.908 131.37 430.699 131.486C430.491 131.603 430.374 131.774 430.349 132.001C430.33 132.179 430.378 132.335 430.494 132.471C430.609 132.606 430.756 132.721 430.933 132.814C431.112 132.899 431.377 133.014 431.728 133.159C432.197 133.341 432.578 133.518 432.869 133.689C433.169 133.852 433.418 134.076 433.615 134.36C433.813 134.643 433.892 135 433.853 135.43C433.812 135.81 433.67 136.138 433.427 136.415C433.185 136.691 432.861 136.893 432.456 137.021C432.058 137.149 431.601 137.185 431.085 137.129Z" fill="#0471FF"/>
<path d="M347.46 129.098L434.097 138.576L434.03 139.182L347.394 129.705L347.46 129.098Z" fill="#0471FF"/>
<path d="M121.728 160.487L119.713 160.266L115.288 200.719L117.303 200.939L121.728 160.487Z" fill="#F71D3B"/>
<path d="M120.167 165.433C122.95 165.738 125.453 163.72 125.759 160.928C126.064 158.135 124.056 155.624 121.274 155.32C118.491 155.016 115.988 157.033 115.682 159.825C115.377 162.618 117.385 165.129 120.167 165.433Z" fill="#F71D3B"/>
<path d="M146.176 148.087L145.1 157.927L143.492 157.751L144.568 147.911L146.176 148.087ZM149.797 151.878L149.325 156.197C149.293 156.489 149.335 156.709 149.452 156.855C149.58 156.993 149.809 157.081 150.138 157.117L151.125 157.225L150.978 158.57L149.708 158.431C148.984 158.352 148.448 158.121 148.1 157.739C147.751 157.357 147.619 156.784 147.702 156.019L148.175 151.701L147.258 151.601L147.402 150.284L148.319 150.384L148.531 148.444L150.153 148.622L149.941 150.562L151.832 150.768L151.687 152.085L149.797 151.878ZM153.791 148.92L155.54 149.111L153.69 152.319L152.562 152.195L153.791 148.92ZM158.684 159.542C158.073 159.475 157.535 159.306 157.07 159.035C156.615 158.756 156.267 158.413 156.026 158.004C155.786 157.586 155.683 157.141 155.715 156.667L157.38 156.849C157.372 157.182 157.497 157.477 157.754 157.735C158.022 157.984 158.372 158.132 158.805 158.179C159.256 158.229 159.614 158.182 159.877 158.039C160.15 157.887 160.302 157.675 160.332 157.401C160.364 157.108 160.247 156.876 159.98 156.703C159.723 156.532 159.302 156.328 158.719 156.092C158.154 155.868 157.696 155.66 157.345 155.469C156.995 155.278 156.701 155.012 156.462 154.671C156.233 154.33 156.146 153.905 156.202 153.396C156.247 152.98 156.411 152.616 156.692 152.303C156.975 151.981 157.353 151.745 157.826 151.596C158.309 151.448 158.846 151.407 159.439 151.472C160.323 151.568 161.008 151.873 161.495 152.384C161.992 152.888 162.217 153.528 162.169 154.306L160.561 154.13C160.571 153.778 160.461 153.484 160.229 153.249C159.998 153.013 159.666 152.872 159.234 152.825C158.81 152.778 158.477 152.823 158.234 152.959C157.991 153.095 157.855 153.295 157.826 153.559C157.803 153.767 157.859 153.949 157.994 154.108C158.129 154.266 158.3 154.399 158.507 154.508C158.715 154.607 159.024 154.741 159.434 154.91C159.982 155.123 160.425 155.329 160.765 155.528C161.115 155.719 161.406 155.98 161.636 156.311C161.866 156.642 161.959 157.058 161.914 157.559C161.865 158.003 161.699 158.386 161.417 158.709C161.134 159.031 160.756 159.267 160.283 159.416C159.819 159.565 159.286 159.607 158.684 159.542ZM170.435 160.827C169.701 160.747 169.057 160.509 168.5 160.114C167.945 159.709 167.531 159.186 167.258 158.545C166.987 157.895 166.895 157.168 166.983 156.366C167.07 155.573 167.32 154.889 167.736 154.314C168.151 153.738 168.677 153.318 169.315 153.054C169.953 152.789 170.644 152.697 171.387 152.779C172.13 152.86 172.784 153.099 173.35 153.495C173.916 153.891 174.339 154.415 174.62 155.067C174.901 155.718 174.998 156.44 174.911 157.233C174.824 158.026 174.569 158.71 174.144 159.284C173.72 159.859 173.179 160.282 172.521 160.554C171.873 160.817 171.178 160.908 170.435 160.827ZM170.588 159.425C171.002 159.471 171.399 159.414 171.778 159.255C172.166 159.097 172.495 158.832 172.764 158.46C173.033 158.088 173.199 157.619 173.261 157.053C173.323 156.486 173.266 155.998 173.093 155.587C172.92 155.167 172.665 154.839 172.33 154.601C171.994 154.364 171.619 154.223 171.205 154.177C170.791 154.132 170.395 154.189 170.016 154.348C169.646 154.508 169.336 154.775 169.086 155.149C168.837 155.513 168.681 155.979 168.619 156.545C168.527 157.385 168.668 158.06 169.04 158.568C169.423 159.069 169.939 159.354 170.588 159.425ZM183.966 154.284L183.113 162.085L181.505 161.909L181.605 160.989C181.316 161.282 180.955 161.5 180.52 161.644C180.096 161.779 179.654 161.821 179.193 161.771C178.582 161.704 178.045 161.516 177.584 161.208C177.132 160.901 176.793 160.482 176.565 159.95C176.347 159.42 176.277 158.801 176.355 158.093L176.856 153.506L178.45 153.68L177.975 158.027C177.899 158.726 178.014 159.283 178.32 159.698C178.628 160.104 179.083 160.34 179.685 160.406C180.287 160.472 180.782 160.34 181.17 160.01C181.569 159.671 181.806 159.153 181.883 158.455L182.358 154.108L183.966 154.284ZM187.821 156.038L187.348 160.356C187.316 160.649 187.359 160.868 187.476 161.015C187.604 161.153 187.832 161.24 188.161 161.276L189.149 161.384L189.002 162.729L187.732 162.59C187.008 162.511 186.471 162.281 186.123 161.899C185.774 161.517 185.642 160.943 185.726 160.179L186.198 155.86L185.281 155.76L185.425 154.443L186.342 154.544L186.555 152.604L188.177 152.782L187.965 154.721L189.855 154.928L189.711 156.245L187.821 156.038ZM198.116 157.164L196.677 157.007L195.968 163.491L194.345 163.314L195.055 156.829L194.138 156.729L194.282 155.412L195.199 155.513L195.259 154.96C195.357 154.064 195.664 153.438 196.178 153.084C196.703 152.721 197.474 152.595 198.489 152.706L198.342 154.051C197.854 153.998 197.5 154.054 197.282 154.222C197.064 154.379 196.931 154.685 196.882 155.138L196.821 155.69L198.26 155.847L198.116 157.164ZM202.19 164.301C201.457 164.221 200.812 163.983 200.255 163.588C199.7 163.183 199.286 162.66 199.014 162.019C198.742 161.369 198.65 160.642 198.738 159.84C198.825 159.047 199.076 158.363 199.491 157.787C199.905 157.212 200.433 156.792 201.07 156.527C201.708 156.263 202.399 156.171 203.142 156.253C203.885 156.334 204.54 156.573 205.105 156.969C205.671 157.365 206.095 157.889 206.375 158.541C206.656 159.192 206.753 159.914 206.666 160.707C206.58 161.5 206.324 162.184 205.899 162.758C205.475 163.333 204.934 163.756 204.276 164.028C203.628 164.291 202.933 164.382 202.19 164.301ZM202.343 162.899C202.758 162.945 203.153 162.888 203.533 162.729C203.921 162.57 204.25 162.306 204.519 161.934C204.788 161.562 204.954 161.093 205.016 160.527C205.078 159.96 205.022 159.472 204.848 159.061C204.674 158.641 204.421 158.312 204.085 158.075C203.749 157.838 203.375 157.697 202.96 157.651C202.546 157.606 202.151 157.663 201.771 157.822C201.402 157.982 201.091 158.249 200.841 158.623C200.592 158.987 200.436 159.453 200.374 160.019C200.283 160.859 200.423 161.533 200.795 162.042C201.178 162.543 201.695 162.828 202.343 162.899ZM210.167 158.296C210.445 157.925 210.789 157.653 211.198 157.478C211.618 157.294 212.096 157.232 212.632 157.291L212.449 158.961L212.04 158.917C211.409 158.848 210.912 158.956 210.549 159.241C210.193 159.527 209.973 160.066 209.886 160.859L209.437 164.965L207.829 164.789L208.682 156.988L210.29 157.164L210.167 158.296ZM216.801 161.787C216.887 161.004 217.123 160.328 217.509 159.759C217.904 159.191 218.398 158.772 218.988 158.502C219.59 158.224 220.234 158.122 220.92 158.197C221.428 158.253 221.914 158.421 222.378 158.701C222.853 158.973 223.216 159.308 223.467 159.708L223.879 155.942L225.502 156.12L224.355 166.597L222.733 166.419L222.862 165.244C222.557 165.593 222.157 165.864 221.659 166.058C221.172 166.254 220.627 166.318 220.025 166.252C219.348 166.178 218.745 165.94 218.218 165.539C217.702 165.129 217.313 164.599 217.05 163.949C216.799 163.291 216.716 162.571 216.801 161.787ZM223.161 162.512C223.219 161.974 223.158 161.494 222.975 161.073C222.803 160.653 222.549 160.319 222.214 160.073C221.88 159.826 221.505 159.68 221.091 159.635C220.678 159.589 220.281 159.651 219.9 159.82C219.522 159.979 219.197 160.244 218.928 160.616C218.67 160.979 218.511 161.43 218.452 161.968C218.393 162.506 218.45 162.99 218.621 163.419C218.803 163.85 219.061 164.193 219.394 164.449C219.738 164.697 220.113 164.843 220.517 164.887C220.931 164.933 221.328 164.871 221.707 164.702C222.088 164.534 222.408 164.263 222.667 163.89C222.937 163.509 223.102 163.05 223.161 162.512ZM234.04 163.516C234.008 163.808 233.96 164.07 233.897 164.302L227.958 163.653C227.936 164.281 228.112 164.806 228.485 165.229C228.857 165.652 229.344 165.896 229.947 165.962C230.811 166.057 231.463 165.76 231.9 165.072L233.635 165.262C233.321 165.954 232.829 166.497 232.158 166.892C231.496 167.278 230.71 167.421 229.798 167.321C229.054 167.24 228.405 167.002 227.849 166.607C227.303 166.203 226.894 165.681 226.621 165.039C226.359 164.39 226.272 163.664 226.36 162.862C226.448 162.059 226.684 161.374 227.07 160.805C227.466 160.227 227.974 159.805 228.594 159.538C229.222 159.273 229.918 159.182 230.679 159.265C231.413 159.345 232.048 159.577 232.588 159.961C233.126 160.345 233.523 160.846 233.779 161.467C234.035 162.077 234.123 162.76 234.04 163.516ZM232.417 162.822C232.472 162.226 232.313 161.727 231.939 161.323C231.564 160.919 231.071 160.683 230.46 160.617C229.905 160.556 229.411 160.683 228.976 160.999C228.543 161.305 228.255 161.756 228.115 162.352L232.417 162.822ZM237.929 157.479L236.783 167.956L235.175 167.78L236.321 157.303L237.929 157.479ZM240.68 159.442C240.387 159.41 240.154 159.284 239.979 159.065C239.803 158.845 239.731 158.588 239.763 158.296C239.795 158.003 239.921 157.769 240.14 157.592C240.359 157.415 240.614 157.343 240.906 157.375C241.188 157.406 241.417 157.531 241.593 157.751C241.769 157.971 241.84 158.227 241.808 158.52C241.776 158.812 241.651 159.047 241.432 159.223C241.213 159.4 240.962 159.473 240.68 159.442ZM241.357 160.562L240.503 168.363L238.895 168.187L239.748 160.386L241.357 160.562ZM245.777 167.479L248.673 161.362L250.38 161.549L246.564 169.026L244.646 168.817L242.551 160.693L244.272 160.881L245.777 167.479ZM258.315 166.171C258.283 166.464 258.235 166.726 258.172 166.958L252.233 166.308C252.211 166.936 252.387 167.462 252.76 167.885C253.131 168.307 253.619 168.552 254.221 168.618C255.086 168.712 255.737 168.416 256.174 167.728L257.91 167.918C257.595 168.609 257.104 169.153 256.432 169.547C255.771 169.933 254.984 170.076 254.073 169.977C253.329 169.895 252.68 169.657 252.124 169.262C251.577 168.858 251.168 168.336 250.896 167.695C250.634 167.045 250.547 166.319 250.634 165.517C250.722 164.715 250.958 164.029 251.345 163.46C251.74 162.882 252.249 162.46 252.868 162.194C253.497 161.928 254.192 161.837 254.954 161.921C255.687 162.001 256.323 162.233 256.862 162.617C257.4 163 257.797 163.502 258.054 164.122C258.31 164.733 258.397 165.416 258.315 166.171ZM256.692 165.478C256.747 164.882 256.587 164.382 256.213 163.978C255.839 163.574 255.345 163.339 254.735 163.272C254.179 163.211 253.685 163.339 253.251 163.654C252.818 163.96 252.53 164.411 252.389 165.007L256.692 165.478ZM261.787 163.943C262.066 163.573 262.41 163.3 262.819 163.125C263.239 162.942 263.716 162.879 264.253 162.938L264.07 164.609L263.661 164.564C263.031 164.495 262.534 164.603 262.169 164.888C261.815 165.174 261.593 165.713 261.507 166.506L261.057 170.612L259.449 170.436L260.303 162.635L261.911 162.811L261.787 163.943ZM272.714 163.992L266.691 174.939L265.027 174.757L267.022 171.135L264.8 163.127L266.591 163.323L268.128 169.508L271.049 163.81L272.714 163.992Z" fill="#1B1B1B"/>
<path d="M140.824 178.054C141.939 177.341 142.815 176.753 143.452 176.291C144.091 175.82 144.64 175.319 145.097 174.788C145.564 174.25 145.828 173.701 145.889 173.143C145.947 172.617 145.863 172.19 145.638 171.863C145.421 171.528 145.031 171.33 144.467 171.268C143.919 171.208 143.472 171.335 143.128 171.65C142.793 171.957 142.581 172.396 142.494 172.968L141.43 172.852C141.562 171.949 141.912 171.279 142.482 170.842C143.052 170.405 143.744 170.231 144.558 170.32C145.389 170.411 146.02 170.714 146.454 171.228C146.895 171.743 147.071 172.405 146.983 173.214C146.909 173.885 146.636 174.518 146.163 175.113C145.699 175.701 145.187 176.21 144.626 176.64C144.066 177.062 143.356 177.549 142.496 178.102L146.655 178.557L146.554 179.479L140.738 178.843L140.824 178.054ZM147.763 177.732L147.855 176.895L152.745 171.461L154.063 171.606L153.431 177.382L154.64 177.514L154.535 178.473L153.326 178.341L153.112 180.295L152.024 180.176L152.237 178.222L147.763 177.732ZM152.897 172.645L149.138 176.913L152.391 177.268L152.897 172.645ZM164.515 172.982L164.417 173.88L160.753 173.48L160.441 176.332L163.416 176.657L163.317 177.555L160.343 177.23L159.926 181.04L158.826 180.92L159.751 172.461L164.515 172.982ZM171.356 178.668C171.333 178.878 171.297 179.099 171.247 179.331L165.951 178.752C165.919 179.412 166.085 179.95 166.447 180.366C166.819 180.775 167.294 181.011 167.875 181.075C168.35 181.127 168.757 181.061 169.096 180.877C169.443 180.685 169.701 180.411 169.871 180.053L171.056 180.182C170.809 180.802 170.397 181.285 169.821 181.631C169.245 181.97 168.563 182.096 167.773 182.009C167.144 181.94 166.595 181.737 166.126 181.399C165.665 181.062 165.322 180.619 165.097 180.071C164.872 179.514 164.797 178.892 164.873 178.204C164.948 177.516 165.151 176.929 165.482 176.441C165.812 175.953 166.239 175.598 166.76 175.377C167.291 175.149 167.879 175.07 168.524 175.14C169.153 175.209 169.694 175.407 170.148 175.735C170.601 176.063 170.93 176.484 171.135 176.998C171.349 177.504 171.423 178.061 171.356 178.668ZM170.245 178.313C170.291 177.892 170.238 177.522 170.085 177.202C169.933 176.875 169.704 176.616 169.399 176.427C169.102 176.231 168.76 176.112 168.373 176.069C167.817 176.009 167.322 176.135 166.888 176.447C166.462 176.761 166.187 177.23 166.061 177.855L170.245 178.313ZM174.11 177.115C174.379 176.743 174.745 176.455 175.207 176.252C175.67 176.049 176.18 175.978 176.736 176.039C177.332 176.104 177.853 176.304 178.298 176.639C178.742 176.975 179.073 177.416 179.291 177.964C179.509 178.503 179.581 179.113 179.507 179.793C179.433 180.464 179.231 181.048 178.899 181.544C178.567 182.04 178.144 182.407 177.628 182.645C177.121 182.884 176.573 182.972 175.984 182.907C175.412 182.845 174.922 182.664 174.514 182.366C174.114 182.068 173.827 181.714 173.652 181.301L173.517 182.527L172.417 182.407L173.4 173.426L174.5 173.547L174.11 177.115ZM178.382 179.67C178.437 179.168 178.384 178.72 178.223 178.326C178.062 177.932 177.819 177.619 177.494 177.387C177.177 177.155 176.812 177.017 176.401 176.972C175.998 176.928 175.612 176.988 175.243 177.153C174.884 177.31 174.578 177.567 174.327 177.924C174.085 178.274 173.937 178.696 173.883 179.19C173.828 179.691 173.88 180.143 174.04 180.546C174.209 180.941 174.452 181.258 174.768 181.497C175.094 181.729 175.458 181.867 175.861 181.911C176.272 181.956 176.657 181.9 177.017 181.743C177.386 181.579 177.692 181.322 177.934 180.972C178.177 180.613 178.326 180.179 178.382 179.67ZM181.892 181.896L180.181 185.012L179.444 184.932L180.683 181.764L181.892 181.896ZM186.587 176.097L186.698 175.09L188.971 175.338L188.011 184.113L186.899 183.991L187.748 176.224L186.587 176.097ZM190.461 176.521L190.571 175.514L192.844 175.762L191.884 184.536L190.772 184.415L191.622 176.648L190.461 176.521ZM194.299 184.874C194.089 184.851 193.92 184.759 193.791 184.598C193.662 184.436 193.608 184.25 193.631 184.04C193.654 183.829 193.747 183.659 193.908 183.53C194.069 183.4 194.254 183.346 194.463 183.369C194.665 183.391 194.826 183.483 194.947 183.643C195.077 183.805 195.13 183.991 195.107 184.201C195.084 184.411 194.992 184.582 194.831 184.711C194.678 184.842 194.5 184.896 194.299 184.874ZM194.867 179.68C194.657 179.657 194.488 179.565 194.359 179.403C194.23 179.242 194.177 179.056 194.2 178.846C194.223 178.635 194.315 178.465 194.476 178.335C194.637 178.206 194.822 178.152 195.032 178.175C195.233 178.197 195.395 178.289 195.516 178.449C195.645 178.611 195.698 178.797 195.675 179.007C195.652 179.217 195.56 179.387 195.399 179.517C195.246 179.648 195.069 179.702 194.867 179.68ZM197.042 178.457C197.18 177.718 197.53 177.167 198.092 176.803C198.654 176.439 199.346 176.302 200.168 176.391C200.717 176.451 201.177 176.604 201.55 176.85C201.932 177.088 202.205 177.388 202.369 177.75C202.542 178.113 202.604 178.508 202.557 178.937C202.503 179.439 202.31 179.856 201.98 180.188C201.658 180.521 201.262 180.715 200.791 180.77L200.784 180.831C201.294 181.018 201.681 181.318 201.946 181.732C202.211 182.145 202.309 182.66 202.242 183.275C202.192 183.736 202.041 184.141 201.791 184.49C201.541 184.831 201.196 185.084 200.753 185.249C200.311 185.413 199.796 185.463 199.207 185.399C198.353 185.305 197.676 185.006 197.177 184.501C196.678 183.988 196.441 183.316 196.467 182.483L197.531 182.6C197.535 183.091 197.689 183.509 197.994 183.854C198.299 184.198 198.733 184.401 199.298 184.463C199.862 184.525 200.305 184.426 200.627 184.166C200.958 183.9 201.149 183.532 201.201 183.062C201.267 182.456 201.113 181.997 200.739 181.686C200.366 181.375 199.772 181.175 198.957 181.085L198.679 181.055L198.78 180.133L199.07 180.164C199.813 180.237 200.386 180.177 200.791 179.984C201.196 179.783 201.427 179.432 201.481 178.93C201.528 178.501 201.425 178.142 201.171 177.852C200.925 177.563 200.544 177.391 200.029 177.334C199.529 177.279 199.112 177.365 198.777 177.59C198.442 177.816 198.223 178.144 198.119 178.574L197.042 178.457ZM203.959 181.326C204.112 179.934 204.456 178.875 204.992 178.147C205.53 177.412 206.363 177.106 207.491 177.229C208.612 177.352 209.355 177.83 209.72 178.665C210.087 179.491 210.194 180.599 210.042 181.991C209.887 183.407 209.541 184.482 209.003 185.218C208.466 185.953 207.637 186.26 206.517 186.137C205.388 186.014 204.641 185.535 204.275 184.701C203.91 183.866 203.804 182.741 203.959 181.326ZM208.953 181.872C209.03 181.168 209.047 180.568 209.003 180.072C208.969 179.569 208.823 179.152 208.565 178.821C208.316 178.49 207.921 178.296 207.381 178.237C206.833 178.177 206.397 178.281 206.074 178.548C205.759 178.817 205.527 179.192 205.376 179.675C205.234 180.151 205.125 180.741 205.048 181.445C204.968 182.173 204.945 182.788 204.98 183.292C205.023 183.796 205.169 184.213 205.418 184.543C205.676 184.874 206.079 185.07 206.627 185.13C207.167 185.189 207.594 185.084 207.909 184.816C208.232 184.548 208.465 184.172 208.608 183.689C208.758 183.206 208.874 182.6 208.953 181.872ZM219.655 185.671L215.979 185.269L215.096 187.076L213.935 186.949L217.902 178.872L219.172 179.011L221.287 187.753L220.126 187.626L219.655 185.671ZM219.439 184.738L218.382 180.3L216.391 184.405L219.439 184.738ZM232.083 180.435L231.164 188.833L230.064 188.713L230.749 182.451L227.282 188.409L226.509 188.324L224.402 181.744L223.715 188.019L222.615 187.898L223.534 179.5L224.719 179.63L227.055 186.91L230.91 180.307L232.083 180.435Z" fill="#949191"/>
<path d="M117.302 200.939L115.287 200.719L110.862 241.171L112.877 241.392L117.302 200.939Z" fill="#F71D3B"/>
<path d="M112.877 241.392L110.861 241.171L106.436 281.624L108.451 281.844L112.877 241.392Z" fill="#F71D3B"/>
<path d="M111.317 246.338C114.099 246.643 116.603 244.625 116.908 241.833C117.214 239.04 115.206 236.529 112.423 236.225C109.64 235.921 107.137 237.938 106.832 240.73C106.526 243.523 108.534 246.034 111.317 246.338Z" fill="#F71D3B"/>
<path d="M137.326 228.991L136.25 238.832L134.641 238.656L135.718 228.816L137.326 228.991ZM140.947 232.783L140.474 237.102C140.442 237.394 140.485 237.613 140.602 237.76C140.73 237.898 140.958 237.985 141.287 238.021L142.275 238.13L142.128 239.475L140.858 239.336C140.134 239.256 139.598 239.026 139.249 238.644C138.901 238.262 138.768 237.689 138.852 236.924L139.324 232.606L138.407 232.505L138.551 231.189L139.468 231.289L139.681 229.349L141.303 229.527L141.091 231.467L142.981 231.673L142.837 232.99L140.947 232.783ZM144.94 229.824L146.69 230.016L144.84 233.223L143.711 233.1L144.94 229.824ZM149.834 240.447C149.223 240.38 148.684 240.211 148.219 239.94C147.764 239.661 147.416 239.317 147.176 238.909C146.936 238.491 146.832 238.046 146.865 237.571L148.53 237.754C148.522 238.087 148.646 238.382 148.904 238.64C149.172 238.889 149.522 239.037 149.954 239.084C150.406 239.134 150.763 239.087 151.026 238.944C151.3 238.792 151.452 238.58 151.482 238.306C151.514 238.013 151.396 237.781 151.13 237.608C150.872 237.437 150.452 237.233 149.869 236.997C149.303 236.773 148.845 236.565 148.495 236.374C148.145 236.183 147.85 235.917 147.612 235.576C147.382 235.235 147.296 234.81 147.351 234.301C147.397 233.885 147.56 233.521 147.842 233.208C148.125 232.886 148.503 232.65 148.976 232.501C149.458 232.353 149.996 232.312 150.588 232.377C151.472 232.473 152.158 232.777 152.644 233.289C153.141 233.793 153.366 234.434 153.319 235.211L151.711 235.035C151.721 234.683 151.61 234.389 151.379 234.154C151.148 233.919 150.816 233.777 150.383 233.73C149.96 233.683 149.627 233.728 149.383 233.864C149.14 234 149.004 234.2 148.975 234.464C148.953 234.671 149.009 234.854 149.144 235.012C149.279 235.17 149.45 235.304 149.657 235.412C149.865 235.512 150.174 235.646 150.583 235.815C151.131 236.027 151.575 236.233 151.915 236.433C152.265 236.624 152.555 236.885 152.786 237.216C153.016 237.547 153.108 237.963 153.063 238.464C153.015 238.908 152.849 239.291 152.566 239.614C152.283 239.936 151.906 240.172 151.432 240.321C150.969 240.47 150.436 240.512 149.834 240.447ZM160.562 234.771C160.876 234.424 161.281 234.157 161.777 233.973C162.283 233.78 162.828 233.716 163.411 233.779C164.098 233.854 164.7 234.087 165.219 234.479C165.738 234.87 166.123 235.389 166.376 236.038C166.63 236.677 166.714 237.388 166.628 238.172C166.542 238.955 166.306 239.641 165.918 240.229C165.531 240.808 165.036 241.241 164.434 241.528C163.842 241.807 163.207 241.91 162.53 241.835C161.928 241.77 161.405 241.593 160.96 241.306C160.525 241.019 160.191 240.677 159.959 240.279L159.835 241.412L158.227 241.236L159.373 230.759L160.981 230.935L160.562 234.771ZM164.992 237.993C165.051 237.455 164.988 236.98 164.805 236.568C164.632 236.148 164.373 235.819 164.028 235.58C163.693 235.334 163.319 235.188 162.905 235.142C162.501 235.098 162.104 235.16 161.714 235.327C161.334 235.496 161.01 235.766 160.74 236.138C160.481 236.511 160.322 236.966 160.263 237.504C160.204 238.042 160.26 238.526 160.432 238.955C160.615 239.376 160.873 239.711 161.208 239.957C161.552 240.205 161.926 240.351 162.33 240.395C162.744 240.44 163.141 240.378 163.521 240.21C163.912 240.033 164.238 239.753 164.498 239.371C164.768 238.991 164.933 238.531 164.992 237.993ZM175.36 238.969C175.328 239.262 175.28 239.524 175.216 239.756L169.277 239.106C169.256 239.734 169.432 240.26 169.804 240.683C170.177 241.105 170.664 241.35 171.266 241.416C172.131 241.51 172.782 241.214 173.219 240.526L174.954 240.716C174.641 241.407 174.148 241.951 173.477 242.345C172.816 242.731 172.03 242.875 171.117 242.775C170.374 242.694 169.725 242.456 169.168 242.06C168.622 241.657 168.213 241.134 167.941 240.493C167.679 239.843 167.591 239.117 167.679 238.315C167.767 237.513 168.004 236.827 168.39 236.258C168.786 235.68 169.294 235.259 169.913 234.992C170.542 234.726 171.237 234.635 171.999 234.719C172.732 234.799 173.368 235.031 173.907 235.415C174.446 235.798 174.843 236.3 175.098 236.92C175.355 237.531 175.443 238.214 175.36 238.969ZM173.737 238.276C173.792 237.68 173.633 237.181 173.258 236.776C172.884 236.372 172.391 236.137 171.779 236.07C171.225 236.01 170.73 236.137 170.296 236.452C169.863 236.758 169.575 237.21 169.434 237.805L173.737 238.276ZM184.066 239.922C184.034 240.214 183.986 240.477 183.923 240.708L177.984 240.059C177.963 240.687 178.138 241.213 178.511 241.635C178.884 242.058 179.371 242.302 179.973 242.368C180.838 242.463 181.489 242.167 181.926 241.479L183.661 241.668C183.348 242.36 182.855 242.903 182.184 243.298C181.522 243.684 180.736 243.827 179.824 243.727C179.081 243.646 178.431 243.408 177.875 243.013C177.329 242.609 176.92 242.086 176.647 241.446C176.385 240.796 176.298 240.07 176.386 239.268C176.474 238.466 176.711 237.779 177.096 237.211C177.493 236.633 178 236.211 178.62 235.945C179.248 235.679 179.943 235.588 180.705 235.671C181.439 235.751 182.075 235.984 182.614 236.367C183.152 236.75 183.55 237.252 183.805 237.873C184.062 238.483 184.149 239.166 184.066 239.922ZM182.443 239.228C182.499 238.633 182.34 238.133 181.965 237.729C181.59 237.325 181.098 237.09 180.486 237.023C179.931 236.962 179.437 237.089 179.002 237.405C178.569 237.711 178.282 238.162 178.141 238.758L182.443 239.228ZM189.991 236.687C190.602 236.754 191.134 236.941 191.585 237.248C192.046 237.557 192.386 237.976 192.604 238.506C192.822 239.036 192.893 239.655 192.815 240.363L192.312 244.965L190.718 244.79L191.195 240.429C191.271 239.731 191.155 239.178 190.848 238.772C190.54 238.357 190.086 238.116 189.485 238.05C188.882 237.984 188.382 238.121 187.984 238.459C187.595 238.789 187.363 239.303 187.287 240.002L186.81 244.363L185.202 244.187L186.055 236.385L187.663 236.561L187.566 237.453C187.864 237.162 188.225 236.947 188.649 236.813C189.082 236.679 189.529 236.637 189.991 236.687ZM200.363 239.111C200.676 238.782 201.081 238.521 201.577 238.327C202.074 238.133 202.619 238.068 203.211 238.133C203.889 238.207 204.487 238.445 205.004 238.845C205.532 239.238 205.923 239.753 206.176 240.392C206.431 241.031 206.514 241.742 206.428 242.526C206.343 243.309 206.107 243.995 205.718 244.583C205.331 245.162 204.836 245.595 204.234 245.882C203.642 246.161 203.007 246.264 202.33 246.189C201.738 246.125 201.225 245.949 200.789 245.663C200.355 245.366 200.012 245.024 199.759 244.633L199.23 249.475L197.621 249.299L198.881 237.788L200.489 237.964L200.363 239.111ZM204.792 242.347C204.851 241.809 204.788 241.334 204.605 240.922C204.433 240.502 204.173 240.173 203.828 239.934C203.494 239.688 203.119 239.542 202.705 239.496C202.301 239.452 201.904 239.514 201.514 239.681C201.135 239.85 200.81 240.12 200.541 240.492C200.282 240.865 200.122 241.32 200.063 241.858C200.004 242.396 200.061 242.88 200.232 243.309C200.415 243.73 200.674 244.065 201.008 244.311C201.352 244.559 201.727 244.705 202.131 244.749C202.545 244.794 202.942 244.733 203.322 244.564C203.712 244.387 204.038 244.107 204.298 243.725C204.569 243.345 204.733 242.885 204.792 242.347ZM209.374 237.89C209.081 237.858 208.848 237.733 208.673 237.513C208.497 237.293 208.425 237.037 208.457 236.744C208.489 236.452 208.614 236.217 208.834 236.04C209.053 235.864 209.307 235.791 209.6 235.823C209.882 235.854 210.111 235.98 210.287 236.199C210.462 236.419 210.534 236.676 210.502 236.968C210.47 237.26 210.345 237.495 210.126 237.672C209.906 237.848 209.656 237.921 209.374 237.89ZM210.051 239.01L209.197 246.812L207.589 246.636L208.442 238.834L210.051 239.01ZM211.2 243.076C211.287 242.274 211.525 241.588 211.91 241.019C212.307 240.441 212.81 240.019 213.419 239.751C214.029 239.483 214.706 239.391 215.448 239.472C216.389 239.575 217.14 239.886 217.702 240.406C218.274 240.918 218.622 241.601 218.748 242.455L217.013 242.265C216.914 241.862 216.722 241.536 216.435 241.285C216.148 241.034 215.77 240.883 215.3 240.831C214.642 240.759 214.089 240.937 213.642 241.366C213.206 241.786 212.942 242.416 212.85 243.257C212.758 244.097 212.879 244.774 213.213 245.288C213.557 245.804 214.058 246.097 214.716 246.169C215.647 246.271 216.307 245.928 216.699 245.139L218.434 245.329C218.121 246.097 217.629 246.683 216.957 247.087C216.285 247.482 215.489 247.629 214.567 247.528C213.824 247.447 213.183 247.21 212.646 246.816C212.11 246.414 211.71 245.892 211.447 245.252C211.195 244.604 211.112 243.878 211.2 243.076ZM223.269 244.411L226.426 248.696L224.254 248.459L221.743 244.788L221.376 248.144L219.767 247.968L220.914 237.491L222.522 237.667L221.856 243.755L225.051 240.651L227.279 240.895L223.269 244.411ZM235.15 245.51C235.118 245.802 235.071 246.065 235.006 246.297L229.067 245.647C229.046 246.275 229.222 246.801 229.594 247.223C229.967 247.646 230.454 247.891 231.056 247.956C231.922 248.051 232.573 247.755 233.009 247.067L234.744 247.257C234.431 247.948 233.938 248.492 233.267 248.886C232.607 249.272 231.82 249.416 230.907 249.316C230.165 249.234 229.515 248.996 228.958 248.601C228.413 248.197 228.003 247.675 227.731 247.034C227.469 246.384 227.381 245.658 227.469 244.856C227.557 244.054 227.794 243.368 228.18 242.799C228.576 242.221 229.084 241.8 229.703 241.533C230.332 241.267 231.027 241.176 231.789 241.26C232.522 241.34 233.159 241.572 233.697 241.955C234.236 242.339 234.633 242.841 234.888 243.461C235.146 244.072 235.232 244.755 235.15 245.51ZM233.527 244.817C233.583 244.221 233.423 243.722 233.048 243.317C232.674 242.913 232.181 242.678 231.569 242.611C231.015 242.55 230.52 242.677 230.086 242.993C229.653 243.299 229.366 243.751 229.224 244.346L233.527 244.817ZM236.18 245.78C236.265 244.997 236.501 244.32 236.887 243.752C237.282 243.184 237.775 242.765 238.366 242.495C238.968 242.217 239.612 242.115 240.298 242.19C240.806 242.246 241.293 242.414 241.756 242.694C242.231 242.966 242.595 243.301 242.845 243.701L243.257 239.935L244.88 240.113L243.734 250.59L242.111 250.412L242.24 249.237C241.936 249.586 241.535 249.857 241.037 250.051C240.55 250.247 240.004 250.311 239.403 250.245C238.726 250.171 238.124 249.933 237.596 249.532C237.079 249.122 236.691 248.592 236.428 247.942C236.177 247.284 236.094 246.564 236.18 245.78ZM242.539 246.505C242.598 245.967 242.536 245.487 242.354 245.066C242.18 244.646 241.927 244.312 241.592 244.066C241.257 243.819 240.884 243.673 240.469 243.628C240.055 243.582 239.659 243.644 239.279 243.813C238.899 243.972 238.575 244.237 238.306 244.609C238.047 244.972 237.889 245.423 237.83 245.961C237.771 246.499 237.827 246.983 238 247.412C238.181 247.842 238.438 248.186 238.772 248.442C239.116 248.69 239.491 248.836 239.895 248.88C240.309 248.926 240.705 248.864 241.086 248.695C241.466 248.527 241.785 248.256 242.045 247.883C242.315 247.503 242.48 247.043 242.539 246.505ZM257.403 244.191L256.55 251.992L254.942 251.816L255.043 250.896C254.754 251.188 254.392 251.407 253.957 251.551C253.534 251.685 253.09 251.728 252.63 251.678C252.018 251.611 251.482 251.423 251.021 251.115C250.569 250.808 250.23 250.389 250.002 249.857C249.784 249.327 249.714 248.708 249.792 248L250.293 243.413L251.888 243.587L251.412 247.934C251.336 248.633 251.451 249.19 251.757 249.605C252.065 250.011 252.52 250.247 253.122 250.313C253.723 250.379 254.219 250.247 254.607 249.917C255.006 249.579 255.243 249.06 255.32 248.361L255.795 244.015L257.403 244.191ZM261.008 245.746C261.321 245.416 261.725 245.156 262.222 244.961C262.719 244.767 263.264 244.703 263.856 244.768C264.534 244.842 265.131 245.079 265.649 245.479C266.177 245.872 266.568 246.388 266.821 247.026C267.075 247.665 267.159 248.376 267.073 249.16C266.988 249.944 266.751 250.629 266.363 251.217C265.976 251.796 265.481 252.229 264.879 252.516C264.286 252.795 263.652 252.898 262.975 252.824C262.383 252.759 261.868 252.583 261.434 252.297C261 252.001 260.656 251.658 260.404 251.267L259.875 256.109L258.266 255.934L259.526 244.423L261.134 244.599L261.008 245.746ZM265.437 248.981C265.496 248.443 265.433 247.968 265.25 247.556C265.077 247.136 264.818 246.807 264.473 246.569C264.138 246.322 263.764 246.176 263.35 246.131C262.946 246.087 262.549 246.148 262.159 246.316C261.779 246.484 261.455 246.754 261.186 247.126C260.926 247.499 260.767 247.954 260.708 248.492C260.649 249.03 260.705 249.514 260.877 249.944C261.06 250.365 261.318 250.699 261.653 250.945C261.997 251.193 262.372 251.339 262.776 251.383C263.19 251.429 263.586 251.367 263.967 251.199C264.357 251.021 264.682 250.742 264.943 250.36C265.214 249.979 265.378 249.519 265.437 248.981ZM274.232 247.207C274.547 246.859 274.951 246.592 275.447 246.408C275.954 246.215 276.498 246.151 277.082 246.214C277.768 246.29 278.371 246.522 278.89 246.914C279.409 247.305 279.795 247.824 280.047 248.473C280.3 249.112 280.385 249.823 280.299 250.607C280.213 251.391 279.976 252.076 279.588 252.664C279.202 253.243 278.707 253.676 278.104 253.963C277.512 254.242 276.878 254.345 276.201 254.271C275.599 254.205 275.076 254.028 274.631 253.741C274.196 253.455 273.863 253.112 273.63 252.714L273.506 253.847L271.898 253.671L273.044 243.194L274.652 243.37L274.232 247.207ZM278.662 250.428C278.721 249.89 278.659 249.415 278.476 249.003C278.302 248.583 278.044 248.254 277.699 248.016C277.364 247.769 276.99 247.623 276.576 247.578C276.172 247.533 275.774 247.595 275.385 247.762C275.005 247.931 274.68 248.201 274.411 248.573C274.151 248.946 273.992 249.401 273.933 249.939C273.875 250.477 273.931 250.961 274.103 251.39C274.285 251.812 274.543 252.146 274.879 252.392C275.223 252.64 275.597 252.786 276.001 252.83C276.415 252.876 276.812 252.814 277.192 252.645C277.583 252.468 277.908 252.188 278.169 251.807C278.439 251.426 278.604 250.966 278.662 250.428ZM289.309 247.681L283.286 258.628L281.622 258.446L283.617 254.824L281.395 246.815L283.186 247.011L284.723 253.197L287.644 247.499L289.309 247.681ZM293.228 252.021C293.314 251.237 293.55 250.561 293.935 249.992C294.331 249.425 294.825 249.006 295.415 248.736C296.016 248.458 296.656 248.356 297.333 248.43C297.944 248.497 298.462 248.677 298.887 248.972C299.322 249.258 299.657 249.596 299.889 249.985L300.013 248.852L301.636 249.029L300.782 256.831L299.16 256.653L299.287 255.492C298.975 255.831 298.569 256.096 298.072 256.291C297.575 256.485 297.026 256.549 296.423 256.483C295.756 256.41 295.163 256.173 294.645 255.773C294.129 255.363 293.739 254.833 293.477 254.183C293.226 253.525 293.142 252.805 293.228 252.021ZM299.587 252.746C299.646 252.208 299.585 251.728 299.402 251.307C299.23 250.887 298.976 250.553 298.641 250.307C298.307 250.06 297.932 249.914 297.518 249.869C297.105 249.823 296.708 249.885 296.327 250.053C295.949 250.213 295.624 250.478 295.355 250.85C295.097 251.213 294.938 251.664 294.879 252.202C294.82 252.74 294.877 253.224 295.048 253.653C295.23 254.083 295.488 254.427 295.821 254.683C296.165 254.931 296.539 255.077 296.943 255.121C297.358 255.167 297.755 255.105 298.134 254.936C298.515 254.768 298.835 254.497 299.094 254.124C299.364 253.744 299.529 253.284 299.587 252.746ZM307.685 249.562C308.295 249.629 308.827 249.816 309.279 250.124C309.74 250.432 310.08 250.851 310.298 251.381C310.515 251.912 310.586 252.53 310.509 253.238L310.005 257.84L308.411 257.665L308.888 253.305C308.965 252.606 308.849 252.054 308.541 251.648C308.234 251.232 307.78 250.991 307.179 250.925C306.576 250.859 306.076 250.996 305.678 251.334C305.289 251.664 305.057 252.178 304.981 252.877L304.504 257.238L302.895 257.062L303.749 249.261L305.357 249.437L305.259 250.329C305.557 250.037 305.918 249.822 306.343 249.688C306.776 249.554 307.223 249.512 307.685 249.562ZM315.414 258.56C314.68 258.48 314.035 258.243 313.479 257.847C312.923 257.443 312.51 256.919 312.237 256.279C311.966 255.628 311.874 254.901 311.962 254.099C312.048 253.306 312.299 252.623 312.714 252.047C313.13 251.471 313.656 251.052 314.294 250.787C314.933 250.522 315.623 250.431 316.366 250.512C317.109 250.593 317.763 250.832 318.329 251.228C318.895 251.625 319.318 252.148 319.599 252.8C319.88 253.452 319.977 254.174 319.89 254.967C319.803 255.759 319.548 256.443 319.123 257.018C318.699 257.592 318.157 258.015 317.499 258.287C316.852 258.551 316.157 258.642 315.414 258.56ZM315.567 257.159C315.981 257.204 316.378 257.147 316.756 256.988C317.145 256.83 317.474 256.565 317.743 256.193C318.012 255.821 318.177 255.352 318.239 254.786C318.301 254.22 318.245 253.732 318.071 253.32C317.899 252.9 317.644 252.572 317.308 252.334C316.973 252.097 316.598 251.956 316.184 251.911C315.771 251.865 315.374 251.922 314.995 252.081C314.625 252.241 314.316 252.508 314.065 252.882C313.816 253.247 313.66 253.712 313.598 254.278C313.506 255.119 313.646 255.793 314.019 256.302C314.403 256.802 314.918 257.088 315.567 257.159ZM323.638 252.769L323.166 257.087C323.134 257.38 323.176 257.599 323.293 257.746C323.421 257.884 323.649 257.971 323.979 258.007L324.966 258.115L324.819 259.46L323.549 259.321C322.825 259.242 322.289 259.012 321.94 258.63C321.592 258.248 321.46 257.674 321.543 256.91L322.016 252.591L321.099 252.491L321.243 251.174L322.16 251.275L322.372 249.335L323.994 249.513L323.782 251.452L325.672 251.659L325.528 252.976L323.638 252.769ZM331.189 252.134C331.782 252.198 332.295 252.383 332.727 252.689C333.17 252.995 333.496 253.412 333.704 253.942C333.922 254.472 333.992 255.091 333.915 255.799L333.411 260.4L331.817 260.226L332.294 255.865C332.371 255.166 332.255 254.614 331.947 254.208C331.641 253.793 331.186 253.552 330.584 253.486C329.983 253.42 329.483 253.557 329.084 253.895C328.696 254.225 328.463 254.739 328.387 255.438L327.909 259.798L326.301 259.622L327.447 249.145L329.056 249.321L328.664 252.903C328.973 252.602 329.344 252.385 329.777 252.251C330.22 252.119 330.69 252.079 331.189 252.134ZM343.035 257.312C343.003 257.605 342.955 257.867 342.892 258.099L336.952 257.449C336.932 258.077 337.107 258.603 337.479 259.026C337.852 259.448 338.339 259.693 338.941 259.759C339.807 259.853 340.457 259.557 340.894 258.869L342.629 259.059C342.316 259.75 341.823 260.294 341.152 260.688C340.491 261.074 339.704 261.218 338.792 261.118C338.05 261.037 337.4 260.799 336.843 260.403C336.297 260 335.888 259.477 335.616 258.836C335.353 258.186 335.267 257.46 335.354 256.658C335.442 255.856 335.679 255.17 336.065 254.601C336.461 254.023 336.968 253.602 337.588 253.335C338.217 253.069 338.912 252.978 339.674 253.062C340.407 253.142 341.044 253.374 341.582 253.758C342.12 254.141 342.518 254.643 342.773 255.263C343.03 255.874 343.117 256.557 343.035 257.312ZM341.412 256.619C341.468 256.023 341.308 255.524 340.933 255.119C340.558 254.715 340.066 254.48 339.454 254.413C338.899 254.352 338.405 254.48 337.971 254.795C337.538 255.101 337.251 255.553 337.109 256.148L341.412 256.619ZM346.508 255.085C346.786 254.714 347.13 254.441 347.54 254.266C347.959 254.083 348.437 254.02 348.973 254.079L348.791 255.75L348.381 255.705C347.751 255.636 347.253 255.744 346.89 256.029C346.534 256.315 346.314 256.854 346.227 257.647L345.778 261.753L344.17 261.577L345.024 253.776L346.632 253.952L346.508 255.085ZM353.14 258.604C353.227 257.802 353.464 257.116 353.85 256.547C354.247 255.969 354.75 255.547 355.359 255.279C355.97 255.011 356.646 254.918 357.388 255C358.33 255.103 359.081 255.414 359.642 255.934C360.214 256.446 360.563 257.129 360.688 257.983L358.953 257.793C358.854 257.39 358.662 257.064 358.375 256.813C358.088 256.561 357.71 256.41 357.24 256.359C356.582 256.287 356.029 256.465 355.582 256.894C355.147 257.314 354.882 257.944 354.79 258.785C354.698 259.625 354.82 260.301 355.153 260.816C355.496 261.331 355.998 261.625 356.656 261.697C357.587 261.798 358.248 261.455 358.639 260.667L360.374 260.857C360.061 261.625 359.569 262.211 358.897 262.615C358.225 263.009 357.429 263.157 356.507 263.056C355.764 262.975 355.124 262.738 354.586 262.344C354.05 261.942 353.65 261.42 353.387 260.78C353.135 260.131 353.052 259.406 353.14 258.604ZM369.6 256.465L368.747 264.266L367.139 264.09L367.239 263.17C366.95 263.462 366.589 263.681 366.154 263.825C365.73 263.959 365.287 264.002 364.827 263.952C364.215 263.885 363.679 263.697 363.218 263.389C362.766 263.081 362.427 262.663 362.199 262.131C361.981 261.601 361.911 260.982 361.988 260.274L362.49 255.687L364.084 255.861L363.609 260.208C363.532 260.907 363.648 261.464 363.954 261.879C364.262 262.285 364.717 262.521 365.319 262.587C365.92 262.653 366.416 262.521 366.804 262.191C367.203 261.853 367.44 261.334 367.517 260.635L367.992 256.289L369.6 256.465ZM373.207 258.005C373.485 257.635 373.829 257.362 374.239 257.187C374.658 257.004 375.136 256.941 375.672 257L375.49 258.671L375.08 258.626C374.45 258.557 373.952 258.665 373.589 258.95C373.233 259.235 373.013 259.775 372.926 260.568L372.477 264.674L370.869 264.498L371.722 256.697L373.331 256.873L373.207 258.005ZM378.621 258.598C378.899 258.227 379.243 257.954 379.653 257.779C380.072 257.596 380.55 257.533 381.086 257.592L380.904 259.263L380.495 259.218C379.864 259.149 379.367 259.257 379.003 259.542C378.648 259.828 378.427 260.367 378.341 261.16L377.891 265.266L376.283 265.09L377.137 257.289L378.745 257.465L378.621 258.598ZM383.482 256.937C383.19 256.905 382.957 256.779 382.781 256.56C382.605 256.34 382.533 256.083 382.565 255.791C382.597 255.499 382.723 255.264 382.942 255.087C383.161 254.911 383.416 254.838 383.708 254.87C383.99 254.901 384.219 255.026 384.395 255.246C384.571 255.466 384.643 255.723 384.611 256.015C384.579 256.307 384.453 256.542 384.234 256.719C384.015 256.895 383.764 256.968 383.482 256.937ZM384.159 258.057L383.306 265.858L381.697 265.683L382.551 257.881L384.159 258.057ZM392.988 262.777C392.956 263.069 392.908 263.332 392.845 263.564L386.906 262.914C386.885 263.542 387.06 264.068 387.433 264.49C387.806 264.913 388.293 265.158 388.895 265.223C389.76 265.318 390.411 265.022 390.848 264.334L392.583 264.524C392.27 265.215 391.777 265.759 391.106 266.153C390.445 266.539 389.658 266.682 388.746 266.583C388.003 266.501 387.353 266.263 386.797 265.868C386.251 265.464 385.842 264.942 385.569 264.301C385.307 263.651 385.22 262.925 385.308 262.123C385.396 261.321 385.633 260.635 386.018 260.066C386.415 259.488 386.922 259.067 387.542 258.8C388.17 258.534 388.866 258.443 389.627 258.526C390.361 258.607 390.997 258.839 391.536 259.222C392.074 259.606 392.472 260.108 392.727 260.728C392.984 261.339 393.071 262.022 392.988 262.777ZM391.365 262.084C391.421 261.488 391.262 260.989 390.887 260.584C390.512 260.18 390.02 259.945 389.408 259.878C388.853 259.817 388.359 259.944 387.924 260.26C387.491 260.566 387.204 261.017 387.063 261.613L391.365 262.084ZM396.462 260.549C396.74 260.179 397.084 259.906 397.493 259.731C397.913 259.548 398.391 259.485 398.927 259.544L398.744 261.215L398.335 261.17C397.704 261.101 397.207 261.209 396.844 261.494C396.488 261.779 396.268 262.319 396.181 263.112L395.732 267.218L394.124 267.042L394.977 259.241L396.585 259.417L396.462 260.549Z" fill="#1B1B1B"/>
<path d="M131.974 258.959C133.088 258.246 133.964 257.658 134.602 257.196C135.241 256.725 135.789 256.224 136.247 255.693C136.714 255.155 136.978 254.606 137.039 254.048C137.096 253.522 137.012 253.095 136.787 252.768C136.571 252.433 136.181 252.235 135.616 252.173C135.068 252.113 134.622 252.24 134.277 252.555C133.942 252.862 133.731 253.301 133.644 253.873L132.58 253.757C132.711 252.854 133.062 252.184 133.632 251.747C134.202 251.31 134.894 251.136 135.708 251.225C136.538 251.316 137.17 251.618 137.603 252.133C138.044 252.647 138.221 253.309 138.132 254.119C138.059 254.79 137.786 255.423 137.313 256.018C136.849 256.606 136.336 257.115 135.775 257.545C135.215 257.967 134.505 258.454 133.645 259.007L137.805 259.462L137.704 260.384L131.888 259.748L131.974 258.959ZM138.929 259.72C140.043 259.007 140.919 258.419 141.557 257.956C142.196 257.486 142.744 256.985 143.202 256.454C143.669 255.915 143.933 255.367 143.994 254.809C144.051 254.283 143.968 253.856 143.742 253.529C143.526 253.194 143.136 252.996 142.571 252.934C142.023 252.874 141.577 253.001 141.233 253.316C140.897 253.623 140.686 254.062 140.599 254.634L139.535 254.518C139.666 253.615 140.017 252.945 140.587 252.508C141.157 252.071 141.849 251.897 142.663 251.986C143.493 252.077 144.125 252.379 144.558 252.893C145 253.408 145.176 254.07 145.087 254.879C145.014 255.551 144.741 256.184 144.268 256.779C143.804 257.367 143.291 257.876 142.73 258.306C142.17 258.728 141.46 259.215 140.6 259.768L144.76 260.223L144.659 261.145L138.843 260.509L138.929 259.72ZM155.015 253.816L154.917 254.714L151.253 254.314L150.941 257.165L153.916 257.491L153.817 258.389L150.843 258.063L150.426 261.874L149.325 261.754L150.251 253.295L155.015 253.816ZM161.856 259.502C161.833 259.712 161.797 259.933 161.747 260.165L156.451 259.586C156.419 260.245 156.585 260.783 156.947 261.2C157.318 261.609 157.794 261.845 158.375 261.909C158.85 261.961 159.257 261.895 159.596 261.711C159.943 261.519 160.201 261.245 160.371 260.887L161.556 261.016C161.309 261.636 160.897 262.119 160.321 262.465C159.745 262.804 159.063 262.929 158.273 262.843C157.644 262.774 157.095 262.571 156.626 262.233C156.165 261.896 155.822 261.453 155.597 260.905C155.372 260.348 155.297 259.726 155.373 259.038C155.448 258.35 155.651 257.763 155.982 257.275C156.312 256.787 156.739 256.432 157.26 256.211C157.791 255.983 158.379 255.904 159.024 255.974C159.653 256.043 160.194 256.241 160.648 256.569C161.101 256.897 161.43 257.318 161.635 257.832C161.849 258.338 161.923 258.895 161.856 259.502ZM160.745 259.147C160.791 258.726 160.738 258.356 160.585 258.036C160.433 257.708 160.204 257.45 159.899 257.261C159.602 257.065 159.26 256.946 158.873 256.903C158.317 256.842 157.822 256.968 157.388 257.281C156.962 257.595 156.687 258.064 156.561 258.689L160.745 259.147ZM164.61 257.948C164.879 257.577 165.245 257.289 165.707 257.086C166.17 256.883 166.68 256.812 167.236 256.872C167.832 256.938 168.353 257.138 168.798 257.473C169.242 257.808 169.573 258.25 169.791 258.798C170.009 259.337 170.081 259.947 170.007 260.627C169.933 261.298 169.731 261.882 169.399 262.378C169.067 262.874 168.644 263.241 168.128 263.479C167.621 263.718 167.073 263.806 166.484 263.741C165.912 263.679 165.422 263.498 165.014 263.2C164.614 262.902 164.327 262.547 164.152 262.135L164.017 263.361L162.917 263.241L163.9 254.26L165 254.38L164.61 257.948ZM168.882 260.504C168.937 260.002 168.884 259.554 168.723 259.16C168.562 258.766 168.319 258.452 167.994 258.22C167.677 257.989 167.312 257.851 166.901 257.806C166.498 257.762 166.112 257.822 165.743 257.986C165.384 258.144 165.078 258.401 164.827 258.758C164.585 259.108 164.437 259.53 164.383 260.024C164.328 260.525 164.38 260.977 164.54 261.379C164.709 261.775 164.952 262.092 165.268 262.331C165.594 262.563 165.958 262.701 166.361 262.745C166.772 262.79 167.157 262.734 167.517 262.577C167.886 262.413 168.192 262.156 168.434 261.805C168.677 261.447 168.826 261.013 168.882 260.504ZM172.393 262.73L170.681 265.846L169.944 265.765L171.183 262.597L172.393 262.73ZM177.018 260.251C177.17 258.86 177.515 257.8 178.051 257.073C178.588 256.338 179.421 256.032 180.55 256.155C181.671 256.278 182.414 256.756 182.779 257.59C183.146 258.416 183.253 259.525 183.1 260.917C182.946 262.333 182.6 263.408 182.062 264.144C181.525 264.879 180.696 265.186 179.576 265.063C178.447 264.939 177.7 264.461 177.334 263.626C176.969 262.792 176.863 261.667 177.018 260.251ZM182.012 260.798C182.089 260.094 182.106 259.494 182.062 258.998C182.028 258.495 181.882 258.078 181.624 257.747C181.375 257.416 180.98 257.222 180.44 257.163C179.892 257.103 179.456 257.206 179.133 257.474C178.818 257.742 178.585 258.118 178.435 258.601C178.293 259.077 178.184 259.667 178.107 260.371C178.027 261.099 178.004 261.714 178.039 262.218C178.082 262.722 178.228 263.139 178.477 263.469C178.735 263.8 179.138 263.996 179.686 264.056C180.226 264.115 180.653 264.01 180.968 263.742C181.291 263.474 181.524 263.098 181.667 262.614C181.817 262.131 181.933 261.526 182.012 260.798ZM186.216 261.172C185.784 260.944 185.466 260.648 185.261 260.281C185.057 259.915 184.981 259.489 185.034 259.004C185.082 258.567 185.234 258.186 185.489 257.862C185.746 257.53 186.099 257.286 186.548 257.131C187.007 256.968 187.542 256.92 188.155 256.987C188.767 257.054 189.276 257.216 189.68 257.473C190.093 257.723 190.389 258.038 190.568 258.418C190.756 258.79 190.826 259.195 190.778 259.632C190.726 260.101 190.556 260.5 190.268 260.829C189.98 261.15 189.609 261.371 189.155 261.493C189.638 261.702 190.003 262.016 190.251 262.436C190.507 262.849 190.606 263.326 190.547 263.868C190.489 264.394 190.31 264.841 190.009 265.209C189.708 265.57 189.308 265.833 188.809 265.999C188.318 266.158 187.766 266.205 187.154 266.138C186.541 266.071 186.013 265.906 185.568 265.645C185.132 265.376 184.807 265.033 184.591 264.617C184.377 264.192 184.298 263.717 184.356 263.191C184.415 262.649 184.611 262.2 184.944 261.843C185.276 261.486 185.701 261.263 186.216 261.172ZM189.699 259.649C189.753 259.156 189.633 258.758 189.34 258.456C189.047 258.153 188.618 257.971 188.054 257.91C187.498 257.849 187.044 257.934 186.692 258.166C186.34 258.398 186.137 258.764 186.082 259.266C186.033 259.719 186.158 260.101 186.459 260.412C186.767 260.724 187.187 260.91 187.719 260.968C188.259 261.027 188.71 260.937 189.07 260.698C189.44 260.452 189.65 260.102 189.699 259.649ZM187.626 261.817C187.03 261.752 186.527 261.84 186.117 262.082C185.708 262.316 185.473 262.711 185.412 263.27C185.355 263.788 185.491 264.224 185.819 264.579C186.155 264.935 186.634 265.147 187.255 265.215C187.875 265.283 188.384 265.179 188.782 264.903C189.179 264.628 189.406 264.231 189.463 263.713C189.522 263.171 189.382 262.738 189.042 262.414C188.703 262.082 188.231 261.883 187.626 261.817ZM192.273 266.526C192.064 266.503 191.894 266.411 191.765 266.249C191.636 266.088 191.583 265.902 191.606 265.691C191.629 265.481 191.721 265.311 191.882 265.181C192.043 265.051 192.228 264.998 192.438 265.021C192.639 265.043 192.801 265.134 192.922 265.295C193.051 265.456 193.104 265.642 193.081 265.853C193.058 266.063 192.966 266.233 192.805 266.363C192.652 266.493 192.475 266.548 192.273 266.526ZM192.841 261.332C192.632 261.309 192.462 261.216 192.333 261.055C192.204 260.893 192.151 260.708 192.174 260.497C192.197 260.287 192.289 260.117 192.45 259.987C192.611 259.857 192.796 259.804 193.006 259.827C193.208 259.849 193.369 259.94 193.49 260.101C193.619 260.262 193.672 260.448 193.649 260.659C193.626 260.869 193.534 261.039 193.373 261.169C193.22 261.299 193.043 261.354 192.841 261.332ZM195.018 260.108C195.156 259.37 195.505 258.819 196.067 258.455C196.629 258.09 197.321 257.953 198.144 258.043C198.692 258.103 199.152 258.256 199.525 258.501C199.907 258.74 200.18 259.04 200.345 259.401C200.517 259.764 200.58 260.16 200.533 260.589C200.478 261.09 200.285 261.507 199.955 261.84C199.633 262.173 199.237 262.367 198.766 262.422L198.759 262.482C199.269 262.669 199.656 262.97 199.921 263.383C200.186 263.797 200.285 264.311 200.217 264.926C200.167 265.387 200.017 265.793 199.766 266.142C199.517 266.483 199.171 266.736 198.729 266.9C198.287 267.065 197.771 267.115 197.183 267.05C196.328 266.957 195.651 266.658 195.152 266.153C194.653 265.64 194.417 264.967 194.443 264.135L195.507 264.251C195.51 264.743 195.664 265.161 195.969 265.505C196.274 265.85 196.709 266.053 197.273 266.115C197.837 266.176 198.28 266.078 198.602 265.818C198.933 265.551 199.125 265.183 199.176 264.714C199.242 264.107 199.089 263.648 198.715 263.337C198.341 263.026 197.747 262.826 196.933 262.737L196.655 262.707L196.755 261.784L197.046 261.816C197.788 261.889 198.362 261.829 198.766 261.636C199.172 261.435 199.402 261.083 199.457 260.582C199.504 260.153 199.4 259.793 199.146 259.504C198.901 259.215 198.52 259.042 198.004 258.986C197.504 258.931 197.087 259.016 196.752 259.242C196.418 259.467 196.198 259.795 196.094 260.226L195.018 260.108ZM201.408 266.555C202.522 265.842 203.398 265.254 204.036 264.791C204.674 264.321 205.223 263.82 205.681 263.289C206.147 262.75 206.411 262.202 206.472 261.644C206.53 261.118 206.446 260.691 206.221 260.364C206.005 260.029 205.614 259.831 205.05 259.769C204.502 259.709 204.056 259.836 203.711 260.15C203.376 260.458 203.165 260.897 203.078 261.469L202.013 261.352C202.145 260.45 202.495 259.78 203.065 259.343C203.635 258.906 204.327 258.732 205.142 258.821C205.972 258.912 206.604 259.214 207.037 259.728C207.478 260.243 207.655 260.905 207.566 261.714C207.493 262.386 207.219 263.019 206.746 263.614C206.282 264.202 205.77 264.711 205.209 265.141C204.649 265.563 203.939 266.05 203.079 266.602L207.238 267.058L207.138 267.98L201.321 267.344L201.408 266.555ZM216.992 267.253L213.316 266.85L212.433 268.657L211.272 268.53L215.24 260.454L216.509 260.593L218.624 269.335L217.464 269.208L216.992 267.253ZM216.776 266.32L215.72 261.882L213.729 265.987L216.776 266.32ZM229.42 262.017L228.501 270.415L227.401 270.295L228.086 264.033L224.62 269.991L223.846 269.906L221.739 263.326L221.053 269.6L219.952 269.48L220.871 261.082L222.056 261.212L224.392 268.492L228.247 261.889L229.42 262.017Z" fill="#949191"/>
<path d="M108.452 281.844L106.437 281.624L102.011 322.076L104.027 322.297L108.452 281.844Z" fill="#F71D3B"/>
<path d="M104.026 322.297L102.011 322.076L97.5854 362.529L99.6007 362.749L104.026 322.297Z" fill="#F71D3B"/>
<path d="M102.465 327.243C105.248 327.547 107.751 325.53 108.057 322.738C108.362 319.945 106.354 317.434 103.572 317.13C100.789 316.826 98.2855 318.843 97.98 321.635C97.6745 324.428 99.6826 326.939 102.465 327.243Z" fill="#F71D3B"/>
<path d="M128.475 309.896L127.399 319.736L125.791 319.561L126.867 309.721L128.475 309.896ZM132.096 313.688L131.624 318.007C131.592 318.299 131.634 318.518 131.751 318.665C131.879 318.803 132.107 318.89 132.437 318.926L133.424 319.035L133.277 320.38L132.007 320.241C131.283 320.161 130.747 319.931 130.398 319.549C130.05 319.167 129.918 318.594 130.001 317.829L130.474 313.511L129.557 313.41L129.701 312.094L130.618 312.194L130.83 310.254L132.452 310.432L132.24 312.371L134.13 312.578L133.986 313.895L132.096 313.688ZM136.09 310.729L137.839 310.921L135.989 314.128L134.86 314.005L136.09 310.729ZM140.983 321.352C140.372 321.285 139.834 321.116 139.368 320.845C138.913 320.566 138.566 320.222 138.325 319.814C138.085 319.396 137.981 318.951 138.014 318.476L139.679 318.658C139.671 318.992 139.796 319.287 140.053 319.545C140.321 319.794 140.671 319.942 141.104 319.989C141.555 320.039 141.912 319.992 142.176 319.849C142.449 319.697 142.601 319.485 142.631 319.211C142.663 318.918 142.545 318.686 142.279 318.513C142.022 318.342 141.601 318.138 141.018 317.902C140.452 317.678 139.995 317.47 139.644 317.279C139.294 317.088 139 316.822 138.761 316.481C138.532 316.14 138.445 315.715 138.501 315.206C138.546 314.79 138.71 314.426 138.991 314.113C139.274 313.791 139.652 313.555 140.125 313.406C140.608 313.258 141.145 313.217 141.738 313.282C142.622 313.378 143.307 313.682 143.793 314.194C144.29 314.698 144.515 315.339 144.468 316.116L142.86 315.94C142.87 315.588 142.759 315.294 142.528 315.059C142.297 314.824 141.965 314.682 141.532 314.635C141.109 314.588 140.776 314.633 140.533 314.769C140.289 314.905 140.153 315.105 140.124 315.369C140.102 315.576 140.158 315.759 140.293 315.917C140.428 316.075 140.599 316.209 140.806 316.317C141.014 316.417 141.323 316.551 141.733 316.72C142.28 316.932 142.724 317.138 143.064 317.338C143.414 317.529 143.705 317.79 143.935 318.121C144.165 318.452 144.258 318.868 144.212 319.369C144.164 319.813 143.998 320.196 143.715 320.519C143.433 320.841 143.055 321.077 142.582 321.226C142.118 321.375 141.585 321.417 140.983 321.352ZM151.711 315.676C152.025 315.329 152.43 315.062 152.926 314.878C153.433 314.685 153.977 314.621 154.56 314.684C155.247 314.759 155.85 314.992 156.368 315.384C156.887 315.775 157.273 316.294 157.525 316.943C157.779 317.582 157.863 318.293 157.777 319.077C157.692 319.86 157.455 320.546 157.067 321.134C156.68 321.713 156.185 322.146 155.583 322.433C154.991 322.712 154.356 322.814 153.679 322.74C153.077 322.675 152.554 322.498 152.11 322.211C151.674 321.924 151.341 321.582 151.108 321.184L150.984 322.317L149.376 322.141L150.522 311.664L152.131 311.839L151.711 315.676ZM156.141 318.898C156.2 318.36 156.137 317.885 155.954 317.473C155.781 317.053 155.522 316.724 155.177 316.485C154.842 316.239 154.468 316.093 154.054 316.047C153.65 316.003 153.253 316.065 152.863 316.232C152.483 316.401 152.159 316.671 151.89 317.043C151.63 317.416 151.471 317.871 151.412 318.409C151.353 318.947 151.41 319.431 151.581 319.86C151.764 320.281 152.022 320.616 152.357 320.862C152.701 321.11 153.075 321.256 153.48 321.3C153.893 321.345 154.29 321.283 154.671 321.115C155.061 320.938 155.387 320.658 155.647 320.276C155.918 319.896 156.082 319.436 156.141 318.898ZM166.509 319.874C166.477 320.167 166.429 320.429 166.366 320.661L160.427 320.011C160.405 320.639 160.581 321.165 160.954 321.588C161.326 322.01 161.813 322.255 162.415 322.321C163.281 322.415 163.932 322.119 164.368 321.431L166.104 321.621C165.79 322.312 165.298 322.856 164.626 323.25C163.965 323.636 163.179 323.78 162.267 323.68C161.524 323.599 160.874 323.361 160.318 322.965C159.772 322.562 159.362 322.039 159.09 321.398C158.828 320.748 158.741 320.022 158.828 319.22C158.916 318.418 159.153 317.732 159.539 317.163C159.935 316.585 160.443 316.164 161.062 315.897C161.691 315.631 162.386 315.54 163.148 315.624C163.881 315.704 164.518 315.936 165.056 316.32C165.595 316.703 165.992 317.205 166.248 317.825C166.504 318.436 166.592 319.119 166.509 319.874ZM164.886 319.181C164.942 318.585 164.782 318.086 164.407 317.681C164.033 317.277 163.54 317.042 162.929 316.975C162.374 316.915 161.879 317.042 161.445 317.357C161.012 317.663 160.724 318.115 160.583 318.71L164.886 319.181ZM175.216 320.827C175.184 321.119 175.135 321.382 175.072 321.613L169.133 320.964C169.112 321.592 169.287 322.118 169.66 322.54C170.033 322.963 170.52 323.207 171.122 323.273C171.988 323.368 172.638 323.072 173.075 322.384L174.81 322.573C174.497 323.265 174.004 323.808 173.333 324.203C172.672 324.589 171.885 324.732 170.973 324.632C170.231 324.551 169.581 324.313 169.024 323.918C168.478 323.514 168.069 322.991 167.797 322.351C167.534 321.701 167.447 320.975 167.535 320.173C167.623 319.371 167.86 318.684 168.246 318.116C168.642 317.538 169.149 317.116 169.769 316.85C170.398 316.584 171.093 316.493 171.855 316.576C172.588 316.656 173.224 316.889 173.763 317.272C174.301 317.655 174.699 318.157 174.954 318.778C175.211 319.388 175.298 320.071 175.216 320.827ZM173.593 320.133C173.649 319.538 173.489 319.038 173.114 318.634C172.739 318.23 172.247 317.995 171.635 317.928C171.08 317.867 170.586 317.994 170.152 318.31C169.718 318.616 169.431 319.067 169.29 319.663L173.593 320.133ZM181.14 317.592C181.751 317.659 182.283 317.846 182.735 318.153C183.196 318.462 183.535 318.881 183.754 319.411C183.971 319.941 184.042 320.56 183.964 321.268L183.461 325.869L181.867 325.695L182.344 321.334C182.42 320.635 182.304 320.083 181.997 319.677C181.69 319.262 181.236 319.021 180.634 318.955C180.032 318.889 179.531 319.026 179.133 319.364C178.744 319.694 178.513 320.208 178.436 320.907L177.959 325.268L176.351 325.092L177.204 317.29L178.813 317.466L178.715 318.358C179.013 318.066 179.374 317.852 179.799 317.717C180.231 317.584 180.679 317.542 181.14 317.592ZM189.071 322.5C189.157 321.716 189.393 321.04 189.778 320.471C190.174 319.904 190.667 319.485 191.258 319.215C191.859 318.937 192.504 318.835 193.19 318.91C193.698 318.966 194.184 319.134 194.648 319.414C195.123 319.686 195.486 320.021 195.737 320.421L196.149 316.655L197.771 316.832L196.625 327.31L195.003 327.132L195.131 325.957C194.827 326.305 194.426 326.577 193.929 326.771C193.441 326.966 192.897 327.031 192.294 326.965C191.617 326.891 191.015 326.653 190.488 326.251C189.972 325.842 189.582 325.312 189.32 324.662C189.069 324.004 188.985 323.284 189.071 322.5ZM195.43 323.224C195.489 322.686 195.427 322.207 195.245 321.786C195.073 321.366 194.819 321.032 194.484 320.785C194.15 320.539 193.775 320.393 193.361 320.347C192.948 320.302 192.55 320.364 192.17 320.532C191.792 320.691 191.467 320.957 191.198 321.329C190.94 321.692 190.78 322.143 190.721 322.681C190.663 323.219 190.72 323.703 190.891 324.132C191.072 324.562 191.331 324.906 191.663 325.162C192.008 325.41 192.382 325.556 192.786 325.6C193.2 325.645 193.598 325.583 193.977 325.415C194.357 325.247 194.678 324.976 194.937 324.603C195.207 324.222 195.371 323.762 195.43 323.224ZM201.076 321.048C201.354 320.677 201.698 320.405 202.108 320.23C202.527 320.046 203.005 319.984 203.541 320.043L203.359 321.713L202.95 321.669C202.319 321.6 201.821 321.708 201.458 321.993C201.102 322.278 200.882 322.818 200.796 323.611L200.346 327.717L198.738 327.541L199.592 319.739L201.2 319.915L201.076 321.048ZM207.51 328.629C206.776 328.549 206.131 328.312 205.575 327.916C205.02 327.512 204.606 326.988 204.333 326.348C204.062 325.697 203.97 324.97 204.058 324.168C204.145 323.375 204.395 322.691 204.811 322.116C205.225 321.54 205.752 321.121 206.39 320.856C207.028 320.591 207.718 320.5 208.462 320.581C209.204 320.662 209.859 320.9 210.425 321.297C210.99 321.694 211.413 322.217 211.695 322.869C211.975 323.521 212.073 324.243 211.986 325.036C211.899 325.828 211.643 326.512 211.219 327.086C210.794 327.661 210.254 328.084 209.596 328.356C208.948 328.62 208.253 328.711 207.51 328.629ZM207.663 327.228C208.076 327.273 208.473 327.216 208.853 327.057C209.241 326.899 209.57 326.634 209.839 326.262C210.108 325.89 210.274 325.421 210.336 324.855C210.397 324.289 210.341 323.8 210.167 323.389C209.994 322.969 209.74 322.641 209.405 322.403C209.068 322.166 208.693 322.025 208.28 321.979C207.866 321.934 207.469 321.991 207.091 322.15C206.721 322.31 206.411 322.577 206.161 322.951C205.911 323.316 205.756 323.781 205.694 324.347C205.602 325.188 205.743 325.862 206.115 326.371C206.498 326.871 207.014 327.157 207.663 327.228ZM215.484 322.639C215.796 322.309 216.201 322.049 216.697 321.854C217.195 321.66 217.739 321.596 218.332 321.661C219.009 321.735 219.607 321.972 220.124 322.373C220.652 322.765 221.043 323.281 221.297 323.919C221.551 324.558 221.635 325.269 221.549 326.053C221.463 326.837 221.227 327.522 220.838 328.11C220.452 328.689 219.957 329.122 219.354 329.409C218.763 329.688 218.128 329.791 217.451 329.717C216.858 329.652 216.345 329.476 215.909 329.19C215.476 328.894 215.133 328.551 214.88 328.16L214.35 333.002L212.742 332.827L214.001 321.316L215.609 321.492L215.484 322.639ZM219.912 325.874C219.971 325.336 219.909 324.861 219.726 324.449C219.553 324.029 219.294 323.7 218.949 323.462C218.615 323.215 218.24 323.069 217.826 323.024C217.422 322.98 217.024 323.041 216.635 323.209C216.256 323.377 215.93 323.647 215.661 324.019C215.402 324.392 215.242 324.847 215.183 325.385C215.125 325.923 215.182 326.408 215.353 326.837C215.535 327.258 215.794 327.592 216.128 327.838C216.473 328.086 216.847 328.232 217.251 328.276C217.665 328.322 218.063 328.26 218.442 328.092C218.833 327.914 219.159 327.635 219.419 327.253C219.689 326.872 219.854 326.412 219.912 325.874ZM225.046 323.685C225.357 323.355 225.762 323.095 226.259 322.9C226.756 322.706 227.301 322.642 227.894 322.707C228.571 322.781 229.168 323.018 229.686 323.419C230.214 323.811 230.604 324.326 230.859 324.965C231.112 325.604 231.196 326.315 231.111 327.099C231.025 327.883 230.788 328.568 230.4 329.156C230.012 329.735 229.518 330.168 228.916 330.455C228.324 330.734 227.689 330.837 227.012 330.763C226.42 330.698 225.906 330.522 225.471 330.236C225.036 329.94 224.693 329.597 224.441 329.206L223.912 334.049L222.304 333.873L223.563 322.362L225.171 322.538L225.046 323.685ZM229.474 326.92C229.533 326.382 229.471 325.907 229.287 325.495C229.114 325.075 228.855 324.746 228.51 324.508C228.175 324.261 227.801 324.115 227.388 324.07C226.982 324.025 226.586 324.087 226.197 324.255C225.816 324.423 225.492 324.693 225.223 325.065C224.963 325.438 224.804 325.893 224.745 326.431C224.686 326.969 224.742 327.453 224.915 327.883C225.097 328.304 225.355 328.638 225.69 328.884C226.034 329.132 226.408 329.278 226.813 329.322C227.226 329.368 227.623 329.306 228.004 329.138C228.394 328.96 228.72 328.681 228.981 328.299C229.251 327.918 229.415 327.458 229.474 326.92ZM239.842 327.897C239.81 328.189 239.762 328.452 239.699 328.683L233.759 328.034C233.739 328.662 233.914 329.187 234.287 329.61C234.659 330.032 235.147 330.277 235.748 330.343C236.614 330.438 237.264 330.141 237.701 329.453L239.437 329.643C239.123 330.335 238.63 330.878 237.959 331.273C237.298 331.659 236.511 331.802 235.599 331.702C234.857 331.621 234.207 331.383 233.65 330.987C233.104 330.584 232.695 330.061 232.423 329.42C232.161 328.77 232.074 328.045 232.161 327.243C232.249 326.441 232.486 325.754 232.872 325.186C233.269 324.608 233.776 324.186 234.395 323.919C235.024 323.653 235.719 323.563 236.481 323.646C237.214 323.726 237.851 323.959 238.389 324.342C238.927 324.725 239.325 325.227 239.581 325.848C239.837 326.458 239.924 327.141 239.842 327.897ZM238.219 327.203C238.275 326.608 238.115 326.108 237.74 325.704C237.366 325.299 236.873 325.064 236.262 324.998C235.706 324.937 235.212 325.064 234.778 325.38C234.345 325.685 234.058 326.137 233.916 326.733L238.219 327.203ZM240.872 328.167C240.957 327.383 241.193 326.707 241.579 326.138C241.974 325.57 242.467 325.151 243.058 324.881C243.66 324.603 244.303 324.502 244.99 324.577C245.498 324.633 245.984 324.8 246.449 325.08C246.923 325.352 247.286 325.688 247.538 326.088L247.95 322.322L249.572 322.499L248.426 332.976L246.804 332.799L246.932 331.624C246.627 331.972 246.226 332.243 245.729 332.438C245.241 332.633 244.697 332.697 244.095 332.632C243.418 332.557 242.816 332.32 242.289 331.918C241.772 331.508 241.382 330.979 241.121 330.329C240.868 329.671 240.786 328.951 240.872 328.167ZM247.231 328.891C247.29 328.353 247.228 327.874 247.046 327.452C246.872 327.032 246.618 326.699 246.284 326.452C245.949 326.206 245.575 326.059 245.162 326.014C244.747 325.969 244.35 326.031 243.971 326.199C243.591 326.358 243.268 326.624 242.999 326.995C242.74 327.359 242.581 327.809 242.522 328.347C242.463 328.885 242.52 329.369 242.692 329.799C242.873 330.229 243.13 330.572 243.464 330.829C243.808 331.076 244.182 331.223 244.587 331.267C245 331.312 245.397 331.25 245.778 331.082C246.157 330.914 246.478 330.643 246.738 330.27C247.008 329.889 247.172 329.429 247.231 328.891ZM257.56 334.105C256.827 334.024 256.182 333.787 255.626 333.391C255.07 332.987 254.656 332.464 254.384 331.823C254.112 331.172 254.021 330.445 254.108 329.644C254.195 328.851 254.445 328.167 254.861 327.591C255.276 327.015 255.802 326.596 256.441 326.331C257.078 326.066 257.769 325.975 258.512 326.056C259.255 326.137 259.909 326.376 260.475 326.772C261.041 327.169 261.464 327.692 261.745 328.344C262.026 328.996 262.123 329.718 262.037 330.511C261.95 331.304 261.694 331.987 261.27 332.562C260.845 333.137 260.304 333.559 259.646 333.831C258.998 334.095 258.303 334.186 257.56 334.105ZM257.714 332.703C258.127 332.748 258.524 332.691 258.903 332.532C259.292 332.374 259.62 332.109 259.889 331.737C260.159 331.366 260.324 330.897 260.386 330.33C260.448 329.764 260.391 329.276 260.218 328.865C260.045 328.445 259.79 328.116 259.455 327.879C259.119 327.641 258.744 327.5 258.331 327.455C257.917 327.409 257.52 327.466 257.141 327.626C256.771 327.786 256.461 328.053 256.212 328.426C255.962 328.791 255.807 329.256 255.745 329.823C255.653 330.663 255.793 331.337 256.166 331.846C256.549 332.346 257.065 332.632 257.714 332.703ZM267.166 328.464L265.727 328.307L265.018 334.791L263.396 334.614L264.105 328.129L263.188 328.029L263.332 326.712L264.249 326.813L264.309 326.261C264.408 325.364 264.715 324.738 265.229 324.384C265.754 324.021 266.524 323.895 267.54 324.006L267.393 325.351C266.904 325.298 266.55 325.354 266.332 325.522C266.115 325.679 265.981 325.985 265.932 326.438L265.871 326.99L267.31 327.148L267.166 328.464ZM271.851 328.977L270.412 328.819L269.703 335.304L268.08 335.126L268.79 328.642L267.873 328.542L268.017 327.225L268.934 327.325L268.994 326.773C269.092 325.876 269.398 325.25 269.913 324.896C270.438 324.533 271.209 324.408 272.224 324.519L272.077 325.864C271.588 325.81 271.235 325.867 271.016 326.034C270.799 326.192 270.666 326.497 270.616 326.951L270.556 327.503L271.995 327.66L271.851 328.977Z" fill="#1B1B1B"/>
<path d="M123.123 339.864C124.237 339.151 125.113 338.563 125.751 338.1C126.39 337.63 126.938 337.129 127.396 336.598C127.863 336.06 128.127 335.511 128.188 334.953C128.246 334.427 128.162 334 127.937 333.673C127.72 333.338 127.33 333.14 126.766 333.078C126.218 333.018 125.771 333.145 125.427 333.46C125.091 333.767 124.88 334.206 124.793 334.778L123.729 334.662C123.86 333.759 124.211 333.089 124.781 332.652C125.351 332.215 126.043 332.041 126.857 332.13C127.687 332.221 128.319 332.523 128.752 333.037C129.194 333.552 129.37 334.214 129.282 335.023C129.208 335.695 128.935 336.328 128.462 336.923C127.998 337.511 127.485 338.02 126.924 338.45C126.364 338.872 125.654 339.359 124.794 339.912L128.954 340.367L128.853 341.289L123.037 340.653L123.123 339.864ZM130.674 333.727L130.784 332.719L133.057 332.968L132.098 341.742L130.985 341.62L131.835 333.854L130.674 333.727ZM143.082 334.384L142.984 335.282L139.32 334.881L139.008 337.733L141.983 338.059L141.885 338.957L138.91 338.631L138.493 342.442L137.393 342.321L138.318 333.863L143.082 334.384ZM149.924 340.069C149.901 340.28 149.864 340.501 149.814 340.733L144.518 340.153C144.487 340.813 144.652 341.351 145.015 341.767C145.386 342.177 145.862 342.413 146.442 342.476C146.918 342.528 147.325 342.462 147.663 342.278C148.01 342.087 148.269 341.812 148.438 341.454L149.623 341.584C149.376 342.204 148.964 342.687 148.388 343.033C147.813 343.371 147.13 343.497 146.34 343.411C145.711 343.342 145.162 343.139 144.694 342.801C144.233 342.464 143.89 342.021 143.664 341.472C143.44 340.916 143.365 340.293 143.44 339.606C143.515 338.918 143.718 338.33 144.049 337.842C144.38 337.355 144.806 337 145.328 336.779C145.859 336.55 146.446 336.471 147.091 336.542C147.72 336.611 148.261 336.809 148.715 337.137C149.168 337.465 149.498 337.886 149.703 338.4C149.916 338.906 149.99 339.463 149.924 340.069ZM148.812 339.714C148.858 339.294 148.805 338.924 148.652 338.604C148.501 338.276 148.272 338.018 147.966 337.829C147.67 337.633 147.328 337.513 146.941 337.471C146.385 337.41 145.889 337.536 145.455 337.849C145.03 338.163 144.754 338.632 144.628 339.257L148.812 339.714ZM152.677 338.516C152.946 338.144 153.312 337.857 153.775 337.654C154.237 337.451 154.747 337.379 155.303 337.44C155.9 337.506 156.42 337.706 156.865 338.041C157.31 338.376 157.641 338.818 157.858 339.365C158.076 339.905 158.148 340.515 158.074 341.194C158.001 341.866 157.798 342.45 157.466 342.945C157.135 343.441 156.711 343.808 156.196 344.047C155.688 344.286 155.14 344.373 154.552 344.309C153.979 344.246 153.489 344.066 153.081 343.768C152.682 343.47 152.394 343.115 152.219 342.703L152.085 343.929L150.984 343.808L151.967 334.828L153.067 334.948L152.677 338.516ZM156.949 341.071C157.004 340.57 156.951 340.122 156.791 339.728C156.63 339.333 156.387 339.02 156.061 338.788C155.744 338.557 155.38 338.419 154.969 338.374C154.565 338.33 154.18 338.39 153.811 338.554C153.451 338.711 153.145 338.969 152.894 339.326C152.652 339.676 152.504 340.098 152.45 340.591C152.395 341.093 152.448 341.545 152.608 341.947C152.776 342.342 153.019 342.659 153.336 342.899C153.661 343.131 154.025 343.269 154.428 343.313C154.839 343.358 155.225 343.302 155.585 343.145C155.953 342.98 156.259 342.723 156.501 342.373C156.744 342.015 156.894 341.581 156.949 341.071ZM160.46 343.297L158.749 346.414L158.011 346.333L159.251 343.165L160.46 343.297ZM165.085 340.819C165.237 339.428 165.582 338.368 166.118 337.641C166.655 336.905 167.488 336.6 168.617 336.723C169.737 336.846 170.481 337.324 170.846 338.158C171.213 338.984 171.32 340.093 171.167 341.485C171.013 342.9 170.666 343.976 170.129 344.711C169.592 345.447 168.763 345.753 167.643 345.631C166.514 345.507 165.767 345.028 165.401 344.194C165.036 343.36 164.93 342.235 165.085 340.819ZM170.079 341.365C170.156 340.662 170.173 340.062 170.129 339.566C170.095 339.062 169.948 338.645 169.691 338.314C169.442 337.984 169.047 337.789 168.507 337.73C167.959 337.67 167.523 337.774 167.2 338.042C166.885 338.31 166.652 338.686 166.502 339.169C166.36 339.645 166.251 340.234 166.174 340.938C166.094 341.666 166.071 342.282 166.106 342.785C166.149 343.289 166.295 343.707 166.544 344.037C166.802 344.368 167.205 344.563 167.753 344.623C168.293 344.682 168.72 344.578 169.035 344.309C169.358 344.042 169.591 343.666 169.734 343.182C169.884 342.699 170 342.094 170.079 341.365ZM173.86 343.928C173.891 344.398 174.037 344.775 174.3 345.057C174.571 345.341 174.956 345.51 175.456 345.564C176.125 345.637 176.645 345.428 177.017 344.937C177.397 344.446 177.647 343.577 177.767 342.329C177.558 342.675 177.245 342.931 176.827 343.098C176.41 343.257 175.959 343.311 175.476 343.258C174.935 343.199 174.464 343.036 174.06 342.771C173.666 342.499 173.371 342.135 173.176 341.68C172.981 341.225 172.917 340.693 172.984 340.087C173.078 339.221 173.404 338.553 173.962 338.081C174.52 337.602 175.258 337.413 176.177 337.513C177.306 337.637 178.056 338.091 178.427 338.877C178.806 339.663 178.915 340.785 178.756 342.241C178.645 343.26 178.46 344.092 178.202 344.735C177.952 345.379 177.59 345.851 177.117 346.151C176.652 346.452 176.044 346.562 175.294 346.48C174.472 346.39 173.856 346.097 173.445 345.602C173.034 345.107 172.834 344.512 172.845 343.817L173.86 343.928ZM175.759 342.343C176.299 342.402 176.761 342.285 177.144 341.991C177.528 341.689 177.751 341.251 177.814 340.676C177.88 340.07 177.764 339.562 177.466 339.153C177.169 338.743 176.713 338.505 176.101 338.438C175.536 338.376 175.065 338.505 174.688 338.824C174.319 339.144 174.102 339.595 174.038 340.178C173.974 340.768 174.087 341.259 174.379 341.652C174.67 342.044 175.13 342.274 175.759 342.343ZM180.329 347.092C180.119 347.069 179.95 346.977 179.821 346.816C179.692 346.654 179.639 346.468 179.662 346.258C179.685 346.047 179.777 345.877 179.938 345.748C180.099 345.618 180.284 345.564 180.494 345.587C180.695 345.609 180.857 345.701 180.978 345.861C181.107 346.023 181.16 346.209 181.137 346.419C181.114 346.629 181.022 346.8 180.861 346.929C180.708 347.06 180.531 347.114 180.329 347.092ZM180.897 341.898C180.688 341.875 180.518 341.783 180.389 341.621C180.26 341.46 180.207 341.274 180.23 341.064C180.253 340.853 180.345 340.683 180.506 340.553C180.667 340.424 180.852 340.37 181.062 340.393C181.263 340.415 181.425 340.507 181.546 340.667C181.675 340.829 181.728 341.015 181.705 341.225C181.682 341.435 181.59 341.605 181.429 341.735C181.276 341.866 181.099 341.92 180.897 341.898ZM182.939 339.444L183.049 338.437L185.322 338.686L184.363 347.46L183.25 347.338L184.1 339.571L182.939 339.444ZM186.216 346.766C187.33 346.053 188.206 345.465 188.844 345.003C189.483 344.532 190.031 344.031 190.489 343.5C190.956 342.962 191.22 342.413 191.281 341.855C191.338 341.329 191.254 340.902 191.029 340.575C190.813 340.24 190.423 340.042 189.858 339.98C189.31 339.92 188.864 340.047 188.519 340.362C188.184 340.669 187.973 341.108 187.886 341.68L186.822 341.564C186.953 340.661 187.304 339.991 187.874 339.554C188.444 339.117 189.136 338.943 189.95 339.032C190.78 339.123 191.412 339.425 191.845 339.939C192.286 340.454 192.463 341.116 192.374 341.926C192.301 342.597 192.028 343.23 191.555 343.825C191.091 344.413 190.578 344.922 190.017 345.352C189.457 345.774 188.747 346.261 187.887 346.814L192.047 347.269L191.946 348.191L186.13 347.555L186.216 346.766ZM202.902 343.433C202.825 344.137 202.519 344.697 201.984 345.114C201.458 345.523 200.703 345.674 199.72 345.566L198.099 345.389L197.713 348.92L196.613 348.8L197.538 340.341L200.259 340.639C201.21 340.743 201.906 341.052 202.348 341.567C202.797 342.083 202.982 342.705 202.902 343.433ZM199.819 344.656C200.432 344.723 200.898 344.639 201.217 344.403C201.537 344.168 201.724 343.804 201.778 343.31C201.892 342.267 201.352 341.68 200.159 341.549L198.539 341.372L198.199 344.479L199.819 344.656ZM213.083 342.103L212.164 350.501L211.064 350.381L211.749 344.119L208.282 350.076L207.509 349.992L205.402 343.412L204.715 349.686L203.615 349.566L204.534 341.168L205.719 341.298L208.055 348.578L211.91 341.975L213.083 342.103Z" fill="#949191"/>
<path d="M99.6013 362.749L97.5859 362.529L93.1606 402.981L95.1759 403.202L99.6013 362.749Z" fill="#F71D3B"/>
</g>
<defs>
<filter id="filter0_d_3006_486" x="0.54805" y="0.0847321" width="530.79" height="544.572" filterUnits="userSpaceOnUse" color-interpolation-filters="sRGB">
<feFlood flood-opacity="0" result="BackgroundImageFix"/>
<feColorMatrix in="SourceAlpha" type="matrix" values="0 0 0 0 0 0 0 0 0 0 0 0 0 0 0 0 0 0 127 0" result="hardAlpha"/>
<feOffset dy="4"/>
<feGaussianBlur stdDeviation="32.85"/>
<feComposite in2="hardAlpha" operator="out"/>
<feColorMatrix type="matrix" values="0 0 0 0 0 0 0 0 0 0 0 0 0 0 0 0 0 0 0.18 0"/>
<feBlend mode="normal" in2="BackgroundImageFix" result="effect1_dropShadow_3006_486"/>
<feBlend mode="normal" in="SourceGraphic" in2="effect1_dropShadow_3006_486" result="shape"/>
</filter>
</defs>
</svg>
