<svg width="343" height="141" viewBox="0 0 343 141" fill="none" xmlns="http://www.w3.org/2000/svg">
<g clip-path="url(#clip0_2343_1745)">
<g filter="url(#filter0_d_2343_1745)">
<path d="M14.0461 69.5555C13.1247 63.8833 16.976 58.5381 22.6482 57.6166L308.51 11.1785C314.182 10.2571 319.527 14.1083 320.449 19.7805L327.679 64.2859C328.6 69.9581 324.749 75.3035 319.077 76.2248L33.2149 122.663C27.5427 123.584 22.1975 119.733 21.276 114.061L14.0461 69.5555Z" fill="white"/>
<path d="M22.7177 58.0445L308.579 11.6064C314.015 10.7234 319.138 14.4141 320.021 19.85L327.251 64.3554C328.134 69.7914 324.443 74.9139 319.007 75.7969L33.1454 122.235C27.7095 123.118 22.587 119.427 21.7039 113.991L14.474 69.486C13.591 64.0501 17.2818 58.9276 22.7177 58.0445Z" stroke="#C5C5C5" stroke-opacity="0.2"/>
<path d="M69.0135 83.4661C67.3242 73.067 57.5246 66.0063 47.1255 67.6956C36.7264 69.385 29.6657 79.1846 31.3551 89.5837C33.0444 99.9827 42.844 107.043 53.2431 105.354C63.6422 103.665 70.7028 93.8651 69.0135 83.4661Z" fill="#FFF2F3"/>
<path d="M46.1613 94.2061C45.4481 94.3219 44.8012 94.1708 44.2209 93.7526C43.6406 93.3345 43.2924 92.7688 43.1766 92.0556L42.3207 92.1946C42.0782 92.234 41.8586 92.1891 41.662 92.06C41.4773 91.9143 41.3652 91.7202 41.3258 91.4778L39.9354 82.919C39.859 82.4483 39.9581 82.0222 40.2329 81.6408C40.5196 81.2429 40.8984 81.0057 41.3691 80.9292L51.6396 79.2608C52.1103 79.1843 52.5376 79.2906 52.9212 79.5796C53.3169 79.8521 53.5529 80.2237 53.6294 80.6944L53.9075 82.4062L55.6192 82.1281C55.8903 82.0841 56.1575 82.1066 56.4208 82.1955C56.6818 82.2702 56.9082 82.4019 57.0998 82.5903L59.3894 84.7879C59.4581 84.8499 59.5137 84.9215 59.5561 85.0024C59.5985 85.0834 59.6278 85.1737 59.644 85.2736L60.155 88.419C60.1944 88.6614 60.1424 88.8822 59.999 89.0812C59.8676 89.2635 59.6806 89.3745 59.4382 89.4139L58.5823 89.5529C58.6982 90.2661 58.547 90.913 58.1289 91.4933C57.7107 92.0736 57.145 92.4218 56.4318 92.5376C55.7186 92.6535 55.0717 92.5023 54.4914 92.0842C53.9111 91.6661 53.5629 91.1003 53.4471 90.3871L48.3118 91.2213C48.4277 91.9345 48.2765 92.5814 47.8584 93.1617C47.4402 93.7421 46.8745 94.0902 46.1613 94.2061ZM42.8985 90.3438L43.5832 90.2326C43.784 89.9364 44.0285 89.6844 44.3169 89.4765C44.6052 89.2686 44.9419 89.1334 45.3271 89.0708C45.7122 89.0083 46.0744 89.03 46.4138 89.1359C46.7531 89.2418 47.0649 89.4034 47.349 89.6208L53.169 88.6754L51.9177 80.9725L41.6472 82.6409L42.8985 90.3438ZM54.6027 86.6855L58.2401 86.0946L55.8973 83.8399L54.1855 84.1179L54.6027 86.6855ZM45.8832 92.4943C46.1257 92.4549 46.3127 92.344 46.4441 92.1616C46.5875 91.9626 46.6395 91.7419 46.6001 91.4994C46.5607 91.2569 46.4426 91.0711 46.246 90.942C46.0613 90.7963 45.8476 90.7432 45.6052 90.7826C45.3627 90.822 45.1697 90.9411 45.0264 91.1401C44.895 91.3225 44.8489 91.535 44.8883 91.7775C44.9277 92.0199 45.0398 92.2141 45.2245 92.3598C45.4211 92.4888 45.6408 92.5337 45.8832 92.4943ZM56.1537 90.8259C56.3962 90.7865 56.5832 90.6756 56.7146 90.4932C56.858 90.2942 56.9099 90.0734 56.8705 89.831C56.8312 89.5885 56.7131 89.4026 56.5165 89.2736C56.3318 89.1279 56.1181 89.0747 55.8756 89.1141C55.6332 89.1535 55.4402 89.2727 55.2968 89.4717C55.1654 89.6541 55.1194 89.8666 55.1588 90.109C55.1982 90.3515 55.3103 90.5456 55.495 90.6913C55.6916 90.8204 55.9112 90.8653 56.1537 90.8259Z" fill="#F71D3B"/>
<path d="M84.429 66.2283L82.4869 72.1396L82.9599 75.0513L81.2824 75.3238L80.8094 72.4121L77.0839 67.4215L78.9771 67.1139L81.3954 70.6443L82.5598 66.5319L84.429 66.2283ZM85.7807 71.1617C85.6717 70.4907 85.7068 69.8742 85.8861 69.3122C86.0733 68.7488 86.3719 68.2904 86.7818 67.9368C87.1997 67.5819 87.6922 67.3585 88.2594 67.2663C88.7547 67.1859 89.2023 67.2157 89.6022 67.3557C90.0101 67.4943 90.3504 67.6973 90.6231 67.9646L90.4693 67.018L92.1588 66.7436L93.2372 73.3817L91.5477 73.6562L91.39 72.6856C91.225 73.0322 90.9679 73.3404 90.6182 73.6104C90.2752 73.8711 89.8561 74.0416 89.3608 74.1221C88.8017 74.2129 88.267 74.1522 87.757 73.9399C87.255 73.7263 86.826 73.382 86.4701 72.9068C86.1208 72.4224 85.891 71.8407 85.7807 71.1617ZM91.0085 70.3371C90.9423 69.9297 90.8063 69.5951 90.5995 69.3336C90.3921 69.0639 90.14 68.8752 89.8438 68.7676C89.5463 68.6519 89.2417 68.6195 88.9302 68.6701C88.6187 68.7207 88.3434 68.8433 88.1045 69.0379C87.8655 69.2324 87.6862 69.4912 87.5664 69.814C87.4533 70.1275 87.4293 70.484 87.4942 70.8834C87.5591 71.2828 87.696 71.6213 87.9051 71.8989C88.1209 72.1672 88.3735 72.3598 88.6631 72.4768C88.9606 72.5925 89.2612 72.6256 89.5648 72.5763C89.8763 72.5257 90.1556 72.4024 90.4025 72.2065C90.6481 72.0026 90.8274 71.7439 90.9402 71.4305C91.0522 71.1089 91.0747 70.7445 91.0085 70.3371ZM100.148 65.4456L97.6269 75.8908L95.8415 76.1808L96.7421 72.6402L93.031 66.6019L94.9122 66.2963L97.3789 70.655L98.3631 65.7357L100.148 65.4456ZM102.917 63.0773L103.666 68.8958L102.252 69.1255L101.108 63.3712L102.917 63.0773ZM103.45 71.8087C103.147 71.8579 102.881 71.8069 102.651 71.6557C102.428 71.4952 102.294 71.2751 102.248 70.9955C102.203 70.7159 102.261 70.4687 102.423 70.2538C102.592 70.0296 102.828 69.8928 103.131 69.8436C103.427 69.7955 103.686 69.8519 103.909 70.0124C104.13 70.165 104.264 70.3811 104.309 70.6607C104.355 70.9403 104.297 71.1915 104.136 71.4144C103.975 71.6293 103.746 71.7606 103.45 71.8087ZM114.494 63.1153L111.972 73.5604L110.187 73.8504L111.087 70.3098L107.376 64.2715L109.257 63.9659L111.724 68.3247L112.708 63.4053L114.494 63.1153ZM119.442 69.2355C118.803 69.3393 118.205 69.293 117.648 69.0964C117.091 68.8918 116.621 68.5541 116.242 68.0828C115.87 67.6102 115.628 67.0345 115.518 66.3555C115.408 65.6765 115.459 65.0534 115.67 64.4861C115.889 63.9175 116.235 63.4514 116.709 63.0874C117.182 62.7155 117.737 62.4777 118.376 62.3738C119.016 62.27 119.618 62.3198 120.184 62.5229C120.749 62.7182 121.221 63.0513 121.601 63.5226C121.989 63.9925 122.238 64.567 122.348 65.246C122.458 65.925 122.4 66.5494 122.173 67.1192C121.953 67.6879 121.604 68.1587 121.123 68.5319C120.649 68.8959 120.089 69.1303 119.442 69.2355ZM119.204 67.7736C119.508 67.7243 119.78 67.6063 120.02 67.4197C120.267 67.2239 120.446 66.9652 120.558 66.6436C120.67 66.3221 120.691 65.9497 120.623 65.5263C120.52 64.8953 120.274 64.4392 119.884 64.1582C119.5 63.868 119.069 63.7617 118.59 63.8396C118.111 63.9174 117.735 64.1547 117.463 64.5514C117.199 64.9388 117.117 65.4481 117.22 66.0791C117.322 66.7101 117.557 67.1722 117.924 67.465C118.298 67.7487 118.725 67.8515 119.204 67.7736ZM129.306 60.709L130.385 67.3471L128.695 67.6216L128.559 66.7828C128.39 67.1054 128.143 67.3792 127.819 67.604C127.501 67.8197 127.139 67.9604 126.732 68.0266C126.212 68.111 125.735 68.0778 125.301 67.9269C124.865 67.7682 124.497 67.496 124.197 67.1102C123.903 66.7152 123.708 66.2221 123.612 65.6309L122.98 61.7367L124.657 61.4642L125.251 65.1188C125.337 65.646 125.535 66.032 125.845 66.2767C126.154 66.5135 126.536 66.5949 126.991 66.5209C127.454 66.4457 127.795 66.2469 128.014 65.9244C128.231 65.594 128.296 65.1652 128.211 64.638L127.617 60.9834L129.306 60.709ZM132.806 61.198C132.965 60.8115 133.199 60.4906 133.511 60.235C133.829 59.9783 134.213 59.8135 134.66 59.7408L134.947 61.5022L134.503 61.5742C133.976 61.6598 133.596 61.8486 133.365 62.1403C133.142 62.4307 133.08 62.8835 133.18 63.4986L133.717 66.8057L132.04 67.0782L130.962 60.4401L132.639 60.1675L132.806 61.198ZM139.383 58.2603C139.087 58.3084 138.825 58.2567 138.596 58.1054C138.373 57.9448 138.239 57.7247 138.193 57.4451C138.148 57.1655 138.206 56.9183 138.368 56.7034C138.536 56.4793 138.768 56.3433 139.064 56.2952C139.359 56.2472 139.619 56.3034 139.842 56.464C140.071 56.6154 140.209 56.8307 140.254 57.1103C140.3 57.3899 140.238 57.6418 140.069 57.8659C139.908 58.0808 139.679 58.2123 139.383 58.2603ZM140.339 58.9168L141.417 65.5549L139.739 65.8274L138.661 59.1893L140.339 58.9168ZM144.172 59.7083L144.694 62.9195C144.73 63.1432 144.809 63.2985 144.93 63.3855C145.057 63.4631 145.248 63.4813 145.504 63.4397L146.283 63.3132L146.513 64.7271L145.458 64.8984C144.044 65.1281 143.226 64.5559 143.003 63.182L142.483 59.9827L141.692 60.1112L141.468 58.7332L142.259 58.6048L141.992 56.9632L143.682 56.6888L143.949 58.3303L145.434 58.089L145.658 59.4669L144.172 59.7083ZM153.328 60.0658C153.367 60.3054 153.386 60.5237 153.385 60.7206L148.532 61.5089C148.65 61.9817 148.879 62.3299 149.218 62.5535C149.558 62.7771 149.944 62.8538 150.375 62.7838C150.998 62.6825 151.398 62.3429 151.575 61.7649L153.384 61.471C153.296 62.1412 153.015 62.728 152.539 63.2317C152.061 63.7274 151.428 64.0394 150.637 64.1679C149.997 64.2717 149.4 64.2254 148.843 64.0288C148.293 63.823 147.832 63.4838 147.46 63.0113C147.096 62.5375 146.859 61.961 146.749 61.2821C146.637 60.5951 146.679 59.9693 146.874 59.4046C147.07 58.8399 147.396 58.377 147.854 58.0156C148.312 57.6543 148.869 57.4204 149.523 57.314C150.154 57.2115 150.739 57.2559 151.279 57.447C151.826 57.6368 152.277 57.9612 152.63 58.4204C152.99 58.8703 153.223 59.4187 153.328 60.0658ZM151.513 59.8687C151.435 59.4386 151.223 59.1204 150.878 58.9141C150.531 58.6999 150.138 58.6284 149.699 58.6998C149.284 58.7672 148.953 58.9521 148.707 59.2545C148.467 59.5476 148.353 59.9228 148.361 60.3806L151.513 59.8687ZM162.264 55.2566C163.079 55.1242 163.775 55.2693 164.352 55.6922C164.936 56.1058 165.3 56.7599 165.445 57.6545L166.078 61.5487L164.401 61.8212L163.805 58.1547C163.721 57.6354 163.524 57.2614 163.217 57.0327C162.908 56.7959 162.526 56.7145 162.07 56.7885C161.615 56.8625 161.275 57.0612 161.048 57.385C160.828 57.6994 160.761 58.1162 160.845 58.6355L161.441 62.302L159.763 62.5745L159.168 58.908C159.083 58.3887 158.887 58.0147 158.58 57.786C158.271 57.5492 157.888 57.4678 157.433 57.5418C156.97 57.617 156.626 57.8164 156.399 58.1402C156.179 58.4546 156.112 58.8715 156.196 59.3907L156.792 63.0573L155.114 63.3298L154.036 56.6916L155.713 56.4191L155.844 57.2219C156.014 56.9073 156.254 56.6429 156.564 56.4286C156.882 56.2129 157.244 56.0722 157.651 56.006C158.17 55.9216 158.652 55.9582 159.095 56.1157C159.538 56.2652 159.904 56.5254 160.194 56.8965C160.347 56.4781 160.609 56.1199 160.979 55.8221C161.357 55.5228 161.785 55.3344 162.264 55.2566ZM170.169 53.2591C169.874 53.3071 169.612 53.2554 169.381 53.1042C169.159 52.9436 169.024 52.7236 168.979 52.444C168.934 52.1644 168.992 51.9172 169.154 51.7023C169.323 51.478 169.555 51.342 169.85 51.294C170.146 51.2459 170.405 51.3023 170.627 51.4629C170.858 51.6141 170.994 51.8296 171.04 52.1092C171.085 52.3888 171.024 52.6405 170.855 52.8648C170.693 53.0797 170.465 53.211 170.169 53.2591ZM171.124 53.9156L172.203 60.5538L170.525 60.8263L169.447 54.1882L171.124 53.9156ZM176.418 59.9797C175.875 60.0679 175.372 60.0512 174.91 59.9296C174.446 59.8 174.058 59.5882 173.749 59.2942C173.446 58.999 173.251 58.6495 173.16 58.246L174.85 57.9715C174.923 58.222 175.082 58.4135 175.324 58.5462C175.575 58.6777 175.864 58.7168 176.192 58.6636C176.511 58.6117 176.748 58.5076 176.904 58.3512C177.066 58.1936 177.132 58.0148 177.1 57.8151C177.065 57.5994 176.927 57.4579 176.686 57.3903C176.452 57.3135 176.086 57.2501 175.585 57.2002C175.07 57.1609 174.643 57.1032 174.303 57.0273C173.971 56.9501 173.667 56.7986 173.393 56.5725C173.126 56.3454 172.957 56.008 172.884 55.5606C172.824 55.1932 172.873 54.8409 173.032 54.5035C173.198 54.1649 173.462 53.876 173.826 53.6366C174.196 53.3961 174.649 53.2323 175.185 53.1453C175.976 53.0168 176.639 53.114 177.176 53.4369C177.71 53.7518 178.056 54.2408 178.213 54.904L176.608 55.1648C176.541 54.9051 176.395 54.7156 176.171 54.5962C175.953 54.4676 175.68 54.43 175.353 54.4831C175.049 54.5325 174.823 54.6266 174.673 54.7657C174.532 54.9036 174.477 55.0723 174.51 55.2719C174.546 55.4956 174.685 55.6493 174.929 55.7327C175.17 55.8082 175.537 55.8676 176.028 55.9108C176.527 55.9528 176.942 56.0124 177.274 56.0896C177.607 56.1667 177.906 56.3231 178.175 56.5582C178.448 56.7843 178.625 57.1164 178.705 57.5543C178.768 57.9377 178.716 58.2987 178.549 58.6373C178.391 58.9747 178.126 59.2637 177.755 59.5042C177.391 59.7356 176.945 59.894 176.418 59.9797ZM186.21 58.3889C185.571 58.4928 184.973 58.4465 184.417 58.2499C183.858 58.0454 183.39 57.7075 183.01 57.2363C182.638 56.7637 182.397 56.188 182.287 55.509C182.176 54.83 182.226 54.207 182.438 53.6396C182.657 53.0712 183.003 52.6049 183.477 52.2409C183.949 51.8691 184.505 51.6312 185.145 51.5273C185.783 51.4236 186.386 51.4733 186.952 51.6764C187.516 51.8718 187.989 52.205 188.369 52.6761C188.756 53.1462 189.006 53.7205 189.116 54.3995C189.227 55.0785 189.168 55.7029 188.941 56.2727C188.722 56.8414 188.372 57.3122 187.892 57.6854C187.417 58.0494 186.857 58.2838 186.21 58.3889ZM185.973 56.9271C186.276 56.8779 186.548 56.7598 186.789 56.5732C187.035 56.3774 187.215 56.1187 187.327 55.7971C187.438 55.4757 187.46 55.1032 187.391 54.6798C187.288 54.0488 187.042 53.5927 186.652 53.3117C186.269 53.0215 185.838 52.9152 185.358 52.9931C184.879 53.0709 184.503 53.3083 184.232 53.7049C183.966 54.0924 183.886 54.6016 183.988 55.2326C184.091 55.8636 184.326 56.3257 184.693 56.6185C185.067 56.9022 185.494 57.005 185.973 56.9271ZM193.47 50.1872C194.261 50.0587 194.941 50.2065 195.51 50.6306C196.078 51.0467 196.434 51.7021 196.58 52.5968L197.212 56.491L195.535 56.7635L194.939 53.097C194.853 52.5697 194.656 52.1878 194.347 51.951C194.037 51.7062 193.654 51.6208 193.199 51.6948C192.735 51.77 192.392 51.9735 192.166 52.3053C191.948 52.6277 191.882 53.0525 191.967 53.5797L192.563 57.2463L190.886 57.5188L189.807 50.8806L191.485 50.6081L191.619 51.4349C191.797 51.1109 192.043 50.8412 192.361 50.6257C192.685 50.4008 193.055 50.2546 193.47 50.1872ZM202.761 50.1905L203.283 53.4018C203.319 53.6254 203.398 53.7808 203.518 53.8678C203.646 53.9454 203.838 53.9634 204.093 53.922L204.872 53.7955L205.102 55.2094L204.047 55.3807C202.633 55.6104 201.815 55.0382 201.592 53.6643L201.072 50.465L200.281 50.5935L200.057 49.2155L200.848 49.087L200.581 47.4455L202.271 47.171L202.537 48.8126L204.023 48.5712L204.247 49.9492L202.761 50.1905ZM208.953 47.672C209.456 47.5903 209.922 47.6294 210.349 47.7895C210.776 47.9416 211.132 48.2158 211.418 48.6121C211.71 48.9992 211.905 49.4922 212.002 50.0914L212.635 53.9856L210.957 54.2581L210.362 50.5915C210.276 50.0643 210.079 49.6823 209.77 49.4456C209.46 49.2008 209.077 49.1154 208.621 49.1894C208.158 49.2646 207.814 49.4682 207.589 49.7998C207.371 50.1223 207.305 50.547 207.39 51.0743L207.986 54.7408L206.308 55.0133L204.868 46.1465L206.545 45.874L207.042 48.9294C207.211 48.6068 207.462 48.3365 207.796 48.1183C208.128 47.8921 208.514 47.7433 208.953 47.672ZM219.839 49.2611C219.878 49.5007 219.896 49.7191 219.896 49.9159L215.043 50.7043C215.16 51.1772 215.389 51.5254 215.729 51.7488C216.069 51.9724 216.454 52.0492 216.886 51.9791C217.509 51.8779 217.909 51.5382 218.085 50.9602L219.895 50.6663C219.807 51.3365 219.524 51.9235 219.049 52.427C218.572 52.9227 217.938 53.2347 217.148 53.3632C216.508 53.4671 215.91 53.4207 215.354 53.2241C214.804 53.0183 214.343 52.6792 213.971 52.2066C213.607 51.7328 213.37 51.1564 213.26 50.4774C213.148 49.7904 213.19 49.1647 213.385 48.6C213.58 48.0354 213.907 47.5724 214.365 47.211C214.823 46.8496 215.379 46.6159 216.034 46.5094C216.665 46.4069 217.25 46.4512 217.79 46.6423C218.337 46.8321 218.787 47.1567 219.141 47.6158C219.5 48.0657 219.734 48.6141 219.839 49.2611ZM218.023 49.0641C217.945 48.6341 217.733 48.3159 217.389 48.1095C217.042 47.8952 216.649 47.8238 216.21 47.8951C215.794 47.9627 215.464 48.1475 215.218 48.4498C214.978 48.7429 214.863 49.1183 214.872 49.576L218.023 49.0641ZM231.63 43.9881C232.445 43.8557 233.141 44.0009 233.718 44.4238C234.302 44.8373 234.666 45.4914 234.811 46.386L235.444 50.2803L233.766 50.5528L233.171 46.8862C233.087 46.3669 232.89 45.9929 232.583 45.7642C232.274 45.5274 231.892 45.446 231.436 45.52C230.981 45.594 230.641 45.7927 230.414 46.1165C230.194 46.4309 230.127 46.8477 230.211 47.367L230.807 51.0336L229.129 51.3061L228.534 47.6395C228.449 47.1202 228.253 46.7462 227.946 46.5175C227.637 46.2807 227.254 46.1993 226.799 46.2733C226.336 46.3485 225.992 46.5479 225.765 46.8718C225.545 47.1862 225.478 47.603 225.562 48.1222L226.158 51.7888L224.48 52.0613L223.402 45.4232L225.079 45.1506L225.21 45.9535C225.38 45.6388 225.62 45.3744 225.93 45.1601C226.248 44.9444 226.61 44.8037 227.017 44.7375C227.536 44.6531 228.018 44.6898 228.461 44.8472C228.904 44.9967 229.27 45.2569 229.56 45.6281C229.713 45.2096 229.975 44.8515 230.345 44.5536C230.723 44.2543 231.151 44.066 231.63 43.9881ZM240.001 49.6506C239.363 49.7544 238.765 49.708 238.208 49.5116C237.65 49.307 237.181 48.9691 236.801 48.498C236.429 48.0254 236.188 47.4497 236.077 46.7707C235.967 46.0917 236.018 45.4686 236.229 44.9013C236.448 44.3327 236.795 43.8665 237.268 43.5026C237.741 43.1307 238.297 42.8927 238.936 42.789C239.575 42.6852 240.178 42.7348 240.743 42.9381C241.308 43.1334 241.78 43.4665 242.16 43.9378C242.548 44.4077 242.797 44.9822 242.907 45.6612C243.018 46.3402 242.959 46.9646 242.732 47.5344C242.513 48.1029 242.163 48.5739 241.682 48.9471C241.209 49.311 240.648 49.5455 240.001 49.6506ZM239.764 48.1888C240.067 48.1395 240.339 48.0215 240.579 47.8349C240.827 47.639 241.006 47.3802 241.117 47.0588C241.229 46.7373 241.251 46.3649 241.182 45.9415C241.079 45.3105 240.833 44.8544 240.443 44.5734C240.06 44.283 239.628 44.1769 239.149 44.2548C238.67 44.3326 238.295 44.5699 238.023 44.9666C237.758 45.354 237.676 45.8633 237.779 46.4943C237.881 47.1253 238.116 47.5874 238.484 47.8802C238.858 48.1637 239.284 48.2667 239.764 48.1888ZM247.194 46.785L248.044 41.42L249.83 41.13L248.452 48.1672L246.415 48.4981L242.892 42.257L244.689 41.965L247.194 46.785ZM257.459 43.1498C257.497 43.3894 257.516 43.6077 257.516 43.8046L252.663 44.5929C252.781 45.0657 253.01 45.4139 253.349 45.6375C253.689 45.8611 254.074 45.9378 254.506 45.8678C255.129 45.7665 255.529 45.4269 255.705 44.8489L257.515 44.555C257.427 45.2252 257.145 45.812 256.669 46.3157C256.192 46.8114 255.558 47.1234 254.767 47.2519C254.128 47.3557 253.53 47.3094 252.974 47.1128C252.424 46.907 251.963 46.5678 251.591 46.0953C251.227 45.6215 250.99 45.045 250.88 44.3661C250.768 43.6791 250.81 43.0533 251.005 42.4886C251.201 41.9239 251.527 41.461 251.985 41.0996C252.443 40.7383 252.999 40.5044 253.654 40.398C254.285 40.2955 254.87 40.3399 255.41 40.531C255.957 40.7208 256.408 41.0452 256.761 41.5044C257.121 41.9543 257.353 42.5027 257.459 43.1498ZM255.643 42.9527C255.565 42.5226 255.354 42.2044 255.009 41.9981C254.662 41.7839 254.269 41.7124 253.83 41.7838C253.415 41.8512 253.084 42.0361 252.838 42.3385C252.598 42.6316 252.483 43.0069 252.492 43.4646L255.643 42.9527Z" fill="#1B1B1B"/>
<path d="M82.4479 88.5555L82.9014 91.3474L85.9449 90.853L86.0909 91.7516L83.0474 92.2461L83.5146 95.1218L86.9175 94.569L87.0635 95.4676L82.5702 96.1976L81.2115 87.834L85.7048 87.104L85.8508 88.0027L82.4479 88.5555ZM91.0554 94.9298C90.5522 95.0116 90.0873 95.001 89.6606 94.8982C89.2327 94.7873 88.8782 94.599 88.5972 94.333C88.315 94.0591 88.1294 93.7244 88.0405 93.3289L89.1668 93.1459C89.2521 93.4683 89.4473 93.7111 89.7526 93.8748C90.0659 94.037 90.4463 94.0818 90.8936 94.0092C91.309 93.9417 91.6215 93.7966 91.8313 93.574C92.0411 93.3513 92.1233 93.1002 92.0779 92.8206C92.0312 92.533 91.869 92.3421 91.5913 92.2478C91.3124 92.1455 90.8943 92.07 90.337 92.0211C89.8289 91.9725 89.4087 91.9095 89.0764 91.8324C88.7509 91.7458 88.4555 91.593 88.1902 91.3737C87.9317 91.1451 87.7681 90.8192 87.6993 90.3958C87.6448 90.0603 87.6947 89.7365 87.849 89.4245C88.0033 89.1124 88.2512 88.8467 88.5927 88.6273C88.9329 88.3998 89.3387 88.2478 89.8099 88.1713C90.5369 88.0532 91.1539 88.1415 91.6609 88.4363C92.1679 88.7311 92.4893 89.1954 92.625 89.8293L91.5347 90.0064C91.4549 89.6668 91.2704 89.414 90.981 89.2478C90.6996 89.0803 90.3473 89.0309 89.9239 89.0997C89.5325 89.1633 89.2346 89.2978 89.0301 89.5032C88.8258 89.7086 88.7456 89.9471 88.7897 90.2187C88.8247 90.4343 88.9219 90.603 89.081 90.7248C89.2468 90.8372 89.4408 90.9205 89.6627 90.9746C89.8914 91.0194 90.2019 91.0633 90.5942 91.1062C91.0862 91.1574 91.4905 91.223 91.8067 91.3027C92.1218 91.3745 92.4033 91.5174 92.6512 91.7313C92.9071 91.9439 93.0715 92.2492 93.1443 92.6474C93.2027 93.0068 93.1555 93.3465 93.0024 93.6666C92.8495 93.9866 92.6029 94.2603 92.2627 94.4878C91.9291 94.7059 91.5268 94.8533 91.0554 94.9298ZM95.3828 88.299L96.0115 92.1693C96.0634 92.4888 96.1689 92.7053 96.3262 92.8192C96.483 92.9248 96.7288 92.9505 97.0643 92.896L97.8671 92.7656L98.017 93.6883L97.0344 93.8479C96.4276 93.9464 95.9496 93.8807 95.6003 93.6504C95.2519 93.42 95.025 92.9855 94.9211 92.3464L94.2924 88.4761L93.4419 88.6143L93.2959 87.7157L94.1464 87.5775L93.8778 85.9239L94.9682 85.7468L95.2368 87.4003L96.9503 87.122L97.0963 88.0207L95.3828 88.299ZM98.6617 85.7494C98.4537 85.7832 98.2666 85.7398 98.0994 85.6194C97.9323 85.499 97.8318 85.3349 97.7981 85.1272C97.7643 84.9195 97.8077 84.7321 97.9281 84.5649C98.0485 84.3978 98.2123 84.2974 98.4203 84.2636C98.6197 84.2312 98.7992 84.2759 98.9586 84.3975C99.1257 84.518 99.2262 84.682 99.2599 84.8897C99.2937 85.0975 99.2503 85.2848 99.1299 85.452C99.0172 85.6179 98.8611 85.717 98.6617 85.7494ZM99.3621 86.7302L100.429 93.2965L99.3384 93.4736L98.2717 86.9073L99.3621 86.7302ZM109.097 85.0258C109.608 84.9428 110.081 84.9766 110.516 85.1274C110.949 85.2702 111.315 85.5345 111.616 85.9202C111.917 86.3059 112.116 86.8024 112.215 87.4095L112.843 91.2797L111.765 91.4549L111.161 87.7404C111.055 87.0854 110.81 86.6127 110.427 86.3225C110.051 86.0228 109.586 85.9179 109.035 86.0074C108.468 86.0996 108.047 86.3566 107.771 86.7785C107.494 87.1925 107.411 87.743 107.522 88.43L108.11 92.0486L107.032 92.2238L106.428 88.5093C106.322 87.8543 106.077 87.3815 105.694 87.0913C105.318 86.7917 104.853 86.6867 104.302 86.7763C103.735 86.8685 103.314 87.1255 103.038 87.5474C102.761 87.9614 102.678 88.5118 102.789 89.1988L103.377 92.8175L102.287 92.9946L101.22 86.4283L102.311 86.2512L102.464 87.1978C102.624 86.8193 102.869 86.509 103.199 86.2668C103.536 86.0234 103.925 85.866 104.364 85.7946C104.915 85.7051 105.422 85.7498 105.886 85.9286C106.35 86.1074 106.724 86.4197 107.01 86.8652C107.119 86.372 107.363 85.9634 107.745 85.6389C108.128 85.3144 108.578 85.1102 109.097 85.0258ZM113.687 87.7482C113.578 87.0772 113.619 86.468 113.809 85.9207C113.997 85.3654 114.304 84.9096 114.73 84.5534C115.164 84.1959 115.673 83.9698 116.256 83.8751C116.831 83.7817 117.35 83.8245 117.814 84.0033C118.278 84.182 118.643 84.4424 118.912 84.7841L118.718 83.5859L119.82 83.4068L120.887 89.9731L119.784 90.1521L119.586 88.93C119.432 89.3484 119.161 89.7205 118.771 90.0462C118.388 90.3626 117.913 90.5668 117.346 90.659C116.763 90.7537 116.212 90.6956 115.694 90.4846C115.176 90.2736 114.739 89.9306 114.383 89.4554C114.027 88.9802 113.795 88.4113 113.687 87.7482ZM119.249 86.857C119.169 86.3617 118.998 85.9466 118.739 85.6116C118.48 85.2766 118.163 85.0412 117.788 84.9052C117.42 84.76 117.033 84.7205 116.625 84.7867C116.218 84.8529 115.862 85.0091 115.558 85.2553C115.253 85.5015 115.031 85.8246 114.891 86.2245C114.751 86.6243 114.721 87.0719 114.802 87.5672C114.884 88.0705 115.055 88.4935 115.315 88.8366C115.575 89.1716 115.888 89.4117 116.256 89.5569C116.623 89.6941 117.01 89.7296 117.418 89.6635C117.825 89.5973 118.181 89.4411 118.485 89.1949C118.796 88.9394 119.022 88.6116 119.162 88.2118C119.3 87.8039 119.33 87.3523 119.249 86.857ZM123.139 83.7901L123.768 87.6603C123.819 87.9798 123.924 88.1965 124.082 88.3102C124.239 88.4159 124.485 88.4416 124.82 88.3871L125.623 88.2567L125.773 89.1793L124.79 89.3389C124.184 89.4375 123.706 89.3717 123.356 89.1414C123.007 88.9112 122.781 88.4765 122.677 87.8375L122.048 83.9672L121.198 84.1054L121.052 83.2067L121.902 83.0685L121.634 81.415L122.724 81.2378L122.993 82.8914L124.706 82.613L124.852 83.5117L123.139 83.7901ZM132.51 84.4568C132.544 84.6645 132.568 84.886 132.582 85.1216L127.333 85.9742C127.479 86.6147 127.781 87.0862 128.24 87.3889C128.705 87.6822 129.226 87.7821 129.801 87.6887C130.273 87.6121 130.646 87.4407 130.923 87.1744C131.206 86.8987 131.382 86.5668 131.45 86.1787L132.624 85.9879C132.551 86.6475 132.283 87.2199 131.821 87.7049C131.357 88.182 130.734 88.4841 129.951 88.6113C129.328 88.7125 128.746 88.6635 128.205 88.4644C127.673 88.2639 127.225 87.9308 126.862 87.465C126.499 86.9911 126.261 86.4148 126.151 85.7358C126.041 85.0569 126.08 84.4396 126.268 83.8843C126.457 83.3289 126.773 82.8758 127.216 82.5251C127.666 82.165 128.211 81.9331 128.849 81.8293C129.472 81.7281 130.045 81.7744 130.569 81.9681C131.092 82.1618 131.521 82.4775 131.854 82.9154C132.194 83.3439 132.413 83.8577 132.51 84.4568ZM131.347 84.4121C131.28 83.9967 131.13 83.6561 130.898 83.3904C130.666 83.1166 130.377 82.9298 130.032 82.8301C129.695 82.7209 129.335 82.6975 128.951 82.7598C128.4 82.8493 127.958 83.1015 127.623 83.5167C127.297 83.9305 127.157 84.4533 127.201 85.0856L131.347 84.4121ZM133.58 84.5168C133.471 83.8457 133.511 83.2365 133.701 82.6892C133.889 82.1339 134.196 81.6781 134.623 81.3219C135.056 80.9644 135.569 80.7378 136.16 80.6417C136.671 80.5587 137.166 80.6012 137.644 80.7695C138.121 80.9299 138.506 81.1829 138.801 81.5287L138.236 78.0538L139.339 77.8747L140.779 86.7416L139.677 86.9207L139.476 85.6865C139.324 86.1129 139.057 86.4883 138.675 86.8128C138.292 87.1292 137.817 87.3334 137.25 87.4256C136.667 87.5203 136.112 87.4628 135.586 87.2531C135.068 87.0422 134.631 86.6991 134.275 86.2239C133.919 85.7488 133.687 85.1798 133.58 84.5168ZM139.141 83.6256C139.061 83.1303 138.891 82.7152 138.632 82.3801C138.372 82.0451 138.055 81.8097 137.68 81.6737C137.313 81.5286 136.925 81.489 136.517 81.5552C136.11 81.6214 135.754 81.7776 135.45 82.0238C135.145 82.27 134.923 82.5932 134.783 82.993C134.644 83.3928 134.614 83.8404 134.694 84.3357C134.776 84.839 134.947 85.262 135.208 85.6051C135.467 85.9401 135.781 86.1803 136.149 86.3254C136.515 86.4626 136.902 86.4982 137.31 86.432C137.717 86.3658 138.073 86.2096 138.377 85.9634C138.688 85.7079 138.914 85.3801 139.054 84.9803C139.192 84.5724 139.222 84.1208 139.141 83.6256ZM147.059 77.1494C147.97 77.0014 148.785 77.0453 149.503 77.2811C150.229 77.5076 150.819 77.9078 151.273 78.4818C151.735 79.0545 152.035 79.7682 152.174 80.6229C152.313 81.4777 152.254 82.2498 151.997 82.9392C151.747 83.6193 151.313 84.1817 150.697 84.6262C150.087 85.0614 149.327 85.353 148.416 85.501L145.816 85.9234L144.459 77.5717L147.059 77.1494ZM148.27 84.6023C149.348 84.4271 150.126 84.0098 150.6 83.3506C151.074 82.6833 151.227 81.8344 151.06 80.8039C150.891 79.7655 150.472 79.0014 149.802 78.5117C149.14 78.0206 148.274 77.8621 147.203 78.036L145.694 78.2813L146.76 84.8476L148.27 84.6023ZM159.705 80.039C159.739 80.2467 159.762 80.4683 159.776 80.7039L154.528 81.5565C154.673 82.197 154.975 82.6686 155.434 82.9711C155.9 83.2644 156.42 83.3644 156.996 83.2709C157.467 83.1943 157.841 83.0229 158.117 82.7566C158.4 82.4811 158.576 82.1491 158.644 81.761L159.818 81.5702C159.745 82.2297 159.477 82.8021 159.015 83.2872C158.551 83.7642 157.929 84.0663 157.145 84.1936C156.522 84.2948 155.941 84.2458 155.4 84.0467C154.867 83.8462 154.42 83.5131 154.057 83.0473C153.693 82.5735 153.456 81.9971 153.345 81.3181C153.235 80.6391 153.274 80.0219 153.463 79.4666C153.651 78.9113 153.967 78.4581 154.41 78.1074C154.86 77.7473 155.404 77.5155 156.044 77.4116C156.667 77.3104 157.24 77.3567 157.763 77.5504C158.287 77.7441 158.715 78.0599 159.049 78.4976C159.389 78.9261 159.608 79.4399 159.705 80.039ZM158.542 79.9943C158.474 79.579 158.325 79.2383 158.093 78.9727C157.86 78.699 157.571 78.5122 157.227 78.4123C156.89 78.3031 156.529 78.2797 156.146 78.342C155.594 78.4316 155.151 78.6839 154.817 79.0989C154.491 79.5127 154.35 80.0357 154.396 80.6678L158.542 79.9943ZM161.369 74.2959L162.809 83.1628L161.719 83.3399L160.278 74.4731L161.369 74.2959ZM163.991 75.1368C163.783 75.1706 163.595 75.1272 163.428 75.0067C163.261 74.8863 163.161 74.7223 163.127 74.5146C163.093 74.3068 163.137 74.1194 163.257 73.9523C163.377 73.7852 163.541 73.6848 163.749 73.651C163.949 73.6186 164.128 73.6632 164.287 73.7849C164.455 73.9053 164.555 74.0694 164.589 74.2771C164.622 74.4848 164.579 74.6722 164.459 74.8393C164.346 75.0052 164.19 75.1044 163.991 75.1368ZM164.691 76.1175L165.758 82.6838L164.667 82.8609L163.601 76.2947L164.691 76.1175ZM169.897 80.9784L171.03 75.0877L172.193 74.8989L170.683 81.8837L169.413 82.09L165.77 75.9422L166.944 75.7515L169.897 80.9784ZM179.75 76.7828C179.783 76.9905 179.807 77.2121 179.821 77.4477L174.572 78.3002C174.718 78.9407 175.019 79.4124 175.479 79.7149C175.944 80.0082 176.465 80.1081 177.04 80.0147C177.512 79.9381 177.885 79.7667 178.162 79.5004C178.445 79.2249 178.621 78.8929 178.689 78.5047L179.863 78.314C179.79 78.9735 179.522 79.5459 179.06 80.031C178.596 80.508 177.973 80.8101 177.19 80.9373C176.567 81.0385 175.985 80.9896 175.444 80.7905C174.912 80.59 174.464 80.2568 174.101 79.7911C173.737 79.3173 173.5 78.7408 173.39 78.0619C173.28 77.3829 173.319 76.7656 173.507 76.2103C173.696 75.655 174.012 75.2018 174.455 74.8512C174.905 74.491 175.449 74.2592 176.088 74.1554C176.711 74.0542 177.285 74.1004 177.808 74.2942C178.331 74.4879 178.76 74.8037 179.093 75.2414C179.433 75.6699 179.652 76.1837 179.75 76.7828ZM178.586 76.7381C178.519 76.3227 178.369 75.9821 178.137 75.7165C177.904 75.4428 177.615 75.256 177.272 75.1561C176.934 75.0469 176.574 75.0235 176.19 75.0858C175.639 75.1753 175.196 75.4277 174.862 75.8427C174.536 76.2565 174.395 76.7795 174.44 77.4116L178.586 76.7381ZM181.959 74.4069C182.09 74.0002 182.315 73.6645 182.632 73.3998C182.958 73.1337 183.377 72.9591 183.888 72.8761L184.071 74.0024L183.783 74.0491C182.561 74.2477 182.057 75.01 182.273 76.336L182.853 79.9067L181.762 80.0838L180.696 73.5176L181.786 73.3404L181.959 74.4069ZM190.822 71.8726L188.436 82.1727L187.31 82.3556L188.09 78.9821L184.387 72.9179L185.597 72.7213L188.523 77.7066L189.695 72.0556L190.822 71.8726ZM196.401 72.2207C196.562 71.7929 196.837 71.4202 197.228 71.1025C197.619 70.7848 198.09 70.5812 198.641 70.4916C199.233 70.3956 199.787 70.449 200.303 70.6521C200.82 70.8551 201.256 71.1902 201.61 71.6573C201.964 72.1164 202.195 72.6815 202.304 73.3525C202.411 74.0156 202.372 74.6286 202.184 75.1921C201.997 75.7554 201.687 76.2198 201.255 76.5853C200.831 76.9493 200.327 77.1787 199.743 77.2736C199.176 77.3656 198.657 77.323 198.185 77.1454C197.722 76.9665 197.351 76.703 197.073 76.3546L197.269 77.5648L196.179 77.7419L194.738 68.875L195.829 68.6979L196.401 72.2207ZM201.189 73.5336C201.109 73.0383 200.94 72.623 200.68 72.2882C200.42 71.9531 200.104 71.7176 199.729 71.5818C199.362 71.4445 198.975 71.409 198.567 71.4752C198.169 71.54 197.813 71.7002 197.502 71.9558C197.197 72.202 196.972 72.5296 196.825 72.9389C196.685 73.3387 196.655 73.7824 196.734 74.2697C196.814 74.765 196.985 75.184 197.246 75.5271C197.513 75.8607 197.831 76.1003 198.199 76.2454C198.574 76.3813 198.961 76.4168 199.36 76.352C199.767 76.2858 200.123 76.1296 200.427 75.8834C200.739 75.6278 200.964 75.3001 201.104 74.9003C201.243 74.4923 201.271 74.0368 201.189 73.5336ZM208.865 68.9415L206.48 79.2415L205.354 79.4245L206.134 76.0509L202.431 69.9867L203.641 69.7901L206.566 74.7755L207.739 69.1244L208.865 68.9415Z" fill="#949191"/>
<path d="M221.347 65.1428L222.694 73.4345L221.603 73.6117L220.599 67.4289L218.848 74.0594L218.081 74.184L214.306 68.4388L215.313 74.6336L214.222 74.8107L212.875 66.519L214.05 66.3283L218.231 72.6838L220.185 65.3317L221.347 65.1428ZM227.425 72.7767C226.809 72.8767 226.228 72.8277 225.679 72.6299C225.138 72.4307 224.683 72.0989 224.312 71.6344C223.948 71.1606 223.711 70.5841 223.601 69.9052C223.492 69.2342 223.539 68.6196 223.744 68.0617C223.955 67.4945 224.29 67.0341 224.75 66.6808C225.207 66.3195 225.748 66.0882 226.371 65.987C226.994 65.8858 227.58 65.9341 228.128 66.1319C228.676 66.3217 229.135 66.649 229.506 67.1135C229.884 67.5767 230.129 68.1478 230.239 68.8268C230.349 69.5058 230.295 70.1295 230.076 70.6981C229.863 71.2573 229.524 71.7183 229.058 72.0809C228.592 72.4436 228.048 72.6755 227.425 72.7767ZM227.269 71.8181C227.66 71.7546 228.013 71.603 228.327 71.3635C228.64 71.124 228.871 70.8036 229.019 70.4024C229.175 69.9999 229.21 69.535 229.125 69.0078C229.039 68.4806 228.863 68.0501 228.595 67.7164C228.327 67.3828 228.012 67.1552 227.648 67.034C227.282 66.9047 226.904 66.872 226.513 66.9355C226.113 67.0005 225.761 67.1519 225.455 67.3902C225.156 67.6192 224.936 67.9336 224.797 68.3335C224.657 68.7333 224.629 69.1969 224.715 69.7241C224.802 70.2593 224.971 70.6951 225.223 71.0314C225.482 71.3664 225.79 71.5992 226.148 71.7297C226.504 71.8522 226.878 71.8817 227.269 71.8181ZM234.321 64.6832C235.119 64.5535 235.806 64.6921 236.381 65.0988C236.954 65.4976 237.314 66.1524 237.462 67.063L238.091 70.9333L237.013 71.1085L236.409 67.394C236.303 66.739 236.058 66.2662 235.675 65.976C235.29 65.6778 234.814 65.5746 234.247 65.6668C233.672 65.7602 233.241 66.0146 232.957 66.4298C232.679 66.8438 232.597 67.3943 232.708 68.0813L233.298 71.7119L232.208 71.889L231.141 65.3228L232.231 65.1456L232.383 66.0802C232.544 65.7097 232.794 65.4027 233.131 65.1593C233.477 64.9145 233.873 64.7559 234.321 64.6832ZM240.753 68.9512L239.935 72.3924L239.204 72.5112L239.555 69.1459L240.753 68.9512ZM244.185 63.2898C244.122 62.5458 244.311 61.9247 244.756 61.4262C245.199 60.9278 245.829 60.6123 246.644 60.48C247.186 60.3918 247.67 60.4158 248.094 60.5518C248.524 60.6787 248.867 60.8937 249.121 61.1966C249.383 61.4985 249.549 61.8609 249.618 62.2843C249.698 62.7796 249.624 63.2303 249.395 63.6365C249.173 64.0414 248.844 64.3328 248.405 64.5105L248.415 64.5705C248.954 64.614 249.407 64.7987 249.772 65.1248C250.136 65.4511 250.368 65.9176 250.467 66.5247C250.541 66.98 250.503 67.4084 250.355 67.8095C250.206 68.2027 249.94 68.5369 249.559 68.812C249.177 69.0873 248.695 69.2722 248.112 69.3669C247.265 69.5045 246.534 69.3977 245.92 69.0466C245.304 68.6875 244.897 68.1058 244.702 67.3013L245.756 67.13C245.89 67.6003 246.149 67.9598 246.534 68.2089C246.919 68.458 247.39 68.5371 247.95 68.4462C248.509 68.3554 248.909 68.1428 249.15 67.8085C249.397 67.465 249.484 67.0615 249.409 66.5982C249.311 65.9991 249.041 65.6002 248.599 65.4014C248.157 65.2027 247.532 65.169 246.726 65.2999L246.45 65.3447L246.302 64.4341L246.59 64.3873C247.323 64.2601 247.859 64.05 248.197 63.7573C248.533 63.4568 248.661 63.0587 248.581 62.5635C248.512 62.1401 248.317 61.8234 247.996 61.6131C247.682 61.4017 247.27 61.3374 246.76 61.4204C246.264 61.5009 245.885 61.6936 245.624 61.9985C245.361 62.3035 245.237 62.6762 245.252 63.1166L244.185 63.2898ZM250.785 61.0002L250.623 60.0056L252.876 59.6397L254.283 68.3029L253.181 68.4819L251.935 60.8133L250.785 61.0002ZM260.774 58.6764C261.685 58.5285 262.499 58.5725 263.218 58.8082C263.944 59.0347 264.533 59.435 264.988 60.0089C265.45 60.5815 265.75 61.2952 265.889 62.15C266.028 63.0047 265.969 63.7768 265.712 64.4663C265.461 65.1465 265.028 65.7088 264.411 66.1533C263.801 66.5886 263.041 66.8801 262.131 67.028L259.531 67.4504L258.174 59.0988L260.774 58.6764ZM261.985 66.1294C263.063 65.9542 263.84 65.537 264.315 64.8776C264.788 64.2105 264.942 63.3615 264.774 62.331C264.606 61.2926 264.186 60.5284 263.517 60.0388C262.854 59.5478 261.988 59.3893 260.918 59.5631L259.408 59.8084L260.475 66.3746L261.985 66.1294ZM273.419 61.5662C273.453 61.774 273.476 61.9955 273.49 62.2311L268.242 63.0837C268.387 63.7242 268.69 64.1957 269.148 64.4983C269.614 64.7916 270.134 64.8916 270.71 64.7981C271.181 64.7215 271.555 64.5501 271.831 64.2838C272.115 64.0082 272.29 63.6763 272.358 63.2882L273.532 63.0974C273.46 63.7569 273.191 64.3293 272.729 64.8144C272.265 65.2914 271.643 65.5935 270.859 65.7208C270.236 65.822 269.655 65.773 269.114 65.5739C268.581 65.3734 268.134 65.0403 267.771 64.5745C267.407 64.1006 267.17 63.5243 267.059 62.8453C266.949 62.1663 266.989 61.5491 267.177 60.9938C267.366 60.4384 267.681 59.9853 268.124 59.6346C268.574 59.2745 269.119 59.0425 269.758 58.9388C270.381 58.8376 270.954 58.8839 271.477 59.0776C272.001 59.2713 272.43 59.587 272.763 60.0248C273.103 60.4534 273.322 60.9671 273.419 61.5662ZM272.256 61.5215C272.188 61.1062 272.039 60.7655 271.807 60.4999C271.574 60.2261 271.286 60.0393 270.941 59.9395C270.604 59.8304 270.243 59.8069 269.86 59.8692C269.308 59.9588 268.866 60.211 268.531 60.6261C268.205 61.0399 268.065 61.5628 268.11 62.195L272.256 61.5215ZM274.49 61.6382C274.38 60.9592 274.42 60.346 274.609 59.7986C274.798 59.2434 275.109 58.7869 275.543 58.4294C275.985 58.0707 276.517 57.8407 277.14 57.7395C277.948 57.6084 278.642 57.6965 279.225 58.0035C279.816 58.3092 280.251 58.796 280.532 59.4637L279.358 59.6545C279.181 59.2733 278.91 58.9934 278.545 58.815C278.188 58.6351 277.77 58.5843 277.29 58.6621C276.667 58.7633 276.199 59.0608 275.886 59.5544C275.571 60.0401 275.477 60.6743 275.604 61.4572C275.733 62.248 276.024 62.8279 276.477 63.197C276.931 63.5661 277.469 63.7 278.092 63.5988C278.572 63.5209 278.953 63.3441 279.236 63.0686C279.519 62.7931 279.687 62.4378 279.739 62.003L280.914 61.8123C280.847 62.5118 280.583 63.1081 280.122 63.6011C279.66 64.0862 279.033 64.393 278.242 64.5214C277.619 64.6227 277.041 64.5731 276.509 64.3726C275.984 64.1709 275.544 63.8365 275.189 63.3694C274.835 62.9022 274.602 62.3252 274.49 61.6382Z" fill="#F71D3B"/>
</g>
</g>
<defs>
<filter id="filter0_d_2343_1745" x="1.24338" y="2.37579" width="339.238" height="137.09" filterUnits="userSpaceOnUse" color-interpolation-filters="sRGB">
<feFlood flood-opacity="0" result="BackgroundImageFix"/>
<feColorMatrix in="SourceAlpha" type="matrix" values="0 0 0 0 0 0 0 0 0 0 0 0 0 0 0 0 0 0 127 0" result="hardAlpha"/>
<feOffset dy="4"/>
<feGaussianBlur stdDeviation="6.3"/>
<feComposite in2="hardAlpha" operator="out"/>
<feColorMatrix type="matrix" values="0 0 0 0 0 0 0 0 0 0 0 0 0 0 0 0 0 0 0.03 0"/>
<feBlend mode="normal" in2="BackgroundImageFix" result="effect1_dropShadow_2343_1745"/>
<feBlend mode="normal" in="SourceGraphic" in2="effect1_dropShadow_2343_1745" result="shape"/>
</filter>
<clipPath id="clip0_2343_1745">
<rect width="332.964" height="88.4435" fill="white" transform="translate(0 53.3896) rotate(-9.22708)"/>
</clipPath>
</defs>
</svg>
