<svg width="73" height="83" viewBox="0 0 73 83" fill="none" xmlns="http://www.w3.org/2000/svg">
<path d="M11.2389 23.1888C7.62497 19.3332 2.56463 10.2934 11.2389 4.97771C22.0819 -1.66683 34.8957 3.00895 39.3316 9.65355C46.0675 3.99324 60.9678 -3.5374 66.6851 11.622L64.7132 16.7901C71.86 17.5283 85.2161 22.3026 81.4702 35.493C81.3064 39.4309 77.7249 46.2722 64.7132 42.138C59.5382 49.5205 43.8658 58.8228 22.5745 36.9699C21.5066 39.677 17.8927 44.7954 11.978 43.6143C4.58519 42.138 -5.02501 33.7707 11.2389 23.9268V23.1888Z" fill="white"/>
<path d="M32.9185 43.5979L34.1704 44.3026C34.5889 44.5348 35.0264 44.7334 35.453 44.9512L36.0972 45.2712C36.3142 45.374 36.5371 45.4641 36.7558 45.5605L38.0772 46.1317C38.9795 46.4575 39.8674 46.8289 40.79 47.0928L41.4764 47.3088C41.7051 47.3828 41.9337 47.455 42.1669 47.5087L43.5601 47.8645C43.791 47.9297 44.026 47.9719 44.261 48.0175L44.9654 48.1555L45.6692 48.2942C45.9042 48.3404 46.1415 48.3617 46.3776 48.397C46.8505 48.4582 47.3233 48.5292 47.7968 48.5847L49.2212 48.6863C49.6831 48.7244 50.1467 48.7372 50.6103 48.725C51.0693 48.7169 51.5282 48.6863 51.9872 48.6407C52.9052 48.5448 53.815 48.3773 54.7081 48.1405C56.5869 47.6617 58.3475 46.8017 59.8813 45.6131C60.61 45.0355 61.2478 44.3511 61.7739 43.5829C62.2775 42.8344 62.6392 41.9987 62.8412 41.119C62.8725 40.9977 62.8974 40.8753 62.9165 40.7523L62.9755 40.3815L62.9819 40.3405C63.0235 40.0846 63.1364 39.8455 63.3077 39.6508C63.479 39.4568 63.7025 39.3158 63.9513 39.2442C64.1996 39.1726 64.4642 39.1738 64.7119 39.2471C64.9602 39.321 65.1824 39.4637 65.3526 39.6589C66.5148 40.9954 68.2396 41.8029 70.0743 42.0166C71.9363 42.2291 73.8191 41.9016 75.5011 41.0728C76.3229 40.6691 77.0748 40.1366 77.7288 39.4943C78.0524 39.1755 78.3435 38.8261 78.6005 38.4512L78.8059 38.1728C78.8696 38.077 78.924 37.9741 78.9836 37.8754C79.0965 37.6732 79.2279 37.4832 79.3286 37.2741C79.7476 36.4372 80.0567 35.5489 80.2489 34.6329C80.4335 33.7001 80.5099 32.7494 80.4775 31.7993C80.4045 29.8803 79.9062 28.002 79.0172 26.3012C78.5669 25.4626 78.0315 24.6728 77.4197 23.9443C76.7854 23.2151 76.0856 22.5462 75.3286 21.946C72.2604 19.5488 68.2731 18.2884 64.309 18.1839L64.3015 18.1837C63.9959 18.1756 63.7002 18.0729 63.4548 17.8895C63.2094 17.7061 63.0264 17.4511 62.9315 17.1594C62.8366 16.8678 62.8337 16.5538 62.9234 16.2605C63.0131 15.9672 63.1914 15.7089 63.4333 15.5212C64.2031 14.9084 64.7315 14.0415 64.9237 13.0748C65.036 12.5572 65.0805 12.0271 65.0551 11.498C65.0273 10.9521 64.937 10.4112 64.7877 9.88558C64.4971 8.83487 63.9531 7.87211 63.2035 7.08281L63.0652 6.94211L62.9072 6.80292L62.5923 6.52245L62.2555 6.26624C62.1455 6.17724 62.0304 6.09511 61.91 6.02048L61.5529 5.78755C61.4301 5.71449 61.3028 5.64818 61.1784 5.57755C60.9266 5.43725 60.6673 5.31117 60.4011 5.1997C58.7648 4.50852 56.9191 4.21026 55.0507 4.14916C54.1102 4.12045 53.1679 4.15158 52.2309 4.24214C51.7621 4.2578 51.2973 4.31688 50.8308 4.36292L50.1362 4.46255C50.0199 4.47704 49.9047 4.49853 49.7919 4.52683C49.6755 4.53878 49.5592 4.55709 49.4452 4.58152C49.2148 4.62172 48.9851 4.6636 48.7593 4.7213C48.5336 4.77593 48.3044 4.82393 48.0793 4.8833C47.6342 5.00927 47.196 5.15834 46.7666 5.33006C45.9163 5.65199 45.1043 6.06623 44.3437 6.56542C44.2505 6.62682 44.1516 6.6829 44.0625 6.74834L43.7985 6.94956C43.618 7.07703 43.4455 7.21472 43.2817 7.36189L42.7955 7.80275L42.3568 8.28092C41.8127 8.93935 41.3734 9.67789 41.0539 10.4706L41.0487 10.4828C40.9098 10.8271 40.6407 11.102 40.2997 11.247C39.9588 11.3921 39.5745 11.3954 39.2313 11.2562C39.0912 11.1989 38.9616 11.1196 38.8464 11.0215C38.0147 10.3073 37.1673 9.61666 36.2997 8.95858C35.4292 8.30622 34.5443 7.67955 33.6379 7.09361C32.728 6.51581 31.8026 5.97018 30.8539 5.48022C29.9099 4.99685 28.9393 4.56599 27.9478 4.1897C26.9639 3.82733 25.9574 3.52994 24.9352 3.29932C23.9276 3.08175 22.9043 2.947 21.8746 2.8967C20.8502 2.86031 19.824 2.91148 18.8082 3.04964C17.7994 3.1938 16.8067 3.43077 15.8413 3.75768C15.5971 3.82739 15.3702 3.93846 15.1335 4.02567L14.7816 4.16417C14.6647 4.21188 14.5547 4.27166 14.4407 4.32451C14.2167 4.4358 13.9857 4.53596 13.7658 4.65436L13.1176 5.02677C12.2748 5.53654 11.4946 6.14397 10.7931 6.83647C10.6149 7.00368 10.4667 7.19769 10.3012 7.37558L10.0581 7.64796L9.84336 7.94165C9.70735 8.13936 9.53543 8.32377 9.41215 8.52107L9.22001 8.81396L9.04405 9.11932C8.58044 9.95934 8.25112 10.8669 8.06706 11.8091C7.92005 12.2811 7.81355 12.7648 7.74757 13.255C7.67233 13.7496 7.66364 14.2521 7.7221 14.749C7.80371 15.7416 8.04043 16.7153 8.42243 17.6345C9.19395 19.45 10.5726 20.9247 12.2783 21.6273C12.5405 21.7356 12.7645 21.9213 12.9196 22.1598C13.0747 22.3983 13.154 22.6786 13.1471 22.9634C13.1401 23.2481 13.0469 23.5241 12.8803 23.7546C12.7136 23.9852 12.4809 24.1595 12.2129 24.2545L12.133 24.2825C11.328 24.5657 10.5535 24.9318 9.82369 25.3747C9.64426 25.4914 9.45615 25.5927 9.28425 25.7199L8.76335 26.0918L8.26848 26.496C8.10063 26.6274 7.95419 26.7829 7.7956 26.9237C6.39898 28.1526 5.32534 29.7067 4.66783 31.4493L4.45658 32.1043L4.29915 32.7725C4.25574 32.9949 4.23317 33.2173 4.1967 33.4408C4.16024 33.6637 4.16776 33.8925 4.14924 34.1189C4.12435 35.0389 4.23953 35.9578 4.49072 36.8427C4.60648 37.2522 4.74308 37.6547 4.90109 38.0492C4.98444 38.2346 5.06951 38.4148 5.14707 38.5939C5.22 38.777 5.3265 38.9335 5.40985 39.101C5.57364 39.4389 5.78374 39.7224 5.95795 40.0164C6.0523 40.1568 6.15532 40.2856 6.24908 40.4173C6.33763 40.5478 6.43315 40.6731 6.53559 40.7933C7.17573 41.5684 7.90153 42.2684 8.69852 42.88C9.6379 43.5327 9.63441 43.8423 8.52719 43.725C8.19034 43.6672 7.8587 43.5812 7.53574 43.4686C7.34589 43.3952 7.14678 43.3011 6.93031 43.2017C6.82382 43.1492 6.70691 43.103 6.59925 43.0371L6.26471 42.8332C5.13955 42.1205 4.18107 41.1721 3.45469 40.0534C2.3058 38.3242 1.65988 36.3079 1.58984 34.2298L1.59043 33.4275C1.61126 33.1595 1.63789 32.8915 1.66336 32.6235C1.67378 32.4901 1.69287 32.3573 1.72007 32.2267L1.79242 31.8346C1.81847 31.704 1.83873 31.5724 1.86998 31.4436L1.97416 31.0606C2.24272 30.049 2.64787 29.0792 3.17978 28.1784C3.62834 27.4055 4.1533 26.6797 4.74656 26.0119C5.02959 25.6679 5.35659 25.3682 5.66508 25.0505C5.82772 24.9004 5.99732 24.758 6.16574 24.6151C6.33128 24.4684 6.50723 24.3352 6.68492 24.2047C8.08848 23.1406 9.66914 22.3344 11.3534 21.8233L11.2353 23.9867C9.46831 23.1431 7.99934 21.779 7.02524 20.0765C6.78562 19.6659 6.57147 19.2414 6.38221 18.8054C6.28381 18.5901 6.20279 18.3684 6.11366 18.15C6.03783 17.9271 5.95622 17.7058 5.88792 17.4808C5.61531 16.5832 5.43531 15.6601 5.34907 14.7258C5.30624 14.2593 5.2993 13.7923 5.26573 13.3223C5.24895 12.85 5.25589 12.3772 5.28772 11.9057C5.31088 11.4294 5.38263 10.9568 5.50302 10.4953C5.61299 10.0289 5.74958 9.56925 5.91222 9.11857C6.23982 8.20728 6.68549 7.34329 7.23824 6.54919C7.50564 6.15569 7.79849 5.78033 8.11509 5.42547L8.58797 4.89307C8.75524 4.72569 8.92945 4.56558 9.10077 4.40196C10.4731 3.11588 12.0734 2.09826 13.8191 1.40165C15.5328 0.709148 17.3375 0.268173 19.1769 0.092476C19.4049 0.0619802 19.6341 0.0492747 19.8633 0.0392828L20.5515 0.00445591C21.0105 -0.00686446 21.4706 0.00636029 21.9296 0.0113851C22.388 0.0479453 22.8481 0.0643494 23.3048 0.120085L23.9895 0.210822L24.3316 0.257835L24.6673 0.321656C26.4517 0.652951 28.1962 1.17259 29.8717 1.87203C31.8825 2.72054 33.8063 3.7627 35.6162 4.9838C37.3856 6.17793 39.0716 7.4919 40.6627 8.91648L38.4656 9.46482C38.5981 9.17927 38.7295 8.8973 38.8592 8.6188C38.9228 8.47972 38.9963 8.34555 39.0797 8.21739L39.317 7.82926C40.3015 6.31354 41.6154 5.04093 43.1596 4.10642L43.4379 3.92893L43.7244 3.77183L44.2986 3.45902C44.6887 3.27061 45.08 3.08412 45.477 2.91754C45.8781 2.76616 46.2734 2.59052 46.6821 2.46796C46.8846 2.40004 47.0883 2.33616 47.2892 2.26229C47.4918 2.19489 47.6972 2.13962 47.9004 2.07787C48.7153 1.83662 49.5442 1.64539 50.3823 1.50527C50.8001 1.43983 51.2197 1.38046 51.6405 1.32969C51.85 1.29833 52.0624 1.29382 52.2737 1.27719C52.4855 1.26067 52.6956 1.25201 52.9052 1.24756C53.749 1.21631 54.5941 1.22919 55.4362 1.2862C56.2888 1.33703 57.1373 1.4444 57.9759 1.60767C58.8291 1.76783 59.6678 1.99696 60.4838 2.29273C61.315 2.59769 62.1172 2.97571 62.8806 3.42252C63.6533 3.88925 64.371 4.44071 65.0215 5.06674C65.6831 5.72563 66.2405 6.48185 66.6745 7.30933C67.5508 8.95402 67.9375 10.8166 67.7887 12.6756C67.7071 13.639 67.4461 14.5787 67.0212 15.4465C66.5779 16.3441 65.9395 17.1307 65.1529 17.7486L64.3698 15.3673C66.274 15.4115 68.1655 15.6881 70.0037 16.1909C72.8114 16.9558 75.4235 18.3146 77.664 20.1759C78.7944 21.128 79.7933 22.2257 80.6366 23.4405C81.8961 25.2987 82.7347 27.4109 83.0942 29.6289C83.453 31.8467 83.324 34.1166 82.7151 36.2795C82.2821 37.7414 81.5847 39.1108 80.6569 40.3197C80.1944 40.9405 79.6596 41.5037 79.0646 41.9975C78.4766 42.4907 77.8399 42.9216 77.1645 43.2837C74.9715 44.4579 72.478 44.9466 70.006 44.6861C69.3867 44.622 68.775 44.5047 68.1759 44.3355C67.5699 44.1697 66.9801 43.9468 66.4158 43.6696C65.8451 43.3923 65.3022 43.0591 64.7964 42.6744C64.2905 42.284 63.8234 41.845 63.4026 41.3639L65.5413 40.7141C65.3948 41.7711 65.084 42.7986 64.6193 43.7585C64.1551 44.7034 63.5543 45.5744 62.8377 46.3443C62.1403 47.0974 61.3561 47.7645 60.5012 48.3323C59.6666 48.8925 58.781 49.3725 57.8567 49.7681C56.0301 50.5438 54.0975 51.0382 52.1238 51.2346C51.6318 51.2802 51.1393 51.316 50.6444 51.3247C50.3967 51.331 50.1496 51.3345 49.9012 51.3276C49.6512 51.3281 49.4105 51.3125 49.1708 51.2952L47.7273 51.2005C47.486 51.1907 47.2492 51.1508 47.0102 51.1225L46.2948 51.0301C45.337 50.9308 44.4005 50.7171 43.457 50.5455C42.9871 50.4497 42.5258 50.3197 42.0604 50.2082C41.5956 50.0921 41.1286 49.9847 40.6742 49.8334L39.3031 49.4118C38.847 49.2674 38.4031 49.0895 37.9534 48.9295C37.0481 48.6205 36.1794 48.2202 35.2984 47.8506C33.5557 47.0651 31.8697 46.1589 30.2532 45.1377C29.4307 44.6485 28.6638 44.0721 27.879 43.524C27.4918 43.2422 27.1248 42.9314 26.7474 42.6363L26.1848 42.1875C25.9996 42.035 25.826 41.8681 25.646 41.7087C23.8164 40.1291 22.2196 38.2964 20.9028 36.2668L22.4661 35.7597C22.4737 36.4777 22.3822 37.1933 22.1947 37.8858C22.0066 38.5673 21.7172 39.2165 21.3358 39.8114C20.5914 40.9249 19.5901 41.8416 18.4169 42.4838C16.2957 43.6407 13.8648 44.0964 11.4703 43.7862C10.9251 43.7256 10.3961 43.5639 9.9105 43.3086C9.61069 43.1214 9.5175 42.9701 9.59795 42.8719C9.76696 42.6605 10.5744 42.7247 12.1174 42.6016C14.1374 42.4555 16.0763 41.7457 17.716 40.553C18.465 39.9956 19.0768 39.2731 19.5028 38.4408C19.6978 38.0452 19.839 37.6247 19.9235 37.1915C19.9993 36.7491 20.026 36.2998 20.0034 35.851C19.9889 35.5091 20.0827 35.1718 20.2725 34.887C20.4618 34.6029 20.7367 34.3863 21.0568 34.269C21.3774 34.1512 21.7264 34.1397 22.054 34.2344C22.3816 34.3297 22.6705 34.5266 22.8788 34.7981L22.9523 34.8945L23.6955 35.8735C24.9387 37.4306 26.3313 38.8619 27.8535 40.1464C29.4238 41.4436 31.0993 42.6063 32.8629 43.6228C32.8808 43.6141 32.8976 43.606 32.9185 43.5979Z" fill="#434141"/>
<path d="M25.8113 54.9611C26.3478 55.0824 26.8756 55.239 27.3919 55.4284C28.906 56.0013 30.2986 56.855 31.4979 57.9443C31.9175 58.3238 32.3139 58.7281 32.6849 59.1555C33.108 59.6447 33.4617 60.191 33.7349 60.7778C33.9218 61.1677 34.0642 61.5778 34.1603 61.9994C34.2644 62.4343 34.3131 62.8802 34.305 63.3272C34.3015 63.5583 34.2835 63.7893 34.2506 64.018C34.2118 64.2531 34.1568 64.4841 34.085 64.7111C34.0132 64.9421 33.923 65.1668 33.8153 65.3834C33.7042 65.5988 33.5774 65.8067 33.4362 66.0043C32.8916 66.728 32.1768 67.3067 31.3555 67.6862C30.6406 68.0223 29.8871 68.2689 29.1115 68.4191C26.9185 68.88 24.6508 68.8511 22.4705 68.3342C21.7441 68.1569 21.0328 67.9241 20.3417 67.6371C19.5632 67.324 18.8328 66.9018 18.1724 66.3826C17.8217 66.0794 17.5097 65.7328 17.244 65.3522C16.9512 64.9548 16.715 64.5182 16.5425 64.0544L18.0347 64.9323C17.2915 65.0484 16.5373 65.0836 15.7866 65.038C15.0406 64.9883 14.3021 64.8613 13.582 64.6591C12.8638 64.4575 12.1681 64.1803 11.5082 63.8303C11.1772 63.657 10.8565 63.4647 10.5475 63.2545L10.305 63.0887C10.1886 63.0038 10.0792 62.9097 9.97736 62.808C9.79851 62.6284 9.63991 62.4291 9.50448 62.2154C9.26718 61.8325 9.08371 61.4201 8.95927 60.9869C8.8412 60.5566 8.7862 60.1108 8.79604 59.6643C8.80588 59.2248 8.87997 58.7893 9.0154 58.3711C9.14505 57.9582 9.33258 57.566 9.5722 57.2062C10.0497 56.4929 10.702 55.9159 11.4672 55.5295C11.6414 55.44 11.8196 55.3602 12.0025 55.2904C12.1744 55.2216 12.3515 55.1604 12.5292 55.1003C12.8921 54.9825 13.2637 54.8924 13.6399 54.8306C14.2378 54.7261 14.8496 54.7243 15.4481 54.8243C16.0512 54.9248 16.6311 55.1356 17.1584 55.4463C17.5682 55.6808 17.9149 56.0112 18.1701 56.4091C18.2587 56.5523 18.3287 56.7054 18.3779 56.866C18.3669 56.9896 18.3646 57.1137 18.3709 57.2379C18.397 57.6474 18.4745 57.9449 18.1209 57.9339C18.0063 57.9241 17.894 57.894 17.7898 57.8455C17.7163 57.8138 17.6457 57.7774 17.5774 57.7358C17.5514 57.7185 17.5224 57.7063 17.4918 57.6988L17.4159 57.6711C17.3071 57.6295 17.2018 57.581 17.0993 57.5244C16.9784 57.4742 16.8603 57.4152 16.7463 57.3494C16.4326 57.194 16.1079 57.0612 15.7745 56.952C15.4353 56.851 15.0869 56.7863 14.7338 56.7585C14.3084 56.7325 13.8819 56.7712 13.468 56.8735C13.2516 56.9249 13.0386 56.9884 12.8285 57.0618C12.722 57.0976 12.6178 57.1426 12.5119 57.1831C12.4083 57.2246 12.3342 57.268 12.2427 57.3084C11.903 57.4886 11.6084 57.7439 11.3809 58.0552C11.1534 58.3659 10.9995 58.7246 10.93 59.1035C10.8623 59.4668 10.8797 59.841 10.9815 60.1957C11.0307 60.3684 11.1014 60.5341 11.1905 60.6901C11.2681 60.8373 11.3664 60.9725 11.4834 61.0903C11.5227 61.1302 11.5679 61.1637 11.6165 61.1908C11.6281 61.1966 11.639 61.2024 11.65 61.2093L11.7224 61.2509L11.8677 61.3346C11.9626 61.393 12.0627 61.4421 12.1623 61.4929C12.2613 61.5437 12.3602 61.5934 12.4632 61.6367C12.8678 61.8215 13.288 61.9688 13.7192 62.0757C14.1967 62.1912 14.6823 62.2668 15.172 62.3026C15.6587 62.3413 16.1374 62.3552 16.6022 62.3795C16.9396 62.3956 17.2782 62.3852 17.6145 62.3494L17.7291 62.339C18.0017 62.3153 18.2743 62.3829 18.5035 62.5319C18.7333 62.6815 18.9063 62.9027 18.9954 63.1621L19.0527 63.3278C19.0794 63.3815 19.0979 63.4381 19.128 63.4913C19.1836 63.6056 19.2565 63.7108 19.345 63.8009C19.389 63.8511 19.4365 63.8985 19.4863 63.9435C19.5355 63.9915 19.5876 64.0371 19.642 64.0798C19.6964 64.126 19.7537 64.1688 19.8133 64.2086C19.8654 64.2566 19.9285 64.2993 19.9869 64.3443C20.5229 64.7175 21.1121 65.008 21.7349 65.2049C23.0609 65.6531 24.4424 65.9142 25.8396 65.98C26.4259 66.0112 27.014 65.9962 27.598 65.9344C28.1756 65.8749 28.7474 65.7698 29.3083 65.619C29.8084 65.4891 30.2859 65.2829 30.7234 65.008C31.0794 64.7879 31.3665 64.4726 31.5523 64.0966C31.8665 63.482 31.8121 62.5654 31.4469 61.7661C31.4052 61.665 31.3485 61.5703 31.2999 61.4715C31.2397 61.3803 31.1917 61.2798 31.1251 61.1937C31.0649 61.103 30.9995 61.0158 30.9289 60.9332C30.8681 60.8547 30.7738 60.7507 30.6858 60.6583C30.3275 60.2759 29.9432 59.9184 29.5363 59.5886C27.9146 58.2539 25.9166 57.3685 23.8098 57.2841C22.1331 57.2229 20.5275 57.3806 18.8698 57.4395C18.7558 57.458 18.6395 57.4447 18.533 57.402C18.4751 57.384 18.4734 57.3101 18.4965 57.2333C18.5023 57.2131 18.5098 57.1911 18.5185 57.1686L18.5324 57.134L18.5399 57.1161L18.544 57.1068L18.5457 57.1022L18.5469 57.1005L18.5475 57.0987V57.0981L18.5504 57.0831C18.5729 57.0248 18.5984 56.9584 18.6216 56.8839C18.6459 56.8071 18.6644 56.7285 18.676 56.6488C18.6904 56.5731 18.6869 56.4755 18.6979 56.4409C18.68 56.4189 18.7691 56.3652 18.8317 56.3179L19.0302 56.174C19.1639 56.0799 19.2958 55.9759 19.4376 55.8881C19.5766 55.7957 19.723 55.7154 19.8758 55.6485C20.024 55.5734 20.182 55.5156 20.3371 55.4503C20.6473 55.3181 20.9737 55.217 21.3013 55.1136C21.6347 55.0212 21.9727 54.9473 22.3136 54.8913C22.8866 54.7977 23.4677 54.7671 24.0471 54.7983C24.6323 54.8335 25.2151 54.9022 25.7922 55.0045L25.8113 54.9611Z" fill="#434141"/>
<path d="M4.21904 73.8264C5.15321 73.7791 6.08968 73.8755 6.99549 74.1117C7.46199 74.2296 7.91402 74.3815 8.37763 74.5178C9.05018 74.7037 9.68685 75.0041 10.2593 75.4049C10.5961 75.6469 10.8931 75.9409 11.1379 76.2765C11.4209 76.6686 11.609 77.1203 11.6877 77.5979C11.7659 78.0889 11.7224 78.5919 11.561 79.0627C11.4163 79.4837 11.1957 79.8753 10.9098 80.2161C10.4132 80.7977 9.78872 81.2557 9.08492 81.5531C8.69539 81.7229 8.28734 81.8471 7.86888 81.9228C7.66514 81.9632 7.46257 81.9909 7.26057 82.014C7.03716 82.0406 6.81143 82.0516 6.58628 82.047C6.36576 82.0418 6.14235 82.0256 5.93977 82.0025C5.75572 81.9805 5.57166 81.9551 5.38819 81.9262C5.02008 81.8691 4.65429 81.7905 4.28676 81.7033C3.52797 81.5329 2.79234 81.2684 2.09721 80.9172C1.91432 80.8266 1.73603 80.7255 1.56356 80.6163C1.47616 80.5603 1.38819 80.5066 1.30253 80.4436L1.17405 80.3512L1.11037 80.305L1.02877 80.2374C0.583679 79.8759 0.257823 79.3884 0.0934472 78.8386C0.00141994 78.5174 -0.0229027 78.1807 0.0216639 77.8498C0.0656518 77.5182 0.177372 77.2006 0.350429 76.9147C0.477184 76.6848 0.684958 76.5104 0.932679 76.4255C1.03397 76.3943 1.13989 76.381 1.24523 76.3862C1.34652 76.3954 1.44549 76.4191 1.53925 76.4578C1.65674 76.5127 1.7615 76.5901 1.84832 76.686C1.93514 76.7824 2.00228 76.895 2.04511 77.0169C2.12498 77.189 2.1713 77.375 2.18171 77.565C2.17419 77.7244 2.15797 77.8827 2.13251 78.0398C2.12209 78.1305 2.13136 78.2223 2.15856 78.3095C2.18634 78.3961 2.23148 78.4764 2.29225 78.5446C2.30788 78.5619 2.32757 78.5763 2.34377 78.5937C2.35304 78.6035 2.36228 78.6127 2.37212 78.6208L2.42248 78.6578C2.48846 78.7092 2.55735 78.7566 2.62854 78.8004C2.77324 78.894 2.92487 78.976 3.08173 79.0465C3.75659 79.3353 4.48471 79.4774 5.21745 79.4641C5.42582 79.4612 5.63881 79.4444 5.84891 79.4358C5.9531 79.4335 6.05843 79.4294 6.1603 79.4364C6.24249 79.4404 6.32466 79.4496 6.40569 79.4635C6.52608 79.4854 6.64821 79.4953 6.77092 79.4906C6.82416 79.4906 6.90287 79.4785 6.97233 79.4693C7.04352 79.4618 7.11471 79.4496 7.18416 79.4335C7.45504 79.3751 7.71781 79.2862 7.96843 79.1689C8.37763 78.9835 8.7359 78.7034 9.0143 78.3499C9.07797 78.2737 9.12196 78.1836 9.14222 78.0866C9.15842 78.0132 9.1532 77.937 9.12773 77.8659C9.0114 77.621 8.82735 77.4148 8.59699 77.2733C7.94875 76.8523 7.21948 76.5722 6.45663 76.4515C6.05496 76.377 5.64866 76.3377 5.24061 76.3331C4.83835 76.3348 4.43783 76.3735 4.0431 76.4492C3.88798 76.4838 3.72881 76.5006 3.5737 76.526C3.49498 76.5364 3.41453 76.5421 3.33177 76.5456C3.24958 76.5543 3.16622 76.5572 3.08287 76.5554C2.90808 76.5479 2.73444 76.5485 2.54634 76.5369L1.95193 76.4925C1.85586 76.4896 1.76208 76.4624 1.67874 76.4151C1.59597 76.3671 1.52536 76.2996 1.47384 76.2187C1.42233 76.1373 1.39109 76.0449 1.38357 75.949C1.37546 75.8531 1.39108 75.7567 1.4287 75.6683L1.52189 75.4297C1.55951 75.3604 1.60524 75.2952 1.65791 75.2368C1.75515 75.115 1.85932 74.9937 1.96871 74.8741C2.08274 74.765 2.20197 74.6575 2.32641 74.5518C2.45317 74.4548 2.58801 74.3693 2.72924 74.2954C3.19748 74.0655 3.70277 73.9223 4.22194 73.8732L4.21904 73.8264Z" fill="#434141"/>
<path d="M28.5355 20.7929L29.832 17.0704C30.8426 14.1697 33.8465 13.1809 36.4365 14.0808C39.0503 14.9891 40.5228 17.6955 39.4445 20.7896L37.2665 20.0327C37.7712 18.5824 37.3667 17.3305 36.4753 16.6957C36.1454 16.4728 35.808 16.2742 35.4196 16.2205C34.1116 15.8473 32.5002 16.3443 31.9863 17.8189L30.6898 21.5414L34.3929 22.8282L33.8795 24.3027L30.1758 23.016L28.517 27.778L34.423 29.8301C34.6892 29.9225 34.8935 29.8038 35.0197 29.4412L35.4995 28.0634L37.6786 28.8203L37.2654 30.0047C36.7016 31.6243 35.5041 32.6449 33.931 32.098L23.3779 28.4313L24.1356 26.2558L26.3627 27.0295L28.0216 22.2675L26.1822 21.6283L26.6956 20.1538L28.5355 20.7929Z" fill="#F71D3B"/>
<path d="M47.7568 26.6992L49.0533 22.9766C50.0638 20.0759 53.0678 19.0871 55.6573 19.987C58.2716 20.8953 59.7435 23.6018 58.6658 26.6959L56.4872 25.939C56.9925 24.4886 56.5874 23.2368 55.6966 22.6019C55.3667 22.3791 55.0292 22.1804 54.6409 22.1268C53.3328 21.7536 51.7209 22.2505 51.2075 23.7251L49.911 27.4477L53.6141 28.7344L53.1007 30.209L49.3971 28.9222L47.7377 33.6839L53.6442 35.7361C53.9105 35.8285 54.1142 35.7101 54.2409 35.3473L54.7207 33.9698L56.8993 34.7265L56.4866 35.9111C55.9229 37.5306 54.7254 38.5511 53.1523 38.0042L42.5986 34.3378L43.3568 32.162L45.5834 32.936L47.2423 28.1738L45.4034 27.5346L45.9168 26.0601L47.7568 26.6992Z" fill="#F71D3B"/>
</svg>
