<svg width="191" height="192" viewBox="0 0 191 192" fill="none" xmlns="http://www.w3.org/2000/svg">
<path d="M146.795 65.5309C152.912 58.9917 161.474 43.6596 146.795 34.6439C128.445 23.3743 106.761 31.3048 99.2541 42.5743C87.855 32.9742 62.6383 20.2017 52.9632 45.913L56.2995 54.6783C44.2056 55.9304 21.6025 64.0278 27.9414 86.4C28.2194 93.0783 34.2802 104.682 56.2995 97.6696C65.0571 110.191 91.5807 125.969 127.612 88.9044C129.419 93.4957 135.536 102.177 145.545 100.174C158.055 97.6696 174.319 83.4783 146.795 66.7826V65.5309Z" fill="white"/>
<path d="M110.107 100.565L107.989 101.761C107.28 102.155 106.54 102.491 105.818 102.861L104.728 103.404C104.361 103.578 103.984 103.73 103.613 103.895L101.377 104.863C99.8504 105.416 98.3475 106.045 96.7861 106.493L95.6251 106.86C95.2381 106.985 94.8511 107.107 94.4557 107.199L92.0987 107.802C91.7075 107.912 91.3097 107.984 90.9127 108.062L89.7208 108.296L88.5289 108.531C88.1319 108.609 87.7299 108.645 87.3304 108.705C86.5297 108.809 85.7298 108.929 84.9283 109.023L82.5182 109.195C81.7364 109.261 80.9517 109.282 80.1675 109.261C79.3913 109.248 78.6134 109.195 77.8373 109.119C76.283 108.956 74.7434 108.672 73.2325 108.27C70.0533 107.458 67.0737 105.999 64.4778 103.983C63.2449 103.004 62.1653 101.843 61.2755 100.54C60.4229 99.2707 59.8103 97.8532 59.4683 96.3606C59.4158 96.1553 59.3735 95.9474 59.3416 95.7387L59.2415 95.1101L59.2305 95.0408C59.1612 94.6068 58.9702 94.201 58.6797 93.8713C58.3893 93.5416 58.0115 93.3028 57.5906 93.181C57.1696 93.0599 56.723 93.0616 56.303 93.186C55.8831 93.3112 55.5072 93.5533 55.2193 93.8847C53.252 96.1519 50.3327 97.521 47.2279 97.8833C44.0776 98.2439 40.8905 97.6888 38.0449 96.283C36.6541 95.5985 35.3811 94.6944 34.2738 93.6059C33.7273 93.0649 33.2337 92.4722 32.7998 91.8361L32.4519 91.3645C32.3445 91.2017 32.2525 91.0272 32.1513 90.8594C31.96 90.5172 31.7381 90.1941 31.5665 89.8402C30.8582 88.4202 30.3348 86.9142 30.0094 85.3599C29.6977 83.778 29.568 82.1655 29.6231 80.554C29.7462 77.2996 30.5904 74.1139 32.0941 71.2293C32.8563 69.807 33.7624 68.4674 34.7979 67.2318C35.8712 65.9951 37.0558 64.8605 38.3365 63.8426C43.5291 59.7769 50.2763 57.6391 56.9845 57.4619L56.9979 57.4615C57.5154 57.4478 58.016 57.2735 58.4311 56.9625C58.8463 56.6514 59.1554 56.2189 59.3163 55.7243C59.4773 55.2296 59.4821 54.6971 59.33 54.1996C59.178 53.7022 58.8765 53.2642 58.467 52.9457C57.164 51.9065 56.2701 50.4362 55.9443 48.7966C55.7542 47.9187 55.6794 47.0196 55.7217 46.1222C55.77 45.1964 55.9221 44.279 56.1752 43.3874C56.666 41.6053 57.5867 39.9725 58.8556 38.6338L59.0901 38.3952L59.3578 38.1591L59.8899 37.6834L60.46 37.2488C60.6462 37.0978 60.8418 36.9586 61.0453 36.832L61.6492 36.4369C61.8565 36.3131 62.0723 36.2006 62.2828 36.0807C62.709 35.8428 63.148 35.629 63.5977 35.4399C66.3674 34.2677 69.4907 33.7618 72.6523 33.6581C74.2449 33.6094 75.8391 33.6622 77.4251 33.8159C78.2183 33.8423 79.0048 33.9426 79.794 34.0207L80.97 34.1896C81.1663 34.2142 81.361 34.2506 81.553 34.2986C81.7498 34.319 81.9454 34.35 82.139 34.3915C82.5291 34.4596 82.9187 34.5306 83.2997 34.6285C83.6822 34.7212 84.07 34.8026 84.4503 34.9033C85.2035 35.1169 85.945 35.3698 86.6723 35.661C88.111 36.207 89.4856 36.9096 90.7725 37.7562C90.9302 37.8604 91.097 37.9555 91.2479 38.0665L91.695 38.4078C92.0003 38.624 92.2922 38.8576 92.5699 39.1072L93.3923 39.8549L94.1346 40.6659C95.0554 41.7826 95.7994 43.0351 96.3399 44.3796L96.3482 44.4003C96.5834 44.9843 97.0388 45.4506 97.616 45.6965C98.1932 45.9425 98.8429 45.9481 99.4242 45.712C99.6611 45.6148 99.8805 45.4805 100.076 45.3141C101.483 44.1027 102.916 42.9314 104.385 41.8152C105.858 40.7088 107.356 39.6458 108.89 38.6521C110.43 37.6721 111.996 36.7466 113.601 35.9157C115.199 35.0959 116.841 34.3651 118.519 33.7269C120.184 33.1123 121.887 32.608 123.618 32.2168C125.323 31.8477 127.055 31.6192 128.797 31.5338C130.531 31.4722 132.267 31.559 133.987 31.7933C135.693 32.0378 137.374 32.4397 139.007 32.9941C139.421 33.1124 139.804 33.3007 140.206 33.4487L140.801 33.6836C140.998 33.7646 141.185 33.8659 141.377 33.9555C141.757 34.1443 142.147 34.3142 142.519 34.5149L143.616 35.1466C145.042 36.0112 146.364 37.0414 147.55 38.2159C147.852 38.4995 148.103 38.8286 148.383 39.1304L148.794 39.5923L149.158 40.0905C149.388 40.4258 149.679 40.7385 149.887 41.0732L150.213 41.5699L150.51 42.0878C151.295 43.5126 151.853 45.0518 152.164 46.6498C152.412 47.4504 152.593 48.2708 152.704 49.1021C152.832 49.941 152.846 50.7933 152.747 51.636C152.609 53.3196 152.209 54.971 151.562 56.53C150.257 59.6093 147.923 62.1104 145.037 63.3022C144.593 63.4857 144.214 63.8006 143.951 64.2052C143.689 64.6098 143.554 65.0851 143.566 65.5681C143.579 66.0511 143.736 66.5191 144.018 66.9101C144.301 67.3011 144.695 67.5968 145.147 67.7579L145.283 67.8054C146.645 68.2858 147.956 68.9066 149.191 69.6579C149.495 69.8557 149.812 70.0277 150.103 70.2433L150.985 70.8741L151.822 71.5597C152.106 71.7826 152.354 72.0462 152.623 72.2851C154.986 74.3693 156.804 77.0053 157.916 79.9613L158.274 81.0714L158.54 82.2046C158.613 82.5825 158.652 82.9596 158.713 83.3384C158.774 83.7162 158.762 84.1044 158.794 84.4884C158.835 86.0494 158.641 87.6071 158.216 89.108C158.02 89.8026 157.789 90.4854 157.522 91.1549C157.38 91.4688 157.236 91.7743 157.105 92.0782C156.982 92.3887 156.801 92.6542 156.66 92.938C156.383 93.5115 156.028 93.9924 155.733 94.4916C155.573 94.7295 155.399 94.9473 155.24 95.1711C155.09 95.3923 154.929 95.6052 154.755 95.8088C153.672 97.1236 152.444 98.3107 151.095 99.3475C149.505 100.455 149.511 100.979 151.385 100.781C151.955 100.683 152.516 100.537 153.063 100.346C153.385 100.222 153.721 100.062 154.088 99.8934C154.268 99.8041 154.465 99.7265 154.647 99.6146L155.214 99.2682C157.118 98.0594 158.74 96.4516 159.97 94.5542C161.914 91.6207 163.006 88.2006 163.125 84.677L163.124 83.316C163.089 82.8618 163.044 82.4068 163.001 81.9521C162.983 81.7259 162.951 81.501 162.905 81.279L162.782 80.614C162.738 80.3932 162.704 80.1697 162.65 79.9514L162.474 79.3014C162.021 77.5858 161.334 75.9409 160.435 74.413C159.675 73.1022 158.787 71.8712 157.784 70.7385C157.304 70.1551 156.751 69.6468 156.228 69.108C155.954 68.8534 155.667 68.6119 155.381 68.3695C155.101 68.1206 154.803 67.8947 154.502 67.6735C152.127 65.8688 149.452 64.5013 146.602 63.6345L146.802 67.3037C149.792 65.8729 152.279 63.5594 153.927 60.6718C154.331 59.9754 154.695 59.2555 155.015 58.5159C155.181 58.1509 155.318 57.7748 155.47 57.4043C155.598 57.0264 155.736 56.6509 155.852 56.2694C156.312 54.747 156.617 53.1813 156.763 51.5967C156.835 50.8056 156.848 50.0135 156.904 49.2163C156.933 48.4153 156.92 47.6134 156.868 46.8137C156.829 46.0058 156.706 45.2042 156.503 44.4216C156.317 43.6305 156.085 42.8509 155.81 42.0866C155.256 40.5409 154.501 39.0755 153.566 37.7287C153.114 37.0614 152.618 36.4247 152.083 35.8228L151.282 34.9198C150.999 34.636 150.704 34.3644 150.415 34.0869C148.092 31.9057 145.384 30.1797 142.43 28.9982C139.529 27.8237 136.476 27.0758 133.362 26.7778C132.977 26.7261 132.589 26.7045 132.2 26.6876L131.036 26.6285C130.259 26.6093 129.481 26.6317 128.704 26.6403C127.928 26.7022 127.15 26.7301 126.377 26.8246L125.218 26.9785L124.639 27.0582L124.071 27.1665C121.051 27.7283 118.099 28.6097 115.264 29.796C111.861 31.2351 108.605 33.0026 105.542 35.0737C102.548 37.0991 99.6945 39.3276 97.0021 41.7438L100.72 42.6739C100.495 42.1895 100.273 41.7113 100.054 41.2389C99.9464 41.003 99.8221 40.7755 99.6811 40.5581L99.2791 39.8998C97.6127 37.3291 95.3899 35.1706 92.7759 33.5857L92.3055 33.2846L91.8201 33.0182L90.8484 32.4876C90.1887 32.168 89.5264 31.8518 88.8542 31.5692C88.1753 31.3125 87.5063 31.0146 86.8149 30.8067C86.4721 30.6915 86.1276 30.5832 85.7874 30.4579C85.4446 30.3436 85.0976 30.2499 84.7531 30.1451C83.3742 29.736 81.972 29.4116 80.554 29.1739C79.8461 29.063 79.1359 28.9623 78.4242 28.8761C78.0692 28.823 77.7098 28.8153 77.3527 28.7871C76.9944 28.7591 76.6384 28.7444 76.2831 28.7368C74.8554 28.6838 73.4259 28.7057 72.0004 28.8024C70.5575 28.8886 69.1217 29.0707 67.7027 29.3476C66.2588 29.6193 64.8392 30.0079 63.4577 30.5096C62.0521 31.0267 60.6948 31.6679 59.4016 32.4257C58.0948 33.2173 56.8795 34.1526 55.7784 35.2144C54.6594 36.3319 53.7165 37.6145 52.9821 39.0179C51.4989 41.8074 50.8443 44.9666 51.0962 48.1195C51.2351 49.7535 51.6756 51.3472 52.395 52.8191C53.1457 54.3415 54.226 55.6757 55.5566 56.7236L56.8824 52.6847C53.6597 52.7597 50.4581 53.2288 47.3483 54.0817C42.5967 55.3789 38.1763 57.6835 34.3842 60.8405C32.4721 62.4552 30.7808 64.3169 29.3542 66.3773C27.2223 69.5289 25.8025 73.1114 25.1948 76.8733C24.587 80.6352 24.806 84.485 25.8363 88.1531C26.5691 90.6324 27.7496 92.9556 29.3188 95.0058C30.1022 96.0584 31.0069 97.0134 32.014 97.8516C33.0086 98.688 34.0862 99.4184 35.2301 100.033C38.9411 102.024 43.1603 102.853 47.344 102.411C48.3912 102.303 49.4274 102.104 50.4408 101.817C51.4667 101.535 52.464 101.157 53.419 100.687C54.3859 100.216 55.3041 99.6514 56.1602 98.9994C57.0164 98.3374 57.8064 97.5928 58.519 96.7764L54.8999 95.6744C55.147 97.4676 55.6735 99.2097 56.46 100.838C57.2457 102.44 58.2613 103.918 59.4745 105.224C60.6549 106.501 61.9823 107.633 63.4287 108.595C64.8419 109.545 66.3402 110.36 67.904 111.03C70.9949 112.346 74.266 113.185 77.6062 113.518C78.4384 113.596 79.2726 113.656 80.11 113.671C80.5285 113.682 80.9472 113.687 81.3667 113.676C81.7908 113.677 82.1976 113.65 82.6035 113.621L85.0459 113.459C85.4546 113.443 85.8557 113.376 86.2603 113.328L87.4705 113.171C89.0919 113.003 90.6766 112.64 92.273 112.349C93.0679 112.186 93.8485 111.966 94.6367 111.777C95.4233 111.58 96.2131 111.398 96.9821 111.141L99.3025 110.426C100.074 110.181 100.825 109.879 101.587 109.608C103.118 109.084 104.589 108.405 106.079 107.778C109.028 106.446 111.882 104.909 114.618 103.177C116.01 102.348 117.307 101.369 118.636 100.44C119.291 99.9619 119.911 99.4351 120.551 98.9343L121.503 98.1738C121.815 97.915 122.111 97.632 122.415 97.3615C125.511 94.6819 128.214 91.574 130.441 88.1313L127.796 87.2715C127.783 88.4886 127.937 89.7024 128.256 90.8769C128.574 92.0331 129.063 93.1342 129.709 94.1435C130.968 96.0317 132.663 97.5869 134.648 98.6763C138.238 100.638 142.352 101.411 146.404 100.885C147.327 100.782 148.222 100.508 149.044 100.075C149.551 99.7574 149.709 99.5011 149.573 99.3341C149.286 98.976 147.92 99.0845 145.309 98.8758C141.89 98.6279 138.609 97.4241 135.835 95.4006C134.567 94.4557 133.532 93.2302 132.811 91.8186C132.481 91.1474 132.241 90.4345 132.099 89.6999C131.971 88.9494 131.925 88.1873 131.963 87.426C131.989 86.8466 131.829 86.274 131.509 85.7915C131.188 85.309 130.723 84.9416 130.181 84.743C129.639 84.5435 129.048 84.5234 128.493 84.6845C127.939 84.8456 127.45 85.1804 127.098 85.6404L126.973 85.804L125.716 87.4644C123.611 90.1056 121.255 92.5332 118.679 94.7119C116.021 96.9116 113.186 98.8833 110.202 100.608C110.171 100.593 110.142 100.579 110.107 100.565Z" fill="#434141"/>
<path d="M122.135 119.419C121.227 119.624 120.333 119.89 119.459 120.211C116.898 121.183 114.54 122.63 112.511 124.479C111.802 125.122 111.13 125.808 110.503 126.532C109.787 127.362 109.188 128.289 108.725 129.284C108.41 129.946 108.169 130.641 108.006 131.356C107.829 132.094 107.747 132.85 107.761 133.608C107.767 134 107.797 134.392 107.852 134.78C107.918 135.178 108.012 135.57 108.133 135.955C108.254 136.347 108.407 136.728 108.59 137.096C108.777 137.461 108.992 137.813 109.23 138.148C110.153 139.376 111.362 140.357 112.753 141.001C113.962 141.572 115.237 141.99 116.549 142.244C120.261 143.026 124.098 142.977 127.788 142.1C129.018 141.8 130.221 141.405 131.39 140.918C132.708 140.387 133.944 139.671 135.062 138.79C135.656 138.276 136.184 137.688 136.633 137.042C137.129 136.368 137.528 135.628 137.82 134.842L135.295 136.331C136.553 136.527 137.829 136.587 139.1 136.51C140.362 136.425 141.612 136.21 142.83 135.867C144.047 135.525 145.223 135.054 146.339 134.462C146.9 134.167 147.443 133.842 147.966 133.485L148.376 133.204C148.573 133.059 148.758 132.9 148.931 132.727C149.234 132.422 149.501 132.085 149.731 131.722C150.133 131.073 150.443 130.373 150.654 129.639C150.852 128.909 150.946 128.152 150.93 127.395C150.912 126.65 150.787 125.911 150.558 125.202C150.339 124.502 150.022 123.837 149.616 123.226C148.808 122.017 147.704 121.038 146.409 120.382C146.115 120.231 145.812 120.096 145.504 119.977C145.212 119.861 144.912 119.757 144.612 119.655C143.998 119.455 143.369 119.302 142.732 119.198C141.72 119.02 140.685 119.017 139.672 119.187C138.651 119.357 137.67 119.715 136.778 120.241C136.085 120.639 135.497 121.2 135.066 121.875C134.915 122.117 134.797 122.377 134.713 122.65C134.733 122.859 134.737 123.07 134.726 123.28C134.682 123.974 134.551 124.479 135.149 124.461C135.343 124.444 135.532 124.393 135.71 124.311C135.834 124.257 135.954 124.195 136.069 124.125C136.113 124.095 136.162 124.075 136.214 124.062L136.341 124.015C136.526 123.944 136.705 123.862 136.878 123.766C137.083 123.681 137.283 123.581 137.476 123.469C138.006 123.206 138.556 122.98 139.12 122.796C139.694 122.624 140.284 122.514 140.881 122.468C141.601 122.423 142.323 122.488 143.023 122.662C143.389 122.75 143.75 122.857 144.106 122.982C144.286 123.042 144.463 123.119 144.641 123.187C144.816 123.257 144.942 123.332 145.097 123.4C145.672 123.706 146.171 124.139 146.555 124.666C146.94 125.193 147.201 125.802 147.318 126.445C147.433 127.061 147.403 127.695 147.231 128.297C147.148 128.59 147.028 128.871 146.877 129.135C146.746 129.385 146.58 129.614 146.382 129.815C146.315 129.881 146.239 129.939 146.157 129.985C146.138 129.994 146.118 130.004 146.1 130.016L145.977 130.087L145.732 130.229C145.571 130.327 145.401 130.411 145.233 130.497C145.066 130.583 144.897 130.668 144.723 130.741C144.039 131.054 143.328 131.304 142.598 131.485C141.79 131.681 140.968 131.81 140.139 131.871C139.316 131.936 138.506 131.959 137.719 132.001C137.148 132.028 136.575 132.011 136.006 131.95L135.812 131.932C135.351 131.891 134.89 132.007 134.502 132.26C134.113 132.513 133.82 132.888 133.668 133.328L133.572 133.609C133.527 133.7 133.496 133.796 133.445 133.887C133.351 134.08 133.227 134.258 133.078 134.412C133.003 134.497 132.923 134.577 132.838 134.653C132.755 134.735 132.667 134.812 132.575 134.884C132.482 134.963 132.386 135.035 132.285 135.103C132.197 135.185 132.09 135.256 131.992 135.333C131.084 135.966 130.087 136.459 129.033 136.792C126.79 137.553 124.452 137.995 122.087 138.107C121.094 138.161 120.099 138.135 119.111 138.03C118.133 137.929 117.166 137.751 116.216 137.495C115.37 137.275 114.562 136.925 113.822 136.459C113.219 136.085 112.733 135.55 112.42 134.913C111.887 133.871 111.979 132.316 112.597 130.961C112.668 130.789 112.764 130.628 112.846 130.461C112.948 130.306 113.029 130.135 113.142 129.989C113.244 129.835 113.355 129.688 113.474 129.547C113.577 129.415 113.737 129.239 113.885 129.082C114.492 128.433 115.142 127.827 115.831 127.268C118.575 125.004 121.956 123.502 125.522 123.358C128.359 123.255 131.076 123.522 133.882 123.622C134.074 123.653 134.271 123.631 134.452 123.559C134.549 123.528 134.552 123.403 134.514 123.272C134.504 123.238 134.491 123.201 134.476 123.163L134.452 123.104L134.44 123.074L134.433 123.058L134.43 123.05L134.428 123.047L134.427 123.044V123.044L134.422 123.018C134.384 122.919 134.341 122.806 134.302 122.68C134.26 122.549 134.23 122.416 134.21 122.281C134.185 122.153 134.191 121.987 134.173 121.928C134.203 121.891 134.052 121.8 133.946 121.72L133.611 121.476C133.384 121.316 133.16 121.14 132.921 120.991C132.686 120.834 132.438 120.698 132.179 120.584C131.928 120.457 131.662 120.359 131.398 120.249C130.873 120.024 130.321 119.852 129.767 119.678C129.203 119.521 128.631 119.395 128.053 119.3C127.084 119.142 126.101 119.089 125.12 119.143C124.13 119.202 123.143 119.319 122.167 119.492L122.135 119.419Z" fill="#434141"/>
<path d="M158.676 151.415C157.094 151.335 155.51 151.498 153.977 151.899C153.187 152.099 152.423 152.357 151.638 152.588C150.499 152.903 149.422 153.412 148.454 154.093C147.883 154.503 147.381 155.002 146.967 155.571C146.488 156.235 146.169 157.002 146.037 157.811C145.904 158.645 145.977 159.498 146.25 160.296C146.495 161.01 146.869 161.674 147.353 162.253C148.193 163.239 149.25 164.016 150.44 164.521C151.1 164.809 151.791 165.019 152.499 165.148C152.843 165.216 153.186 165.263 153.528 165.302C153.907 165.347 154.288 165.365 154.669 165.358C155.043 165.349 155.42 165.321 155.763 165.282C156.075 165.245 156.386 165.202 156.697 165.153C157.319 165.056 157.939 164.923 158.561 164.775C159.845 164.486 161.09 164.037 162.266 163.442C162.575 163.288 162.877 163.117 163.169 162.931C163.318 162.836 163.466 162.745 163.61 162.638L163.828 162.481L163.936 162.403L164.074 162.288C164.827 161.676 165.379 160.848 165.658 159.916C165.812 159.372 165.854 158.801 165.779 158.239C165.704 157.677 165.514 157.138 165.223 156.653C165.007 156.263 164.656 155.967 164.237 155.823C164.066 155.77 163.886 155.748 163.708 155.757C163.537 155.772 163.369 155.813 163.21 155.878C163.012 155.971 162.834 156.103 162.687 156.265C162.54 156.429 162.427 156.619 162.354 156.826C162.218 157.119 162.141 157.434 162.123 157.756C162.136 158.026 162.163 158.295 162.207 158.561C162.223 158.715 162.208 158.871 162.162 159.019C162.116 159.165 162.039 159.302 161.936 159.418C161.91 159.447 161.876 159.471 161.849 159.501C161.833 159.517 161.817 159.533 161.8 159.547L161.715 159.61C161.604 159.696 161.488 159.777 161.367 159.852C161.122 160.01 160.865 160.15 160.599 160.269C159.457 160.758 158.226 161 156.985 160.977C156.633 160.972 156.272 160.944 155.917 160.929C155.74 160.925 155.563 160.919 155.39 160.93C155.251 160.937 155.112 160.953 154.975 160.976C154.771 161.014 154.564 161.03 154.356 161.022C154.267 161.022 154.134 161.001 154.015 160.986C153.895 160.973 153.775 160.953 153.657 160.925C153.2 160.826 152.754 160.676 152.33 160.476C151.638 160.162 151.031 159.686 150.561 159.087C150.453 158.958 150.379 158.805 150.344 158.64C150.316 158.516 150.325 158.387 150.369 158.266C150.565 157.852 150.877 157.502 151.266 157.261C152.364 156.548 153.597 156.073 154.889 155.867C155.568 155.741 156.256 155.674 156.947 155.667C157.627 155.669 158.306 155.735 158.974 155.864C159.236 155.922 159.504 155.951 159.767 155.994C159.9 156.012 160.037 156.022 160.176 156.028C160.317 156.042 160.457 156.047 160.598 156.043C160.894 156.031 161.187 156.032 161.506 156.013L162.512 155.937C162.674 155.932 162.833 155.886 162.974 155.805C163.115 155.725 163.234 155.61 163.321 155.472C163.408 155.335 163.461 155.178 163.474 155.015C163.488 154.852 163.461 154.689 163.398 154.539L163.239 154.134C163.176 154.017 163.099 153.906 163.01 153.807C162.845 153.601 162.669 153.395 162.483 153.193C162.291 153.007 162.089 152.824 161.878 152.646C161.664 152.481 161.436 152.336 161.196 152.211C160.404 151.821 159.548 151.578 158.671 151.495L158.676 151.415Z" fill="#434141"/>
<path d="M71.2077 78.719L68.8619 72.4599C67.0341 67.5827 69.8712 63.0404 74.2163 61.4091C78.6021 59.7626 83.4503 61.6979 85.3995 66.9002L81.745 68.2724C80.831 65.8337 78.9476 64.64 77.0999 64.7773C76.4299 64.8434 75.775 64.9502 75.2116 65.3008C73.1051 66.2307 71.5469 68.6238 72.4761 71.103L74.8219 77.3621L81.0349 75.0296L81.9641 77.5089L75.751 79.8414L78.7517 87.8483L88.6599 84.1285C89.1069 83.9608 89.2437 83.5843 89.0152 82.975L88.1469 80.6583L91.8018 79.2862L92.5483 81.2777C93.5691 84.0008 93.1171 86.6279 90.4781 87.6188L72.7725 94.2653L71.4016 90.6073L75.1376 89.2049L72.1369 81.1982L69.0506 82.3569L68.1214 79.8777L71.2077 78.719Z" fill="#F71D3B"/>
<path d="M102.619 65.6062L100.272 59.3471C98.4451 54.4699 101.283 49.9276 105.627 48.2963C110.013 46.6498 114.861 48.5851 116.81 53.7875L113.156 55.1596C112.242 52.7209 110.359 51.5272 108.511 51.6645C107.841 51.7306 107.186 51.8374 106.622 52.188C104.516 53.118 102.958 55.511 103.887 57.9903L106.233 64.2494L112.446 61.9168L113.375 64.396L107.162 66.7286L110.163 74.7354L120.071 71.0155C120.518 70.8478 120.654 70.4718 120.426 69.8622L119.558 67.5455L123.213 66.1734L123.959 68.1649C124.98 70.8881 124.528 73.5148 121.889 74.5058L104.183 81.1527L102.812 77.4948L106.549 76.0923L103.548 68.0854L100.462 69.2441L99.5327 66.7649L102.619 65.6062Z" fill="#F71D3B"/>
</svg>
