<svg width="58" height="99" viewBox="0 0 58 99" fill="none" xmlns="http://www.w3.org/2000/svg">
<path d="M44.8271 26.3148C49.1667 21.6924 55.2413 10.8545 44.8271 4.48184C31.8093 -3.48403 16.4255 2.12176 11.0999 10.0876C3.01275 3.3018 -14.8766 -5.72635 -21.7407 12.4477L-19.3738 18.6433C-27.9537 19.5284 -43.9892 25.252 -39.4921 41.066C-39.2949 45.7866 -34.9951 53.989 -19.3738 49.0323C-13.1606 57.8834 5.65631 69.0356 31.2183 42.8363C32.4999 46.082 36.8395 52.2187 43.9401 50.8021C52.8158 49.0323 64.3535 39.0008 44.8271 27.1994V26.3148Z" fill="white"/>
<path d="M18.4781 52.2682L16.9761 53.1134C16.473 53.3918 15.948 53.6293 15.4355 53.8908L14.6625 54.2745C14.402 54.3977 14.1345 54.505 13.871 54.6212L12.285 55.3058C11.2019 55.6965 10.1354 56.1416 9.02789 56.4584L8.20437 56.7174C7.92986 56.8057 7.65536 56.892 7.37485 56.9569L5.70232 57.3835C5.42481 57.4613 5.14281 57.5122 4.8613 57.5671L4.01529 57.7323L3.16976 57.8989C2.88826 57.9538 2.60325 57.9797 2.31974 58.0216C1.75173 58.095 1.18422 58.1803 0.615707 58.2467L-1.09433 58.3684C-1.64884 58.4143 -2.20535 58.4298 -2.76186 58.4148C-3.31287 58.4053 -3.86438 58.3684 -4.41489 58.314C-5.51791 58.1988 -6.60994 57.9982 -7.68196 57.7148C-9.93751 57.1405 -12.0511 56.1091 -13.8926 54.6841C-14.7676 53.9916 -15.5334 53.1708 -16.1646 52.2507C-16.7696 51.3531 -17.2042 50.3512 -17.4468 49.2959C-17.484 49.1507 -17.514 49.004 -17.5366 48.8563L-17.6076 48.4122L-17.6155 48.3633C-17.6646 48.0564 -17.8001 47.7695 -18.0062 47.5365C-18.2122 47.3035 -18.4803 47.1344 -18.7789 47.0485C-19.0775 46.9627 -19.3944 46.9642 -19.6923 47.0521C-19.9903 47.1404 -20.2569 47.3115 -20.4612 47.546C-21.8569 49.1487 -23.9279 50.1162 -26.1306 50.3721C-28.3655 50.6271 -30.6265 50.2349 -32.6454 49.241C-33.632 48.7575 -34.5351 48.1183 -35.3207 47.3489C-35.7084 46.9662 -36.0586 46.5476 -36.3665 46.098L-36.6133 45.7642C-36.6895 45.6495 -36.7547 45.5262 -36.8265 45.4075C-36.9622 45.1655 -37.1196 44.937 -37.2413 44.687C-37.7439 43.6831 -38.1152 42.6188 -38.346 41.5201C-38.5672 40.4019 -38.6592 39.2618 -38.6201 38.1232C-38.5328 35.8225 -37.9338 33.5707 -36.8671 31.5314C-36.3263 30.5265 -35.6835 29.5795 -34.9489 28.7058C-34.1875 27.8317 -33.347 27.0298 -32.4385 26.3103C-28.7547 23.4363 -23.968 21.9255 -19.2089 21.8003L-19.1994 21.7998C-18.8322 21.7903 -18.477 21.667 -18.1825 21.447C-17.8881 21.2275 -17.6687 20.9216 -17.5546 20.5718C-17.4404 20.2221 -17.437 19.8458 -17.5449 19.4941C-17.6527 19.1423 -17.8666 18.833 -18.1571 18.6079C-19.0815 17.8735 -19.7157 16.8341 -19.9468 15.675C-20.0817 15.0543 -20.1347 14.4187 -20.1047 13.7845C-20.0705 13.1304 -19.9626 12.4817 -19.783 11.8515C-19.4348 10.5917 -18.7816 9.43757 -17.8814 8.49154L-17.7151 8.32289L-17.5252 8.15575L-17.1477 7.81944L-16.7432 7.51259C-16.6111 7.40581 -16.4724 7.30702 -16.328 7.2177L-15.8995 6.93829C-15.7525 6.85097 -15.5994 6.77164 -15.45 6.68681C-15.1476 6.51866 -14.8361 6.36748 -14.5171 6.23376C-12.5521 5.40499 -10.3365 5.04773 -8.09347 4.97438C-6.96345 4.93996 -5.83292 4.97738 -4.7074 5.08566C-4.14489 5.10462 -3.58688 5.17547 -3.02687 5.23035L-2.19285 5.3501C-2.05334 5.36757 -1.91534 5.39301 -1.77884 5.42694C-1.63934 5.44141 -1.50083 5.46337 -1.36333 5.4928C-1.08632 5.5407 -0.810318 5.5911 -0.53981 5.65996C-0.268307 5.72582 0.00669861 5.7832 0.276703 5.85455C0.810715 6.00524 1.33673 6.18436 1.85274 6.38993C2.87376 6.77613 3.84878 7.27259 4.7618 7.87084C4.8733 7.94469 4.9918 8.01204 5.0988 8.09038L5.41631 8.33138C5.63282 8.48456 5.83982 8.64971 6.03683 8.82584L6.62033 9.35424L7.14685 9.92755C7.80036 10.7169 8.32787 11.6025 8.71138 12.5531L8.71738 12.5675C8.88438 12.9802 9.20739 13.31 9.6169 13.4836C10.0264 13.6578 10.4869 13.6618 10.8994 13.4946C11.0674 13.4257 11.2234 13.3309 11.3614 13.2132C12.36 12.357 13.377 11.5292 14.419 10.7403C15.464 9.95798 16.5265 9.20655 17.6151 8.50451C18.7071 7.81146 19.8186 7.15733 20.9571 6.57005C22.0907 5.99076 23.2557 5.47384 24.4462 5.02278C25.6272 4.58869 26.8358 4.23194 28.0633 3.95552C29.2728 3.69456 30.5018 3.5329 31.7374 3.47252C32.9674 3.42911 34.1994 3.49048 35.4194 3.65614C36.6305 3.82878 37.8225 4.11319 38.981 4.50487C39.2745 4.58869 39.547 4.72141 39.8315 4.8262L40.254 4.99235C40.3935 5.04923 40.526 5.12108 40.662 5.18445C40.932 5.31767 41.2091 5.43792 41.4731 5.58012L42.2511 6.02619C43.2626 6.63741 44.2001 7.36589 45.0421 8.19616C45.2561 8.39624 45.4336 8.62926 45.6327 8.84231L45.9241 9.16913L46.1822 9.52089C46.3457 9.7579 46.5522 9.97894 46.7002 10.2154L46.9307 10.5667L47.1422 10.9329C47.6982 11.9398 48.0942 13.0281 48.3147 14.1577C48.4912 14.7235 48.6197 15.3033 48.6982 15.8911C48.7887 16.4839 48.7987 17.0866 48.7287 17.6819C48.6307 18.8719 48.3472 20.0394 47.8882 21.1416C46.9622 23.3181 45.3066 25.0859 43.2591 25.9282C42.9441 26.0584 42.6751 26.2809 42.4891 26.5668C42.3026 26.8527 42.2071 27.1885 42.2156 27.5303C42.2246 27.8716 42.3361 28.2024 42.5361 28.4788C42.7366 28.7552 43.0161 28.9638 43.3376 29.0781L43.4331 29.1115C44.4001 29.4513 45.3296 29.8899 46.2062 30.4208C46.4212 30.561 46.6467 30.6822 46.8532 30.8349L47.4787 31.2805L48.0727 31.7655C48.2742 31.9226 48.4497 32.1092 48.6407 32.2779C50.3172 33.7513 51.6073 35.6144 52.3958 37.7041L52.6498 38.4889L52.8388 39.2898C52.8908 39.5567 52.9178 39.8236 52.9618 40.0911C53.0048 40.358 52.9958 40.6324 53.0188 40.9039C53.0478 42.0076 52.9103 43.1083 52.6088 44.1696C52.4698 44.6605 52.3053 45.143 52.1163 45.6165C52.0153 45.8381 51.9138 46.0541 51.8208 46.2692C51.7333 46.4882 51.6048 46.6763 51.5048 46.8769C51.3083 47.2821 51.0563 47.6219 50.8473 47.9746C50.7338 48.1428 50.6103 48.2969 50.4977 48.4551C50.3912 48.6113 50.2762 48.762 50.1532 48.9062C49.3847 49.8352 48.5137 50.6745 47.5567 51.4075C46.4292 52.1903 46.4332 52.5611 47.7622 52.4203C48.1672 52.3515 48.5652 52.2482 48.9527 52.113C49.1812 52.0252 49.4197 51.9124 49.6797 51.7931C49.8077 51.7303 49.9472 51.6754 50.0772 51.5961L50.4788 51.3511C51.8298 50.4969 52.9808 49.3602 53.8528 48.019C55.2318 45.9454 56.0074 43.5279 56.0914 41.0371L56.0909 40.0751C56.0659 39.7543 56.0339 39.4325 56.0029 39.1111C55.9909 38.9515 55.9684 38.7923 55.9349 38.6356L55.8479 38.1656C55.8169 38.0094 55.7924 37.8513 55.7544 37.6971L55.6299 37.2375C55.3078 36.0251 54.8208 34.862 54.1828 33.7823C53.6438 32.8557 53.0138 31.9855 52.3018 31.1847C51.9618 30.7725 51.5693 30.4133 51.1983 30.0321C51.0038 29.8525 50.8003 29.6818 50.5977 29.5102C50.3987 29.3345 50.1877 29.1749 49.9742 29.0182C48.2887 27.7424 46.3912 26.7759 44.3691 26.1631L44.5111 28.7567C46.6327 27.7453 48.3967 26.1103 49.5657 24.069C49.8527 23.5771 50.1107 23.0681 50.3377 22.5452C50.4557 22.2873 50.5527 22.0213 50.6602 21.7593C50.7518 21.4924 50.8493 21.227 50.9313 20.957C51.2583 19.8813 51.4748 18.7746 51.5778 17.6544C51.6293 17.0951 51.6378 16.5353 51.6783 15.9714C51.6983 15.4056 51.6893 14.8388 51.6523 14.2735C51.6243 13.7022 51.5373 13.1358 51.3938 12.5825C51.2618 12.0232 51.0973 11.4723 50.9018 10.9319C50.5088 9.83923 49.9732 8.8034 49.3097 7.85138C48.9887 7.37987 48.6372 6.9298 48.2577 6.50419L47.6897 5.86602C47.4887 5.66544 47.2792 5.47334 47.0742 5.27725C45.4261 3.73547 43.5046 2.51552 41.4096 1.68026C39.3515 0.849992 37.1855 0.321601 34.9764 0.11104C34.7029 0.0741172 34.4279 0.0591455 34.1524 0.0471705L33.3264 0.00525813C32.7749 -0.00821374 32.2234 0.00775207 31.6719 0.0137396C31.1213 0.0576479 30.5693 0.0771081 30.0208 0.143969L29.1983 0.252743L28.7878 0.309121L28.3848 0.385461C26.2427 0.782632 24.1482 1.40583 22.1367 2.24408C19.7226 3.26146 17.4126 4.51086 15.24 5.9748C13.1155 7.40631 11.0914 8.98202 9.18139 10.6895L11.8184 11.3471C11.6594 11.0048 11.5019 10.6665 11.3464 10.3327C11.2699 10.166 11.1819 10.0054 11.0819 9.8517L10.7964 9.38617C9.6144 7.56897 8.03736 6.04316 6.18282 4.92299L5.84932 4.71044L5.50481 4.52183L4.8153 4.14661C4.34729 3.92109 3.87778 3.69755 3.40077 3.49747C2.91926 3.31635 2.44475 3.10579 1.95424 2.9586C1.71073 2.87727 1.46623 2.80092 1.22522 2.71211C0.98172 2.63128 0.735714 2.56491 0.491207 2.49107C-0.486813 2.20167 -1.48183 1.97265 -2.48785 1.8045C-2.98986 1.72617 -3.49388 1.65482 -3.99889 1.59394C-4.25039 1.55652 -4.50539 1.55103 -4.7589 1.53107C-5.01291 1.51111 -5.26541 1.50114 -5.51791 1.49565C-6.53044 1.45822 -7.54446 1.47369 -8.55598 1.54205C-9.5795 1.60292 -10.598 1.73166 -11.605 1.92725C-12.6291 2.11935 -13.6366 2.39427 -14.6166 2.74853C-15.6137 3.11427 -16.5767 3.56732 -17.4941 4.1032C-18.4212 4.66253 -19.2833 5.32365 -20.0645 6.07409C-20.8584 6.86444 -21.5274 7.77105 -22.0483 8.76298C-23.1005 10.7349 -23.565 12.9677 -23.3863 15.1965C-23.2877 16.3511 -22.9752 17.4778 -22.4649 18.5181C-21.9323 19.5944 -21.1658 20.5374 -20.2218 21.2783L-19.2813 18.4233C-21.5676 18.4762 -23.839 18.808 -26.0451 19.4107C-29.4162 20.3278 -32.5521 21.9569 -35.2424 24.1883C-36.5989 25.3299 -37.7988 26.6457 -38.8109 28.1021C-40.3233 30.33 -41.3306 32.8622 -41.7617 35.5211C-42.1929 38.1806 -42.0376 40.9014 -41.3066 43.4945C-40.7868 45.2468 -39.9492 46.8889 -38.836 48.3384C-38.2802 49.0823 -37.6384 49.7574 -36.9239 50.3497C-36.2184 50.9409 -35.4538 51.4573 -34.6423 51.8919C-32.0096 53.299 -29.0163 53.8848 -26.0482 53.5729C-25.3053 53.4961 -24.5702 53.3559 -23.8513 53.1528C-23.1234 52.9537 -22.4159 52.6868 -21.7384 52.3545C-21.0524 52.0217 -20.401 51.622 -19.7937 51.1615C-19.1862 50.6934 -18.6258 50.167 -18.1202 49.5898L-20.6877 48.8109C-20.5125 50.0782 -20.1389 51.3102 -19.581 52.4608C-19.0236 53.5934 -18.303 54.6377 -17.4424 55.5608C-16.6049 56.4634 -15.6632 57.2637 -14.6371 57.9443C-13.6346 58.6154 -12.5716 59.1917 -11.462 59.6652C-9.2695 60.5953 -6.94895 61.1885 -4.5789 61.4235C-3.98888 61.4784 -3.39687 61.5213 -2.80286 61.5318C-2.50585 61.5393 -2.20885 61.5438 -1.91134 61.5353C-1.61034 61.5358 -1.32183 61.5169 -1.03382 61.4964L0.699215 61.3826C0.98872 61.3707 1.27372 61.3233 1.56073 61.2893L2.41925 61.1781C3.56927 61.0598 4.69379 60.8028 5.82632 60.5978C6.38983 60.4825 6.94384 60.3268 7.50285 60.1936C8.06086 60.0544 8.62138 59.9252 9.16689 59.744L10.8129 59.2381C11.3604 59.0655 11.8934 58.8514 12.434 58.6598C13.5205 58.2901 14.5635 57.8096 15.621 57.3665C17.7131 56.4255 19.7376 55.3382 21.6782 54.1138C22.6657 53.528 23.5867 52.8365 24.5292 52.1798C24.9937 51.8415 25.4337 51.4693 25.8877 51.1151L26.5627 50.5777C26.7848 50.3946 26.9943 50.1945 27.2103 50.0034C29.4068 48.1093 31.3238 45.9124 32.9044 43.479L31.0273 42.8713C31.0183 43.7315 31.1278 44.5897 31.3539 45.42C31.5794 46.2373 31.9269 47.0156 32.3849 47.7286C33.2784 49.0633 34.4804 50.1631 35.8889 50.9329C38.4355 52.3195 41.3541 52.8659 44.2286 52.4942C44.8836 52.4218 45.5186 52.2272 46.1017 51.9214C46.4617 51.6969 46.5737 51.5157 46.4772 51.398C46.2737 51.1445 45.3041 51.2213 43.4521 51.0737C41.0266 50.8985 38.699 50.0478 36.731 48.6173C35.8309 47.9497 35.0969 47.083 34.5854 46.0856C34.3509 45.6111 34.1814 45.1071 34.0804 44.5877C33.9894 44.0573 33.9569 43.5184 33.9839 42.9805C34.0019 42.5709 33.8889 42.1662 33.6619 41.825C33.4339 41.4842 33.1044 41.2242 32.7199 41.084C32.3349 40.9428 31.9154 40.9288 31.5219 41.0426C31.1293 41.1564 30.7823 41.3934 30.5318 41.7182L30.4438 41.8339L29.5518 43.0075C28.0588 44.8746 26.3872 46.5905 24.5597 48.1308C22.6742 49.6856 20.6626 51.0792 18.5456 52.2981C18.5236 52.2876 18.5031 52.2776 18.4781 52.2682Z" fill="#434141"/>
<path d="M27.0113 65.5952C26.3668 65.7404 25.7333 65.928 25.1133 66.1555C23.2962 66.8421 21.6232 67.8655 20.1842 69.1718C19.6807 69.6268 19.2041 70.1113 18.7591 70.6232C18.2511 71.21 17.8261 71.8646 17.4976 72.5687C17.2741 73.0362 17.1031 73.5277 16.9876 74.0336C16.8621 74.5545 16.8036 75.0889 16.8136 75.6248C16.8181 75.9022 16.8396 76.1786 16.8791 76.4531C16.9256 76.735 16.9921 77.0119 17.0776 77.2843C17.1641 77.5607 17.2726 77.8307 17.4021 78.0901C17.5351 78.3486 17.6871 78.5976 17.8566 78.8341C18.5106 79.7023 19.3687 80.3953 20.3552 80.8509C21.2132 81.254 22.1177 81.5499 23.0487 81.7295C25.6818 82.2819 28.4043 82.248 31.0219 81.6278C31.8944 81.4152 32.7479 81.1363 33.5774 80.792C34.5125 80.4168 35.3895 79.9103 36.1825 79.2881C36.6035 78.9244 36.9785 78.5093 37.2965 78.0522C37.6485 77.5762 37.932 77.0528 38.139 76.497L36.3475 77.5498C37.2405 77.6885 38.145 77.7309 39.0471 77.676C39.9421 77.6161 40.8291 77.4639 41.6931 77.2215C42.5561 76.98 43.3907 76.6472 44.1832 76.2285C44.5807 76.02 44.9657 75.7899 45.3367 75.538L45.6282 75.3394C45.7677 75.2371 45.8992 75.1243 46.0217 75.0021C46.2362 74.787 46.4262 74.5485 46.5897 74.2921C46.8742 73.8335 47.0942 73.3381 47.2437 72.8196C47.3847 72.3032 47.4512 71.7688 47.4397 71.2334C47.4272 70.7065 47.3387 70.1841 47.1757 69.6832C47.0202 69.1882 46.7952 68.7182 46.5077 68.2866C45.9347 67.4319 45.1512 66.7393 44.2327 66.2763C44.0237 66.1695 43.8092 66.0737 43.5902 65.9894C43.3832 65.9076 43.1706 65.8342 42.9576 65.7624C42.5221 65.6207 42.0761 65.5129 41.6236 65.4391C40.9061 65.3133 40.1716 65.3108 39.4531 65.4311C38.7286 65.5518 38.0325 65.8043 37.3995 66.1765C36.908 66.4579 36.4915 66.8541 36.1855 67.3311C36.0785 67.5022 35.9945 67.6864 35.935 67.879C35.9485 68.0271 35.9515 68.1758 35.944 68.3245C35.9125 68.8155 35.8195 69.1723 36.244 69.1593C36.382 69.1478 36.516 69.1114 36.642 69.053C36.7295 69.0146 36.815 68.9712 36.8965 68.9218C36.928 68.9008 36.963 68.8864 36.9995 68.8774L37.09 68.8444C37.221 68.794 37.348 68.7357 37.4705 68.6678C37.616 68.6074 37.758 68.5376 37.895 68.4583C38.271 68.2721 38.6611 68.1125 39.0611 67.9822C39.4681 67.8605 39.8871 67.7832 40.3106 67.7502C40.8216 67.7188 41.3341 67.7652 41.8301 67.8879C42.0901 67.9498 42.3461 68.0252 42.5986 68.114C42.7261 68.1564 42.8516 68.2108 42.9781 68.2592C43.1026 68.3086 43.1916 68.3609 43.3011 68.4093C43.7097 68.6254 44.0637 68.9318 44.3362 69.3045C44.6092 69.6767 44.7942 70.1068 44.8772 70.5614C44.9587 70.997 44.9377 71.4455 44.8157 71.8706C44.7562 72.0777 44.6717 72.2768 44.5647 72.4634C44.4717 72.6395 44.3532 72.8017 44.2132 72.9434C44.1657 72.9908 44.1122 73.0312 44.0532 73.0641C44.0397 73.0706 44.0262 73.0776 44.0132 73.0856L43.9262 73.136L43.7522 73.2363C43.6382 73.3056 43.5172 73.365 43.3977 73.4254C43.2796 73.4867 43.1601 73.5466 43.0361 73.5985C42.5511 73.8196 42.0461 73.9962 41.5286 74.1244C40.9556 74.2631 40.3726 74.3539 39.7841 74.3968C39.2001 74.4427 38.6256 74.4592 38.0675 74.4892C37.6625 74.5086 37.256 74.4961 36.852 74.4527L36.7145 74.4408C36.3875 74.4118 36.0605 74.4932 35.785 74.6718C35.509 74.8504 35.3015 75.1163 35.1935 75.4272L35.125 75.6258C35.0935 75.6902 35.071 75.758 35.035 75.8219C34.969 75.9586 34.8805 76.0843 34.775 76.1931C34.7215 76.2535 34.6645 76.3099 34.605 76.3637C34.546 76.4216 34.483 76.4755 34.418 76.5269C34.3525 76.5823 34.284 76.6337 34.2125 76.6816C34.15 76.7395 34.074 76.7903 34.0045 76.8442C33.3604 77.2918 32.6529 77.6401 31.9054 77.8761C30.3139 78.4135 28.6553 78.7263 26.9773 78.8052C26.2728 78.8431 25.5673 78.8246 24.8658 78.7508C24.1723 78.6794 23.4857 78.5532 22.8127 78.3726C22.2122 78.2169 21.6392 77.9699 21.1137 77.6401C20.6862 77.3761 20.3417 76.9979 20.1192 76.5479C19.7412 75.8109 19.8067 74.7122 20.2452 73.7537C20.2957 73.632 20.3637 73.5187 20.4217 73.4004C20.4937 73.2912 20.5517 73.1699 20.6317 73.0666C20.7037 72.9584 20.7827 72.8536 20.8672 72.7548C20.9397 72.661 21.0537 72.5362 21.1587 72.4255C21.5887 71.9669 22.0507 71.5383 22.5392 71.1431C24.4858 69.543 26.8848 68.4812 29.4144 68.3799C31.4274 68.3066 33.3544 68.4957 35.345 68.5665C35.482 68.588 35.6215 68.573 35.75 68.5216C35.8185 68.4997 35.821 68.4113 35.7935 68.319C35.7865 68.2951 35.777 68.2691 35.767 68.2417L35.75 68.1998L35.741 68.1788L35.7365 68.1674L35.734 68.1624L35.7325 68.1599L35.732 68.1579L35.7285 68.1389C35.7015 68.0696 35.6705 67.9892 35.6435 67.9004C35.614 67.8081 35.592 67.7138 35.5775 67.618C35.5605 67.5277 35.5645 67.4104 35.5515 67.369C35.573 67.3426 35.466 67.2782 35.3905 67.2213L35.153 67.0492C34.992 66.9364 34.8335 66.8122 34.6635 66.7064C34.4965 66.5956 34.321 66.4993 34.1375 66.419C33.9595 66.3287 33.77 66.2598 33.5829 66.182C33.2109 66.0233 32.8189 65.9016 32.4254 65.7783C32.0254 65.6676 31.6199 65.5783 31.2104 65.5114C30.5229 65.3996 29.8249 65.3622 29.1294 65.4001C28.4268 65.442 27.7268 65.5244 27.0338 65.6471L27.0113 65.5952Z" fill="#434141"/>
<path d="M52.9351 88.2119C51.8126 88.1555 50.689 88.2708 49.6015 88.5537C49.041 88.6954 48.499 88.8775 47.9425 89.0412C47.134 89.2637 46.3704 89.6235 45.6834 90.1045C45.2784 90.3948 44.9224 90.7471 44.6284 91.1493C44.2884 91.6193 44.0624 92.1607 43.9684 92.7335C43.8744 93.3222 43.9264 93.925 44.1199 94.4893C44.2939 94.9942 44.5589 95.4638 44.9024 95.8724C45.4979 96.57 46.2484 97.1188 47.0925 97.4756C47.561 97.6791 48.0505 97.8278 48.553 97.9186C48.7975 97.967 49.0405 98.0005 49.283 98.0279C49.552 98.0599 49.8225 98.0728 50.0925 98.0673C50.358 98.0608 50.625 98.0414 50.869 98.0139C51.0905 97.988 51.311 97.9571 51.5311 97.9231C51.9726 97.8538 52.4121 97.76 52.8536 97.6557C53.7651 97.4511 54.6476 97.1338 55.4821 96.7132C55.7016 96.6039 55.9156 96.4831 56.1226 96.3519C56.2281 96.2851 56.3337 96.2207 56.4357 96.1448L56.5902 96.0341L56.6672 95.9787L56.7647 95.8979C57.2992 95.4648 57.6907 94.88 57.8887 94.2209C57.9982 93.8362 58.0277 93.4325 57.9742 93.0353C57.9212 92.6382 57.7867 92.257 57.5797 91.9142C57.4272 91.6387 57.1777 91.4297 56.8802 91.3279C56.7592 91.2905 56.6317 91.2745 56.5052 91.281C56.3837 91.2915 56.2647 91.3204 56.1516 91.3668C56.0116 91.4322 55.8851 91.5255 55.7806 91.6403C55.6766 91.756 55.5961 91.8907 55.5446 92.0369C55.4481 92.2435 55.3931 92.4665 55.3806 92.6946C55.3896 92.8852 55.4091 93.0748 55.4401 93.2634C55.4516 93.3716 55.4411 93.4819 55.4086 93.5867C55.3756 93.6905 55.3211 93.7868 55.2481 93.8686C55.2296 93.8891 55.2056 93.9065 55.1861 93.9275C55.1751 93.9389 55.1636 93.9499 55.1516 93.9599L55.0916 94.0043C55.0121 94.0657 54.9301 94.1231 54.8446 94.1755C54.6706 94.2877 54.4886 94.386 54.2996 94.4703C53.4896 94.8161 52.6166 94.9868 51.7361 94.9708C51.4861 94.9673 51.23 94.9473 50.978 94.9374C50.8525 94.9344 50.727 94.9294 50.604 94.9379C50.5055 94.9423 50.407 94.9538 50.31 94.9703C50.165 94.9967 50.018 95.0082 49.871 95.0027C49.8075 95.0027 49.713 94.9878 49.629 94.9773C49.5435 94.9678 49.4585 94.9538 49.3745 94.9344C49.05 94.864 48.734 94.7577 48.4335 94.6165C47.9425 94.395 47.5115 94.0587 47.178 93.6351C47.1015 93.5438 47.049 93.4355 47.024 93.3192C47.0045 93.2314 47.0105 93.1396 47.042 93.0548C47.181 92.7614 47.402 92.5144 47.6785 92.3443C48.457 91.8398 49.3325 91.504 50.249 91.3588C50.7305 91.27 51.2186 91.2226 51.7086 91.2171C52.1911 91.2191 52.6726 91.2655 53.1466 91.3568C53.3321 91.3978 53.5231 91.4182 53.7091 91.4486C53.8041 91.4611 53.9011 91.4681 53.9996 91.4721C54.0991 91.4821 54.1986 91.4861 54.2986 91.4836C54.5086 91.4746 54.7171 91.4751 54.9431 91.4616L55.6566 91.4087C55.7721 91.4052 55.8846 91.3723 55.9846 91.3154C56.0846 91.258 56.1692 91.1772 56.2307 91.0799C56.2927 90.9826 56.3302 90.8714 56.3397 90.7566C56.3487 90.6413 56.3302 90.5256 56.2852 90.4203L56.1727 90.1339C56.1277 90.0506 56.0731 89.9727 56.0096 89.9029C55.8926 89.7567 55.7676 89.611 55.6366 89.4683C55.4996 89.3376 55.3566 89.2083 55.2071 89.0821C55.0546 88.9658 54.8931 88.863 54.7236 88.7742C54.1611 88.4988 53.5541 88.3272 52.9316 88.2683L52.9351 88.2119Z" fill="#434141"/>
<path d="M-9.11905 36.826L-10.7831 32.4017C-12.0796 28.9539 -10.0671 25.7436 -6.9845 24.5905C-3.87294 23.4264 -0.433371 24.7946 0.949158 28.4719L-1.64339 29.4419C-2.2919 27.718 -3.62793 26.8742 -4.93846 26.971C-5.41397 27.0179 -5.87848 27.0933 -6.27849 27.3413C-7.77252 27.9984 -8.87804 29.6899 -8.21903 31.4427L-6.555 35.8669L-2.1469 34.2179L-1.48789 35.9707L-5.89548 37.6193L-3.76694 43.279L3.26221 40.6495C3.57972 40.5312 3.67672 40.2648 3.51421 39.8342L2.8987 38.1966L5.49126 37.2271L6.02077 38.6347C6.74528 40.5597 6.42428 42.4163 4.55224 43.1168L-8.00853 47.815L-8.98105 45.2294L-6.33099 44.238L-8.45954 38.5783L-10.6491 39.3976L-11.3086 37.6447L-9.11905 36.826Z" fill="#F71D3B"/>
<path d="M13.1661 27.5572L11.5016 23.1325C10.205 19.6851 12.2181 16.4743 15.3002 15.3212C18.4117 14.1577 21.8513 15.5253 23.2338 19.2027L20.6418 20.1726C19.9933 18.4487 18.6572 17.605 17.3457 17.7023C16.8707 17.7487 16.4062 17.8245 16.0062 18.072C14.5121 18.7296 13.4066 20.4211 14.0661 22.1735L15.7297 26.5977L20.1378 24.9492L20.7968 26.7015L16.3892 28.3505L18.5182 34.0102L25.5474 31.3807C25.8644 31.262 25.9614 30.996 25.7989 30.5654L25.1829 28.9278L27.7759 27.9579L28.3054 29.3654C29.0299 31.2904 28.7089 33.147 26.8369 33.8476L14.2761 38.5463L13.3031 35.9607L15.9542 34.9692L13.8251 29.3095L11.6356 30.1283L10.9766 28.376L13.1661 27.5572Z" fill="#F71D3B"/>
</svg>
