<svg width="156" height="160" viewBox="0 0 156 160" fill="none" xmlns="http://www.w3.org/2000/svg">
<g opacity="0.5">
<path d="M36.7988 54.609C31.7071 49.1597 24.5787 36.383 36.7988 28.8699C52.0739 19.4786 70.126 26.0873 76.3749 35.4786C85.8642 27.4785 106.856 16.8348 114.91 38.2609L112.132 45.5652C122.2 46.6087 141.016 53.3565 135.739 72C135.508 77.5652 130.463 87.2348 112.132 81.3913C104.842 91.8261 82.7626 104.974 52.7681 74.087C51.2638 77.913 46.1721 85.1478 37.8402 83.4783C27.4254 81.3913 13.8862 69.5652 36.7988 55.6522V54.609Z" fill="white"/>
<path d="M67.3402 83.8045L69.1033 84.8007C69.6934 85.129 70.3092 85.4094 70.9105 85.7176L71.818 86.1697C72.1235 86.3151 72.4373 86.4417 72.7463 86.5788L74.6078 87.3857C75.8784 87.8463 77.1296 88.3708 78.4293 88.7443L79.3958 89.0497C79.718 89.1541 80.0402 89.2556 80.3693 89.3322L82.3314 89.8351C82.6571 89.927 82.9883 89.9868 83.3188 90.0515L84.311 90.2463L85.3031 90.4424C85.6336 90.5071 85.9683 90.5377 86.3009 90.5871C86.9674 90.6741 87.6333 90.7743 88.3005 90.8529L90.3071 90.9962C90.9577 91.0504 91.6111 91.0685 92.2637 91.0511C92.9101 91.04 93.5573 90.9962 94.2037 90.9322C95.4972 90.7965 96.7789 90.56 98.037 90.2254C100.683 89.5485 103.164 88.3325 105.325 86.6525C106.351 85.8365 107.25 84.8689 107.991 83.7837C108.7 82.7256 109.21 81.5443 109.495 80.3005C109.538 80.1294 109.574 79.9562 109.6 79.7823L109.684 79.2584L109.693 79.2007C109.751 78.839 109.91 78.5009 110.152 78.2261C110.393 77.9513 110.708 77.7523 111.058 77.6508C111.408 77.5499 111.78 77.5513 112.13 77.655C112.48 77.7593 112.793 77.961 113.032 78.2372C114.67 80.1266 117.1 81.2675 119.685 81.5694C122.307 81.8699 124.96 81.4073 127.329 80.2358C128.487 79.6654 129.547 78.912 130.468 78.0049C130.924 77.5541 131.334 77.0602 131.696 76.5301L131.985 76.137C132.075 76.0014 132.151 75.856 132.235 75.7162C132.395 75.431 132.58 75.1617 132.722 74.8668C133.312 73.6835 133.747 72.4285 134.018 71.1332C134.278 69.815 134.386 68.4712 134.34 67.1283C134.238 64.4163 133.535 61.7616 132.283 59.3577C131.649 58.1725 130.894 57.0561 130.032 56.0265C129.139 54.9959 128.153 54.0504 127.086 53.2022C122.764 49.8141 117.147 48.0326 111.562 47.8849L111.551 47.8846C111.121 47.8732 110.704 47.7279 110.358 47.4687C110.013 47.2095 109.756 46.8491 109.622 46.4369C109.488 46.0247 109.484 45.5809 109.61 45.1663C109.737 44.7518 109.988 44.3868 110.329 44.1214C111.413 43.2554 112.157 42.0301 112.428 40.6638C112.587 39.9322 112.649 39.183 112.614 38.4351C112.574 37.6637 112.447 36.8991 112.237 36.1562C111.828 34.6711 111.061 33.3104 110.005 32.1948L109.81 31.996L109.587 31.7992L109.144 31.4028L108.669 31.0407C108.514 30.9148 108.352 30.7988 108.182 30.6934L107.68 30.3641C107.507 30.2609 107.327 30.1672 107.152 30.0673C106.797 29.869 106.432 29.6908 106.057 29.5332C103.752 28.5564 101.152 28.1348 98.5196 28.0484C97.1941 28.0079 95.8673 28.0518 94.5467 28.1799C93.8864 28.2019 93.2316 28.2855 92.5748 28.3505L91.5958 28.4913C91.4319 28.5119 91.2702 28.5422 91.1105 28.5822C90.9466 28.5992 90.7834 28.625 90.6224 28.6595C90.2981 28.7163 89.9739 28.7755 89.6566 28.8571C89.3379 28.9343 89.015 29.0022 88.6984 29.0861C88.0714 29.2641 87.4542 29.4748 86.8487 29.7175C85.651 30.1725 84.5068 30.758 83.4354 31.4635C83.3042 31.5503 83.1653 31.6296 83.0396 31.7221L82.6675 32.0065C82.4134 32.1866 82.1704 32.3813 81.9391 32.5893L81.2545 33.2124L80.6366 33.8882C79.8701 34.8188 79.2507 35.8626 78.8008 36.983L78.7939 37.0003C78.5981 37.4869 78.219 37.8755 77.7385 38.0804C77.258 38.2854 76.7171 38.2901 76.2332 38.0934C76.036 38.0123 75.8534 37.9004 75.6909 37.7617C74.5196 36.7523 73.3261 35.7761 72.1034 34.846C70.8772 33.924 69.6302 33.0382 68.3536 32.2101C67.0717 31.3934 65.7677 30.6222 64.4318 29.9297C63.1013 29.2465 61.7343 28.6376 60.3373 28.1057C58.9514 27.5936 57.5337 27.1733 56.0933 26.8473C54.6739 26.5398 53.2319 26.3494 51.7817 26.2782C50.3381 26.2268 48.8928 26.2991 47.4614 26.4944C46.0407 26.6982 44.6418 27.0331 43.2822 27.4951C42.938 27.5937 42.6181 27.7506 42.2845 27.8739L41.7889 28.0696C41.6247 28.1371 41.4693 28.2216 41.3091 28.2963C40.9929 28.4536 40.6675 28.5951 40.358 28.7624L39.4452 29.2888C38.2576 30.0093 37.1584 30.8678 36.1701 31.8466C35.9188 32.0829 35.7106 32.3571 35.4768 32.6086L35.135 32.9936L34.8324 33.4087C34.6407 33.6881 34.398 33.9487 34.2244 34.2276L33.9536 34.6416L33.7058 35.0732C33.0531 36.2605 32.5889 37.5432 32.3301 38.8748C32.1231 39.542 31.9725 40.2257 31.8799 40.9184C31.7737 41.6175 31.7617 42.3277 31.8441 43.03C31.959 44.433 32.2918 45.8092 32.8305 47.1083C33.9173 49.6744 35.8596 51.7587 38.2621 52.7518C38.6322 52.9048 38.9474 53.1672 39.1661 53.5043C39.3847 53.8415 39.4964 54.2376 39.4865 54.6401C39.4766 55.0426 39.3454 55.4326 39.1104 55.7584C38.8755 56.0842 38.5477 56.3306 38.1705 56.4649L38.0579 56.5045C36.9234 56.9048 35.833 57.4222 34.8041 58.0482C34.5519 58.2131 34.2867 58.3564 34.0446 58.5361L33.311 59.0617L32.6135 59.633C32.3775 59.8188 32.1711 60.0385 31.9475 60.2376C29.9801 61.9744 28.4669 64.1711 27.5409 66.6344L27.2434 67.5595L27.0216 68.5038C26.9606 68.8187 26.9288 69.133 26.8772 69.4486C26.8263 69.7635 26.8366 70.087 26.81 70.407C26.7756 71.7078 26.9379 73.0059 27.2913 74.2567C27.4544 74.8355 27.6472 75.4045 27.8692 75.9624C27.9874 76.224 28.1067 76.4786 28.2162 76.7318C28.3187 76.9906 28.4693 77.2118 28.5866 77.4483C28.8175 77.9263 29.1132 78.327 29.3581 78.743C29.4916 78.9412 29.6365 79.1228 29.7685 79.3092C29.8934 79.4936 30.0282 79.671 30.1724 79.8407C31.0744 80.9363 32.0965 81.9256 33.2195 82.7896C34.5428 83.7127 34.5377 84.1496 32.9783 83.984C32.5034 83.9026 32.0361 83.7809 31.5811 83.6216C31.3136 83.5179 31.0332 83.385 30.728 83.2445C30.5783 83.1701 30.4139 83.1054 30.2619 83.0122L29.7903 82.7235C28.2053 81.7162 26.855 80.3763 25.8318 78.7951C24.2131 76.3506 23.3034 73.5005 23.2049 70.5642L23.2059 69.43C23.2348 69.0515 23.2725 68.6723 23.3086 68.2934C23.323 68.1049 23.3496 67.9175 23.3883 67.7325L23.4905 67.1784C23.527 66.9943 23.5557 66.8081 23.5997 66.6262L23.7463 66.0844C24.1243 64.6548 24.6957 63.2841 25.4444 62.0109C26.0765 60.9185 26.816 59.8927 27.6516 58.9487C28.0503 58.4626 28.5113 58.039 28.9463 57.59C29.175 57.3778 29.4137 57.1766 29.6512 56.9746C29.8842 56.7672 30.1322 56.5789 30.3826 56.3946C32.3602 54.8906 34.5869 53.7511 36.9594 53.0287L36.7931 56.0864C34.3034 54.8941 32.2343 52.9661 30.8617 50.5598C30.5249 49.9795 30.2225 49.3795 29.956 48.7633C29.8176 48.4591 29.7037 48.1457 29.5776 47.8369C29.4707 47.5219 29.3557 47.2091 29.2597 46.8911C28.8761 45.6225 28.6219 44.3178 28.5011 42.9972C28.4406 42.338 28.4308 41.6779 28.3834 41.0136C28.3596 40.3461 28.3698 39.6778 28.414 39.0114C28.4466 38.3382 28.5483 37.6702 28.7174 37.018C28.8723 36.3587 29.0649 35.7091 29.2942 35.0721C29.7552 33.7841 30.3833 32.5629 31.1623 31.4406C31.5388 30.8845 31.9513 30.3539 32.397 29.8523L33.0637 29.0998C33.2994 28.8633 33.5448 28.637 33.7858 28.4058C35.7197 26.588 37.9739 25.1498 40.4326 24.1651C42.8472 23.1864 45.3895 22.5631 47.9809 22.3148C48.302 22.2717 48.6252 22.2538 48.9485 22.2397L49.9179 22.1904C50.5645 22.1744 51.2122 22.1931 51.8591 22.2002C52.5046 22.2518 53.1528 22.2751 53.7964 22.3538L54.7613 22.4821L55.2431 22.5485L55.7158 22.6387C58.2297 23.1069 60.6873 23.8414 63.0477 24.83C65.8802 26.0292 68.5904 27.5022 71.1403 29.2281C73.633 30.9159 76.0082 32.773 78.2495 34.7865L75.1549 35.5615C75.3417 35.1579 75.5264 34.7594 75.709 34.3658C75.7986 34.1692 75.902 33.9795 76.0193 33.7984L76.354 33.2498C77.7413 31.1075 79.5916 29.3088 81.7676 27.988L82.1592 27.7372L82.5633 27.5151L83.3722 27.073C83.9214 26.8067 84.4727 26.5432 85.0324 26.3077C85.5975 26.0938 86.1544 25.8455 86.73 25.6723C87.0153 25.5763 87.3021 25.486 87.5854 25.3816C87.8708 25.2863 88.1596 25.2082 88.4463 25.1209C89.5941 24.78 90.7619 24.5096 91.9423 24.3116C92.531 24.2191 93.1226 24.1352 93.7149 24.0634C94.0107 24.0191 94.3099 24.0127 94.6071 23.9892C94.9056 23.9659 95.2014 23.9537 95.4972 23.9473C96.6859 23.9032 97.8759 23.9214 99.0625 24.0019C100.264 24.0738 101.459 24.2256 102.64 24.4563C103.842 24.6827 105.024 25.0065 106.174 25.4246C107.344 25.8556 108.474 26.3899 109.55 27.0214C110.638 27.6811 111.65 28.4605 112.566 29.3453C113.498 30.2766 114.284 31.3454 114.895 32.5149C116.129 34.8395 116.674 37.4721 116.464 40.0995C116.349 41.4612 115.982 42.7894 115.383 44.0159C114.758 45.2846 113.859 46.3964 112.751 47.2696L111.648 43.9039C114.331 43.9664 116.996 44.3573 119.585 45.068C123.54 46.1491 127.22 48.0696 130.377 50.7004C131.969 52.046 133.376 53.5974 134.564 55.3144C136.339 57.9407 137.52 60.9261 138.027 64.0611C138.532 67.196 138.35 70.4042 137.493 73.4609C136.882 75.527 135.9 77.463 134.593 79.1715C133.941 80.0487 133.188 80.8445 132.35 81.543C131.521 82.24 130.624 82.8487 129.672 83.3607C126.583 85.0198 123.071 85.7106 119.588 85.3426C118.716 85.2522 117.854 85.0866 117.01 84.8473C116.156 84.6129 115.326 84.2977 114.531 83.9061C113.726 83.5137 112.962 83.0428 112.249 82.4995C111.536 81.9478 110.879 81.3273 110.286 80.647L113.298 79.7287C113.092 81.223 112.654 82.6748 111.999 84.0313C111.345 85.367 110.499 86.5983 109.49 87.6863C108.507 88.7506 107.402 89.6939 106.198 90.496C105.022 91.2877 103.774 91.9666 102.472 92.5252C99.8992 93.6216 97.1768 94.3207 94.396 94.5983C93.7031 94.663 93.0087 94.713 92.3116 94.7256C91.9631 94.7346 91.6145 94.7395 91.2653 94.7297C90.9126 94.7304 90.5738 94.7082 90.2356 94.6838L88.2026 94.5496C87.8624 94.5356 87.5285 94.48 87.1917 94.4397L86.1842 94.3089C84.8345 94.169 83.5153 93.8664 82.1863 93.6244C81.5246 93.4887 80.8748 93.305 80.2186 93.1478C79.5639 92.9836 78.9063 92.8313 78.2662 92.6177L76.3346 92.0216C75.6923 91.8177 75.0667 91.5659 74.4328 91.3398C73.158 90.9036 71.934 90.3374 70.6932 89.8149C68.2379 88.7054 65.8629 87.424 63.5852 85.9805C62.4267 85.2897 61.3459 84.4744 60.2404 83.7002C59.6953 83.3016 59.1783 82.8626 58.6461 82.4452L57.8538 81.8115C57.5931 81.5958 57.3479 81.36 57.0943 81.1346C54.5171 78.9016 52.2674 76.3116 50.4125 73.4428L52.6148 72.7263C52.6257 73.7405 52.4969 74.752 52.2321 75.7308C51.9675 76.6943 51.5597 77.6118 51.0224 78.4529C49.9738 80.0264 48.5632 81.3224 46.9106 82.2303C43.9224 83.865 40.4978 84.5092 37.1245 84.071C36.3564 83.9854 35.611 83.7565 34.9265 83.3955C34.5046 83.1311 34.3732 82.9176 34.4863 82.7784C34.7248 82.48 35.8623 82.5704 38.036 82.3965C40.8817 82.1899 43.6134 81.1868 45.9228 79.5005C46.9785 78.713 47.8398 77.6918 48.4399 76.5155C48.7147 75.9562 48.9141 75.3621 49.0326 74.7499C49.1394 74.1245 49.1773 73.4894 49.1458 72.8549C49.125 72.3722 49.2575 71.895 49.5243 71.4929C49.7911 71.0908 50.1782 70.7847 50.6295 70.6191C51.0808 70.4529 51.5729 70.4362 52.0344 70.5704C52.4959 70.7047 52.9029 70.9836 53.1963 71.367L53.2995 71.5033L54.3467 72.887C56.0984 75.088 58.0603 77.111 60.2043 78.9266C62.4165 80.7597 64.7771 82.4028 67.2614 83.84C67.2868 83.8275 67.3108 83.8157 67.3402 83.8045Z" fill="#434141"/>
<path d="M57.3278 99.5158C58.0835 99.687 58.8274 99.9082 59.5547 100.176C61.6875 100.986 63.6496 102.192 65.3385 103.732C65.9297 104.269 66.4882 104.84 67.0109 105.443C67.6072 106.135 68.1052 106.907 68.4905 107.737C68.7535 108.288 68.9543 108.867 69.0892 109.464C69.2364 110.078 69.3049 110.708 69.2933 111.34C69.2885 111.667 69.263 111.993 69.2169 112.317C69.1624 112.648 69.0845 112.975 68.9839 113.296C68.8825 113.622 68.7552 113.94 68.6035 114.246C68.4469 114.551 68.2686 114.845 68.07 115.123C67.3025 116.147 66.2952 116.964 65.1381 117.501C64.1309 117.976 63.0693 118.325 61.9771 118.537C58.8875 119.188 55.6933 119.148 52.6211 118.417C51.5981 118.166 50.5957 117.837 49.6227 117.432C48.5256 116.989 47.4965 116.392 46.5661 115.658C46.0718 115.23 45.6326 114.74 45.2586 114.202C44.8455 113.64 44.5128 113.023 44.2704 112.368L46.3723 113.609C45.3249 113.773 44.2631 113.823 43.2051 113.758C42.1544 113.688 41.1137 113.508 40.0997 113.222C39.0872 112.938 38.1078 112.545 37.1782 112.051C36.7118 111.806 36.2598 111.535 35.8243 111.238L35.4826 111.003C35.319 110.883 35.1648 110.75 35.021 110.606C34.7691 110.352 34.5457 110.071 34.3548 109.768C34.0206 109.228 33.7621 108.644 33.5866 108.033C33.4209 107.424 33.3435 106.794 33.3567 106.163C33.371 105.542 33.4752 104.926 33.6661 104.335C33.8489 103.752 34.113 103.197 34.4505 102.689C35.123 101.681 36.0425 100.865 37.12 100.319C37.3653 100.193 37.617 100.08 37.874 99.9805C38.1167 99.8838 38.3662 99.7976 38.6162 99.7127C39.1275 99.5458 39.6507 99.4184 40.1812 99.3315C41.0237 99.1833 41.885 99.1805 42.7284 99.3224C43.5783 99.4644 44.395 99.7621 45.1379 100.201C45.715 100.533 46.2038 101 46.5628 101.562C46.6881 101.764 46.7867 101.981 46.8561 102.208C46.8402 102.383 46.8367 102.558 46.8457 102.733C46.8828 103.312 46.9918 103.733 46.4941 103.718C46.3323 103.704 46.1742 103.661 46.027 103.592C45.9241 103.547 45.8243 103.496 45.7281 103.437C45.6912 103.413 45.6504 103.395 45.6076 103.385L45.5007 103.346C45.3476 103.287 45.1986 103.218 45.0548 103.138C44.8838 103.067 44.7175 102.984 44.557 102.891C44.1149 102.671 43.6575 102.483 43.1885 102.33C42.7107 102.186 42.2192 102.095 41.7221 102.056C41.1229 102.019 40.5216 102.074 39.9386 102.218C39.634 102.291 39.3334 102.381 39.0379 102.485C38.888 102.535 38.7407 102.599 38.5916 102.656C38.4461 102.714 38.3414 102.776 38.2126 102.833C37.7338 103.088 37.3188 103.449 36.9985 103.889C36.6782 104.328 36.4612 104.835 36.3637 105.37C36.268 105.884 36.2927 106.413 36.4357 106.914C36.5055 107.158 36.6044 107.393 36.7303 107.613C36.8395 107.821 36.9785 108.012 37.1428 108.179C37.1986 108.234 37.2616 108.282 37.3301 108.321C37.3465 108.328 37.3624 108.337 37.3776 108.346L37.4798 108.406L37.684 108.524C37.8178 108.606 37.9593 108.675 38.0992 108.747C38.2384 108.819 38.3784 108.89 38.5235 108.951C39.0931 109.212 39.6854 109.42 40.2928 109.571C40.9653 109.734 41.6498 109.841 42.3397 109.892C43.0253 109.946 43.699 109.966 44.3543 110.001C44.8299 110.024 45.3065 110.009 45.7799 109.958L45.9418 109.944C46.3254 109.91 46.7095 110.006 47.0328 110.216C47.356 110.427 47.6001 110.74 47.7261 111.107L47.8066 111.341C47.844 111.417 47.8699 111.497 47.9124 111.572C47.9904 111.734 48.0936 111.882 48.2182 112.01C48.2806 112.081 48.3469 112.147 48.417 112.211C48.4867 112.279 48.5601 112.343 48.6368 112.403C48.7134 112.469 48.7938 112.529 48.8775 112.586C48.9512 112.654 49.04 112.714 49.1222 112.778C49.8776 113.305 50.7079 113.715 51.585 113.994C53.4527 114.627 55.3989 114.996 57.3677 115.089C58.1939 115.134 59.0223 115.112 59.8451 115.025C60.6587 114.941 61.4645 114.792 62.2545 114.579C62.959 114.396 63.6314 114.104 64.2481 113.715C64.7495 113.405 65.154 112.959 65.4152 112.428C65.8583 111.559 65.7812 110.264 65.2674 109.134C65.2083 108.991 65.1282 108.857 65.0603 108.717C64.9755 108.589 64.9072 108.446 64.8135 108.324C64.7287 108.196 64.6364 108.073 64.5371 107.956C64.4518 107.846 64.3189 107.699 64.1951 107.568C63.6901 107.027 63.1489 106.522 62.5755 106.056C60.291 104.17 57.4759 102.918 54.5078 102.799C52.1457 102.712 49.8841 102.935 47.5484 103.018C47.3885 103.044 47.2245 103.026 47.074 102.966C46.9929 102.94 46.9902 102.835 47.0226 102.727C47.0309 102.698 47.0414 102.668 47.0537 102.636L47.0734 102.586L47.0841 102.561L47.0896 102.548L47.0924 102.542L47.0938 102.539L47.0946 102.537L47.0949 102.536L47.0986 102.515C47.1304 102.433 47.1666 102.338 47.1989 102.233C47.2332 102.125 47.259 102.013 47.276 101.901C47.2959 101.794 47.2908 101.656 47.3067 101.607C47.2816 101.576 47.4069 101.5 47.4952 101.433L47.7744 101.23C47.9634 101.097 48.1492 100.95 48.3487 100.826C48.544 100.695 48.7504 100.582 48.9656 100.487C49.175 100.381 49.3969 100.299 49.6161 100.207C50.0532 100.02 50.5125 99.8769 50.9744 99.7315C51.4438 99.6007 51.9199 99.4957 52.4005 99.4171C53.2074 99.2849 54.0262 99.2411 54.8425 99.2856C55.6669 99.335 56.4878 99.4324 57.301 99.5771L57.3278 99.5158Z" fill="#434141"/>
<path d="M26.9086 126.179C28.2252 126.113 29.5443 126.248 30.8202 126.582C31.4779 126.749 32.114 126.964 32.7672 127.157C33.7154 127.419 34.612 127.843 35.4181 128.41C35.8933 128.753 36.3112 129.168 36.6561 129.642C37.0549 130.196 37.32 130.835 37.4305 131.51C37.5404 132.204 37.4793 132.915 37.2524 133.58C37.0485 134.175 36.7374 134.728 36.3347 135.21C35.6354 136.033 34.7551 136.68 33.7639 137.101C33.2149 137.341 32.64 137.516 32.0506 137.623C31.7639 137.68 31.4782 137.719 31.1938 137.752C30.8787 137.789 30.5614 137.805 30.2441 137.798C29.9329 137.791 29.6189 137.768 29.3328 137.735C29.0736 137.704 28.8147 137.668 28.5559 137.628C28.0379 137.546 27.5221 137.436 27.0046 137.313C25.9351 137.071 24.8992 136.698 23.92 136.202C23.6624 136.073 23.4114 135.93 23.168 135.776C23.0447 135.697 22.9206 135.621 22.8005 135.532L22.6196 135.401L22.5293 135.336L22.4145 135.24C21.7877 134.73 21.3285 134.04 21.0966 133.263C20.9676 132.81 20.9331 132.334 20.9955 131.866C21.0578 131.398 21.2155 130.948 21.4587 130.544C21.6375 130.219 21.9299 129.973 22.2791 129.853C22.4217 129.809 22.5709 129.79 22.7198 129.798C22.8621 129.81 23.0017 129.844 23.1339 129.898C23.299 129.976 23.4469 130.086 23.5693 130.221C23.6917 130.358 23.786 130.516 23.8467 130.689C23.9593 130.932 24.0245 131.195 24.0385 131.464C24.0286 131.688 24.0056 131.912 23.9697 132.134C23.9552 132.262 23.9678 132.392 24.0065 132.515C24.0452 132.638 24.1092 132.751 24.1944 132.848C24.2166 132.872 24.2442 132.893 24.2675 132.918C24.2802 132.931 24.2935 132.944 24.3075 132.956L24.3781 133.008C24.4713 133.08 24.5682 133.148 24.6682 133.21C24.8721 133.342 25.0857 133.458 25.3071 133.558C26.2575 133.965 27.2829 134.166 28.3159 134.147C28.6091 134.143 28.9094 134.12 29.2051 134.108C29.3523 134.104 29.4999 134.099 29.6439 134.109C29.7597 134.114 29.875 134.127 29.9892 134.147C30.159 134.178 30.3315 134.191 30.504 134.185C30.5787 134.185 30.6897 134.168 30.7881 134.155C30.8885 134.144 30.9882 134.127 31.0866 134.104C31.4675 134.022 31.838 133.896 32.191 133.73C32.7672 133.469 33.2724 133.072 33.6642 132.573C33.7538 132.465 33.8157 132.337 33.8447 132.2C33.8678 132.097 33.8605 131.989 33.8239 131.889C33.6608 131.543 33.4013 131.251 33.0769 131.051C32.1632 130.456 31.1358 130.061 30.061 129.889C29.4958 129.784 28.9228 129.729 28.3481 129.722C27.7818 129.725 27.2169 129.779 26.6607 129.887C26.4426 129.935 26.2187 129.959 26 129.995C25.8891 130.01 25.7753 130.018 25.6594 130.023C25.5429 130.035 25.4257 130.039 25.3087 130.036C25.0625 130.026 24.8176 130.026 24.5526 130.01L23.715 129.948C23.5799 129.944 23.448 129.905 23.3306 129.838C23.2133 129.77 23.114 129.675 23.0415 129.56C22.9689 129.446 22.9253 129.315 22.9142 129.179C22.9032 129.043 22.9252 128.907 22.9782 128.783L23.1095 128.445C23.1624 128.347 23.2265 128.255 23.3006 128.173C23.4382 128.001 23.5845 127.829 23.7388 127.661C23.8995 127.506 24.0676 127.354 24.2428 127.205C24.4212 127.068 24.611 126.947 24.8101 126.842C25.4696 126.518 26.182 126.315 26.9129 126.246L26.9086 126.179Z" fill="#434141"/>
<path d="M61.1655 51.5724L62.9925 46.311C64.4162 42.2112 68.6478 40.8137 72.2964 42.0856C75.9791 43.3693 78.053 47.1946 76.5345 51.5677L73.4656 50.4979C74.1773 48.448 73.6066 46.6787 72.3512 45.7814C71.8867 45.4665 71.4111 45.1857 70.864 45.1098C69.0211 44.5824 66.7511 45.2848 66.0274 47.3689L64.2004 52.6303L69.4176 54.449L68.6939 56.5331L63.4767 54.7144L61.1395 61.445L69.4601 64.3453C69.835 64.476 70.1224 64.3082 70.3009 63.7958L70.9765 61.8483L74.0461 62.9181L73.4642 64.5922C72.6699 66.8813 70.9834 68.3235 68.7672 67.551L53.8997 62.3683L54.9674 59.2935L58.1046 60.3871L60.4418 53.6566L57.8502 52.7531L58.5738 50.6691L61.1655 51.5724Z" fill="#F71D3B"/>
<path d="M88.2443 59.9203L90.0711 54.6589C91.4951 50.559 95.7263 49.1615 99.375 50.4334C103.058 51.7172 105.132 55.5424 103.613 59.9156L100.544 58.8458C101.256 56.7958 100.685 55.0266 99.4298 54.1293C98.9653 53.8143 98.4897 53.5335 97.9426 53.4577C96.0999 52.9302 93.8294 53.6326 93.106 55.7167L91.2792 60.9782L96.4963 62.7968L95.7728 64.8809L90.555 63.0623L88.2179 69.7927L96.5387 72.6929C96.9136 72.8237 97.2011 72.656 97.3795 72.1433L98.0551 70.1962L101.125 71.2661L100.543 72.9398C99.7486 75.2292 98.062 76.6713 95.8458 75.8984L80.9782 70.7165L82.0461 67.6413L85.183 68.7349L87.5201 62.0044L84.9289 61.1009L85.6524 59.0169L88.2443 59.9203Z" fill="#F71D3B"/>
</g>
</svg>
