<svg width="213" height="52" viewBox="0 0 213 52" fill="none" xmlns="http://www.w3.org/2000/svg">
<g clip-path="url(#clip0_5338_18018)">
<g filter="url(#filter0_d_5338_18018)">
<path d="M183.179 -3.20793L37.0407 -28.1831C26.8457 -29.9255 17.1623 -23.0364 15.4122 -12.7959C13.6621 -2.55546 20.508 7.15851 30.703 8.90083L176.842 33.876C187.037 35.6184 196.72 28.7293 198.47 18.4888C200.22 8.24836 193.374 -1.4656 183.179 -3.20793Z" fill="#1B1B1B"/>
<path d="M50.9756 -8.07918C50.8967 -7.61771 50.712 -7.204 50.4215 -6.83803C50.1392 -6.47065 49.7431 -6.20335 49.2332 -6.03604C48.7315 -5.86733 48.1278 -5.84328 47.4223 -5.96385L45.9824 -6.20992L45.4163 -2.89709L43.6934 -3.19154L45.1679 -11.8197L48.3307 -11.2792C48.9952 -11.1657 49.5416 -10.9536 49.9698 -10.6429C50.398 -10.3322 50.6925 -9.95537 50.8532 -9.51228C51.0221 -9.06779 51.0629 -8.59009 50.9756 -8.07918ZM47.5872 -7.3733C48.063 -7.29198 48.4341 -7.33885 48.7004 -7.51383C48.9682 -7.69707 49.1359 -7.98647 49.2035 -8.38203C49.3471 -9.2226 48.9513 -9.72281 48.016 -9.88265L46.65 -10.1161L46.2211 -7.60676L47.5872 -7.3733ZM51.327 -5.43649C51.4453 -6.12872 51.6856 -6.71956 52.0478 -7.20892C52.4184 -7.69687 52.8621 -8.04518 53.379 -8.25366C53.9042 -8.46074 54.458 -8.51455 55.0405 -8.415C55.5491 -8.32807 55.9745 -8.14937 56.3167 -7.87882C56.6671 -7.60688 56.9304 -7.29471 57.1066 -6.94232L57.2735 -7.91887L59.0087 -7.62232L57.8384 -0.774148L56.1032 -1.0707L56.2743 -2.07196C55.9978 -1.78843 55.6444 -1.57315 55.214 -1.42621C54.7932 -1.28606 54.3284 -1.2595 53.8198 -1.34643C53.2454 -1.44458 52.7458 -1.68264 52.3206 -2.06064C51.9037 -2.43723 51.6015 -2.91722 51.4141 -3.50052C51.2363 -4.09069 51.2072 -4.73599 51.327 -5.43649ZM56.6883 -4.49478C56.7602 -4.91507 56.7394 -5.28757 56.626 -5.61228C56.5141 -5.94526 56.332 -6.21381 56.0798 -6.41809C55.829 -6.63055 55.5436 -6.76416 55.2236 -6.81884C54.9037 -6.87353 54.5949 -6.84574 54.2974 -6.73541C53.9999 -6.62507 53.739 -6.43224 53.5146 -6.15674C53.2998 -5.88811 53.1572 -5.54775 53.0868 -5.13573C53.0164 -4.72372 53.0365 -4.34704 53.147 -4.00587C53.2672 -3.67149 53.4486 -3.39877 53.6911 -3.18771C53.9419 -2.97524 54.2232 -2.84233 54.535 -2.78905C54.8549 -2.73437 55.1677 -2.76146 55.4735 -2.87038C55.7806 -2.9875 56.0415 -3.18041 56.2563 -3.44905C56.4725 -3.72595 56.6165 -4.0745 56.6883 -4.49478ZM67.2138 -6.22007L61.2689 3.14538L59.4352 2.83201L61.495 -0.327333L59.9038 -7.46935L61.8359 -7.13915L62.7782 -2.05457L65.3801 -6.53344L67.2138 -6.22007ZM77.5112 -4.46024L76.3408 2.38794L74.6056 2.09139L74.7535 1.2261C74.4813 1.48491 74.15 1.67001 73.7594 1.78137C73.3785 1.88588 72.9787 1.9024 72.5603 1.83089C72.027 1.73976 71.5743 1.54789 71.2021 1.25527C70.8313 0.954402 70.5643 0.565265 70.401 0.0878549C70.2474 -0.396403 70.2226 -0.943484 70.3268 -1.55328L71.0134 -5.57071L72.7363 -5.27627L72.092 -1.50607C71.999 -0.962167 72.0626 -0.518747 72.2826 -0.175806C72.5041 0.158869 72.8486 0.366207 73.3163 0.446128C73.7921 0.527455 74.19 0.447004 74.5101 0.204869C74.8315 -0.0455326 75.0387 -0.442683 75.1317 -0.986581L75.776 -4.75678L77.5112 -4.46024ZM80.6308 3.23559C80.0728 3.14024 79.5893 2.95582 79.1801 2.68233C78.7723 2.40057 78.4666 2.06423 78.2633 1.67325C78.0681 1.28366 77.9941 0.87663 78.0413 0.452138L79.7765 0.748685C79.7642 1.01797 79.8541 1.25812 80.0461 1.46903C80.2462 1.68134 80.5144 1.81624 80.8508 1.87374C81.179 1.92982 81.4446 1.90738 81.6477 1.80635C81.8589 1.70673 81.9824 1.55401 82.0176 1.34797C82.0556 1.12546 81.9684 0.940955 81.7572 0.794573C81.5554 0.64137 81.2197 0.456765 80.75 0.240758C80.2624 0.0302045 79.8658 -0.169013 79.5602 -0.356969C79.2628 -0.543531 79.0183 -0.793083 78.8269 -1.10569C78.6436 -1.4169 78.5914 -1.80327 78.6703 -2.26474C78.7351 -2.64384 78.9009 -2.97174 79.1677 -3.2484C79.4428 -3.52367 79.7967 -3.71762 80.2298 -3.83024C80.6709 -3.94147 81.1664 -3.95006 81.7161 -3.85612C82.5283 -3.71731 83.141 -3.40053 83.5552 -2.9057C83.97 -2.41919 84.1432 -1.82558 84.0741 -1.12494L82.4251 -1.40676C82.4469 -1.68292 82.3683 -1.91684 82.19 -2.10849C82.0213 -2.30693 81.7687 -2.43494 81.4324 -2.49243C81.1206 -2.54571 80.8687 -2.52935 80.6767 -2.44345C80.4929 -2.35616 80.3834 -2.20947 80.3482 -2.00342C80.3088 -1.77265 80.3933 -1.57588 80.6019 -1.413C80.8119 -1.2584 81.1484 -1.07789 81.6113 -0.871544C82.0825 -0.663804 82.4671 -0.466641 82.7645 -0.280078C83.0619 -0.0935158 83.3013 0.159382 83.4834 0.478901C83.6746 0.791468 83.7357 1.17507 83.6667 1.62979C83.5991 2.02535 83.4278 2.36081 83.1527 2.63608C82.8854 2.91266 82.5316 3.10665 82.0907 3.21792C81.6588 3.32223 81.1723 3.32813 80.6308 3.23559ZM86.9301 -3.69021C86.6271 -3.742 86.3887 -3.88031 86.2157 -4.10492C86.0526 -4.33635 85.9957 -4.59631 86.045 -4.88471C86.0943 -5.17312 86.2336 -5.39533 86.4629 -5.55119C86.7021 -5.71388 86.9736 -5.76926 87.2766 -5.71747C87.5804 -5.66555 87.8135 -5.52393 87.9766 -5.2925C88.1496 -5.06789 88.211 -4.81137 88.1617 -4.52297C88.1124 -4.23456 87.9686 -4.00891 87.7294 -3.84623C87.5001 -3.69036 87.234 -3.63829 86.9301 -3.69021ZM87.6399 -2.72924L86.4695 4.11893L84.7466 3.82448L85.917 -3.02369L87.6399 -2.72924ZM93.137 -1.89156C93.9492 -1.75276 94.5617 -1.38091 94.9729 -0.776293C95.3863 -0.179811 95.5137 0.579865 95.356 1.50287L94.6694 5.5203L92.9465 5.22585L93.593 1.44329C93.6859 0.899392 93.6217 0.460067 93.4002 0.125392C93.1802 -0.217549 92.8363 -0.42898 92.3687 -0.5089C91.8934 -0.590136 91.4904 -0.506342 91.1605 -0.257386C90.8404 -0.0152513 90.6339 0.377805 90.541 0.921703L89.8945 4.70427L88.1716 4.40982L89.342 -2.43835L91.0649 -2.1439L90.9191 -1.29097C91.1998 -1.54834 91.5307 -1.72929 91.9112 -1.83388C92.3023 -1.94516 92.7109 -1.96439 93.137 -1.89156ZM100.168 -0.702618C100.677 -0.61573 101.106 -0.436375 101.457 -0.16434C101.808 0.0992971 102.068 0.410807 102.235 0.770059L102.401 -0.206486L104.137 0.0900615L102.958 6.98768C102.849 7.6222 102.625 8.16491 102.287 8.61598C101.946 9.07519 101.497 9.40556 100.94 9.60707C100.38 9.81673 99.739 9.8599 99.0176 9.7366C98.0492 9.57111 97.2919 9.20846 96.7463 8.64872C96.2085 8.09028 95.9649 7.41254 96.0172 6.61575L97.7277 6.90809C97.7642 7.2366 97.915 7.51682 98.1794 7.74862C98.4501 7.98992 98.7992 8.14716 99.2261 8.22011C99.726 8.30555 100.158 8.22253 100.523 7.97096C100.885 7.72752 101.118 7.30093 101.223 6.69113L101.404 5.62806C101.128 5.91159 100.774 6.12687 100.344 6.27381C99.9213 6.42206 99.4599 6.4535 98.96 6.36806C98.3854 6.26987 97.8854 6.03175 97.4608 5.65384C97.0354 5.27581 96.7289 4.79507 96.542 4.21186C96.3642 3.62169 96.3351 2.97639 96.4549 2.27589C96.5732 1.58366 96.8135 0.992823 97.1757 0.503461C97.5457 0.0154142 97.9899 -0.332798 98.5069 -0.541282C99.0315 -0.748452 99.5853 -0.802256 100.168 -0.702618ZM101.816 3.2176C101.888 2.79732 101.867 2.42477 101.754 2.1001C101.641 1.76703 101.459 1.49848 101.208 1.29429C100.957 1.08179 100.672 0.94822 100.352 0.893537C100.032 0.838855 99.7228 0.866642 99.4253 0.976974C99.1278 1.08731 98.8669 1.28014 98.6425 1.55564C98.4272 1.82418 98.2851 2.16463 98.2147 2.57665C98.1443 2.98867 98.1638 3.36525 98.2749 3.70651C98.3951 4.04089 98.5764 4.31361 98.819 4.52467C99.0693 4.73705 99.3506 4.86996 99.6628 4.92333C99.9828 4.97801 100.295 4.95088 100.601 4.842C100.908 4.72479 101.169 4.53188 101.384 4.26333C101.6 3.98639 101.744 3.63789 101.816 3.2176ZM113.129 6.98303L109.708 6.39834L108.861 7.94565L107.052 7.63649L111.618 -0.476179L113.624 -0.133361L115.236 9.0351L113.414 8.72383L113.129 6.98303ZM112.898 5.51864L112.272 1.69671L110.412 5.0938L112.898 5.51864ZM119.115 3.66758C119.39 3.39231 119.738 3.18465 120.158 3.04445C120.589 2.89752 121.054 2.86673 121.555 2.9523C122.137 3.05181 122.638 3.28583 123.056 3.65416C123.483 4.02393 123.785 4.49978 123.965 5.08168C124.154 5.65684 124.188 6.29452 124.068 6.99502C123.948 7.69552 123.703 8.29389 123.331 8.79007C122.968 9.27944 122.524 9.63188 121.998 9.84718C121.479 10.0639 120.928 10.1225 120.346 10.023C119.846 9.93741 119.42 9.75871 119.07 9.4868C118.728 9.21622 118.464 8.90405 118.28 8.5503L117.555 12.7902L115.833 12.4958L117.561 2.38423L119.284 2.67867L119.115 3.66758ZM122.308 6.69427C122.379 6.28225 122.353 5.91314 122.232 5.58703C122.12 5.25409 121.938 4.98554 121.685 4.78122C121.441 4.57835 121.159 4.44961 120.839 4.39493C120.528 4.34169 120.218 4.37365 119.911 4.49073C119.614 4.60106 119.353 4.7939 119.128 5.06939C118.912 5.34633 118.769 5.69074 118.698 6.10276C118.628 6.51478 118.649 6.88732 118.761 7.22026C118.881 7.55464 119.062 7.82737 119.305 8.03843C119.557 8.24275 119.839 8.37148 120.151 8.42472C120.471 8.4794 120.78 8.44744 121.079 8.32892C121.386 8.21185 121.648 8.01484 121.864 7.7379C122.088 7.46241 122.237 7.11455 122.308 6.69427ZM127.455 5.09301C127.73 4.81774 128.078 4.60994 128.499 4.46988C128.929 4.32294 129.395 4.29216 129.895 4.37773C130.478 4.47724 130.978 4.71126 131.397 5.07958C131.823 5.44922 132.126 5.9252 132.305 6.5071C132.493 7.08213 132.529 7.71995 132.409 8.42045C132.289 9.12095 132.043 9.71919 131.671 10.2155C131.309 10.7049 130.864 11.0572 130.338 11.2726C129.82 11.4894 129.269 11.5479 128.687 11.4484C128.186 11.3628 127.761 11.1841 127.411 10.9122C127.068 10.6416 126.805 10.3295 126.621 9.97573L125.896 14.2157L124.173 13.9212L125.901 3.80966L127.624 4.1041L127.455 5.09301ZM130.649 8.1197C130.719 7.70768 130.694 7.33857 130.572 7.01246C130.46 6.67939 130.278 6.41084 130.026 6.20665C129.782 6.00378 129.5 5.87504 129.18 5.82036C128.868 5.76699 128.558 5.79894 128.252 5.91615C127.954 6.02649 127.693 6.21932 127.469 6.49482C127.252 6.77162 127.109 7.11617 127.039 7.52819C126.969 7.94021 126.989 8.31262 127.101 8.64569C127.222 8.98007 127.403 9.25279 127.645 9.46385C127.897 9.66804 128.179 9.79678 128.491 9.85015C128.811 9.90483 129.121 9.87287 129.42 9.75435C129.726 9.63714 129.988 9.44014 130.205 9.16333C130.429 8.88783 130.577 8.53998 130.649 8.1197ZM136.357 3.23019L134.794 12.3776L133.071 12.0831L134.634 2.93575L136.357 3.23019ZM143.445 10.1793C143.403 10.4265 143.348 10.6461 143.282 10.8384L138.298 9.98662C138.254 10.488 138.36 10.9048 138.616 11.2369C138.871 11.5689 139.221 11.7729 139.664 11.8486C140.304 11.958 140.806 11.7597 141.171 11.2538L143.03 11.5714C142.72 12.197 142.25 12.6764 141.619 13.0096C140.988 13.3345 140.268 13.4276 139.456 13.2888C138.799 13.1766 138.233 12.9314 137.758 12.5533C137.291 12.1683 136.956 11.6827 136.753 11.0966C136.557 10.5118 136.519 9.8693 136.639 9.1688C136.76 8.46011 137.009 7.86232 137.389 7.37585C137.767 6.88925 138.24 6.5459 138.806 6.34583C139.372 6.14576 139.991 6.10312 140.664 6.21814C141.312 6.32882 141.866 6.56774 142.328 6.93497C142.797 7.30352 143.126 7.77114 143.316 8.33803C143.516 8.89797 143.559 9.5118 143.445 10.1793ZM141.745 9.3799C141.813 8.93344 141.713 8.55172 141.447 8.2348C141.181 7.90948 140.823 7.70831 140.372 7.63128C139.945 7.55833 139.562 7.62856 139.221 7.84176C138.89 8.0481 138.653 8.37647 138.508 8.82676L141.745 9.3799ZM154.306 9.58009C154.227 10.0416 154.043 10.4553 153.752 10.8212C153.47 11.1887 153.074 11.4559 152.564 11.6232C152.062 11.792 151.458 11.816 150.753 11.6954L149.313 11.4493L148.747 14.7622L147.024 14.4677L148.499 5.83953L151.661 6.38005C152.326 6.49362 152.872 6.70571 153.3 7.0164C153.729 7.32709 154.023 7.70386 154.184 8.14699C154.353 8.59144 154.394 9.06918 154.306 9.58009ZM150.918 10.286C151.394 10.3673 151.765 10.3204 152.031 10.1454C152.299 9.96224 152.467 9.6728 152.534 9.27723C152.678 8.43666 152.282 7.93646 151.347 7.77662L149.981 7.54316L149.552 10.0525L150.918 10.286ZM154.657 12.2227C154.776 11.5305 155.016 10.9397 155.378 10.4503C155.749 9.96238 156.192 9.61404 156.709 9.40555C157.235 9.19851 157.789 9.14471 158.371 9.24422C158.88 9.33123 159.305 9.50993 159.647 9.78039C159.998 10.0524 160.261 10.3646 160.437 10.7169L160.604 9.74035L162.339 10.0369L161.169 16.8851L159.434 16.5885L159.605 15.5873C159.328 15.8708 158.975 16.0861 158.544 16.233C158.124 16.3732 157.659 16.3998 157.15 16.3128C156.576 16.2147 156.076 15.9766 155.651 15.5986C155.234 15.222 154.932 14.742 154.744 14.1587C154.567 13.5685 154.538 12.9232 154.657 12.2227ZM160.019 13.1644C160.091 12.7441 160.07 12.3717 159.956 12.0469C159.845 11.714 159.663 11.4454 159.41 11.2411C159.16 11.0288 158.874 10.8951 158.554 10.8404C158.234 10.7857 157.925 10.8135 157.628 10.9238C157.33 11.0341 157.069 11.227 156.845 11.5025C156.63 11.7711 156.488 12.1115 156.417 12.5235C156.347 12.9355 156.367 13.3122 156.477 13.6533C156.598 13.9877 156.779 14.2604 157.021 14.4715C157.273 14.684 157.554 14.8169 157.865 14.8702C158.185 14.9248 158.499 14.8978 158.804 14.7888C159.111 14.6718 159.372 14.4788 159.587 14.2102C159.803 13.9334 159.947 13.5847 160.019 13.1644ZM170.544 11.4392L164.599 20.8046L162.766 20.4913L164.826 17.3319L163.234 10.1899L165.166 10.5201L166.109 15.6047L168.711 11.1258L170.544 11.4392Z" fill="white"/>
</g>
</g>
<defs>
<filter id="filter0_d_5338_18018" x="2.53916" y="-37.0526" width="208.804" height="87.7981" filterUnits="userSpaceOnUse" color-interpolation-filters="sRGB">
<feFlood flood-opacity="0" result="BackgroundImageFix"/>
<feColorMatrix in="SourceAlpha" type="matrix" values="0 0 0 0 0 0 0 0 0 0 0 0 0 0 0 0 0 0 127 0" result="hardAlpha"/>
<feOffset dy="4"/>
<feGaussianBlur stdDeviation="6.3"/>
<feComposite in2="hardAlpha" operator="out"/>
<feColorMatrix type="matrix" values="0 0 0 0 0 0 0 0 0 0 0 0 0 0 0 0 0 0 0.03 0"/>
<feBlend mode="normal" in2="BackgroundImageFix" result="effect1_dropShadow_5338_18018"/>
<feBlend mode="normal" in="SourceGraphic" in2="effect1_dropShadow_5338_18018" result="shape"/>
</filter>
<clipPath id="clip0_5338_18018">
<rect width="206" height="58" fill="white" transform="translate(9.77051 -40) rotate(9.69819)"/>
</clipPath>
</defs>
</svg>
