<svg width="121" height="187" viewBox="0 0 121 187" fill="none" xmlns="http://www.w3.org/2000/svg">
<g clip-path="url(#clip0_5338_18203)" filter="url(#filter0_d_5338_18203)">
<path d="M96.9244 -215.051L-75.236 -233.692C-81.9083 -234.414 -87.9029 -229.593 -88.6251 -222.923L-127.692 137.887C-128.415 144.557 -123.591 150.55 -116.919 151.272L55.2417 169.913C61.9141 170.636 67.9086 165.814 68.6309 159.144L107.698 -201.665C108.42 -208.336 103.597 -214.328 96.9244 -215.051Z" fill="white"/>
<path d="M96.8973 -214.799L-75.263 -233.44C-81.7964 -234.147 -87.666 -229.426 -88.3732 -222.895L-127.44 137.915C-128.148 144.446 -123.425 150.314 -116.891 151.021L55.2691 169.662C61.8025 170.37 67.6721 165.648 68.3793 159.117L107.447 -201.692C108.154 -208.223 103.431 -214.091 96.8973 -214.799Z" stroke="#C5C5C5" stroke-opacity="0.2"/>
<mask id="mask0_5338_18203" style="mask-type:luminance" maskUnits="userSpaceOnUse" x="-110" y="-194" width="207" height="256">
<path d="M-83.6221 -193.871L96.5926 -174.358L71.0926 61.1495L-109.122 41.6364L-83.6221 -193.871Z" fill="white"/>
</mask>
<g mask="url(#mask0_5338_18203)">
<path d="M-109.149 41.8876L-107.101 42.1094L-107.047 41.6062L-109.095 41.3844L-109.149 41.8876ZM-103.005 42.5529L-98.9096 42.9963L-98.8552 42.4931L-102.951 42.0496L-103.005 42.5529ZM-94.8138 43.4398L-90.7181 43.8833L-90.6636 43.3801L-94.7594 42.9366L-94.8138 43.4398ZM-86.6223 44.3268L-82.5265 44.7703L-82.472 44.267L-86.5678 43.8236L-86.6223 44.3268ZM-78.4307 45.2137L-74.3349 45.6572L-74.2804 45.154L-78.3762 44.7105L-78.4307 45.2137ZM-70.2391 46.1007L-66.1433 46.5442L-66.0888 46.041L-70.1846 45.5975L-70.2391 46.1007ZM-62.0477 46.9876L-57.9515 47.4311L-57.8971 46.9279L-61.9932 46.4844L-62.0477 46.9876ZM-53.8559 47.8746L-49.7603 48.3181L-49.7058 47.8148L-53.8015 47.3714L-53.8559 47.8746ZM-45.6642 48.7616L-41.5686 49.205L-41.5141 48.7018L-45.6097 48.2584L-45.6642 48.7616ZM-37.473 49.6485L-33.3769 50.092L-33.3224 49.5888L-37.4185 49.1453L-37.473 49.6485ZM-29.2813 50.5355L-25.1857 50.9789L-25.1312 50.4757L-29.2268 50.0322L-29.2813 50.5355ZM-21.0896 51.4224L-16.994 51.8659L-16.9395 51.3627L-21.0351 50.9192L-21.0896 51.4224ZM-12.8979 52.3094L-8.80228 52.7529L-8.74779 52.2496L-12.8434 51.8062L-12.8979 52.3094ZM-4.70667 53.1963L-0.610574 53.6398L-0.556087 53.1366L-4.65219 52.6931L-4.70667 53.1963ZM3.48503 54.0833L7.58064 54.5268L7.63513 54.0235L3.53952 53.5801L3.48503 54.0833ZM11.6767 54.9703L15.7723 55.4137L15.8268 54.9105L11.7312 54.467L11.6767 54.9703ZM19.8685 55.8572L23.9641 56.3007L24.0186 55.7975L19.9229 55.354L19.8685 55.8572ZM28.0597 56.7442L32.1558 57.1877L32.2103 56.6845L28.1142 56.2409L28.0597 56.7442ZM36.2514 57.6311L40.347 58.0746L40.4015 57.5714L36.3059 57.1279L36.2514 57.6311ZM44.4431 58.5181L48.5387 58.9616L48.5932 58.4583L44.4976 58.0149L44.4431 58.5181ZM52.6343 59.405L56.7304 59.8485L56.7849 59.3453L52.6888 58.9018L52.6343 59.405ZM60.826 60.292L64.9216 60.7355L64.9761 60.2322L60.8805 59.7888L60.826 60.292ZM69.0177 61.179L71.0655 61.4007L71.12 60.8975L69.0722 60.6757L69.0177 61.179ZM-109.176 42.1393L-107.128 42.361L-107.019 41.3546L-109.067 41.1328L-109.176 42.1393ZM-103.033 42.8045L-98.9369 43.248L-98.8279 42.2415L-102.924 41.798L-103.033 42.8045ZM-94.8411 43.6914L-90.7453 44.1349L-90.6364 43.1285L-94.7321 42.685L-94.8411 43.6914ZM-86.6495 44.5784L-82.5537 45.0219L-82.4447 44.0154L-86.5406 43.5719L-86.6495 44.5784ZM-78.458 45.4653L-74.3622 45.9088L-74.2532 44.9024L-78.349 44.4589L-78.458 45.4653ZM-70.2664 46.3523L-66.1705 46.7958L-66.0615 45.7893L-70.1574 45.3459L-70.2664 46.3523ZM-62.0749 47.2392L-57.9788 47.6828L-57.8698 46.6763L-61.9659 46.2328L-62.0749 47.2392ZM-53.8832 48.1262L-49.7876 48.5697L-49.6786 47.5632L-53.7742 47.1198L-53.8832 48.1262ZM-45.6915 49.0132L-41.5959 49.4566L-41.4869 48.4502L-45.5825 48.0067L-45.6915 49.0132ZM-37.5003 49.9001L-33.4042 50.3436L-33.2952 49.3372L-37.3913 48.8937L-37.5003 49.9001ZM-29.3086 50.7871L-25.213 51.2305L-25.104 50.2241L-29.1996 49.7806L-29.3086 50.7871ZM-21.1168 51.6741L-17.0212 52.1175L-16.9123 51.1111L-21.0079 50.6676L-21.1168 51.6741ZM-12.9251 52.561L-8.82952 53.0045L-8.72055 51.998L-12.8162 51.5546L-12.9251 52.561ZM-4.73392 53.4479L-0.637817 53.8915L-0.528843 52.885L-4.62494 52.4415L-4.73392 53.4479ZM3.45779 54.3349L7.5534 54.7784L7.66237 53.7719L3.56676 53.3285L3.45779 54.3349ZM11.6495 55.2219L15.7451 55.6653L15.8541 54.6589L11.7585 54.2154L11.6495 55.2219ZM19.8412 56.1089L23.9368 56.5523L24.0458 55.5459L19.9502 55.1024L19.8412 56.1089ZM28.0324 56.9958L32.1285 57.4393L32.2375 56.4328L28.1414 55.9893L28.0324 56.9958ZM36.2241 57.8827L40.3197 58.3262L40.4287 57.3198L36.3331 56.8763L36.2241 57.8827ZM44.4159 58.7697L48.5115 59.2132L48.6204 58.2067L44.5248 57.7633L44.4159 58.7697ZM52.6071 59.6566L56.7032 60.1001L56.8121 59.0937L52.716 58.6502L52.6071 59.6566ZM60.7988 60.5436L64.8944 60.9871L65.0034 59.9806L60.9077 59.5372L60.7988 60.5436ZM68.9905 61.4306L71.0383 61.6523L71.1473 60.6459L69.0995 60.4241L68.9905 61.4306Z" fill="#C5C5C5"/>
</g>
<mask id="mask1_5338_18203" style="mask-type:luminance" maskUnits="userSpaceOnUse" x="-108" y="-41" width="188" height="90">
<path d="M76.001 -21.8136L-96.1594 -40.4546C-98.3835 -40.6954 -100.382 -39.0882 -100.622 -36.8649L-107.379 25.5346C-107.62 27.7579 -106.012 29.7556 -103.788 29.9964L68.3728 48.6373C70.5969 48.8782 72.5951 47.271 72.8358 45.0476L79.5922 -17.3518C79.833 -19.5752 78.2251 -21.5728 76.001 -21.8136Z" fill="white"/>
</mask>
<g mask="url(#mask1_5338_18203)">
<path d="M76.001 -21.8136L-96.1594 -40.4546C-98.3835 -40.6954 -100.382 -39.0882 -100.622 -36.8649L-107.379 25.5346C-107.62 27.7579 -106.012 29.7556 -103.788 29.9964L68.3728 48.6373C70.5969 48.8782 72.5951 47.271 72.8358 45.0476L79.5922 -17.3518C79.833 -19.5752 78.2251 -21.5728 76.001 -21.8136Z" fill="#FFF2F3"/>
<path d="M-92.1003 -13.7269L-92.1487 -13.2801L-93.979 -13.4783L-94.1327 -12.0592L-92.6466 -11.8983L-92.695 -11.4514L-94.181 -11.6123L-94.3863 -9.71616L-94.9361 -9.77568L-94.4803 -13.9846L-92.1003 -13.7269ZM-90.4542 -9.23542C-90.7643 -9.269 -91.0386 -9.36998 -91.2771 -9.53835C-91.5115 -9.70629 -91.6872 -9.92692 -91.8043 -10.2003C-91.9169 -10.4772 -91.9547 -10.7868 -91.9177 -11.129C-91.881 -11.4671 -91.7763 -11.7572 -91.6034 -11.9991C-91.4261 -12.2447 -91.2032 -12.4222 -90.9346 -12.5316C-90.6657 -12.645 -90.3741 -12.6847 -90.06 -12.6507C-89.7459 -12.6167 -89.4696 -12.5155 -89.2311 -12.3471C-88.9923 -12.1828 -88.8143 -11.9639 -88.6972 -11.6906C-88.5761 -11.4168 -88.5341 -11.1088 -88.5711 -10.7666C-88.6082 -10.4244 -88.7174 -10.1308 -88.8987 -9.88566C-89.0756 -9.64415 -89.3006 -9.4669 -89.5736 -9.3539C-89.8466 -9.24091 -90.1401 -9.20141 -90.4542 -9.23542ZM-90.4019 -9.71851C-90.2046 -9.69714 -90.0143 -9.72338 -89.8311 -9.79723C-89.648 -9.87107 -89.494 -9.99491 -89.3692 -10.1688C-89.2404 -10.3422 -89.1617 -10.5617 -89.1329 -10.8274C-89.1041 -11.0931 -89.1321 -11.3243 -89.2167 -11.5208C-89.3014 -11.7173 -89.4235 -11.869 -89.583 -11.9759C-89.7421 -12.0868 -89.9204 -12.1529 -90.1177 -12.1743C-90.3191 -12.1961 -90.5093 -12.1698 -90.6885 -12.0956C-90.8632 -12.0249 -91.0109 -11.9024 -91.1316 -11.7281C-91.2524 -11.5538 -91.3271 -11.3338 -91.3559 -11.0681C-91.3851 -10.7984 -91.3614 -10.5657 -91.2848 -10.3701C-91.2042 -10.174 -91.0863 -10.0207 -90.9312 -9.91023C-90.7757 -9.80379 -90.5993 -9.73988 -90.4019 -9.71851ZM-87.1783 -11.7399C-87.0612 -11.9187 -86.9084 -12.0508 -86.7198 -12.1363C-86.5273 -12.2213 -86.3021 -12.2499 -86.0444 -12.222L-86.1058 -11.6544L-86.2508 -11.6701C-86.867 -11.7368 -87.2112 -11.436 -87.2836 -10.7677L-87.4784 -8.9682L-88.0281 -9.02772L-87.6698 -12.3369L-87.1201 -12.2774L-87.1783 -11.7399ZM-82.1563 -11.801C-81.9066 -11.774 -81.687 -11.6952 -81.4974 -11.5647C-81.3074 -11.4382 -81.1676 -11.2622 -81.0779 -11.0366C-80.9842 -10.8106 -80.9539 -10.5446 -80.9871 -10.2387L-81.1983 -8.2882L-81.7419 -8.34707L-81.5392 -10.2191C-81.5035 -10.5492 -81.5588 -10.8097 -81.7052 -11.0007C-81.8511 -11.1957 -82.067 -11.3087 -82.353 -11.3396C-82.6429 -11.371 -82.8843 -11.3055 -83.0771 -11.1431C-83.2658 -10.9803 -83.3789 -10.7257 -83.4164 -10.3795L-83.6145 -8.54983L-84.1643 -8.60935L-83.6804 -13.078L-83.1307 -13.0184L-83.3072 -11.388C-83.1802 -11.5453 -83.017 -11.66 -82.8177 -11.7321C-82.6144 -11.8038 -82.3939 -11.8267 -82.1563 -11.801ZM-77.0871 -9.64535C-77.0984 -9.54068 -77.1164 -9.43062 -77.1412 -9.31518L-79.787 -9.60166C-79.8022 -9.2734 -79.7191 -9.00576 -79.5378 -8.79877C-79.352 -8.59537 -79.1142 -8.47799 -78.8242 -8.44659C-78.5866 -8.42087 -78.3834 -8.45385 -78.2146 -8.54554C-78.0413 -8.64082 -77.9124 -8.77756 -77.8279 -8.95577L-77.2359 -8.89167C-77.3589 -8.58323 -77.5642 -8.34275 -77.8518 -8.17024C-78.139 -8.00176 -78.4799 -7.93888 -78.8745 -7.98161C-79.1887 -8.01562 -79.4629 -8.1166 -79.6974 -8.28454C-79.9278 -8.45204 -80.0995 -8.67224 -80.2125 -8.94515C-80.3252 -9.22209 -80.3629 -9.53165 -80.3259 -9.87384C-80.2888 -10.216 -80.1879 -10.5085 -80.0231 -10.7514C-79.8583 -10.9942 -79.6456 -11.1707 -79.3851 -11.281C-79.1202 -11.3949 -78.8266 -11.4344 -78.5045 -11.3995C-78.1903 -11.3655 -77.9199 -11.267 -77.6931 -11.1039C-77.4663 -10.9409 -77.3015 -10.7316 -77.1988 -10.4761C-77.0916 -10.2242 -77.0544 -9.94728 -77.0871 -9.64535ZM-77.6425 -9.82156C-77.6198 -10.0309 -77.6467 -10.2151 -77.7232 -10.374C-77.7993 -10.5371 -77.9137 -10.6655 -78.0665 -10.7594C-78.2149 -10.857 -78.3857 -10.9162 -78.579 -10.9371C-78.8568 -10.9672 -79.104 -10.9044 -79.3205 -10.7486C-79.533 -10.5924 -79.6704 -10.3588 -79.7326 -10.0479L-77.6425 -9.82156ZM-76.5793 -9.47429C-76.5427 -9.81245 -76.4422 -10.1009 -76.2778 -10.3397C-76.113 -10.5825 -75.9041 -10.7616 -75.6513 -10.8767C-75.3944 -10.9915 -75.1189 -11.0329 -74.825 -11.0011C-74.535 -10.9697 -74.2901 -10.88 -74.0901 -10.7321C-73.8902 -10.5842 -73.7481 -10.41 -73.6639 -10.2094L-73.5985 -10.8133L-73.0428 -10.7531L-73.4011 -7.44395L-73.9569 -7.50413L-73.8902 -8.12007C-74.0198 -7.9386 -74.2004 -7.79524 -74.4318 -7.68996C-74.6587 -7.58827 -74.9152 -7.5529 -75.2011 -7.58386C-75.4951 -7.61569 -75.753 -7.71694 -75.9749 -7.88759C-76.1968 -8.05825 -76.3621 -8.28183 -76.4707 -8.55833C-76.5793 -8.83483 -76.6155 -9.14015 -76.5793 -9.47429ZM-73.777 -9.16475C-73.75 -9.41435 -73.7768 -9.6372 -73.8574 -9.83329C-73.9381 -10.0294 -74.0597 -10.1851 -74.2224 -10.3005C-74.3807 -10.4194 -74.5625 -10.49 -74.7679 -10.5123C-74.9733 -10.5345 -75.1658 -10.5065 -75.3454 -10.4282C-75.525 -10.3499 -75.6751 -10.2236 -75.7959 -10.0493C-75.9166 -9.87499 -75.9905 -9.66306 -76.0175 -9.41346C-76.045 -9.15984 -76.0186 -8.93296 -75.9384 -8.73285C-75.8578 -8.53677 -75.7383 -8.37925 -75.5801 -8.26029C-75.4214 -8.14536 -75.2394 -8.07676 -75.034 -8.05452C-74.8286 -8.03228 -74.6361 -8.06033 -74.4565 -8.13863C-74.2725 -8.22053 -74.1201 -8.34861 -73.9993 -8.5229C-73.8782 -8.70121 -73.8041 -8.91515 -73.777 -9.16475ZM-71.1849 -7.71718L-69.8546 -10.4079L-69.2687 -10.3445L-70.9257 -7.17592L-71.566 -7.24526L-72.5065 -10.6951L-71.9145 -10.631L-71.1849 -7.71718ZM-65.8765 -9.97718L-68.3969 -5.32587L-68.9648 -5.38736L-68.1398 -6.91092L-69.1204 -10.3284L-68.5103 -10.2624L-67.7616 -7.46869L-66.4443 -10.0387L-65.8765 -9.97718ZM-63.2298 -9.07357C-63.1006 -9.251 -62.9225 -9.39055 -62.6956 -9.49224C-62.4641 -9.59752 -62.2055 -9.63468 -61.9195 -9.60372C-61.6256 -9.57189 -61.3674 -9.47267 -61.145 -9.30604C-60.9187 -9.13898 -60.7507 -8.91917 -60.6417 -8.6467C-60.5322 -8.37825 -60.4958 -8.07495 -60.5324 -7.73679C-60.5686 -7.40265 -60.6693 -7.11215 -60.8346 -6.8653C-60.9998 -6.61845 -61.2114 -6.43567 -61.4687 -6.31691C-61.722 -6.19771 -61.9956 -6.15402 -62.2896 -6.18585C-62.5715 -6.21637 -62.8144 -6.30581 -63.0184 -6.45416C-63.2179 -6.60609 -63.3638 -6.78277 -63.456 -6.98419L-63.6921 -4.80423L-64.2418 -4.86375L-63.7135 -9.74298L-63.1638 -9.68346L-63.2298 -9.07357ZM-61.0945 -7.79764C-61.0674 -8.04724 -61.0942 -8.27008 -61.1749 -8.46616C-61.2555 -8.66225 -61.3772 -8.81798 -61.5399 -8.93334C-61.6985 -9.04828 -61.8806 -9.11686 -62.086 -9.1391C-62.2873 -9.1609 -62.48 -9.13086 -62.6641 -9.04897C-62.8437 -8.97066 -62.9961 -8.84258 -63.1213 -8.6647C-63.242 -8.49042 -63.3157 -8.28048 -63.3423 -8.03491C-63.3693 -7.78531 -63.3427 -7.56046 -63.2625 -7.36035C-63.1779 -7.16383 -63.0564 -7.00609 -62.8982 -6.88713C-62.7355 -6.77176 -62.5534 -6.70317 -62.3521 -6.68136C-62.1467 -6.65913 -61.9542 -6.68717 -61.7746 -6.76548C-61.5905 -6.84737 -61.4381 -6.97545 -61.3174 -7.14974C-61.1962 -7.32805 -61.1219 -7.54402 -61.0945 -7.79764ZM-60.0144 -7.6807C-59.9778 -8.01886 -59.8773 -8.30733 -59.7129 -8.54613C-59.5481 -8.78896 -59.3393 -8.96797 -59.0864 -9.08314C-58.8295 -9.19788 -58.5541 -9.23932 -58.2601 -9.20749C-57.9702 -9.1761 -57.7252 -9.08646 -57.5253 -8.93855C-57.3254 -8.79064 -57.1833 -8.61641 -57.0991 -8.41586L-57.0337 -9.01971L-56.478 -8.95954L-56.8363 -5.65036L-57.392 -5.71054L-57.3253 -6.32648C-57.455 -6.14502 -57.6355 -6.00165 -57.8669 -5.89637C-58.0939 -5.79468 -58.3503 -5.75931 -58.6362 -5.79027C-58.9302 -5.82211 -59.1882 -5.92335 -59.4101 -6.09401C-59.632 -6.26466 -59.7972 -6.48824 -59.9058 -6.76474C-60.0144 -7.04124 -60.0506 -7.34656 -60.0144 -7.6807ZM-57.2122 -7.37116C-57.1852 -7.62076 -57.212 -7.84361 -57.2926 -8.0397C-57.3732 -8.23579 -57.4949 -8.39151 -57.6576 -8.50688C-57.8158 -8.62584 -57.9977 -8.69643 -58.203 -8.71867C-58.4084 -8.74091 -58.6009 -8.71288 -58.7805 -8.63457C-58.9601 -8.55627 -59.1103 -8.42997 -59.231 -8.25569C-59.3518 -8.08141 -59.4256 -7.86947 -59.4526 -7.61987C-59.4801 -7.36625 -59.4538 -7.13938 -59.3736 -6.93927C-59.2929 -6.74318 -59.1735 -6.58566 -59.0153 -6.4667C-58.8566 -6.35177 -58.6745 -6.28317 -58.4692 -6.26093C-58.2638 -6.2387 -58.0713 -6.26674 -57.8917 -6.34505C-57.7076 -6.42694 -57.5552 -6.55502 -57.4345 -6.72931C-57.3133 -6.90762 -57.2392 -7.12156 -57.2122 -7.37116ZM-55.9331 -7.23266C-55.896 -7.57485 -55.7953 -7.86535 -55.6309 -8.10415C-55.4661 -8.34697 -55.2553 -8.52576 -54.9984 -8.6405C-54.7375 -8.7548 -54.4499 -8.79494 -54.1358 -8.76093C-53.7291 -8.71689 -53.4055 -8.58207 -53.1651 -8.35647C-52.9207 -8.13043 -52.7751 -7.8377 -52.7285 -7.4783L-53.3205 -7.5424C-53.3551 -7.74979 -53.4486 -7.9208 -53.6011 -8.05542C-53.7495 -8.18961 -53.9445 -8.2698 -54.1862 -8.29596C-54.5003 -8.32997 -54.7658 -8.24874 -54.9826 -8.05228C-55.199 -7.85985 -55.3286 -7.56636 -55.3713 -7.17183C-55.4144 -6.77328 -55.3511 -6.45485 -55.1814 -6.21653C-55.0116 -5.9782 -54.7697 -5.84205 -54.4556 -5.80804C-54.2139 -5.78187 -54.0065 -5.81643 -53.8332 -5.91171C-53.6599 -6.00699 -53.5317 -6.15603 -53.4486 -6.35883L-52.8566 -6.29473C-52.9818 -5.96615 -53.1885 -5.7136 -53.4765 -5.53707C-53.7641 -5.36456 -54.1072 -5.29989 -54.5059 -5.34305C-54.82 -5.37707 -55.0923 -5.47783 -55.3227 -5.64533C-55.549 -5.81239 -55.7167 -6.03216 -55.8258 -6.30463C-55.9348 -6.57711 -55.9706 -6.88645 -55.9331 -7.23266ZM-50.3898 -4.95236L-51.5303 -6.55434L-51.6886 -5.09299L-52.2383 -5.15251L-51.7544 -9.62111L-51.2047 -9.56159L-51.4891 -6.93478L-50.0557 -8.26416L-49.2885 -8.18109L-51.0255 -6.70129L-49.6408 -4.87126L-50.3898 -4.95236ZM-49.1542 -6.50479C-49.1176 -6.84296 -49.0171 -7.13143 -48.8527 -7.37023C-48.6879 -7.61305 -48.4791 -7.79206 -48.2262 -7.90723C-47.9693 -8.02197 -47.6939 -8.06342 -47.3999 -8.03159C-47.11 -8.00019 -46.865 -7.91055 -46.6651 -7.76264C-46.4652 -7.61473 -46.3231 -7.4405 -46.2389 -7.23995L-46.1735 -7.84381L-45.6178 -7.78363L-45.9761 -4.47446L-46.5318 -4.53463L-46.4651 -5.15057C-46.5948 -4.96911 -46.7753 -4.82574 -47.0067 -4.72047C-47.2337 -4.61878 -47.4901 -4.58341 -47.776 -4.61437C-48.07 -4.6462 -48.328 -4.74744 -48.5499 -4.9181C-48.7718 -5.08875 -48.937 -5.31233 -49.0456 -5.58883C-49.1542 -5.86533 -49.1904 -6.17066 -49.1542 -6.50479ZM-46.352 -6.19525C-46.325 -6.44485 -46.3518 -6.66771 -46.4324 -6.86379C-46.513 -7.05988 -46.6347 -7.2156 -46.7974 -7.33097C-46.9557 -7.44993 -47.1375 -7.52052 -47.3428 -7.54276C-47.5482 -7.565 -47.7407 -7.53697 -47.9203 -7.45866C-48.0999 -7.38036 -48.2501 -7.25407 -48.3708 -7.07978C-48.4916 -6.9055 -48.5654 -6.69356 -48.5925 -6.44397C-48.6199 -6.19034 -48.5936 -5.96347 -48.5134 -5.76336C-48.4327 -5.56727 -48.3133 -5.40975 -48.1551 -5.2908C-47.9964 -5.17586 -47.8143 -5.10727 -47.609 -5.08503C-47.4036 -5.06279 -47.2111 -5.09084 -47.0315 -5.16914C-46.8474 -5.25103 -46.695 -5.37912 -46.5743 -5.5534C-46.4531 -5.73171 -46.379 -5.94566 -46.352 -6.19525ZM-43.3179 -7.5896C-43.032 -7.55864 -42.7891 -7.46922 -42.5891 -7.32131C-42.3852 -7.17296 -42.2411 -6.99851 -42.1569 -6.79797L-42.0915 -7.40182L-41.5357 -7.34165L-41.9019 -3.96C-41.9346 -3.65807 -42.028 -3.39734 -42.1822 -3.1778C-42.3367 -2.95423 -42.5421 -2.7891 -42.7981 -2.68242C-43.05 -2.57529 -43.3351 -2.53896 -43.6533 -2.5734C-44.0882 -2.6205 -44.4395 -2.7624 -44.7072 -2.99911C-44.975 -3.23582 -45.1158 -3.53414 -45.1298 -3.89408L-44.5862 -3.83521C-44.5475 -3.62738 -44.4401 -3.45282 -44.2639 -3.31155C-44.0882 -3.16626 -43.8674 -3.07924 -43.6016 -3.05046C-43.2996 -3.01775 -43.0437 -3.08576 -42.8339 -3.25447C-42.6201 -3.42276 -42.4947 -3.67798 -42.4576 -4.02018L-42.3825 -4.71462C-42.5121 -4.53316 -42.6906 -4.38957 -42.918 -4.28386C-43.1454 -4.17815 -43.4021 -4.14077 -43.688 -4.17173C-43.982 -4.20356 -44.2419 -4.30502 -44.4679 -4.47611C-44.6898 -4.64677 -44.855 -4.87035 -44.9636 -5.14685C-45.0722 -5.42335 -45.1084 -5.72867 -45.0722 -6.06281C-45.0356 -6.40097 -44.9351 -6.68944 -44.7707 -6.92824C-44.6059 -7.17106 -44.3971 -7.35007 -44.1442 -7.46525C-43.8873 -7.57999 -43.6119 -7.62143 -43.3179 -7.5896ZM-42.27 -5.75327C-42.243 -6.00287 -42.2698 -6.22572 -42.3504 -6.4218C-42.431 -6.61789 -42.5527 -6.77362 -42.7154 -6.88899C-42.8736 -7.00794 -43.0554 -7.07854 -43.2608 -7.10077C-43.4662 -7.12301 -43.6587 -7.09498 -43.8383 -7.01668C-44.0179 -6.93837 -44.1681 -6.81208 -44.2888 -6.6378C-44.4095 -6.46351 -44.4834 -6.25158 -44.5104 -6.00198C-44.5379 -5.74836 -44.5115 -5.52148 -44.4313 -5.32137C-44.3507 -5.12528 -44.2313 -4.96777 -44.073 -4.84881C-43.9144 -4.73388 -43.7323 -4.66528 -43.5269 -4.64304C-43.3216 -4.6208 -43.1291 -4.64885 -42.9495 -4.72715C-42.7654 -4.80905 -42.613 -4.93713 -42.4923 -5.11141C-42.3711 -5.28972 -42.297 -5.50367 -42.27 -5.75327ZM-37.7515 -5.38622C-37.7629 -5.28155 -37.7809 -5.1715 -37.8056 -5.05606L-40.4515 -5.34254C-40.4666 -5.01427 -40.3836 -4.74664 -40.2023 -4.53965C-40.0165 -4.33625 -39.7786 -4.21887 -39.4887 -4.18747C-39.2511 -4.16174 -39.0479 -4.19473 -38.879 -4.28642C-38.7057 -4.3817 -38.5769 -4.51844 -38.4924 -4.69665L-37.9004 -4.63255C-38.0234 -4.32411 -38.2287 -4.08363 -38.5163 -3.91112C-38.8035 -3.74264 -39.1444 -3.67976 -39.539 -3.72249C-39.8531 -3.7565 -40.1274 -3.85748 -40.3618 -4.02542C-40.5922 -4.19292 -40.764 -4.41312 -40.877 -4.68603C-40.9896 -4.96297 -41.0274 -5.27252 -40.9904 -5.61471C-40.9533 -5.9569 -40.8524 -6.24942 -40.6876 -6.49225C-40.5227 -6.73507 -40.3101 -6.91162 -40.0496 -7.0219C-39.7847 -7.13576 -39.4911 -7.17525 -39.1689 -7.14036C-38.8548 -7.10635 -38.5844 -7.00783 -38.3576 -6.84479C-38.1307 -6.68175 -37.966 -6.47249 -37.8633 -6.21699C-37.7561 -5.96508 -37.7188 -5.68816 -37.7515 -5.38622ZM-38.3069 -5.56244C-38.2843 -5.77178 -38.3112 -5.95594 -38.3877 -6.11492C-38.4638 -6.27793 -38.5782 -6.40639 -38.731 -6.50033C-38.8793 -6.59785 -39.0502 -6.65708 -39.2435 -6.67801C-39.5213 -6.7081 -39.7685 -6.64525 -39.985 -6.48949C-40.1975 -6.33328 -40.3348 -6.09971 -40.397 -5.78875L-38.3069 -5.56244ZM-36.053 -3.34504C-36.3067 -3.37251 -36.5297 -3.43942 -36.7219 -3.54577C-36.9137 -3.65614 -37.0597 -3.79413 -37.1599 -3.95976C-37.2597 -4.12941 -37.3047 -4.31553 -37.295 -4.51812L-36.7272 -4.45664C-36.7289 -4.28984 -36.667 -4.14668 -36.5414 -4.02719C-36.4118 -3.90726 -36.2342 -3.83509 -36.0087 -3.81067C-35.7993 -3.788 -35.6292 -3.81642 -35.4983 -3.89593C-35.3675 -3.97544 -35.2945 -4.08564 -35.2792 -4.22654C-35.2635 -4.37147 -35.3164 -4.48514 -35.4378 -4.56753C-35.5589 -4.65395 -35.7506 -4.74597 -36.013 -4.84363C-36.2517 -4.93464 -36.4461 -5.02085 -36.5961 -5.10227C-36.7418 -5.18728 -36.864 -5.30031 -36.9628 -5.44134C-37.0571 -5.58596 -37.0928 -5.76495 -37.0697 -5.97831C-37.0514 -6.1474 -36.9842 -6.29694 -36.8683 -6.42695C-36.7524 -6.55695 -36.5974 -6.65218 -36.4034 -6.71263C-36.209 -6.77712 -35.993 -6.79649 -35.7554 -6.77076C-35.389 -6.73108 -35.103 -6.60644 -34.8975 -6.39683C-34.6921 -6.18723 -34.5987 -5.92053 -34.6175 -5.59672L-35.1672 -5.65624C-35.1605 -5.83066 -35.216 -5.97718 -35.3335 -6.0958C-35.447 -6.21399 -35.6105 -6.28465 -35.8239 -6.30776C-36.0212 -6.32912 -36.1829 -6.30385 -36.3088 -6.23195C-36.4348 -6.16006 -36.5051 -6.05567 -36.52 -5.9188C-36.5317 -5.8101 -36.5073 -5.71582 -36.4467 -5.63595C-36.3816 -5.55966 -36.2991 -5.49369 -36.1992 -5.43807C-36.0948 -5.38604 -35.9508 -5.32363 -35.7672 -5.2508C-35.5366 -5.16066 -35.3503 -5.07531 -35.2082 -4.99477C-35.0658 -4.91825 -34.9489 -4.81192 -34.8578 -4.67578C-34.7625 -4.53921 -34.7238 -4.37005 -34.7416 -4.16833C-34.7612 -3.98717 -34.8292 -3.82958 -34.9456 -3.69556C-35.0619 -3.56153 -35.2173 -3.46227 -35.4117 -3.39778C-35.6017 -3.33689 -35.8154 -3.31931 -36.053 -3.34504ZM-27.6844 -5.84187L-29.0757 -2.64454L-29.6435 -2.70602L-30.1564 -5.41917L-31.2382 -2.87869L-31.8061 -2.94018L-32.4868 -6.36185L-31.925 -6.30102L-31.4646 -3.44084L-30.3423 -6.12966L-29.7805 -6.06883L-29.2785 -3.19803L-28.2281 -5.90073L-27.6844 -5.84187ZM-24.2838 -3.92798C-24.2951 -3.82331 -24.3131 -3.71325 -24.3379 -3.59781L-26.9837 -3.8843C-26.9989 -3.55603 -26.9158 -3.28839 -26.7345 -3.0814C-26.5487 -2.87801 -26.3109 -2.76062 -26.0209 -2.72923C-25.7833 -2.7035 -25.5801 -2.73648 -25.4113 -2.82817C-25.238 -2.92345 -25.1091 -3.0602 -25.0246 -3.23841L-24.4326 -3.17431C-24.5556 -2.86586 -24.761 -2.62539 -25.0485 -2.45288C-25.3357 -2.28439 -25.6766 -2.22151 -26.0713 -2.26424C-26.3854 -2.29826 -26.6596 -2.39924 -26.8941 -2.56717C-27.1245 -2.73467 -27.2962 -2.95487 -27.4092 -3.22778C-27.5219 -3.50472 -27.5596 -3.81428 -27.5226 -4.15647C-27.4855 -4.49866 -27.3846 -4.79118 -27.2198 -5.034C-27.055 -5.27683 -26.8423 -5.45337 -26.5818 -5.56365C-26.3169 -5.67752 -26.0233 -5.717 -25.7012 -5.68212C-25.3871 -5.64811 -25.1166 -5.54959 -24.8898 -5.38655C-24.663 -5.22351 -24.4982 -5.01424 -24.3955 -4.75874C-24.2883 -4.50684 -24.2511 -4.22991 -24.2838 -3.92798ZM-24.8392 -4.10419C-24.8165 -4.31353 -24.8434 -4.49769 -24.9199 -4.65668C-24.996 -4.81968 -25.1104 -4.94815 -25.2632 -5.04208C-25.4116 -5.1396 -25.5824 -5.19884 -25.7757 -5.21977C-26.0536 -5.24985 -26.3007 -5.18701 -26.5173 -5.03124C-26.7297 -4.87504 -26.8671 -4.64146 -26.9293 -4.3305L-24.8392 -4.10419ZM-23.0509 -5.88392C-23.1556 -5.89525 -23.2402 -5.94107 -23.3049 -6.02138C-23.3695 -6.10169 -23.3962 -6.19419 -23.3848 -6.29886C-23.3735 -6.40353 -23.3277 -6.48817 -23.2473 -6.55278C-23.167 -6.61739 -23.0745 -6.64404 -22.9698 -6.6327C-22.8691 -6.6218 -22.7885 -6.57641 -22.7278 -6.49653C-22.6632 -6.41622 -22.6365 -6.32373 -22.6479 -6.21906C-22.6592 -6.11439 -22.705 -6.02974 -22.7854 -5.96513C-22.8617 -5.90008 -22.9502 -5.87302 -23.0509 -5.88392ZM-22.8433 -5.31769L-23.2016 -2.00851L-23.7513 -2.06803L-23.393 -5.37721L-22.8433 -5.31769ZM-20.5354 -5.12278C-20.2494 -5.09182 -20.0065 -5.0024 -19.8066 -4.85449C-19.6026 -4.70614 -19.4585 -4.53169 -19.3743 -4.33114L-19.3089 -4.935L-18.7532 -4.87483L-19.1193 -1.49318C-19.152 -1.19125 -19.2455 -0.930522 -19.3996 -0.71098C-19.5542 -0.487413 -19.7595 -0.322284 -20.0155 -0.215596C-20.2675 -0.108473 -20.5526 -0.0721375 -20.8707 -0.106585C-21.3056 -0.153678 -21.657 -0.295579 -21.9247 -0.532289C-22.1924 -0.768998 -22.3333 -1.06732 -22.3473 -1.42726L-21.8036 -1.36839C-21.765 -1.16056 -21.6576 -0.986002 -21.4814 -0.844735C-21.3056 -0.699442 -21.0848 -0.612417 -20.819 -0.583637C-20.517 -0.550934 -20.2611 -0.618938 -20.0514 -0.787656C-19.8376 -0.955936 -19.7121 -1.21116 -19.6751 -1.55335L-19.5999 -2.2478C-19.7295 -2.06634 -19.9081 -1.92275 -20.1355 -1.81704C-20.3629 -1.71133 -20.6195 -1.67395 -20.9054 -1.70491C-21.1994 -1.73674 -21.4594 -1.8382 -21.6853 -2.00929C-21.9072 -2.17995 -22.0725 -2.40353 -22.1811 -2.68003C-22.2896 -2.95653 -22.3259 -3.26185 -22.2897 -3.59599C-22.2531 -3.93415 -22.1526 -4.22262 -21.9882 -4.46142C-21.8234 -4.70424 -21.6145 -4.88325 -21.3617 -4.99843C-21.1048 -5.11317 -20.8293 -5.15461 -20.5354 -5.12278ZM-19.4874 -3.28645C-19.4604 -3.53605 -19.4872 -3.7589 -19.5678 -3.95498C-19.6485 -4.15107 -19.7701 -4.3068 -19.9328 -4.42217C-20.0911 -4.54112 -20.2729 -4.61172 -20.4783 -4.63395C-20.6837 -4.65619 -20.8762 -4.62816 -21.0558 -4.54986C-21.2354 -4.47155 -21.3855 -4.34526 -21.5063 -4.17098C-21.627 -3.99669 -21.7009 -3.78476 -21.7279 -3.53516C-21.7553 -3.28154 -21.729 -3.05466 -21.6488 -2.85455C-21.5682 -2.65846 -21.4487 -2.50095 -21.2905 -2.38199C-21.1318 -2.26706 -20.9498 -2.19846 -20.7444 -2.17622C-20.539 -2.15398 -20.3465 -2.18203 -20.1669 -2.26033C-19.9829 -2.34223 -19.8305 -2.47031 -19.7097 -2.64459C-19.5886 -2.8229 -19.5145 -3.03685 -19.4874 -3.28645ZM-16.1743 -4.6567C-15.9246 -4.62967 -15.705 -4.5509 -15.5154 -4.4204C-15.3254 -4.29393 -15.1855 -4.11791 -15.0959 -3.89233C-15.0022 -3.66632 -14.9719 -3.40033 -15.005 -3.09437L-15.2162 -1.14388L-15.7599 -1.20275L-15.5572 -3.07473C-15.5215 -3.40485 -15.5768 -3.6654 -15.7232 -3.85638C-15.8691 -4.0514 -16.085 -4.16437 -16.3709 -4.19533C-16.6609 -4.22673 -16.9023 -4.16123 -17.0951 -3.99882C-17.2838 -3.83598 -17.3969 -3.58143 -17.4344 -3.23522L-17.6325 -1.40551L-18.1822 -1.46503L-17.6984 -5.93364L-17.1487 -5.87412L-17.3252 -4.24369C-17.1982 -4.401 -17.035 -4.5157 -16.8357 -4.5878C-16.6324 -4.65946 -16.4119 -4.68243 -16.1743 -4.6567ZM-13.3389 -3.83038L-13.5501 -1.87989C-13.5675 -1.71886 -13.5457 -1.60042 -13.4847 -1.52457C-13.4232 -1.45275 -13.3079 -1.40769 -13.1387 -1.38937L-12.734 -1.34555L-12.7844 -0.880568L-13.2797 -0.934202C-13.5858 -0.967341 -13.8077 -1.06265 -13.9454 -1.22012C-14.0832 -1.3776 -14.1347 -1.61735 -14.0998 -1.93941L-13.8886 -3.8899L-14.3175 -3.93634L-14.2685 -4.38924L-13.8396 -4.3428L-13.7493 -5.17613L-13.1996 -5.11661L-13.2899 -4.28328L-12.426 -4.18974L-12.4751 -3.73685L-13.3389 -3.83038ZM-11.4174 -4.62429C-11.5222 -4.63563 -11.6068 -4.68144 -11.6715 -4.76175C-11.7361 -4.84206 -11.7628 -4.93456 -11.7514 -5.03923C-11.7401 -5.1439 -11.6943 -5.22854 -11.6139 -5.29315C-11.5336 -5.35777 -11.4411 -5.38441 -11.3364 -5.37307C-11.2357 -5.36217 -11.1551 -5.31678 -11.0944 -5.2369C-11.0298 -5.15659 -11.0031 -5.06411 -11.0145 -4.95944C-11.0258 -4.85477 -11.0716 -4.77012 -11.152 -4.7055C-11.2283 -4.64045 -11.3168 -4.61339 -11.4174 -4.62429ZM-11.2099 -4.05806L-11.5682 -0.748883L-12.1179 -0.808403L-11.7596 -4.11758L-11.2099 -4.05806ZM-8.65362 -3.84239C-8.25091 -3.79878 -7.93801 -3.64066 -7.71492 -3.36806C-7.49139 -3.09948 -7.40446 -2.73573 -7.45416 -2.27679L-7.66535 -0.326299L-8.20902 -0.385166L-8.00632 -2.25715C-7.97058 -2.58726 -8.02589 -2.84781 -8.17226 -3.0388C-8.3182 -3.23381 -8.53412 -3.34679 -8.82005 -3.37775C-9.11 -3.40914 -9.35137 -3.34365 -9.54416 -3.18124C-9.73291 -3.01839 -9.84604 -2.76385 -9.88352 -2.41763L-10.0816 -0.587927L-10.6313 -0.647447L-10.273 -3.95662L-9.72333 -3.8971L-9.77433 -3.4261C-9.64729 -3.58341 -9.48613 -3.69833 -9.29085 -3.77087C-9.09155 -3.84296 -8.87914 -3.86681 -8.65362 -3.84239ZM-5.03841 -3.44482C-4.75249 -3.41386 -4.50955 -3.32444 -4.30963 -3.17653C-4.10567 -3.02818 -3.96159 -2.85374 -3.87737 -2.65319L-3.81199 -3.25704L-3.25624 -3.19687L-3.62239 0.184778C-3.65509 0.486711 -3.74851 0.747437 -3.90266 0.966978C-4.05725 1.19054 -4.26254 1.35567 -4.51856 1.46236C-4.77054 1.56949 -5.05561 1.60582 -5.37375 1.57137C-5.80868 1.52428 -6.16001 1.38238 -6.42773 1.14567C-6.69546 0.908961 -6.83632 0.610638 -6.85031 0.250702L-6.30665 0.309568C-6.26804 0.517397 -6.16064 0.691956 -5.98443 0.833224C-5.80867 0.978517 -5.58789 1.06554 -5.3221 1.09432C-5.02006 1.12702 -4.76416 1.05902 -4.5544 0.890304C-4.34061 0.722022 -4.2152 0.466794 -4.17814 0.124604L-4.10295 -0.569844C-4.23261 -0.38838 -4.41113 -0.244796 -4.63851 -0.139081C-4.8659 -0.0333665 -5.12256 0.00401141 -5.40849 -0.0269478C-5.70247 -0.0587792 -5.96242 -0.160243 -6.18836 -0.331333C-6.41027 -0.501988 -6.57552 -0.725568 -6.68411 -1.00207C-6.79269 -1.27857 -6.8289 -1.58389 -6.79272 -1.91803C-6.7561 -2.25619 -6.6556 -2.54466 -6.49123 -2.78346C-6.3264 -3.02628 -6.11756 -3.20529 -5.86471 -3.32047C-5.60782 -3.43521 -5.33239 -3.47665 -5.03841 -3.44482ZM-3.99049 -1.60849C-3.96346 -1.85809 -3.99026 -2.08094 -4.07088 -2.27703C-4.15151 -2.47311 -4.27319 -2.62884 -4.43589 -2.74421C-4.59413 -2.86317 -4.77595 -2.93376 -4.98133 -2.956C-5.18672 -2.97823 -5.37921 -2.9502 -5.55881 -2.8719C-5.73841 -2.79359 -5.88857 -2.6673 -6.00931 -2.49302C-6.13003 -2.31873 -6.20391 -2.1068 -6.23094 -1.8572C-6.2584 -1.60358 -6.23203 -1.3767 -6.15185 -1.17659C-6.07121 -0.980506 -5.95178 -0.822989 -5.79354 -0.704031C-5.63486 -0.589098 -5.45283 -0.5205 -5.24744 -0.498262C-5.04206 -0.476024 -4.84957 -0.50407 -4.66997 -0.582375C-4.4859 -0.664269 -4.3335 -0.792352 -4.21277 -0.966636C-4.09161 -1.14495 -4.01752 -1.35889 -3.99049 -1.60849ZM3.27074 -2.55126C3.52848 -2.52335 3.75215 -2.44414 3.94173 -2.31365C4.13176 -2.18717 4.27361 -2.01093 4.36729 -1.78492C4.46098 -1.55891 4.49126 -1.29292 4.45813 -0.986965L4.24694 0.963524L3.70328 0.904658L3.90597 -0.967325C3.94171 -1.29744 3.88639 -1.55799 3.74002 -1.74897C3.59812 -1.94355 3.38823 -2.05587 3.11036 -2.08596C2.82443 -2.11692 2.58687 -2.04898 2.39768 -1.88211C2.20892 -1.71926 2.0958 -1.46472 2.05831 -1.1185L1.86085 0.705166L1.31719 0.646301L1.51988 -1.22568C1.55563 -1.5558 1.50031 -1.81635 1.35395 -2.00733C1.21204 -2.20191 1.00214 -2.31423 0.724271 -2.34432C0.438344 -2.37528 0.200791 -2.30734 0.0116008 -2.14046C-0.177154 -1.97762 -0.290272 -1.72308 -0.327759 -1.37686L-0.52522 0.44681L-1.07493 0.387289L-0.716626 -2.92189L-0.166914 -2.86237L-0.218567 -2.38531C-0.0910918 -2.54665 0.0682673 -2.66381 0.259515 -2.73678C0.454791 -2.80932 0.663167 -2.8336 0.884658 -2.80961C1.16254 -2.77953 1.40144 -2.69052 1.60136 -2.54261C1.80128 -2.3947 1.94052 -2.1943 2.01907 -1.94142C2.13698 -2.16488 2.30963 -2.32948 2.53702 -2.4352C2.76441 -2.54091 3.00898 -2.5796 3.27074 -2.55126ZM6.58636 1.27182C6.27627 1.23824 6.00201 1.13726 5.76355 0.968886C5.52912 0.800949 5.35336 0.580313 5.23628 0.306966C5.12367 0.0300296 5.08589 -0.279528 5.12294 -0.621718C5.15955 -0.959883 5.2643 -1.24994 5.43717 -1.49189C5.61451 -1.73743 5.83744 -1.91492 6.10598 -2.02432C6.37494 -2.13775 6.66648 -2.17745 6.9806 -2.14344C7.29471 -2.10943 7.571 -2.00825 7.80946 -1.83987C8.04834 -1.67553 8.22633 -1.45668 8.3434 -1.18334C8.46452 -0.909554 8.50654 -0.601555 8.46949 -0.259364C8.43244 0.082826 8.32324 0.376468 8.14187 0.621573C7.96497 0.863089 7.74001 1.04034 7.46702 1.15333C7.19403 1.26633 6.90048 1.30583 6.58636 1.27182ZM6.63867 0.788727C6.836 0.810094 7.02626 0.783855 7.20946 0.710012C7.39265 0.63617 7.54662 0.512323 7.67138 0.338474C7.80016 0.165062 7.87893 -0.0544922 7.9077 -0.320193C7.93647 -0.585894 7.90853 -0.817018 7.82388 -1.01354C7.73922 -1.21006 7.61713 -1.36175 7.45758 -1.46863C7.29846 -1.57954 7.12023 -1.64568 6.9229 -1.66704C6.72154 -1.68885 6.53129 -1.66261 6.35212 -1.58833C6.17742 -1.51764 6.0297 -1.39516 5.90897 -1.22088C5.78824 -1.0466 5.71349 -0.826591 5.68472 -0.56089C5.65551 -0.291164 5.67922 -0.0584809 5.75582 0.13717C5.83645 0.333257 5.9543 0.486536 6.10939 0.597007C6.26491 0.703451 6.44133 0.767361 6.63867 0.788727ZM9.86237 -1.23269C9.97951 -1.41144 10.1324 -1.54355 10.3209 -1.62904C10.5134 -1.71409 10.7386 -1.74266 10.9963 -1.71476L10.9349 -1.14711L10.7899 -1.16281C10.1737 -1.22952 9.82946 -0.928741 9.7571 -0.260464L9.56226 1.53905L9.01255 1.47953L9.37086 -1.82965L9.92057 -1.77013L9.86237 -1.23269ZM14.4795 0.269179C14.4682 0.373849 14.4501 0.483905 14.4254 0.599344L11.7796 0.312863C11.7644 0.641129 11.8475 0.908766 12.0288 1.11575C12.2145 1.31915 12.4524 1.43654 12.7424 1.46793C12.98 1.49366 13.1832 1.46068 13.352 1.36899C13.5253 1.27371 13.6542 1.13696 13.7387 0.958753L14.3307 1.02285C14.2076 1.33129 14.0023 1.57177 13.7147 1.74428C13.4276 1.91277 13.0867 1.97565 12.692 1.93291C12.3779 1.8989 12.1036 1.79792 11.8692 1.62999C11.6388 1.46249 11.4671 1.24228 11.354 0.969374C11.2414 0.692437 11.2036 0.38288 11.2407 0.0406898C11.2777 -0.301501 11.3787 -0.59402 11.5435 -0.836843C11.7083 -1.07967 11.921 -1.25621 12.1814 -1.36649C12.4464 -1.48036 12.7399 -1.51984 13.0621 -1.48496C13.3762 -1.45095 13.6467 -1.35243 13.8735 -1.18939C14.1003 -1.02635 14.265 -0.817085 14.3678 -0.561585C14.4749 -0.309675 14.5122 -0.0327536 14.4795 0.269179ZM13.9241 0.0929634C13.9467 -0.116377 13.9198 -0.300535 13.8433 -0.459517C13.7673 -0.622525 13.6529 -0.75099 13.5 -0.844922C13.3517 -0.942443 13.1809 -1.00168 12.9876 -1.02261C12.7097 -1.0527 12.4625 -0.989849 12.246 -0.834081C12.0335 -0.677877 11.8962 -0.444302 11.834 -0.133343L13.9241 0.0929634ZM17.6021 -0.480186L17.3909 1.4703C17.3735 1.63133 17.3953 1.74977 17.4564 1.82562C17.5179 1.89745 17.6332 1.94251 17.8023 1.96082L18.207 2.00464L18.1567 2.46963L17.6614 2.41599C17.3553 2.38285 17.1334 2.28754 16.9956 2.13007C16.8578 1.9726 16.8064 1.73284 16.8412 1.41078L17.0524 -0.539707L16.6235 -0.586145L16.6726 -1.03904L17.1015 -0.992603L17.1917 -1.82594L17.7414 -1.76642L17.6512 -0.933082L18.515 -0.839551L18.466 -0.386655L17.6021 -0.480186ZM20.8306 -0.649933C21.0803 -0.622898 21.2999 -0.544129 21.4895 -0.413631C21.6795 -0.287158 21.8194 -0.111135 21.909 0.11444C22.0027 0.340451 22.033 0.606437 21.9999 0.912396L21.7887 2.86288L21.245 2.80402L21.4477 0.932036C21.4834 0.601922 21.4281 0.341372 21.2818 0.150386C21.1358 -0.0446251 20.9199 -0.157603 20.634 -0.188562C20.344 -0.219957 20.1026 -0.154462 19.9099 0.00794814C19.7211 0.170794 19.608 0.425336 19.5705 0.771552L19.3724 2.60126L18.8227 2.54174L19.3065 -1.92687L19.8562 -1.86735L19.6797 -0.236917C19.8067 -0.394226 19.9699 -0.508929 20.1692 -0.581028C20.3725 -0.652691 20.593 -0.675659 20.8306 -0.649933ZM22.6618 1.27121C22.6984 0.933045 22.7989 0.644577 22.9633 0.405779C23.1281 0.162956 23.337 -0.0160535 23.5898 -0.131229C23.8467 -0.245969 24.1221 -0.287415 24.4161 -0.255583C24.7061 -0.224188 24.951 -0.134547 25.1509 0.0133625C25.3509 0.161272 25.4929 0.335503 25.5771 0.536052L25.6425 -0.0678043L26.1983 -0.00763037L25.84 3.30155L25.2842 3.24137L25.3509 2.62543C25.2213 2.80689 25.0407 2.95026 24.8093 3.05554C24.5824 3.15723 24.3259 3.1926 24.04 3.16164C23.746 3.12981 23.4881 3.02856 23.2662 2.85791C23.0443 2.68725 22.879 2.46367 22.7704 2.18717C22.6618 1.91067 22.6256 1.60535 22.6618 1.27121ZM25.464 1.58075C25.4911 1.33115 25.4643 1.1083 25.3836 0.912212C25.303 0.716126 25.1813 0.5604 25.0186 0.445031C24.8604 0.326073 24.6786 0.255481 24.4732 0.233243C24.2678 0.211005 24.0753 0.239035 23.8957 0.31734C23.7161 0.395644 23.566 0.521937 23.4452 0.696221C23.3245 0.870506 23.2506 1.08244 23.2236 1.33204C23.1961 1.58566 23.2225 1.81253 23.3027 2.01265C23.3833 2.20873 23.5027 2.36625 23.661 2.48521C23.8197 2.60014 24.0017 2.66874 24.2071 2.69098C24.4125 2.71322 24.605 2.68517 24.7846 2.60686C24.9686 2.52497 25.121 2.39689 25.2417 2.2226C25.3629 2.04429 25.437 1.83035 25.464 1.58075ZM28.747 0.207226C29.1497 0.25083 29.4626 0.408948 29.6857 0.681555C29.9092 0.950136 29.9961 1.31389 29.9464 1.77282L29.7352 3.72331L29.1916 3.66445L29.3943 1.79246C29.43 1.46235 29.3747 1.2018 29.2283 1.01081C29.0824 0.815803 28.8665 0.702825 28.5805 0.671866C28.2906 0.640471 28.0492 0.705966 27.8564 0.868376C27.6677 1.03122 27.5545 1.28576 27.5171 1.63198L27.3189 3.46169L26.7692 3.40216L27.1275 0.0929878L27.6773 0.152509L27.6263 0.623511C27.7533 0.466202 27.9144 0.351279 28.1097 0.278744C28.309 0.206646 28.5214 0.182806 28.747 0.207226ZM35.3589 0.397736L33.2386 0.16816L33.0895 1.54497C33.1961 1.42617 33.3443 1.33633 33.5343 1.27544C33.7246 1.21052 33.9245 1.18939 34.1339 1.21206C34.4682 1.24826 34.7324 1.34815 34.9265 1.51172C35.1211 1.67127 35.2507 1.86655 35.3154 2.09756C35.3844 2.32498 35.4057 2.56148 35.3791 2.80705C35.3477 3.09691 35.2652 3.35068 35.1317 3.56838C34.9981 3.78607 34.8114 3.94913 34.5715 4.05757C34.3356 4.16643 34.0525 4.20299 33.7223 4.16723C33.2994 4.12145 32.9689 3.9757 32.7307 3.72996C32.4925 3.48423 32.3648 3.17715 32.3476 2.80873L32.8852 2.86694C32.9127 3.10208 33.0041 3.29321 33.1593 3.44035C33.3145 3.58749 33.5209 3.67501 33.7787 3.70292C34.0968 3.73737 34.3467 3.66871 34.5283 3.49694C34.7103 3.32114 34.8183 3.07623 34.8523 2.76222C34.8863 2.44821 34.8319 2.19796 34.6891 2.01143C34.5468 1.82088 34.3185 1.70859 34.0044 1.67458C33.791 1.65147 33.598 1.68353 33.4256 1.77076C33.2577 1.8544 33.1279 1.98086 33.0362 2.15015L32.5167 2.0939L32.7835 -0.369871L35.4112 -0.0853522L35.3589 0.397736ZM39.9304 4.82722L38.4047 2.7192L38.1967 4.6395L37.6471 4.57998L38.1028 0.37103L38.6525 0.430549L38.4413 2.38104L40.3922 0.618922L41.0869 0.694139L38.9498 2.59495L40.6493 4.90505L39.9304 4.82722ZM42.9928 1.75584C43.2787 1.7868 43.5217 1.87622 43.7216 2.02413C43.9255 2.17248 44.0696 2.34693 44.1539 2.54748L44.2192 1.94362L44.775 2.00379L44.4088 5.38544C44.3761 5.68737 44.2827 5.9481 44.1286 6.16764C43.974 6.39121 43.7687 6.55634 43.5127 6.66302C43.2607 6.77015 42.9756 6.80648 42.6575 6.77204C42.2225 6.72494 41.8712 6.58304 41.6035 6.34633C41.3358 6.10962 41.1949 5.8113 41.1809 5.45136L41.7246 5.51023C41.7632 5.71806 41.8706 5.89262 42.0468 6.03389C42.2225 6.17918 42.4433 6.2662 42.7091 6.29498C43.0111 6.32769 43.2671 6.25968 43.4768 6.09097C43.6906 5.92269 43.816 5.66746 43.8531 5.32527L43.9283 4.63082C43.7986 4.81228 43.6201 4.95587 43.3927 5.06158C43.1653 5.1673 42.9087 5.20467 42.6227 5.17372C42.3288 5.14188 42.0688 5.04042 41.8429 4.86933C41.6209 4.69867 41.4557 4.47509 41.3471 4.19859C41.2385 3.92209 41.2023 3.61677 41.2385 3.28264C41.2751 2.94447 41.3756 2.656 41.54 2.4172C41.7048 2.17438 41.9137 1.99537 42.1665 1.88019C42.4234 1.76545 42.6988 1.72401 42.9928 1.75584ZM44.0407 3.59217C44.0678 3.34258 44.041 3.11972 43.9603 2.92364C43.8797 2.72755 43.758 2.57182 43.5953 2.45646C43.4371 2.3375 43.2553 2.26691 43.0499 2.24467C42.8445 2.22243 42.652 2.25046 42.4724 2.32876C42.2928 2.40707 42.1426 2.53336 42.0219 2.70764C41.9012 2.88193 41.8273 3.09386 41.8003 3.34346C41.7728 3.59709 41.7992 3.82396 41.8794 4.02407C41.96 4.22016 42.0794 4.37767 42.2377 4.49663C42.3964 4.61156 42.5784 4.68016 42.7838 4.7024C42.9892 4.72464 43.1817 4.69659 43.3613 4.61829C43.5453 4.53639 43.6977 4.40831 43.8184 4.23403C43.9396 4.05572 44.0137 3.84177 44.0407 3.59217Z" fill="#434141"/>
<path d="M41.0363 53.7777L43.1335 34.4082L27.2833 22.8278L25.2916 41.2225C25.2634 41.4827 25.3007 41.7494 25.4024 42.0237C25.5088 42.2546 25.683 42.4705 25.924 42.6717L41.0363 53.7777ZM43.6368 54.0593L60.7759 46.4454C61.0544 46.3004 61.2708 46.1268 61.4242 45.924C61.5827 45.6779 61.6758 45.4253 61.704 45.1651L63.6957 26.7704L45.7341 34.6898L43.6368 54.0593ZM39.9885 56.1635L24.3774 44.806C23.7646 44.3889 23.2985 43.8344 22.9788 43.142C22.7023 42.4548 22.6066 41.7209 22.691 40.9409L24.7179 22.2211C24.8024 21.4411 25.053 20.7448 25.4702 20.1322C25.9307 19.5248 26.5046 19.0829 27.1926 18.8066L44.8729 11.0538C45.565 10.7341 46.2797 10.6145 47.0167 10.6943C47.7537 10.7741 48.4263 11.0439 49.0339 11.5043L64.645 22.8618C65.2578 23.279 65.7023 23.8311 65.9787 24.5183C66.2985 25.2107 66.4159 25.9469 66.3314 26.7269L64.3045 45.4467C64.22 46.2267 63.9478 46.9207 63.4873 47.5281C63.0701 48.1407 62.5178 48.5849 61.8299 48.8612L44.1496 56.6141C43.4575 56.9337 42.7427 57.0533 42.0057 56.9735C41.2688 56.8937 40.5962 56.6239 39.9885 56.1635ZM54.9017 27.791L62.4254 24.5281L47.4943 13.5737C47.2529 13.3719 47.0025 13.2572 46.7423 13.229C46.482 13.2008 46.2129 13.2593 45.9338 13.4047L39.3047 16.3037L54.9017 27.791ZM44.6731 32.3388L52.1388 29.0045L36.4698 17.575L29.0041 20.9094L44.6731 32.3388Z" fill="#F71D3B" fill-opacity="0.25"/>
</g>
<path d="M65.7578 72.7918L-106.403 54.1509C-108.627 53.9101 -110.625 55.5172 -110.866 57.7406L-114.789 93.9725C-115.029 96.1959 -113.422 98.1935 -111.197 98.4344L60.9629 117.075C63.1871 117.316 65.1852 115.709 65.426 113.486L69.3491 77.2537C69.5898 75.0303 67.9819 73.0327 65.7578 72.7918Z" fill="#F7F7F7"/>
<path d="M33.2561 80.9219L32.6502 86.5177L31.732 86.4183L32.147 82.5858L30.0245 86.2334L29.3882 86.1645L28.0877 82.1462L27.6727 85.9788L26.7545 85.8794L27.3604 80.2836L28.3511 80.3908L29.8412 84.9917L32.2735 80.8155L33.2561 80.9219ZM38.1762 84.7619C38.1582 84.9285 38.1314 85.0773 38.0952 85.2093L34.7043 84.8421C34.6932 85.1994 34.7938 85.4979 35.0066 85.7384C35.2199 85.9789 35.4983 86.1174 35.8416 86.1546C36.3359 86.2081 36.7072 86.0391 36.9558 85.648L37.9464 85.7553C37.7683 86.1489 37.4874 86.4575 37.1045 86.6823C36.7278 86.9022 36.2789 86.984 35.7579 86.9275C35.334 86.8816 34.9626 86.7462 34.6447 86.5219C34.3329 86.2926 34.0986 85.9959 33.9425 85.6313C33.7925 85.2622 33.742 84.8494 33.7914 84.393C33.8408 83.9366 33.9757 83.547 34.1952 83.223C34.4212 82.8947 34.7105 82.6541 35.0636 82.5024C35.4222 82.3514 35.819 82.2991 36.2539 82.3462C36.6728 82.3916 37.0364 82.5231 37.3438 82.7412C37.6518 82.9593 37.8791 83.2446 38.0253 83.597C38.1726 83.9444 38.2227 84.3326 38.1762 84.7619ZM37.2491 84.3683C37.2807 84.0296 37.1893 83.7453 36.9748 83.5158C36.7607 83.2865 36.4793 83.1526 36.13 83.1148C35.8133 83.0805 35.5309 83.1533 35.2834 83.3327C35.0363 83.507 34.8731 83.7633 34.7926 84.1023L37.2491 84.3683ZM38.7642 84.9152C38.8124 84.4698 38.9467 84.0852 39.1662 83.7613C39.3916 83.4379 39.6726 83.1996 40.0096 83.0461C40.3527 82.8878 40.7205 82.8298 41.1122 82.8722C41.4021 82.9036 41.6801 82.9989 41.945 83.1579C42.2166 83.3121 42.4241 83.5031 42.5675 83.7304L42.7994 81.5887L43.7257 81.689L43.0805 87.6471L42.1543 87.5468L42.2266 86.8785C42.0534 87.0772 41.8248 87.2316 41.5409 87.3419C41.263 87.4529 40.9519 87.4899 40.6081 87.4527C40.2215 87.4108 39.8775 87.2759 39.5763 87.0477C39.2812 86.8147 39.0586 86.5136 38.9081 86.1445C38.7642 85.7705 38.7159 85.3605 38.7642 84.9152ZM42.3949 85.3246C42.428 85.0186 42.3924 84.746 42.2879 84.5066C42.189 84.2678 42.044 84.0785 41.8524 83.9381C41.6613 83.7977 41.4477 83.715 41.2111 83.6894C40.975 83.6639 40.7487 83.6989 40.5315 83.795C40.3154 83.8857 40.1305 84.0367 39.9772 84.2482C39.8301 84.4548 39.7396 84.7113 39.7065 85.0172C39.6734 85.3232 39.7063 85.5981 39.8046 85.8424C39.9084 86.0873 40.0559 86.2825 40.2464 86.4279C40.443 86.5688 40.6571 86.6516 40.8877 86.6765C41.1243 86.7022 41.3506 86.6671 41.5673 86.5709C41.7845 86.4748 41.9667 86.3209 42.1144 86.1088C42.2683 85.8918 42.3618 85.6305 42.3949 85.3246ZM45.2978 82.8041C45.1312 82.7861 44.9978 82.7146 44.8973 82.5897C44.7967 82.4648 44.7554 82.3193 44.7735 82.1527C44.7915 81.9861 44.863 81.8528 44.988 81.7523C45.1129 81.6518 45.2585 81.6106 45.4251 81.6286C45.5862 81.646 45.717 81.7172 45.8176 81.8422C45.9181 81.9671 45.9594 82.1126 45.9414 82.2792C45.9233 82.4457 45.8519 82.579 45.7269 82.6795C45.6019 82.78 45.4589 82.8216 45.2978 82.8041ZM45.6852 83.4407L45.2048 87.8771L44.2867 87.7777L44.767 83.3413L45.6852 83.4407ZM50.9099 84.0064L50.4296 88.4428L49.5114 88.3434L49.568 87.8201C49.4033 87.987 49.1968 88.1113 48.9491 88.1929C48.707 88.2701 48.4548 88.2942 48.1916 88.2657C47.8427 88.2279 47.5364 88.1214 47.2727 87.9462C47.0146 87.7717 46.8204 87.5333 46.6901 87.2315C46.5653 86.9303 46.5245 86.5782 46.5681 86.1756L46.8506 83.5669L47.7607 83.6655L47.4931 86.1373C47.4501 86.5343 47.5161 86.851 47.6917 87.0874C47.8678 87.3183 48.1274 87.4523 48.4712 87.4895C48.815 87.5267 49.0971 87.4514 49.3187 87.2636C49.5458 87.0708 49.6811 86.7759 49.7241 86.3788L49.9917 83.907L50.9099 84.0064ZM57.5016 84.6468C57.8505 84.6846 58.1542 84.7908 58.4124 84.9654C58.6756 85.1405 58.8698 85.379 58.9951 85.6802C59.1254 85.9819 59.1687 86.3343 59.1251 86.7369L58.8418 89.3537L57.9316 89.2551L58.2001 86.7753C58.2431 86.3782 58.1763 86.064 58.0006 85.8332C57.8251 85.5968 57.5653 85.4602 57.222 85.423C56.8782 85.3858 56.5928 85.4633 56.3656 85.6561C56.1441 85.8439 56.0121 86.1367 55.9691 86.5337L55.7006 89.0136L54.7905 88.915L55.059 86.4352C55.102 86.0381 55.0351 85.7239 54.8595 85.493C54.6839 85.2566 54.4242 85.1201 54.0809 85.0829C53.737 85.0457 53.4516 85.1232 53.2244 85.316C53.0029 85.5038 52.8709 85.7965 52.8279 86.1936L52.5594 88.6734L51.6412 88.574L52.1216 84.1376L53.0398 84.2371L52.9849 84.7443C53.1546 84.5779 53.3608 84.4566 53.6029 84.3795C53.8445 84.3023 54.0972 84.2782 54.3605 84.3067C54.7149 84.3451 55.0234 84.4544 55.2865 84.6351C55.5491 84.8157 55.7405 85.0564 55.8602 85.357C56.0231 85.1033 56.2555 84.9136 56.5573 84.789C56.8592 84.6588 57.1739 84.6114 57.5016 84.6468Z" fill="#1B1B1B"/>
<path d="M-30.867 93.0889C-30.8077 92.5414 -30.6282 92.0639 -30.3289 91.6565C-30.0241 91.2496 -29.6412 90.9489 -29.1801 90.7545C-28.7129 90.5551 -28.2193 90.4838 -27.6983 90.5402C-27.1022 90.6048 -26.5892 90.8095 -26.1595 91.1549C-25.7238 91.4953 -25.4302 91.9451 -25.2789 92.5047L-26.3824 92.3852C-26.4954 92.0741 -26.6729 91.8324 -26.915 91.6596C-27.157 91.4867 -27.4472 91.382 -27.7854 91.3454C-28.1559 91.3053 -28.4952 91.3525 -28.8031 91.4877C-29.1111 91.6229 -29.365 91.8367 -29.5654 92.1302C-29.7602 92.4242 -29.8799 92.7778 -29.9247 93.191C-29.9694 93.6041 -29.9281 93.9751 -29.8007 94.3041C-29.6678 94.6336 -29.466 94.8998 -29.1946 95.1028C-28.9227 95.3008 -28.6014 95.4196 -28.2309 95.4597C-27.8927 95.4963 -27.5868 95.4561 -27.3134 95.3391C-27.0399 95.2221 -26.8148 95.024 -26.6378 94.7443L-25.5344 94.8638C-25.8019 95.378 -26.1849 95.7546 -26.6835 95.9938C-27.1765 96.2337 -27.7212 96.3213 -28.3172 96.2568C-28.8433 96.1999 -29.3109 96.027 -29.7197 95.7384C-30.1279 95.4442 -30.4374 95.066 -30.648 94.6033C-30.8531 94.1412 -30.9263 93.6364 -30.867 93.0889ZM-23.0724 90.7478L-23.7175 96.706L-24.6357 96.6066L-23.9906 90.6484L-23.0724 90.7478ZM-20.5948 97.1174C-21.0136 97.0721 -21.382 96.937 -21.6999 96.7126C-22.0173 96.4828 -22.254 96.1858 -22.4101 95.8212C-22.5657 95.4515 -22.6187 95.0384 -22.5693 94.582C-22.5205 94.1311 -22.378 93.7418 -22.1414 93.4146C-21.9053 93.0874 -21.6049 92.848 -21.2407 92.6975C-20.8771 92.547 -20.4828 92.4945 -20.0585 92.5404C-19.6346 92.5863 -19.2607 92.722 -18.9372 92.9469C-18.6142 93.1718 -18.372 93.4699 -18.2109 93.8402C-18.0503 94.2104 -17.994 94.6212 -18.0428 95.0721C-18.0916 95.523 -18.2371 95.912 -18.4788 96.2387C-18.7209 96.5653 -19.0291 96.8063 -19.4045 96.9612C-19.7741 97.1111 -20.1709 97.1633 -20.5948 97.1174ZM-20.5085 96.3203C-20.2724 96.3459 -20.0463 96.3133 -19.8297 96.2227C-19.6081 96.1327 -19.4207 95.9819 -19.2674 95.7704C-19.1141 95.5589 -19.02 95.2922 -18.9851 94.9701C-18.9503 94.648 -18.9828 94.3701 -19.0824 94.1368C-19.1818 93.898 -19.3271 93.7112 -19.5187 93.5764C-19.7109 93.4416 -19.9248 93.3614 -20.1609 93.3358C-20.3975 93.3102 -20.6236 93.3427 -20.8396 93.4334C-21.0507 93.5246 -21.2276 93.6765 -21.3698 93.8892C-21.5119 94.0963 -21.6001 94.3611 -21.635 94.6832C-21.6867 95.1607 -21.606 95.5442 -21.3929 95.8335C-21.1741 96.1179 -20.879 96.2802 -20.5085 96.3203ZM-15.9053 93.821L-16.1712 96.2767C-16.1892 96.4433 -16.1646 96.5682 -16.0977 96.6513C-16.0247 96.7299 -15.894 96.7792 -15.7063 96.7995L-15.1425 96.8606L-15.2253 97.6255L-15.9502 97.547C-16.3635 97.5022 -16.6702 97.3713 -16.8692 97.1542C-17.0683 96.9372 -17.1445 96.6112 -17.0974 96.1765L-16.8315 93.7207L-17.3551 93.664L-17.274 92.9153L-16.7505 92.9719L-16.631 91.8689L-15.7048 91.9692L-15.8242 93.0722L-14.7449 93.1891L-14.826 93.9379L-15.9053 93.821ZM-11.5954 93.4568C-11.2571 93.4934 -10.9645 93.5984 -10.7169 93.7719C-10.4643 93.9458 -10.2781 94.1834 -10.1584 94.484C-10.0336 94.7852 -9.99281 95.1373 -10.0364 95.5399L-10.3197 98.1566L-11.2299 98.0581L-10.9614 95.5782C-10.9184 95.1812 -10.9847 94.867 -11.1609 94.6361C-11.3364 94.3997 -11.5957 94.2632 -11.9395 94.226C-12.2833 94.1888 -12.5687 94.2663 -12.7959 94.4591C-13.0174 94.6469 -13.1494 94.9396 -13.1924 95.3367L-13.4609 97.8165L-14.3791 97.7171L-13.734 91.759L-12.8158 91.8584L-13.0363 93.8954C-12.8605 93.7246 -12.6485 93.6009 -12.4013 93.5243C-12.1486 93.4483 -11.8798 93.426 -11.5954 93.4568ZM-4.82898 96.397C-4.84702 96.5635 -4.87433 96.7123 -4.91002 96.8444L-8.30087 96.4772C-8.31255 96.8344 -8.21196 97.1329 -7.99863 97.3734C-7.7858 97.6139 -7.50745 97.7524 -7.16364 97.7897C-6.66981 97.8431 -6.29856 97.6741 -6.04945 97.2831L-5.05877 97.3903C-5.23737 97.7839 -5.5178 98.0926 -5.90068 98.3174C-6.27793 98.5372 -6.72682 98.619 -7.24733 98.5626C-7.67169 98.5167 -8.04257 98.3813 -8.36052 98.157C-8.67285 97.9277 -8.90657 97.631 -9.06266 97.2664C-9.21317 96.8973 -9.26321 96.4845 -9.21379 96.0281C-9.16437 95.5717 -9.03 95.182 -8.81005 94.8581C-8.58453 94.5297 -8.29518 94.2891 -7.94161 94.1375C-7.583 93.9864 -7.18621 93.9342 -6.75128 93.9813C-6.33245 94.0266 -5.9693 94.1581 -5.66137 94.3763C-5.35395 94.5944 -5.12662 94.8797 -4.97991 95.2321C-4.83315 95.5794 -4.7825 95.9677 -4.82898 96.397ZM-5.75606 96.0033C-5.72498 95.6646 -5.81643 95.3803 -6.03045 95.1509C-6.24498 94.9215 -6.52639 94.7877 -6.87524 94.7499C-7.19238 94.7155 -7.47427 94.7884 -7.72185 94.9678C-7.9689 95.1421 -8.13262 95.3983 -8.21262 95.7374L-5.75606 96.0033ZM-2.57433 99.0686C-2.92368 99.0308 -3.2311 98.9349 -3.49663 98.7814C-3.75652 98.6229 -3.95541 98.4278 -4.09323 98.1955C-4.23051 97.9581 -4.29011 97.7042 -4.27164 97.4349L-3.32124 97.5378C-3.32545 97.7272 -3.25402 97.8953 -3.10688 98.0416C-2.95411 98.1828 -2.75391 98.2671 -2.50675 98.2939C-2.24901 98.3218 -2.04545 98.295 -1.89504 98.2135C-1.739 98.1271 -1.65256 98.0061 -1.63573 97.8506C-1.61769 97.684 -1.68488 97.552 -1.83725 97.454C-1.98458 97.3566 -2.22468 97.2411 -2.55753 97.1073C-2.88092 96.9801 -3.14215 96.8622 -3.34225 96.7535C-3.54234 96.6448 -3.71085 96.4936 -3.84722 96.2997C-3.97855 96.1062 -4.02827 95.8646 -3.99689 95.5747C-3.97133 95.3387 -3.8786 95.1314 -3.71774 94.9533C-3.55677 94.7696 -3.3411 94.6356 -3.07116 94.5508C-2.79618 94.4666 -2.48905 94.4428 -2.15077 94.4794C-1.64637 94.534 -1.25458 94.7068 -0.976415 94.9976C-0.692617 95.2834 -0.563487 95.6477 -0.589517 96.0903L-1.5077 95.9909C-1.50229 95.7904 -1.56572 95.6236 -1.69789 95.4897C-1.83006 95.3557 -2.02002 95.2756 -2.26668 95.2489C-2.50831 95.2227 -2.69851 95.2485 -2.83724 95.3256C-2.97597 95.4027 -3.05348 95.5165 -3.06978 95.667C-3.08258 95.7852 -3.05053 95.889 -2.97316 95.9788C-2.89631 96.0686 -2.79857 96.1444 -2.67997 96.2061C-2.56127 96.2622 -2.38464 96.3384 -2.15059 96.4345C-1.83773 96.5554 -1.58456 96.6724 -1.39004 96.7856C-1.18994 96.8944 -1.02418 97.0427 -0.892245 97.2306C-0.760816 97.4184 -0.707522 97.6553 -0.732771 97.9402C-0.760069 98.1923 -0.854451 98.4102 -1.01541 98.5939C-1.17688 98.7775 -1.39205 98.9115 -1.662 98.9963C-1.9269 99.0817 -2.23102 99.1058 -2.57433 99.0686ZM1.25138 98.2935L0.0361929 100.41L-0.55982 100.346L0.252651 98.1854L1.25138 98.2935ZM8.36627 96.2047C8.33549 96.489 8.23894 96.7504 8.07774 96.988C7.91603 97.2256 7.67869 97.4091 7.36627 97.5382C7.05394 97.6617 6.66694 97.6987 6.20532 97.6488L5.19049 97.5389L4.94464 99.8094L4.02645 99.71L4.63235 94.1142L6.56537 94.3235C6.99477 94.37 7.34909 94.4842 7.62829 94.6667C7.91313 94.8441 8.11461 95.0671 8.23229 95.3349C8.355 95.6032 8.4 95.8932 8.36627 96.2047ZM6.2864 96.9C6.63525 96.9377 6.90395 96.8879 7.09295 96.7511C7.28204 96.6086 7.39253 96.3925 7.42391 96.1027C7.49017 95.4907 7.17697 95.1473 6.4843 95.0723L5.46946 94.9624L5.27156 96.7901L6.2864 96.9ZM8.75254 97.9572C8.80076 97.5118 8.93458 97.1272 9.15452 96.8032C9.37951 96.4799 9.66097 96.2415 9.99793 96.0881C10.341 95.9298 10.7059 95.8715 11.0925 95.9134C11.4413 95.9511 11.7373 96.054 11.98 96.2212C12.2287 96.3841 12.4198 96.5759 12.5533 96.7965L12.623 96.1524L13.5493 96.2527L13.0689 100.689L12.1426 100.589L12.2141 99.9286C12.0359 100.121 11.8046 100.273 11.5212 100.383C11.2378 100.493 10.9242 100.53 10.5803 100.493C10.1993 100.452 9.86036 100.317 9.56465 100.09C9.26954 99.8567 9.04648 99.5555 8.89647 99.1865C8.7521 98.8124 8.70432 98.4025 8.75254 97.9572ZM12.3833 98.3666C12.4164 98.0606 12.3807 97.7879 12.2763 97.5485C12.1774 97.3097 12.0318 97.1204 11.8408 96.9801C11.6497 96.8397 11.4356 96.757 11.1995 96.7314C10.9634 96.7058 10.7365 96.7408 10.5199 96.837C10.3038 96.9277 10.1188 97.0787 9.96557 97.2902C9.81842 97.4968 9.72801 97.7532 9.69488 98.0592C9.66175 98.3652 9.69463 98.6401 9.79295 98.8844C9.89681 99.1293 10.0443 99.3245 10.2348 99.4699C10.4314 99.6108 10.645 99.6935 10.876 99.7185C11.1121 99.7441 11.339 99.7091 11.5557 99.6129C11.7724 99.5167 11.9551 99.3629 12.1028 99.1508C12.2567 98.9338 12.3501 98.6725 12.3833 98.3666ZM15.2862 95.8461C15.1195 95.8281 14.9862 95.7566 14.8857 95.6317C14.7851 95.5067 14.7438 95.3613 14.7618 95.1947C14.7799 95.0281 14.8514 94.8948 14.9763 94.7943C15.1013 94.6938 15.2468 94.6525 15.4134 94.6706C15.5745 94.688 15.7054 94.7592 15.8059 94.8841C15.9065 95.0091 15.9478 95.1546 15.9297 95.3211C15.9117 95.4877 15.8402 95.621 15.7153 95.7215C15.5903 95.822 15.4473 95.8635 15.2862 95.8461ZM15.6736 96.4827L15.1932 100.919L14.275 100.82L14.7554 96.3833L15.6736 96.4827ZM19.1261 96.7832C19.475 96.821 19.7787 96.9272 20.0369 97.1018C20.3001 97.2769 20.4943 97.5153 20.6196 97.8165C20.7443 98.1177 20.7851 98.4698 20.7415 98.8724L20.4582 101.489L19.5481 101.391L19.8166 98.9108C19.8596 98.5137 19.7928 98.1995 19.6171 97.9687C19.4415 97.7323 19.1818 97.5957 18.8385 97.5585C18.4947 97.5213 18.2092 97.5988 17.9821 97.7916C17.7606 97.9794 17.6285 98.2722 17.5855 98.6692L17.317 101.149L16.3988 101.05L16.8792 96.6133L17.7974 96.7127L17.7425 97.2199C17.9123 97.0535 18.1184 96.9322 18.3605 96.8551C18.6077 96.7785 18.8629 96.7547 19.1261 96.7832ZM23.0996 98.0443L22.8337 100.5C22.8157 100.667 22.8403 100.791 22.9072 100.875C22.9802 100.953 23.1108 101.003 23.2986 101.023L23.8624 101.084L23.7796 101.849L23.0547 101.77C22.6414 101.726 22.3352 101.595 22.1357 101.378C21.9366 101.161 21.8604 100.835 21.9075 100.4L22.1734 97.9441L21.6498 97.8874L21.7309 97.1386L22.2544 97.1953L22.3739 96.0922L23.3001 96.1925L23.1807 97.2956L24.2599 97.4124L24.1789 98.1612L23.0996 98.0443ZM25.6369 96.9668C25.4708 96.9489 25.337 96.8773 25.2364 96.7524C25.1359 96.6275 25.0946 96.482 25.1126 96.3154C25.1306 96.1489 25.2021 96.0156 25.3271 95.9151C25.4521 95.8145 25.5981 95.7733 25.7642 95.7913C25.9253 95.8088 26.0561 95.88 26.1567 96.0049C26.2572 96.1298 26.2985 96.2753 26.2805 96.4419C26.2625 96.6085 26.191 96.7417 26.066 96.8422C25.9411 96.9428 25.798 96.9843 25.6369 96.9668ZM26.0243 97.6035L25.544 102.04L24.6258 101.94L25.1061 97.504L26.0243 97.6035ZM29.4769 97.904C29.8258 97.9417 30.1295 98.0479 30.3877 98.2225C30.6514 98.3977 30.8455 98.6361 30.9703 98.9373C31.0951 99.2385 31.1359 99.5906 31.0923 99.9932L30.809 102.61L29.8988 102.511L30.1673 100.032C30.2103 99.6345 30.144 99.3203 29.9678 99.0894C29.7923 98.853 29.533 98.7165 29.1892 98.6793C28.8454 98.6421 28.56 98.7196 28.3328 98.9124C28.1113 99.1002 27.9793 99.3929 27.9363 99.7899L27.6678 102.27L26.7496 102.17L27.23 97.734L28.1481 97.8334L28.0932 98.3407C28.2635 98.1743 28.4692 98.053 28.7113 97.9758C28.9584 97.8993 29.2136 97.8755 29.4769 97.904ZM34.2566 98.4215C34.5999 98.4587 34.8959 98.5615 35.1441 98.7294C35.3978 98.8928 35.589 99.0846 35.7174 99.3047L35.7871 98.6605L36.7134 98.7608L36.2252 103.27C36.181 103.678 36.0557 104.031 35.8498 104.329C35.6427 104.632 35.3657 104.857 35.0187 105.004C34.6768 105.152 34.2803 105.201 33.8293 105.153C33.2277 105.088 32.7438 104.891 32.3774 104.564C32.01 104.241 31.8257 103.836 31.8246 103.347L32.7348 103.446C32.7792 103.684 32.9072 103.885 33.1176 104.049C33.3325 104.219 33.5985 104.321 33.9156 104.356C34.2861 104.396 34.5963 104.315 34.8462 104.114C35.1012 103.914 35.2525 103.599 35.2989 103.169L35.3791 102.429C35.2004 102.621 34.9693 102.775 34.6853 102.891C34.4069 103.002 34.0989 103.039 33.7606 103.003C33.374 102.961 33.03 102.826 32.7288 102.598C32.4332 102.365 32.2106 102.064 32.0606 101.695C31.9162 101.321 31.8684 100.911 31.9167 100.465C31.9649 100.02 32.0987 99.6353 32.3187 99.3114C32.5436 98.988 32.8246 98.7496 33.1621 98.5963C33.5052 98.4379 33.87 98.3796 34.2566 98.4215ZM35.5474 100.875C35.5805 100.569 35.5449 100.296 35.4404 100.057C35.341 99.8178 35.1959 99.6285 35.0049 99.4882C34.8133 99.3478 34.5997 99.2651 34.3636 99.2395C34.127 99.2139 33.9007 99.249 33.684 99.3452C33.4674 99.4358 33.283 99.5868 33.1297 99.7983C32.982 100.005 32.8921 100.261 32.859 100.567C32.8259 100.873 32.8582 101.148 32.9571 101.393C33.0609 101.637 33.2079 101.833 33.3989 101.978C33.5955 102.119 33.8091 102.202 34.0402 102.227C34.2763 102.252 34.5026 102.217 34.7198 102.121C34.9365 102.025 35.1187 101.871 35.2669 101.659C35.4208 101.442 35.5143 101.181 35.5474 100.875ZM39.0422 103.575C38.6928 103.537 38.3854 103.441 38.1199 103.287C37.86 103.129 37.6611 102.934 37.5233 102.702C37.386 102.464 37.3264 102.21 37.3448 101.941L38.2953 102.044C38.291 102.233 38.3625 102.401 38.5096 102.548C38.6624 102.689 38.8626 102.773 39.1097 102.8C39.3675 102.828 39.571 102.801 39.7214 102.72C39.8775 102.633 39.9639 102.512 39.9808 102.357C39.9988 102.19 39.9316 102.058 39.7792 101.96C39.6319 101.863 39.3918 101.747 39.059 101.613C38.7356 101.486 38.4743 101.368 38.2743 101.26C38.0742 101.151 37.9056 101 37.7693 100.806C37.6379 100.612 37.5882 100.371 37.6196 100.081C37.6452 99.8448 37.7379 99.6375 37.8987 99.4594C38.0597 99.2757 38.2754 99.1417 38.5453 99.0569C38.8203 98.9727 39.1274 98.9489 39.4657 98.9855C39.9701 99.0401 40.3619 99.2129 40.6401 99.5037C40.9239 99.7895 41.053 100.154 41.027 100.596L40.1088 100.497C40.1142 100.296 40.0508 100.13 39.9186 99.9958C39.7864 99.8618 39.5965 99.7817 39.3498 99.755C39.1082 99.7288 38.918 99.7546 38.7792 99.8317C38.6405 99.9088 38.563 100.023 38.5467 100.173C38.5339 100.291 38.566 100.395 38.6433 100.485C38.7202 100.575 38.8179 100.65 38.9365 100.712C39.0552 100.768 39.2318 100.844 39.4659 100.941C39.7788 101.062 40.0319 101.179 40.2265 101.292C40.4266 101.4 40.5923 101.549 40.7242 101.737C40.8557 101.924 40.909 102.161 40.8837 102.446C40.8564 102.698 40.762 102.916 40.6011 103.1C40.4396 103.284 40.2244 103.418 39.9545 103.502C39.6896 103.588 39.3855 103.612 39.0422 103.575ZM48.1531 102.134C48.1351 102.3 48.1078 102.449 48.0721 102.581L44.6812 102.214C44.6695 102.571 44.7701 102.87 44.9835 103.11C45.1963 103.351 45.4746 103.489 45.8185 103.526C46.3123 103.58 46.6835 103.411 46.9327 103.02L47.9233 103.127C47.7447 103.521 47.4643 103.829 47.0814 104.054C46.7042 104.274 46.2553 104.356 45.7348 104.299C45.3104 104.253 44.9395 104.118 44.6216 103.894C44.3092 103.664 44.0755 103.368 43.9194 103.003C43.7689 102.634 43.7189 102.221 43.7683 101.765C43.8177 101.308 43.9521 100.919 44.172 100.595C44.3976 100.266 44.6869 100.026 45.0405 99.8742C45.3991 99.7232 45.7959 99.6709 46.2308 99.718C46.6496 99.7634 47.0128 99.8948 47.3207 100.113C47.6281 100.331 47.8555 100.616 48.0022 100.969C48.149 101.316 48.1996 101.704 48.1531 102.134ZM47.226 101.74C47.2571 101.401 47.1657 101.117 46.9516 100.888C46.7371 100.658 46.4557 100.524 46.1069 100.487C45.7897 100.452 45.5078 100.525 45.2603 100.705C45.0132 100.879 44.8495 101.135 44.7695 101.474L47.226 101.74ZM50.2753 100.987L50.0094 103.443C49.9913 103.609 50.0155 103.734 50.0829 103.817C50.1559 103.896 50.286 103.945 50.4743 103.965L51.0381 104.026L50.9553 104.791L50.2304 104.713C49.8166 104.668 49.5104 104.537 49.3113 104.32C49.1118 104.103 49.036 103.777 49.0831 103.342L49.349 100.887L48.8255 100.83L48.9066 100.081L49.4301 100.138L49.5495 99.0347L50.4758 99.135L50.3563 100.238L51.4356 100.355L51.3545 101.104L50.2753 100.987ZM51.736 102.628C51.7854 102.171 51.9198 101.781 52.1398 101.458C52.3653 101.129 52.6521 100.888 53.0001 100.736C53.3477 100.584 53.7339 100.53 54.1583 100.576C54.6949 100.634 55.1239 100.811 55.4454 101.107C55.7725 101.397 55.9718 101.785 56.0445 102.271L55.0538 102.164C54.9971 101.935 54.8869 101.749 54.723 101.607C54.5592 101.464 54.3429 101.378 54.0746 101.349C53.6985 101.309 53.3834 101.41 53.1289 101.654C52.8799 101.894 52.7301 102.252 52.6784 102.73C52.6267 103.207 52.696 103.592 52.8874 103.885C53.0839 104.177 53.3699 104.344 53.7459 104.385C54.2775 104.442 54.6541 104.247 54.8768 103.799L55.8675 103.906C55.6898 104.343 55.4093 104.676 55.0258 104.906C54.6429 105.131 54.1882 105.215 53.6622 105.158C53.2378 105.112 52.872 104.977 52.5651 104.754C52.2583 104.525 52.0296 104.229 51.8791 103.865C51.7341 103.496 51.6866 103.084 51.736 102.628ZM56.9954 105.502C56.8288 105.484 56.6954 105.413 56.5949 105.288C56.4943 105.163 56.453 105.017 56.4711 104.851C56.4891 104.684 56.5606 104.551 56.6855 104.451C56.8105 104.35 56.9561 104.309 57.1227 104.327C57.2838 104.344 57.4146 104.415 57.5151 104.54C57.6157 104.665 57.657 104.811 57.6389 104.977C57.6209 105.144 57.5494 105.277 57.4245 105.378C57.2995 105.478 57.1565 105.52 56.9954 105.502Z" fill="#1B1B1B"/>
<path d="M50.6742 136.836L-105.378 119.939C-112.05 119.217 -118.044 124.038 -118.767 130.708C-119.489 137.378 -114.665 143.371 -107.993 144.094L48.0588 160.99C54.7312 161.713 60.7257 156.891 61.448 150.221C62.1702 143.551 57.3466 137.558 50.6742 136.836Z" fill="#F71D3B"/>
<path d="M-55.4206 140.678C-55.8128 140.636 -56.1599 140.53 -56.462 140.362C-56.7591 140.194 -56.9848 139.974 -57.1402 139.702C-57.2957 139.43 -57.357 139.122 -57.3254 138.778L-56.1172 138.908C-56.1261 139.141 -56.0653 139.332 -55.9349 139.482C-55.7989 139.633 -55.6023 139.722 -55.3445 139.75C-55.0813 139.778 -54.8682 139.739 -54.7043 139.632C-54.5399 139.519 -54.4468 139.361 -54.4247 139.157C-54.4067 138.99 -54.4427 138.848 -54.5333 138.73C-54.6239 138.611 -54.7437 138.514 -54.8929 138.438C-55.0364 138.357 -55.2383 138.265 -55.4985 138.161C-55.8518 138.014 -56.1385 137.877 -56.3585 137.75C-56.5724 137.618 -56.7511 137.439 -56.895 137.211C-57.0328 136.979 -57.0826 136.686 -57.0442 136.332C-57.0082 135.999 -56.8938 135.718 -56.7004 135.489C-56.507 135.26 -56.2531 135.098 -55.9387 135.001C-55.6236 134.9 -55.2725 134.87 -54.8859 134.912C-54.306 134.974 -53.8517 135.168 -53.5226 135.491C-53.1879 135.81 -53.0289 136.223 -53.0458 136.732L-54.2862 136.598C-54.2758 136.403 -54.3422 136.236 -54.4844 136.096C-54.621 135.95 -54.8154 135.864 -55.0676 135.837C-55.2876 135.813 -55.4709 135.85 -55.6175 135.948C-55.7585 136.047 -55.8407 136.204 -55.8639 136.419C-55.8802 136.569 -55.8455 136.7 -55.7599 136.813C-55.6682 136.92 -55.5536 137.014 -55.4156 137.094C-55.2715 137.17 -55.0696 137.262 -54.81 137.372C-54.4567 137.519 -54.1703 137.658 -53.9509 137.791C-53.7314 137.923 -53.5505 138.105 -53.4072 138.338C-53.2638 138.571 -53.2113 138.862 -53.249 139.211C-53.2816 139.511 -53.3898 139.782 -53.5733 140.023C-53.7567 140.264 -54.0076 140.446 -54.325 140.569C-54.6418 140.687 -55.0074 140.723 -55.4206 140.678ZM-52.4943 138.665C-52.4454 138.214 -52.3135 137.824 -52.0986 137.494C-51.8781 137.165 -51.6048 136.923 -51.2785 136.769C-50.9465 136.615 -50.59 136.558 -50.2089 136.599C-49.8762 136.635 -49.5935 136.734 -49.3609 136.895C-49.1232 137.056 -48.9402 137.247 -48.8117 137.467L-48.7428 136.831L-47.6072 136.954L-48.0902 141.415L-49.2258 141.292L-49.1552 140.64C-49.3229 140.833 -49.5431 140.986 -49.8159 141.098C-50.0827 141.205 -50.3829 141.24 -50.7157 141.204C-51.0917 141.163 -51.4245 141.029 -51.7152 140.802C-52.0004 140.576 -52.2151 140.278 -52.3601 139.91C-52.4989 139.536 -52.5437 139.122 -52.4943 138.665ZM-48.9843 139.062C-48.9547 138.788 -48.9833 138.549 -49.0696 138.344C-49.1553 138.133 -49.284 137.968 -49.4557 137.846C-49.6268 137.719 -49.8168 137.644 -50.0262 137.621C-50.2356 137.598 -50.4344 137.628 -50.6227 137.711C-50.8109 137.794 -50.9722 137.928 -51.1064 138.115C-51.2346 138.297 -51.3135 138.522 -51.3425 138.79C-51.3715 139.058 -51.3433 139.301 -51.2581 139.516C-51.1669 139.727 -51.0385 139.896 -50.8729 140.022C-50.7018 140.149 -50.5143 140.224 -50.3104 140.246C-50.101 140.268 -49.8997 140.239 -49.7059 140.156C-49.5116 140.069 -49.3503 139.934 -49.2221 139.753C-49.0934 139.566 -49.014 139.335 -48.9843 139.062ZM-45.0157 140.697L-43.5176 137.397L-42.3175 137.527L-44.4516 141.809L-45.8209 141.661L-46.981 137.022L-45.7728 137.153L-45.0157 140.697ZM-37.7673 140.178C-37.7848 140.339 -37.811 140.483 -37.8466 140.61L-41.1086 140.256C-41.1168 140.581 -41.0314 140.846 -40.8523 141.05C-40.6732 141.254 -40.4389 141.372 -40.149 141.403C-39.7302 141.448 -39.4127 141.301 -39.1966 140.96L-37.9804 141.092C-38.1557 141.507 -38.4412 141.835 -38.8364 142.075C-39.231 142.309 -39.6944 142.397 -40.226 142.34C-40.6554 142.293 -41.0318 142.157 -41.3553 141.932C-41.6726 141.702 -41.909 141.402 -42.0646 141.033C-42.2146 140.664 -42.2651 140.251 -42.2157 139.794C-42.1658 139.333 -42.0277 138.938 -41.8022 138.609C-41.5767 138.281 -41.2843 138.041 -40.9257 137.89C-40.5671 137.738 -40.1678 137.686 -39.7273 137.734C-39.3029 137.78 -38.9342 137.912 -38.6213 138.131C-38.3028 138.35 -38.0707 138.639 -37.9246 138.996C-37.7728 139.349 -37.7203 139.744 -37.7673 140.178ZM-38.9003 139.73C-38.8745 139.439 -38.9542 139.197 -39.1395 139.003C-39.3242 138.804 -39.5643 138.689 -39.8598 138.657C-40.1391 138.626 -40.3846 138.687 -40.5964 138.838C-40.8022 138.984 -40.9433 139.205 -41.0186 139.501L-38.9003 139.73ZM-35.3258 140.54C-35.2758 140.079 -35.1381 139.687 -34.9131 139.363C-34.6871 139.035 -34.3977 138.794 -34.0447 138.643C-33.6905 138.486 -33.299 138.43 -32.8696 138.477C-32.3163 138.537 -31.8749 138.725 -31.5457 139.044C-31.2099 139.357 -31.0076 139.77 -30.9383 140.282L-32.1545 140.151C-32.198 139.951 -32.2914 139.788 -32.4359 139.664C-32.5737 139.535 -32.7558 139.458 -32.9814 139.434C-33.3035 139.399 -33.5711 139.49 -33.7849 139.705C-33.9977 139.916 -34.1275 140.236 -34.174 140.665C-34.2199 141.089 -34.1616 141.43 -33.9993 141.686C-33.8361 141.937 -33.5938 142.08 -33.2717 142.115C-32.8151 142.165 -32.495 141.993 -32.3114 141.6L-31.0952 141.732C-31.2708 142.201 -31.5566 142.559 -31.9528 142.804C-32.3485 143.049 -32.8205 143.141 -33.3682 143.082C-33.7976 143.036 -34.1685 142.9 -34.4814 142.677C-34.7933 142.447 -35.0245 142.151 -35.1755 141.787C-35.3255 141.418 -35.3757 141.002 -35.3258 140.54ZM-27.4293 139.074C-27.091 139.111 -26.7981 139.218 -26.5516 139.397C-26.304 139.57 -26.1237 139.81 -26.0101 140.115C-25.8904 140.416 -25.8526 140.768 -25.8962 141.17L-26.1795 143.787L-27.3071 143.665L-27.0403 141.201C-27.002 140.847 -27.0612 140.566 -27.2181 140.359C-27.3743 140.147 -27.6055 140.024 -27.9116 139.991C-28.2227 139.957 -28.4803 140.027 -28.6839 140.201C-28.8815 140.369 -28.9994 140.631 -29.0378 140.985L-29.3046 143.449L-30.4322 143.327L-29.787 137.369L-28.6594 137.491L-28.8817 139.544C-28.7158 139.366 -28.5062 139.237 -28.253 139.156C-27.9992 139.069 -27.7243 139.042 -27.4293 139.074ZM-25.1535 141.626C-25.1047 141.175 -24.9727 140.784 -24.7578 140.455C-24.5378 140.126 -24.2641 139.883 -23.9377 139.729C-23.6063 139.575 -23.2497 139.518 -22.8682 139.56C-22.5354 139.596 -22.2527 139.694 -22.0201 139.855C-21.7824 140.017 -21.5994 140.208 -21.4709 140.428L-21.4021 139.792L-20.2664 139.915L-20.7494 144.375L-21.885 144.252L-21.8144 143.6C-21.9821 143.794 -22.2023 143.947 -22.4752 144.058C-22.7424 144.165 -23.0421 144.2 -23.3749 144.164C-23.7509 144.124 -24.0843 143.99 -24.3744 143.763C-24.6596 143.536 -24.8749 143.239 -25.0193 142.87C-25.1582 142.497 -25.2029 142.082 -25.1535 141.626ZM-21.6436 142.022C-21.6139 141.748 -21.6425 141.509 -21.7288 141.304C-21.815 141.094 -21.9437 140.928 -22.1149 140.806C-22.286 140.679 -22.476 140.604 -22.6854 140.581C-22.8948 140.559 -23.0937 140.589 -23.2819 140.672C-23.4702 140.755 -23.6314 140.889 -23.7657 141.075C-23.8943 141.257 -23.9727 141.482 -24.0017 141.75C-24.0308 142.019 -24.003 142.261 -23.9173 142.476C-23.8261 142.687 -23.6977 142.856 -23.5321 142.982C-23.3615 143.109 -23.174 143.184 -22.9696 143.206C-22.7602 143.229 -22.5589 143.199 -22.3651 143.117C-22.1713 143.029 -22.01 142.895 -21.8814 142.713C-21.7526 142.526 -21.6732 142.296 -21.6436 142.022ZM-16.6859 140.237C-16.1543 140.295 -15.7427 140.51 -15.4521 140.884C-15.1604 141.252 -15.0474 141.737 -15.1125 142.338L-15.3958 144.955L-16.5234 144.833L-16.2566 142.369C-16.2183 142.015 -16.2775 141.734 -16.4344 141.527C-16.5906 141.315 -16.8218 141.192 -17.1279 141.159C-17.439 141.125 -17.6966 141.195 -17.9003 141.368C-18.0978 141.537 -18.2157 141.798 -18.2541 142.153L-18.5209 144.616L-19.6485 144.494L-19.1655 140.034L-18.0379 140.156L-18.098 140.711C-17.9266 140.535 -17.7195 140.405 -17.4774 140.323C-17.2286 140.235 -16.9647 140.207 -16.6859 140.237ZM-12.085 140.727C-11.7517 140.763 -11.4665 140.862 -11.2289 141.024C-10.9901 141.18 -10.8101 141.37 -10.6878 141.595L-10.6189 140.959L-9.48324 141.082L-9.9697 145.575C-10.0144 145.988 -10.1373 146.347 -10.3388 146.651C-10.5404 146.961 -10.818 147.191 -11.1716 147.343C-11.5252 147.5 -11.9384 147.553 -12.4111 147.502C-13.0444 147.433 -13.5494 147.229 -13.9257 146.89C-14.2964 146.551 -14.4808 146.124 -14.4795 145.608L-13.36 145.729C-13.3226 145.939 -13.2142 146.114 -13.0337 146.253C-12.8482 146.398 -12.6158 146.486 -12.3369 146.516C-12.0092 146.552 -11.7327 146.481 -11.5073 146.305C-11.282 146.133 -11.1483 145.849 -11.1054 145.452L-11.0304 144.76C-11.198 144.953 -11.4183 145.106 -11.6911 145.218C-11.9584 145.33 -12.2559 145.368 -12.5836 145.333C-12.9592 145.292 -13.2925 145.158 -13.5832 144.931C-13.8734 144.704 -14.0912 144.406 -14.2362 144.038C-14.375 143.664 -14.4197 143.25 -14.3703 142.793C-14.3215 142.342 -14.1896 141.952 -13.9746 141.622C-13.7541 141.293 -13.4809 141.051 -13.1545 140.896C-12.8226 140.743 -12.466 140.686 -12.085 140.727ZM-10.8604 143.19C-10.8307 142.916 -10.8588 142.677 -10.9456 142.472C-11.0313 142.261 -11.1601 142.096 -11.3317 141.974C-11.5024 141.847 -11.6928 141.772 -11.9023 141.749C-12.1117 141.726 -12.3105 141.756 -12.4987 141.839C-12.687 141.922 -12.8482 142.056 -12.9825 142.243C-13.1106 142.425 -13.1895 142.65 -13.2185 142.918C-13.2476 143.186 -13.2193 143.428 -13.1342 143.644C-13.0429 143.855 -12.9145 144.024 -12.7489 144.15C-12.5778 144.277 -12.3903 144.352 -12.1865 144.374C-11.977 144.396 -11.7752 144.367 -11.5819 144.284C-11.3876 144.197 -11.2263 144.062 -11.0982 143.881C-10.9689 143.694 -10.89 143.463 -10.8604 143.19ZM-4.46488 143.784C-4.48232 143.945 -4.50858 144.089 -4.54417 144.216L-7.80616 143.862C-7.81385 144.187 -7.72839 144.452 -7.54983 144.656C-7.37077 144.86 -7.13649 144.978 -6.84653 145.009C-6.42771 145.054 -6.11025 144.907 -5.8941 144.566L-4.6779 144.698C-4.85324 145.113 -5.13826 145.441 -5.53397 145.681C-5.92857 145.915 -6.39191 146.003 -6.9235 145.946C-7.35289 145.899 -7.72931 145.763 -8.0528 145.538C-8.37015 145.308 -8.60658 145.008 -8.76213 144.639C-8.91213 144.27 -8.96267 143.857 -8.91325 143.4C-8.86329 142.939 -8.72524 142.543 -8.49971 142.215C-8.27369 141.887 -7.98182 141.646 -7.62322 141.495C-7.26461 141.344 -6.86479 141.292 -6.42483 141.34C-6.00047 141.386 -5.63178 141.518 -5.31882 141.737C-5.00032 141.956 -4.76773 142.244 -4.62212 142.602C-4.46986 142.955 -4.41781 143.349 -4.46488 143.784ZM-5.59788 143.336C-5.57153 143.045 -5.65123 142.803 -5.83702 142.609C-6.02172 142.41 -6.26181 142.294 -6.5573 142.262C-6.83618 142.232 -7.08209 142.293 -7.29398 142.443C-7.49978 142.59 -7.64034 142.811 -7.71616 143.106L-5.59788 143.336ZM-2.19411 146.458C-2.55907 146.418 -2.87982 146.318 -3.15582 146.158C-3.43123 145.992 -3.64233 145.788 -3.79008 145.544C-3.93179 145.3 -3.99638 145.041 -3.98285 144.765L-2.8472 144.888C-2.84413 145.062 -2.77649 145.213 -2.64371 145.342C-2.50541 145.471 -2.32626 145.547 -2.10628 145.571C-1.89133 145.594 -1.72007 145.57 -1.59296 145.496C-1.45981 145.424 -1.38652 145.321 -1.37197 145.186C-1.35628 145.041 -1.41967 144.926 -1.56261 144.84C-1.69947 144.749 -1.92433 144.643 -2.23719 144.522C-2.56121 144.406 -2.82607 144.293 -3.0317 144.184C-3.23179 144.075 -3.3998 143.924 -3.53667 143.73C-3.6675 143.537 -3.71713 143.289 -3.6846 142.989C-3.65785 142.742 -3.56347 142.524 -3.40196 142.335C-3.23491 142.147 -3.0131 142.008 -2.73753 141.919C-2.45592 141.829 -2.13542 141.804 -1.776 141.843C-1.24441 141.901 -0.834602 142.081 -0.547009 142.384C-0.258366 142.681 -0.122825 143.057 -0.139432 143.511L-1.2187 143.394C-1.21563 143.216 -1.27554 143.068 -1.39889 142.951C-1.51615 142.83 -1.68449 142.758 -1.90498 142.734C-2.10885 142.712 -2.27151 142.732 -2.39239 142.795C-2.50773 142.858 -2.57293 142.957 -2.58748 143.091C-2.60377 143.242 -2.54074 143.365 -2.39944 143.462C-2.25705 143.553 -2.03192 143.657 -1.72401 143.771C-1.41055 143.887 -1.15375 143.999 -0.953655 144.107C-0.75356 144.216 -0.587839 144.37 -0.457608 144.568C-0.320736 144.762 -0.265746 145.007 -0.292698 145.303C-0.320595 145.561 -0.418089 145.784 -0.585134 145.972C-0.746641 146.161 -0.96795 146.3 -1.24957 146.389C-1.52454 146.473 -1.83973 146.496 -2.19411 146.458Z" fill="white"/>
</g>
<defs>
<filter id="filter0_d_5338_18203" x="-141.6" y="-243.6" width="263.206" height="431.421" filterUnits="userSpaceOnUse" color-interpolation-filters="sRGB">
<feFlood flood-opacity="0" result="BackgroundImageFix"/>
<feColorMatrix in="SourceAlpha" type="matrix" values="0 0 0 0 0 0 0 0 0 0 0 0 0 0 0 0 0 0 127 0" result="hardAlpha"/>
<feOffset dy="4"/>
<feGaussianBlur stdDeviation="6.3"/>
<feComposite in2="hardAlpha" operator="out"/>
<feColorMatrix type="matrix" values="0 0 0 0 0 0 0 0 0 0 0 0 0 0 0 0 0 0 0.03 0"/>
<feBlend mode="normal" in2="BackgroundImageFix" result="effect1_dropShadow_5338_18203"/>
<feBlend mode="normal" in="SourceGraphic" in2="effect1_dropShadow_5338_18203" result="shape"/>
</filter>
<clipPath id="clip0_5338_18203">
<rect width="197.471" height="387.214" fill="white" transform="translate(-87.3174 -235) rotate(6.17972)"/>
</clipPath>
</defs>
</svg>
