<svg width="155" height="47" viewBox="0 0 155 47" fill="none" xmlns="http://www.w3.org/2000/svg">
<path d="M6.1189 39.7428C5.61197 39.8147 5.13004 39.778 4.67312 39.6327C4.2162 39.4874 3.8295 39.2675 3.51302 38.9731C3.21014 38.6605 3.02949 38.2983 2.97109 37.8864C2.92392 37.5537 2.93237 37.0435 2.99644 36.3557C3.06052 35.6679 3.15072 34.8794 3.26704 33.9902C3.39921 33.0989 3.53368 32.1668 3.67046 31.1939C3.82083 30.203 3.94969 29.2313 4.05703 28.2788C4.17797 27.3082 4.26148 26.4156 4.30759 25.6011C4.35369 24.7865 4.33856 24.11 4.26218 23.5714C4.22624 23.3179 4.23209 23.1312 4.27974 23.0113C4.34322 22.8892 4.49377 22.8113 4.7314 22.7776C4.87397 22.7574 5.06963 22.8266 5.31836 22.9853C5.5671 23.1439 5.79089 23.3546 5.98974 23.6173C6.20218 23.8619 6.32974 24.1347 6.37242 24.4357C6.43083 24.8475 6.43136 25.4211 6.37403 26.1565C6.33029 26.8737 6.25138 27.6848 6.1373 28.5898C6.03681 29.4767 5.91594 30.3907 5.77467 31.3319C5.64699 32.2549 5.5205 33.1294 5.39519 33.9551C5.28572 34.7787 5.19109 35.4789 5.11129 36.0558C5.04733 36.6305 5.02883 37.0128 5.05579 37.2029C5.11644 37.6307 5.3527 37.8153 5.76458 37.7569C6.96854 37.5862 8.03229 37.3384 8.95582 37.0135C9.89296 36.6706 10.6807 36.3569 11.3191 36.0724C11.9575 35.788 12.4193 35.6256 12.7044 35.5851C12.942 35.5514 13.0799 35.6692 13.1181 35.9385C13.1653 36.2712 12.9907 36.6353 12.5943 37.0309C12.1957 37.4106 11.6432 37.7879 10.9368 38.1628C10.2463 38.5354 9.47659 38.8627 8.62777 39.1447C7.79479 39.4244 6.9585 39.6238 6.1189 39.7428ZM18.6601 24.4386C18.4066 24.4746 18.1058 24.4041 17.7575 24.2272C17.425 24.0481 17.1277 23.8317 16.8655 23.578C16.601 23.3085 16.4542 23.0707 16.425 22.8648C16.3801 22.548 16.4641 22.229 16.6772 21.9079C16.8902 21.5868 17.1314 21.4072 17.4007 21.369C17.5591 21.3466 17.7796 21.4769 18.0621 21.76C18.3424 22.0273 18.5989 22.3546 18.8316 22.7417C19.062 23.1131 19.1974 23.4413 19.2378 23.7264C19.2603 23.8849 19.2092 24.0375 19.0846 24.1845C18.96 24.3314 18.8185 24.4161 18.6601 24.4386ZM16.2664 38.3282C16.0446 38.3597 15.8421 38.2995 15.659 38.1477C15.4736 37.9801 15.3641 37.7774 15.3304 37.5398C15.3214 37.4765 15.3342 37.1676 15.3687 36.6133C15.4191 36.0567 15.4763 35.3779 15.5405 34.577C15.6183 33.7579 15.6984 32.8982 15.7808 31.9977C15.879 31.095 15.9693 30.2499 16.0516 29.4626C16.1316 28.6594 16.2013 28.0112 16.2606 27.518C16.3724 26.7103 16.547 26.2896 16.7847 26.2559C16.9906 26.2267 17.201 26.2858 17.4158 26.4331C17.6306 26.5804 17.8193 26.7718 17.982 27.0072C18.1424 27.2269 18.2395 27.4555 18.2732 27.6932C18.3361 28.1367 18.3195 28.8178 18.2235 29.7364C18.1275 30.6549 17.9827 31.742 17.7891 32.9977C17.5932 34.2374 17.3701 35.57 17.1197 36.9952C16.9627 37.8255 16.6782 38.2698 16.2664 38.3282ZM24.4744 37.1886C23.9675 37.2605 23.4946 37.2306 23.0558 37.0989C22.6147 36.9513 22.254 36.7439 21.9737 36.4766C21.7092 36.2071 21.5568 35.9297 21.5163 35.6446C21.4175 34.9476 21.4819 33.9769 21.7094 32.7327C21.9529 31.4861 22.1954 29.9489 22.4372 28.1208C22.0841 28.2517 21.7841 28.3588 21.5374 28.4423C21.2907 28.5258 21.104 28.5765 20.9772 28.5945C20.7238 28.6304 20.4523 28.5396 20.1629 28.3221C19.8871 28.0865 19.7324 27.8499 19.6987 27.6122C19.6448 27.232 20.6228 26.7217 22.6328 26.0811C22.7315 24.7259 22.709 23.5413 22.5652 22.5274C22.4978 22.0522 22.6225 21.7921 22.9394 21.7472C23.0661 21.7292 23.2573 21.7667 23.5129 21.8598C23.7843 21.9506 24.0489 22.107 24.3066 22.329C24.5643 22.551 24.7213 22.86 24.7774 23.2561C24.8134 23.5095 24.8176 23.8241 24.79 24.1997C24.7761 24.5572 24.7405 24.9904 24.6834 25.4995C25.1383 25.4027 25.5378 25.3137 25.8818 25.2326C26.2417 25.1493 26.5563 25.0885 26.8256 25.0503C27.7761 24.9155 28.2817 25.062 28.3423 25.4897C28.3535 25.5689 28.2742 25.6933 28.1043 25.8628C27.948 26.0143 27.5971 26.2176 27.0515 26.4727C26.5037 26.712 25.6582 27.0177 24.5152 27.3898C24.4877 27.6523 24.433 28.0641 24.351 28.6251C24.2689 29.1862 24.18 29.8129 24.0843 30.5052C23.9863 31.1816 23.8939 31.8411 23.8073 32.4837C23.7206 33.1262 23.6442 33.6703 23.5782 34.116C23.5279 34.5594 23.5084 34.8208 23.5196 34.9C23.5623 35.201 23.7579 35.3268 24.1064 35.2773C24.4391 35.2302 24.7888 35.1321 25.1555 34.9831C25.52 34.8183 25.8754 34.6467 26.2218 34.4683C26.566 34.2741 26.858 34.1115 27.098 33.9805C27.3516 33.8314 27.518 33.7513 27.5972 33.74C27.8823 33.6996 28.0462 33.8299 28.0889 34.1309C28.1226 34.3685 28.025 34.649 27.7962 34.9723C27.5831 35.2934 27.2818 35.6189 26.8923 35.9489C26.5164 36.2607 26.111 36.5364 25.6764 36.7758C25.2553 36.9971 24.8546 37.1347 24.4744 37.1886ZM34.2816 35.798C33.4578 35.9148 32.7055 35.8518 32.0247 35.609C31.3574 35.3481 30.8001 34.9504 30.3526 34.4159C29.921 33.8792 29.6524 33.2385 29.5468 32.494C29.457 31.8603 29.4645 31.1725 29.5693 30.4304C29.69 29.6861 29.8922 28.9464 30.1758 28.2113C30.473 27.4581 30.8346 26.7604 31.2607 26.1182C31.7026 25.4738 32.193 24.9437 32.732 24.5279C33.2687 24.0963 33.8539 23.8356 34.4876 23.7457C34.9628 23.6783 35.4323 23.741 35.8959 23.9339C36.3732 24.1086 36.8142 24.3693 37.2188 24.7159C37.6393 25.0603 37.9851 25.4475 38.2562 25.8778C38.5273 26.308 38.692 26.729 38.7504 27.1409C38.8246 27.6636 38.737 28.1286 38.4876 28.5356C38.2383 28.9426 37.8929 29.2986 37.4513 29.6037C37.0075 29.8928 36.5163 30.1322 35.9775 30.3217C35.4524 30.4931 34.9522 30.6125 34.477 30.6799C33.4473 30.8259 32.463 30.8362 31.524 30.7108C31.4011 31.4392 31.3778 32.0728 31.4542 32.6114C31.5328 33.1658 31.7598 33.57 32.1351 33.8238C32.5263 34.0754 33.118 34.145 33.91 34.0327C34.4803 33.9518 35.0247 33.8019 35.5431 33.583C36.0615 33.364 36.5018 33.1642 36.864 32.9836C37.2398 32.7848 37.4753 32.6787 37.5703 32.6653C37.9822 32.6069 38.2106 32.7361 38.2555 33.0529C38.2847 33.2589 38.1826 33.5076 37.9493 33.7993C37.7159 34.0909 37.4011 34.378 37.0048 34.6604C36.6063 34.927 36.1637 35.1675 35.677 35.382C35.2061 35.5942 34.741 35.7329 34.2816 35.798ZM34.0712 29.1861C34.8791 29.0715 35.5661 28.8448 36.1322 28.506C36.6959 28.1513 36.9475 27.7601 36.8869 27.3324C36.8464 27.0473 36.7098 26.7677 36.4771 26.4936C36.2579 26.2015 35.999 25.9716 35.7005 25.8038C35.402 25.6361 35.126 25.5702 34.8726 25.6061C34.2864 25.6892 33.7203 26.0846 33.1743 26.7923C32.626 27.4841 32.1941 28.3129 31.8785 29.2788C32.5324 29.3315 33.2633 29.3006 34.0712 29.1861ZM42.0394 34.7465C41.7543 34.7869 41.5101 34.6599 41.3067 34.3656C41.1034 34.0712 40.9849 33.8052 40.9512 33.5676C40.8995 33.2032 40.9135 32.7891 40.9932 32.3254C41.0706 31.8457 41.1549 31.3005 41.2461 30.6897C41.335 30.063 41.3945 29.3435 41.4248 28.5312C41.4551 27.7189 41.3961 26.79 41.2478 25.7444C41.2051 25.4435 41.1421 25.113 41.0588 24.7532C40.989 24.3752 40.9328 24.0357 40.8901 23.7348C40.8564 23.4971 40.8668 23.2856 40.9213 23.1001C40.9917 22.9124 41.114 22.8061 41.2882 22.7814C41.6684 22.7275 42.0088 22.9055 42.3093 23.3154C42.6257 23.723 42.8198 24.1803 42.8917 24.6872C42.9478 25.0832 42.9746 25.443 42.972 25.7666C44.0537 23.4801 45.2124 22.2492 46.448 22.074C47.2243 21.964 47.6393 22.099 47.6932 22.4792C47.7202 22.6693 47.6589 22.8639 47.5093 23.0628C47.3756 23.2595 47.1231 23.4731 46.7518 23.7035C46.2491 24.0334 45.8041 24.4277 45.4167 24.8867C45.0293 25.3456 44.6779 25.9449 44.3626 26.6845C44.0609 27.406 43.7805 28.3345 43.5214 29.4702C43.2781 30.6035 43.0323 32.0039 42.7839 33.6713C42.7338 34.0016 42.6407 34.2572 42.5048 34.4381C42.3688 34.619 42.2137 34.7217 42.0394 34.7465ZM52.0506 33.2785C51.5753 33.3458 51.064 33.2729 50.5167 33.0596C49.9829 32.8283 49.5182 32.5144 49.1227 32.118C48.7271 31.7216 48.4979 31.3016 48.435 30.8581C48.3361 30.161 48.3799 29.3872 48.5664 28.5366C48.7528 27.686 49.0444 26.8367 49.4413 25.9886C49.8359 25.1246 50.2893 24.3331 50.8014 23.6141C51.3113 22.8792 51.8482 22.2779 52.4121 21.8101C52.9896 21.3242 53.5397 21.0442 54.0625 20.9701C54.7754 20.869 55.4833 21.1322 56.1864 21.7597C56.521 22.0678 56.7899 22.369 56.9933 22.6634C57.1944 22.9419 57.3162 23.2317 57.3589 23.5327C57.4016 23.8337 57.3968 24.1414 57.3444 24.4559C57.3079 24.7681 57.2012 25.0983 57.0243 25.4466C57.2481 25.6573 57.3724 25.8498 57.3971 26.024C57.4802 26.6101 57.4861 27.3931 57.415 28.3728C57.3574 29.3344 57.3313 30.5177 57.3366 31.9229C57.3452 32.3257 57.2307 32.5439 56.9931 32.5776C56.803 32.6046 56.6232 32.5331 56.4537 32.3632C56.2978 32.1753 56.1588 31.9364 56.037 31.6466C55.9309 31.3546 55.8328 31.0615 55.7426 30.7673C55.6682 30.4708 55.6176 30.2275 55.5906 30.0374C54.4345 32.0274 53.2545 33.1077 52.0506 33.2785ZM51.6759 31.3197C52.1828 31.2478 52.6967 30.9406 53.2177 30.3981C53.7546 29.8533 54.2294 29.1557 54.6421 28.3054C55.0525 27.4392 55.308 26.5061 55.4086 25.506C55.4247 25.2775 55.538 25.1079 55.7486 24.9973C55.5397 23.524 55.1422 22.8289 54.556 22.912C54.16 22.9682 53.757 23.2031 53.347 23.6168C52.9348 24.0146 52.5462 24.5222 52.1812 25.1395C51.814 25.741 51.4853 26.3855 51.1949 27.0731C50.9046 27.7607 50.6901 28.4133 50.5514 29.0309C50.4127 29.6484 50.3726 30.1632 50.431 30.5751C50.4692 30.8444 50.6115 31.0504 50.858 31.1932C51.1023 31.3202 51.3749 31.3623 51.6759 31.3197ZM61.7159 31.908C61.5733 31.9282 61.3957 31.8726 61.1832 31.7411C60.9684 31.5938 60.7751 31.4273 60.6033 31.2416C60.4293 31.04 60.3333 30.8758 60.3153 30.7491C60.3041 30.6699 60.3237 30.352 60.374 29.7954C60.4402 29.2366 60.5134 28.499 60.5935 27.5827C60.6737 26.6664 60.7551 25.6448 60.8377 24.5181C60.9181 23.3755 60.9759 22.1876 61.0111 20.9544C61.0441 19.7054 61.0397 18.4779 60.998 17.2718C60.9699 16.0476 60.8817 14.9128 60.7334 13.8672C60.702 13.6454 60.7112 13.4825 60.7611 13.3785C60.811 13.2745 60.9389 13.2078 61.1448 13.1786C61.2874 13.1584 61.4853 13.2435 61.7385 13.4338C62.0053 13.6061 62.2563 13.8371 62.4913 14.127C62.7241 14.401 62.8607 14.6806 62.9011 14.9658C63.0561 16.0588 63.1499 17.2333 63.1825 18.4892C63.2129 19.7292 63.1969 20.9838 63.1345 22.2532C63.0698 23.5067 62.9735 24.7081 62.8456 25.8574C62.7336 27.0045 62.6047 28.0328 62.4589 28.9423C62.329 29.8495 62.197 30.5712 62.0629 31.1073C61.9266 31.6276 61.8109 31.8945 61.7159 31.908ZM67.5404 31.0821C67.3979 31.1023 67.2203 31.0467 67.0077 30.9152C66.7929 30.7679 66.5996 30.6014 66.4279 30.4157C66.2538 30.2141 66.1578 30.0499 66.1399 29.9232C66.1286 29.844 66.1482 29.5261 66.1986 28.9695C66.2648 28.4107 66.3379 27.6731 66.4181 26.7568C66.4982 25.8405 66.5796 24.8189 66.6623 23.6922C66.7426 22.5496 66.8005 21.3617 66.8357 20.1285C66.8687 18.8795 66.8643 17.652 66.8225 16.4459C66.7944 15.2217 66.7062 14.0869 66.558 13.0413C66.5265 12.8195 66.5357 12.6566 66.5856 12.5526C66.6355 12.4486 66.7634 12.382 66.9694 12.3528C67.1119 12.3325 67.3098 12.4176 67.5631 12.6079C67.8299 12.7802 68.0808 13.0112 68.3158 13.3011C68.5486 13.5751 68.6852 13.8547 68.7256 14.1399C68.8806 15.2329 68.9745 16.4074 69.0071 17.6633C69.0375 18.9033 69.0215 20.158 68.959 21.4273C68.8944 22.6808 68.7981 23.8822 68.6702 25.0315C68.5581 26.1786 68.4292 27.2069 68.2834 28.1164C68.1535 29.0236 68.0215 29.7453 67.8875 30.2814C67.7512 30.8017 67.6355 31.0686 67.5404 31.0821ZM75.7143 36.2255C75.1123 36.3108 74.4992 36.2604 73.8748 36.0742C73.2528 35.9039 72.7156 35.6487 72.2634 35.3089C71.8293 34.9826 71.5853 34.6293 71.5314 34.2491C71.5022 34.0432 71.5624 33.7842 71.7121 33.4721C71.864 33.1758 72.0192 33.0165 72.1776 32.994C72.2726 32.9805 72.3733 33.0066 72.4796 33.0724C72.6039 33.1517 72.7577 33.2673 72.9408 33.419C74.0237 34.3321 74.882 34.7436 75.5157 34.6538C75.8483 34.6066 76.128 34.3569 76.3548 33.9046C76.5974 33.45 76.829 32.69 77.0496 31.6244C77.2883 30.5725 77.5669 29.119 77.8857 27.2639C76.9946 28.9577 75.9947 29.8833 74.8858 30.0405C74.4422 30.1034 73.9943 30.0215 73.542 29.7948C73.0896 29.568 72.6951 29.2361 72.3584 28.7991C72.0376 28.3597 71.8379 27.8629 71.7592 27.3084C71.6941 26.849 71.6823 26.2528 71.7238 25.5197C71.7789 24.7685 71.877 23.9789 72.0181 23.1509C72.157 22.307 72.3276 21.5153 72.5297 20.7755C72.7319 20.0358 72.952 19.4229 73.1901 18.9366C73.444 18.4481 73.6977 18.1859 73.9512 18.15C74.268 18.1051 74.5553 18.1936 74.813 18.4156C75.0866 18.6354 75.2436 18.8878 75.284 19.173C75.3065 19.3314 75.2587 19.621 75.1406 20.0417C75.0225 20.4625 74.876 20.9681 74.7011 21.5585C74.5263 22.1488 74.3582 22.7868 74.1968 23.4722C74.049 24.1396 73.9341 24.8103 73.8519 25.4846C73.7675 26.1429 73.7669 26.7652 73.85 27.3513C73.8859 27.6048 73.9954 27.8074 74.1786 27.9592C74.3594 28.0952 74.5608 28.1474 74.7826 28.116C75.1628 28.0621 75.5658 27.7706 75.9918 27.2415C76.4155 26.6967 76.8258 26.0002 77.2226 25.1521C77.6172 24.2881 77.9712 23.3653 78.2845 22.3836C78.4707 21.7592 78.6535 21.0546 78.8331 20.2696C79.0285 19.4824 79.2116 18.608 79.3823 17.6465C79.4368 17.461 79.5829 17.3514 79.8205 17.3177C79.9947 17.293 80.1893 17.3543 80.4041 17.5016C80.6189 17.6489 80.8167 17.8471 80.9974 18.0962C81.1782 18.3453 81.291 18.6283 81.336 18.9451C81.3652 19.151 81.3251 19.6092 81.2157 20.3196C81.1064 21.03 80.9471 21.901 80.7378 22.9326C80.5422 23.9461 80.3238 25.0274 80.0828 26.1767C79.8553 27.3078 79.6245 28.4152 79.3903 29.4988C79.1561 30.5824 78.9583 31.5235 78.7968 32.3221C78.3101 34.702 77.2826 36.0031 75.7143 36.2255ZM93.9295 27.219C93.5334 27.2752 93.1273 27.2035 92.7112 27.0039C92.3086 26.7863 91.9616 26.5042 91.6701 26.1577C91.3944 25.809 91.2307 25.4524 91.179 25.0881C91.1274 24.7237 91.2331 24.2724 91.4961 23.7341C91.7727 23.1778 92.1422 22.5921 92.6044 21.9771C93.0644 21.3463 93.5595 20.7348 94.0896 20.1425C94.6174 19.5344 95.1056 18.9884 95.5541 18.5046C96.0162 18.0028 96.3798 17.6038 96.6449 17.3077C98.729 15.0245 99.7227 13.5423 99.6261 12.8611C99.5925 12.6235 99.3992 12.4569 99.0463 12.3615C98.707 12.2481 98.2703 12.1888 97.7363 12.1837C97.2182 12.1764 96.6739 12.2131 96.1036 12.294C95.5809 12.3681 95.0784 12.4717 94.5963 12.6047C94.112 12.7218 93.6921 12.8379 93.3368 12.953C92.9814 13.068 92.7403 13.1345 92.6136 13.1525C92.3918 13.1839 92.1498 13.1294 91.8874 12.9888C91.6251 12.8482 91.3979 12.6704 91.2058 12.4552C91.0137 12.24 90.903 12.0295 90.8738 11.8235C90.8491 11.6493 90.9635 11.4876 91.2171 11.3385C91.4865 11.1872 91.8148 11.0518 92.2018 10.9323C92.5866 10.7969 92.968 10.6944 93.346 10.6246C93.7375 10.5368 94.0363 10.4782 94.2422 10.449C94.9551 10.348 95.6837 10.3012 96.4282 10.3088C97.1703 10.3005 97.8548 10.3408 98.4815 10.4297C99.1082 10.5186 99.5877 10.6526 99.9202 10.8317C100.268 11.0086 100.622 11.2816 100.982 11.6508C101.355 12.0019 101.574 12.4072 101.639 12.8666C101.686 13.1992 101.595 13.6404 101.366 14.19C101.135 14.7238 100.798 15.3129 100.356 15.9573C99.93 16.5994 99.4474 17.2416 98.9082 17.8836C98.2579 18.6545 97.6044 19.4017 96.9474 20.1251C96.3041 20.8304 95.7105 21.4882 95.1668 22.0986C94.639 22.7067 94.2198 23.2267 93.9094 23.6586C93.5967 24.0746 93.4527 24.3698 93.4774 24.544C93.5358 24.9559 93.771 25.1326 94.1828 25.0742C94.5789 25.0181 95.0666 24.9247 95.646 24.794C96.2232 24.6476 96.8309 24.4887 97.4691 24.3174C98.1074 24.1461 98.7151 23.9872 99.2923 23.8407C99.8672 23.6784 100.365 23.5431 100.786 23.435C101.221 23.3087 101.509 23.2355 101.652 23.2152C102.206 23.1366 102.51 23.2874 102.564 23.6676C102.585 23.8102 102.399 24.0385 102.007 24.3526C101.613 24.6509 101.039 24.9909 100.285 25.3725C99.529 25.7382 98.61 26.0948 97.528 26.4421C96.4597 26.7714 95.2601 27.0304 93.9295 27.219ZM109.109 25.1878C108.381 25.2911 107.709 25.1682 107.094 24.8191C106.494 24.4678 106.149 23.9674 106.057 23.3179C106.001 22.9218 106.014 22.3301 106.096 21.5428C106.178 20.7554 106.285 19.8595 106.418 18.855C106.564 17.8324 106.706 16.786 106.845 15.7159C106.982 14.6299 107.078 13.5982 107.134 12.6207C107.189 11.6433 107.166 10.7981 107.065 10.0853C107.004 9.65753 107.174 9.3183 107.575 9.06755C107.989 8.79872 108.588 8.57646 109.371 8.40078C110.154 8.2251 111.077 8.06201 112.138 7.91151C115.322 7.46002 116.947 7.46397 117.012 7.92338C117.025 8.01843 116.992 8.12814 116.913 8.2525C116.847 8.35878 116.655 8.48303 116.336 8.62525C116.017 8.76747 115.507 8.93665 114.808 9.13278C114.124 9.32667 113.171 9.55874 111.949 9.82899C111.542 9.91908 111.076 10.0498 110.551 10.2213C110.023 10.3768 109.574 10.5133 109.203 10.6305C109.367 11.787 109.307 13.476 109.024 15.6978C109.251 15.698 109.476 15.6903 109.7 15.6747C109.94 15.6569 110.17 15.6322 110.392 15.6008C111.168 15.4907 111.888 15.324 112.551 15.1007C113.23 14.8751 113.767 14.7263 114.161 14.6543C114.668 14.5825 114.941 14.6891 114.982 14.9742C115.024 15.2752 114.863 15.5647 114.499 15.8426C114.132 16.1047 113.633 16.3452 113.001 16.564C112.386 16.7806 111.702 16.9745 110.951 17.1457C110.197 17.301 109.464 17.4292 108.751 17.5303C108.28 20.3605 108.084 22.0608 108.165 22.631C108.192 22.8211 108.27 22.9717 108.399 23.0827C108.541 23.1756 108.708 23.2086 108.898 23.1817C110.244 22.9907 111.403 22.7295 112.374 22.3978C113.343 22.0504 114.131 21.7367 114.737 21.4567C115.36 21.1745 115.782 21.0177 116.004 20.9863C116.241 20.9526 116.384 21.1021 116.431 21.4347C116.471 21.7199 116.269 22.0557 115.822 22.4422C115.39 22.8105 114.797 23.1855 114.043 23.5672C113.305 23.9465 112.497 24.2874 111.618 24.5897C110.754 24.8739 109.917 25.0732 109.109 25.1878ZM120.986 23.4795C120.891 23.493 120.745 23.4328 120.549 23.2991C120.35 23.1496 120.162 22.9661 119.986 22.7487C119.807 22.5155 119.701 22.28 119.667 22.0424C119.625 21.7414 119.638 21.2629 119.706 20.6067C119.791 19.9484 119.9 19.1814 120.035 18.3059C120.167 17.4145 120.299 16.4665 120.431 15.462C120.561 14.4416 120.66 13.4258 120.726 12.4144C120.791 11.3872 120.799 10.4165 120.75 9.50227C120.526 9.40474 120.316 9.23255 120.119 8.98571C119.922 8.73886 119.809 8.51247 119.78 8.30653C119.747 8.06891 119.956 7.78063 120.409 7.44169C120.878 7.1005 121.496 6.78662 122.263 6.50006C123.028 6.19764 123.854 5.98354 124.742 5.85775C125.597 5.73646 126.409 5.76672 127.178 5.94854C127.963 6.12811 128.616 6.45576 129.136 6.93147C129.654 7.39135 129.966 8.00149 130.074 8.76188C130.184 9.53811 130.075 10.3051 129.746 11.0627C129.431 11.8023 128.976 12.4162 128.383 12.9043C127.602 13.5484 126.963 14.0591 126.467 14.4365C125.985 14.7958 125.604 15.0759 125.326 15.277C125.063 15.4759 124.882 15.6228 124.782 15.7177C124.698 15.8104 124.662 15.8963 124.673 15.9755C124.689 16.0864 124.761 16.2539 124.89 16.4781C125.017 16.6864 125.308 16.9763 125.765 17.3479C126.221 17.7195 126.945 18.2067 127.936 18.8096C128.944 19.4261 129.689 19.8942 130.171 20.2137C130.652 20.5333 130.969 20.7712 131.12 20.9275C131.272 21.0838 131.359 21.2411 131.381 21.3995C131.435 21.7797 131.201 22.0069 130.678 22.081C130.298 22.1349 129.809 22.0507 129.212 21.8283C128.613 21.5901 127.968 21.2613 127.278 20.842C126.589 20.4227 125.916 19.9525 125.26 19.4314C124.605 18.9102 124.021 18.3869 123.511 17.8615C123.016 17.3337 122.656 16.8514 122.433 16.4144C122.33 17.0592 122.223 17.7854 122.111 18.5931C122.013 19.3827 121.904 20.1497 121.783 20.894C121.66 21.6225 121.528 22.231 121.388 22.7196C121.263 23.206 121.129 23.4593 120.986 23.4795ZM122.611 15.1045C122.964 14.7474 123.383 14.3971 123.868 14.0536C124.35 13.6944 124.84 13.334 125.338 12.9724C125.836 12.6109 126.292 12.2313 126.704 11.8334C127.132 11.4334 127.459 11.0072 127.686 10.5549C127.913 10.1026 127.988 9.6071 127.912 9.06849C127.772 8.08632 126.847 7.71653 125.136 7.95912C124.36 8.06919 123.485 8.39524 122.512 8.93729C122.72 9.26334 122.844 9.56894 122.884 9.85409C123.03 10.8838 122.939 12.6339 122.611 15.1045ZM137.854 21.0635C137.331 21.1376 136.812 21.0658 136.296 20.8481C135.796 20.6281 135.324 20.3153 134.878 19.9098C134.449 19.5021 134.092 19.0356 133.807 18.5103C133.523 17.9851 133.343 17.4611 133.269 16.9383C133.108 15.7977 133.112 14.6335 133.283 13.4458C133.452 12.2422 133.74 11.0862 134.149 9.97787C134.571 8.85147 135.074 7.84281 135.659 6.9519C136.257 6.0429 136.896 5.30591 137.575 4.74093C138.269 4.15786 138.971 3.81579 139.684 3.71471C140.571 3.58892 141.404 3.76175 142.182 4.23321C142.973 4.68659 143.631 5.33668 144.155 6.18349C144.695 7.02806 145.037 7.95727 145.181 8.97113C145.309 9.87409 145.277 10.8482 145.086 11.8934C144.911 12.9363 144.605 13.9735 144.17 15.0048C143.748 16.0181 143.212 16.9667 142.561 17.8508C141.925 18.7168 141.203 19.4412 140.397 20.0242C139.605 20.589 138.757 20.9355 137.854 21.0635ZM137.73 19.1661C138.253 19.092 138.782 18.8312 139.316 18.3837C139.864 17.9181 140.379 17.336 140.862 16.6373C141.343 15.9228 141.767 15.1516 142.134 14.3239C142.499 13.4802 142.76 12.6433 142.917 11.813C143.088 10.9647 143.124 10.192 143.025 9.49497C142.852 8.27517 142.474 7.31877 141.891 6.62576C141.324 5.93051 140.723 5.62781 140.09 5.71766C139.598 5.78729 139.107 6.0832 138.616 6.60538C138.14 7.12532 137.684 7.78783 137.249 8.59291C136.812 9.38215 136.434 10.2518 136.116 11.2018C135.812 12.1337 135.588 13.0624 135.445 13.9877C135.317 14.9107 135.306 15.7445 135.411 16.4891C135.535 17.3604 135.826 18.0463 136.285 18.5468C136.742 19.0315 137.223 19.238 137.73 19.1661ZM148.443 14.8352C148.285 14.8577 148.156 14.8598 148.056 14.8416C147.954 14.8075 147.892 14.7113 147.87 14.5529C147.834 14.2994 147.907 13.6184 148.089 12.5099C148.269 11.3855 148.483 9.93301 148.732 8.15249C148.994 6.35389 149.198 4.32102 149.346 2.05391C149.378 1.71001 149.509 1.49744 149.74 1.41623C149.971 1.33501 150.229 1.27418 150.514 1.23375C150.799 1.19332 151.032 1.18451 151.213 1.20732C151.41 1.22789 151.528 1.37283 151.566 1.64214C151.608 1.94313 151.594 2.47033 151.523 3.22375C151.468 3.97492 151.373 4.84485 151.239 5.83353C151.102 6.80637 150.929 7.80858 150.72 8.84017C150.511 9.87177 150.283 10.8332 150.038 11.7245C149.793 12.6157 149.533 13.3475 149.259 13.9196C148.984 14.4918 148.712 14.797 148.443 14.8352ZM147.087 19.8028C146.834 19.8387 146.669 19.8216 146.595 19.7514C146.52 19.6811 146.472 19.5668 146.449 19.4084C146.425 19.2341 146.437 19.0384 146.487 18.8213C146.521 18.6063 146.547 18.328 146.563 17.9864C146.604 17.7058 146.721 17.5034 146.913 17.3792C147.121 17.2527 147.431 17.1603 147.843 17.1018C148.208 17.0502 148.467 17.0538 148.621 17.1128C148.774 17.1718 148.87 17.336 148.909 17.6053C148.962 17.9855 148.899 18.3339 148.717 18.6505C148.552 18.9648 148.322 19.2237 148.028 19.427C147.733 19.6303 147.42 19.7556 147.087 19.8028Z" fill="#434141"/>
</svg>
