<svg width="114" height="22" viewBox="0 0 114 22" fill="none" xmlns="http://www.w3.org/2000/svg">
<g clip-path="url(#clip0_2410_1868)">
<path d="M50.7146 5.92276H53.6612C53.6914 6.10323 53.7096 6.28556 53.7155 6.4685C53.7416 6.65944 53.7416 6.82329 53.7685 7.01423C54.1073 6.59314 54.5454 6.26465 55.0426 6.05886C55.546 5.84356 56.0871 5.73236 56.6339 5.73182C57.3003 5.71136 57.961 5.8616 58.5544 6.16855C59.0871 6.45102 59.5564 6.84123 59.9332 7.31486C60.3136 7.81287 60.5986 8.37822 60.7734 8.98185C60.9569 9.61092 61.0473 10.2639 61.0417 10.9197C61.0562 11.7528 60.8998 12.58 60.5823 13.3491C60.2917 13.9892 59.878 14.5646 59.3652 15.0418C58.876 15.4775 58.3062 15.8112 57.6887 16.0236C57.0903 16.2381 56.4602 16.3489 55.8251 16.3513C55.4245 16.3581 55.0246 16.3126 54.6355 16.2159C54.3116 16.134 54.0407 16.052 53.7705 15.9701V20.3644H50.7146V5.92276ZM53.7691 13.3471C54.3127 13.6533 54.9324 13.7944 55.5536 13.7533C55.8891 13.7719 56.2243 13.7127 56.5336 13.5802C56.843 13.4477 57.1181 13.2454 57.338 12.9889C57.7906 12.4074 58.0207 11.6808 57.9865 10.942C57.9905 10.6113 57.9543 10.2813 57.8785 9.95957C57.8161 9.66605 57.6969 9.38786 57.5278 9.14097C57.3653 8.89534 57.1413 8.69748 56.8786 8.56747C56.5754 8.41893 56.2419 8.34426 55.9049 8.34945C55.5883 8.33866 55.2736 8.40411 54.9869 8.54039C54.7294 8.66566 54.4995 8.84205 54.311 9.05904C54.1257 9.27237 53.9884 9.52369 53.9086 9.79572C53.8224 10.0695 53.7772 10.3548 53.7745 10.6421L53.7691 13.3471Z" fill="#F71D3B"/>
<path d="M45.5202 5.92319C45.4906 6.10394 45.4726 6.28647 45.4666 6.4696C45.4398 6.66054 45.4398 6.82439 45.4129 7.01533C45.3516 6.87608 45.2468 6.76097 45.1145 6.68762C44.8348 6.40815 44.5045 6.18563 44.1415 6.0322C43.6368 5.81642 43.0943 5.70499 42.5462 5.70449C41.8802 5.68399 41.2199 5.83424 40.627 6.14121C40.0942 6.42351 39.6248 6.81374 39.2482 7.28752C38.869 7.78592 38.5854 8.35153 38.412 8.95519C38.2282 9.5842 38.1379 10.2372 38.1438 10.893V11.0542C38.1378 11.71 38.2282 12.363 38.412 12.992C38.5862 13.5949 38.8705 14.1596 39.2502 14.657C39.8212 15.3736 40.6074 15.8836 41.4903 16.11C42.3732 16.3364 43.3051 16.267 44.1455 15.9123C44.6427 15.7064 45.0808 15.3779 45.4196 14.9569C45.4465 15.1479 45.4465 15.3388 45.4733 15.5026C45.5001 15.6936 45.5001 15.8574 45.5269 16.0484H48.4708V5.92319H45.5202ZM45.4404 11.2722C45.4379 11.5593 45.3927 11.8444 45.3063 12.1179C45.2266 12.3901 45.0893 12.6417 44.904 12.8552C44.7154 13.0722 44.4855 13.2486 44.228 13.3739C43.9409 13.5104 43.6258 13.5758 43.3086 13.5648C42.9717 13.5698 42.6382 13.4951 42.3349 13.3468C42.0728 13.2166 41.8491 13.0191 41.6865 12.774C41.5157 12.5278 41.3964 12.249 41.3358 11.9547C41.2588 11.6331 41.2225 11.303 41.2278 10.9722V10.5904C41.2236 10.5342 41.2332 10.4779 41.256 10.4265C41.2621 10.3809 41.2709 10.3357 41.2821 10.2911C41.2781 10.2527 41.2876 10.2141 41.309 10.1821C41.309 10.155 41.3358 10.1002 41.3358 10.0731C41.4343 9.67836 41.6091 9.30721 41.8501 8.98092C41.9873 8.82458 42.1519 8.69513 42.3356 8.59904C42.5369 8.4909 42.7581 8.4259 42.9854 8.4081C43.0934 8.4081 43.2282 8.38102 43.3375 8.38102C43.6303 8.37859 43.92 8.44085 44.1864 8.56343C44.4529 8.68601 44.6895 8.86594 44.8798 9.09061C45.0652 9.30413 45.2024 9.5557 45.2822 9.82796C45.3687 10.1017 45.4139 10.387 45.4163 10.6743V11.2749L45.4404 11.2722Z" fill="#F71D3B"/>
<path d="M72.3686 14.9311C72.2606 15.013 72.0715 15.122 71.8556 15.2859C71.5781 15.484 71.2788 15.649 70.9637 15.7775C70.5472 15.9609 70.1118 16.0972 69.6655 16.1837C69.1059 16.3088 68.5346 16.3728 67.9615 16.3746C67.1772 16.3894 66.3974 16.2514 65.6647 15.9684C65.014 15.727 64.4233 15.345 63.9339 14.8492C63.4429 14.3711 63.0723 13.7815 62.8529 13.1294C62.6 12.4204 62.4718 11.6722 62.4741 10.9187C62.4675 10.2205 62.5868 9.52689 62.8261 8.87182C63.0499 8.23447 63.3991 7.64945 63.8528 7.15201C64.3064 6.65031 64.8593 6.25032 65.4756 5.97794C66.1655 5.67382 66.9125 5.5248 67.6651 5.54121C68.4006 5.5219 69.1308 5.67122 69.8009 5.97794C70.4004 6.25198 70.9285 6.66323 71.3433 7.17909C71.7788 7.717 72.1007 8.33912 72.2895 9.00724C72.5124 9.76913 72.6215 10.5603 72.6134 11.3547V11.8734H65.4756C65.4865 12.1507 65.5547 12.4227 65.6758 12.6719C65.797 12.9211 65.9684 13.142 66.1791 13.3203C66.7198 13.7613 67.4029 13.9848 68.097 13.948C68.7634 13.98 69.4284 13.8587 70.0417 13.5932C70.4239 13.4237 70.7869 13.2132 71.1247 12.9655L72.3686 14.9311ZM69.6655 9.90912C69.6604 9.68447 69.6149 9.46262 69.5313 9.25437C69.4416 9.02494 69.3137 8.81267 69.1531 8.62671C68.9769 8.42158 68.7542 8.26247 68.504 8.1629C68.2141 8.03662 67.9017 7.97164 67.586 7.97196C67.2598 7.96108 66.9355 8.02643 66.6384 8.1629C66.3841 8.2689 66.1542 8.4268 65.9631 8.62671C65.7793 8.7996 65.6399 9.015 65.5568 9.25437C65.474 9.46288 65.4286 9.68457 65.4226 9.90912H69.6655Z" fill="#F71D3B"/>
<path d="M74.3414 5.92279H77.2887L77.3973 7.20587C77.6894 6.81866 78.0464 6.48614 78.4521 6.22341C78.9659 5.88875 79.5711 5.72643 80.1816 5.75961C80.4175 5.76101 80.653 5.77934 80.8864 5.81445C81.0811 5.84367 81.2712 5.89876 81.4517 5.97831L80.9675 8.70766C80.609 8.59189 80.234 8.53653 79.8577 8.5438C79.5277 8.52099 79.1966 8.57076 78.8875 8.68967C78.5783 8.80859 78.2984 8.99381 78.0671 9.23256C77.8357 9.47131 77.6584 9.75791 77.5474 10.0726C77.4364 10.3872 77.3943 10.7225 77.4241 11.0551V16.0507H74.3414V5.92279Z" fill="#F71D3B"/>
<path d="M91.3456 14.6851C90.8875 15.1815 90.3357 15.5805 89.7227 15.8585C88.9674 16.2019 88.1454 16.3699 87.3173 16.35C86.5595 16.36 85.807 16.2221 85.101 15.9438C84.4621 15.6949 83.8818 15.3137 83.3977 14.8246C82.4027 13.7762 81.8586 12.373 81.8842 10.9211C81.8808 10.2013 82.0187 9.48789 82.2899 8.82216C82.552 8.17902 82.9375 7.59463 83.4244 7.10271C83.9112 6.61079 84.4897 6.22107 85.1265 5.95604C85.8152 5.68022 86.5504 5.54224 87.2912 5.54979C88.1072 5.53492 88.9173 5.69292 89.6691 6.01359C90.3065 6.28844 90.8782 6.69802 91.3456 7.21475L89.478 9.23451C89.2357 8.96491 88.9536 8.7347 88.6417 8.552C88.243 8.33804 87.7953 8.23454 87.3442 8.25205C86.9987 8.2503 86.657 8.32471 86.343 8.47008C86.0579 8.62338 85.8022 8.82676 85.5879 9.07065C85.377 9.3171 85.2196 9.60541 85.1258 9.91702C85.0164 10.2516 84.9618 10.602 84.9642 10.9543C84.9662 11.2884 85.0208 11.62 85.1258 11.9368C85.2365 12.2493 85.3922 12.5436 85.5879 12.8102C85.8013 13.0624 86.0568 13.2749 86.343 13.4379C86.6503 13.6051 86.9951 13.6898 87.3442 13.6837C87.8036 13.6973 88.2591 13.5939 88.6686 13.383C88.9879 13.1988 89.2793 12.9689 89.5336 12.7005L91.3456 14.6851Z" fill="#F71D3B"/>
<path d="M92.8054 1.6377H95.8901V16.0225H92.8054V1.6377Z" fill="#F71D3B"/>
<path d="M98.2385 5.92285H101.323V16.0494H98.2385V5.92285Z" fill="#F71D3B"/>
<path d="M103.673 5.92285H106.62C106.65 6.10332 106.668 6.28565 106.674 6.46858C106.701 6.65952 106.701 6.82338 106.727 7.01432C107.065 6.59404 107.502 6.26565 107.998 6.05894C108.502 5.84363 109.044 5.73243 109.592 5.73191C110.258 5.71094 110.919 5.86122 111.511 6.16863C112.05 6.44337 112.521 6.83481 112.892 7.31495C113.272 7.8132 113.557 8.37848 113.732 8.98194C113.914 9.61121 114.005 10.2641 114 10.9198C114.015 11.753 113.858 12.5803 113.54 13.3492C113.25 13.9896 112.836 14.565 112.323 15.0419C111.834 15.478 111.264 15.8119 110.646 16.0244C110.047 16.2388 109.417 16.3496 108.781 16.3521C108.381 16.3588 107.982 16.3133 107.594 16.2166C107.267 16.1347 106.995 16.0528 106.727 15.9709V20.3652H103.673V5.92285ZM106.727 13.3471C107.27 13.6533 107.89 13.7944 108.511 13.7534C108.847 13.7723 109.182 13.7132 109.492 13.5807C109.801 13.4482 110.076 13.2457 110.296 12.989C110.749 12.4078 110.979 11.681 110.944 10.9421C110.949 10.6115 110.913 10.2816 110.838 9.95966C110.776 9.66574 110.655 9.38742 110.485 9.14106C110.323 8.89507 110.099 8.6971 109.836 8.56756C109.533 8.41898 109.2 8.3443 108.863 8.34954C108.547 8.33848 108.232 8.40395 107.945 8.54048C107.688 8.66611 107.458 8.84245 107.269 9.05913C107.082 9.27207 106.943 9.52343 106.862 9.7958C106.777 10.0697 106.731 10.3549 106.728 10.6422L106.727 13.3471Z" fill="#F71D3B"/>
<path d="M26.4655 5.92277H29.4127C29.4427 6.10327 29.4609 6.28558 29.467 6.46851C29.4938 6.65945 29.4938 6.8233 29.5213 7.01424C29.8591 6.5935 30.296 6.26502 30.7921 6.05887C31.2965 5.84347 31.8384 5.73227 32.3861 5.73183C33.0521 5.71131 33.7124 5.86156 34.3053 6.16856C34.8429 6.44346 35.3137 6.83489 35.684 7.31487C36.0643 7.81297 36.3492 8.3783 36.5243 8.98186C36.7078 9.61093 36.7982 10.2639 36.7925 10.9197C36.8074 11.7529 36.651 12.5801 36.3332 13.3491C36.0429 13.9892 35.6294 14.5646 35.1167 15.0418C34.6272 15.4772 34.0575 15.8111 33.4402 16.0243C32.8411 16.2387 32.2104 16.3495 31.5747 16.352C31.1742 16.3588 30.7746 16.3132 30.3857 16.2166C30.0611 16.1346 29.7909 16.0527 29.5207 15.9708V20.3651H26.4655V5.92277ZM29.5207 13.3471C30.064 13.6533 30.6835 13.7944 31.3044 13.7533C31.6399 13.772 31.9752 13.7129 32.2846 13.5803C32.5939 13.4478 32.869 13.2455 33.0889 12.9889C33.5421 12.4077 33.7724 11.6809 33.7373 10.942C33.7413 10.6113 33.7048 10.2813 33.6287 9.95958C33.5668 9.66577 33.4473 9.38744 33.2773 9.14098C33.1151 8.89509 32.8911 8.69717 32.6282 8.56749C32.3254 8.4191 31.9923 8.34443 31.6558 8.34946C31.3385 8.33842 31.0231 8.40388 30.7358 8.5404C30.4783 8.66581 30.2484 8.84219 30.0598 9.05905C29.8744 9.27224 29.7371 9.52361 29.6575 9.79573C29.5714 10.0696 29.5261 10.3548 29.5233 10.6421L29.5207 13.3471Z" fill="#F71D3B"/>
<path d="M99.7802 4.7496C100.631 4.7496 101.321 4.05298 101.321 3.19365C101.321 2.33432 100.631 1.6377 99.7802 1.6377C98.9291 1.6377 98.2392 2.33432 98.2392 3.19365C98.2392 4.05298 98.9291 4.7496 99.7802 4.7496Z" fill="#F71D3B"/>
<path d="M10.8944 21.9998C10.3547 22 9.82017 21.8929 9.32148 21.6845C8.82279 21.476 8.36967 21.1704 7.98803 20.7851C7.60639 20.3997 7.30371 19.9422 7.09729 19.4387C6.89086 18.9352 6.78475 18.3955 6.78502 17.8506V15.176H4.13619C3.03921 15.1796 1.98574 14.7431 1.20754 13.9624C0.429338 13.1817 -0.00984894 12.1209 -0.013406 11.0133C-0.016963 9.90568 0.415401 8.842 1.18857 8.05625C1.96174 7.27051 3.01238 6.82706 4.10937 6.82347H6.75886V4.14896C6.75886 3.04458 7.19337 1.98542 7.96679 1.2045C8.74021 0.42358 9.7892 -0.0151367 10.883 -0.0151367C11.9768 -0.0151367 13.0258 0.42358 13.7992 1.2045C14.5726 1.98542 15.0071 3.04458 15.0071 4.14896V6.82415H17.6566C18.7373 6.83809 19.769 7.28133 20.5284 8.05788C21.2877 8.83443 21.7135 9.88175 21.7135 10.973C21.7135 12.0643 21.2877 13.1116 20.5284 13.8881C19.769 14.6647 18.7373 15.1079 17.6566 15.1219H16.6252C16.3431 15.1148 16.0749 14.9966 15.8778 14.7927C15.6808 14.5887 15.5705 14.315 15.5705 14.0301C15.5705 13.7451 15.6808 13.4715 15.8778 13.2675C16.0749 13.0635 16.3431 12.9454 16.6252 12.9383H17.6526C18.1688 12.9383 18.6639 12.7312 19.0289 12.3627C19.3939 11.9941 19.599 11.4942 19.599 10.973C19.599 10.4518 19.3939 9.95193 19.0289 9.58337C18.6639 9.21481 18.1688 9.00776 17.6526 9.00776H15.0037V10.9713C15.004 11.5163 14.8979 12.0559 14.6915 12.5595C14.4851 13.063 14.1824 13.5205 13.8007 13.9058C13.4191 14.2912 12.966 14.5968 12.4673 14.8052C11.9686 15.0137 11.4341 15.1208 10.8944 15.1205H8.91883V17.7957C8.91883 18.3169 9.12389 18.8168 9.48891 19.1854C9.85393 19.5539 10.349 19.761 10.8652 19.761C11.3814 19.761 11.8765 19.5539 12.2415 19.1854C12.6065 18.8168 12.8116 18.3169 12.8116 17.7957V16.7591C12.808 16.6134 12.8333 16.4685 12.886 16.3329C12.9388 16.1972 13.0178 16.0736 13.1186 15.9693C13.2194 15.865 13.3398 15.7821 13.4728 15.7255C13.6058 15.6689 13.7486 15.6397 13.8929 15.6397C14.0372 15.6397 14.1801 15.6689 14.3131 15.7255C14.446 15.7821 14.5665 15.865 14.6672 15.9693C14.768 16.0736 14.8471 16.1972 14.8998 16.3329C14.9525 16.4685 14.9778 16.6134 14.9742 16.7591V17.7964C14.983 18.3438 14.8841 18.8875 14.6832 19.396C14.4823 19.9045 14.1835 20.3676 13.804 20.7586C13.4245 21.1496 12.9719 21.4607 12.4724 21.6737C11.973 21.8868 11.4366 21.9976 10.8944 21.9998ZM8.91883 12.9653H10.8635C11.1192 12.9662 11.3724 12.9161 11.6088 12.8177C11.8451 12.7193 12.0599 12.5747 12.2406 12.3922C12.4214 12.2097 12.5646 11.9929 12.662 11.7543C12.7594 11.5156 12.8091 11.2599 12.8082 11.0018V9.00505H8.91883V12.9653ZM4.10937 9.00505C3.59316 9.00505 3.09809 9.2121 2.73307 9.58066C2.36805 9.94922 2.16299 10.4491 2.16299 10.9703C2.16299 11.4915 2.36805 11.9914 2.73307 12.3599C3.09809 12.7285 3.59316 12.9356 4.10937 12.9356H6.75886V9.00505H4.10937ZM8.91883 6.82347H12.8384V4.14896C12.8393 3.89086 12.7896 3.63512 12.6922 3.39649C12.5948 3.15785 12.4516 2.94103 12.2708 2.75852C12.09 2.57601 11.8753 2.43141 11.639 2.33305C11.4026 2.23469 11.1493 2.18451 10.8937 2.1854C10.3743 2.18216 9.87482 2.38706 9.50484 2.75517C9.13487 3.12328 8.9246 3.62453 8.92017 4.14896L8.91883 6.82347Z" fill="#F71D3B"/>
</g>
<defs>
<clipPath id="clip0_2410_1868">
<rect width="114" height="22" fill="white"/>
</clipPath>
</defs>
</svg>
