<svg width="196" height="207" viewBox="0 0 196 207" fill="none" xmlns="http://www.w3.org/2000/svg">
<path d="M99.2691 61.7549C98.4611 63.1494 97.6472 64.5398 96.7953 65.911C96.3524 66.6427 95.8988 67.3729 95.5066 68.1317C93.4175 72.1838 91.3755 76.2635 89.1878 80.2655C87.8295 82.7229 86.4456 85.1664 85.0361 87.5959L82.911 91.2333L80.7455 94.8468C80.2882 95.5667 79.774 96.2488 79.2078 96.8865C78.9876 97.158 78.7061 97.3733 78.3863 97.5146C78.0666 97.6558 77.7178 97.719 77.3688 97.6989C76.4009 97.6644 75.8646 96.7939 76.2559 95.7085C76.5276 95.0088 76.8858 94.3459 77.3221 93.7351C78.2893 92.3248 79.1925 90.8788 80.0319 89.3973C80.8766 87.9188 81.6607 86.4059 82.3841 84.8588C82.7842 84.0051 83.1524 83.0896 83.7124 82.3579C85.4984 80.0184 86.7462 77.3474 88.327 74.8827C89.5008 73.0498 90.5375 71.1262 91.657 69.2565L94.6472 64.2523C95.6343 62.5789 96.6641 60.9283 97.657 59.2568C98.0622 58.6166 98.509 58.0038 98.9947 57.4224C99.4676 56.884 99.97 56.3721 100.5 55.8893C100.967 55.4612 101.316 55.6915 101.17 56.4012C100.958 57.4189 100.676 58.4206 100.325 59.399C100.181 59.8009 100.013 60.1964 99.8293 60.5847C99.6296 60.9646 99.4292 61.346 99.23 61.725L99.2691 61.7549Z" fill="#F71D3B"/>
<path d="M132.349 94.6708L130.617 95.7899L128.856 96.8683C128.234 97.2511 127.609 97.6357 127.023 98.0696C126.239 98.6466 125.462 99.2333 124.688 99.823L122.357 101.578L117.703 105.096L111.962 109.414L106.244 113.764C105.653 114.188 105.032 114.57 104.386 114.906C104.127 115.054 103.837 115.14 103.538 115.157C103.24 115.173 102.942 115.12 102.668 115C101.906 114.688 101.743 113.839 102.387 113.079C102.816 112.594 103.306 112.167 103.844 111.808C106.255 110.126 108.558 108.295 110.739 106.323C111.31 105.74 111.947 105.223 112.635 104.784C114.848 103.543 116.763 101.874 118.888 100.51C120.467 99.499 121.976 98.3729 123.553 97.3525C126.371 95.5434 129.204 93.7632 132.102 92.0868C133.195 91.4386 134.388 90.9756 135.633 90.7167C136.171 90.6034 136.372 90.9763 135.968 91.444C135.383 92.1093 134.756 92.7357 134.089 93.3191C133.53 93.7909 132.942 94.2291 132.331 94.6314L132.349 94.6708Z" fill="#F71D3B"/>
<path d="M140.781 137.771C139.59 137.76 138.398 137.744 137.206 137.722C136.573 137.683 135.939 137.681 135.307 137.718C133.625 137.851 131.946 138.022 130.267 138.192C128.589 138.361 126.911 138.518 125.232 138.649C123.164 138.814 121.096 138.957 119.028 139.105L112.821 139.515C112.184 139.532 111.547 139.471 110.925 139.334C110.323 139.224 109.897 138.715 109.602 138.029C109.171 137.028 109.429 135.901 110.253 135.573C110.784 135.381 111.35 135.301 111.914 135.339C114.466 135.42 117.02 135.2 119.522 134.684C120.216 134.543 120.936 134.34 121.627 134.448C123.83 134.785 126.006 134.397 128.198 134.49C129.825 134.554 131.454 134.465 133.082 134.497C134.534 134.526 135.985 134.567 137.435 134.618L141.786 134.862C142.921 134.919 144.026 135.247 145.009 135.818C145.112 135.869 145.197 135.95 145.253 136.051C145.309 136.151 145.334 136.266 145.325 136.38C145.316 136.495 145.272 136.604 145.2 136.694C145.128 136.784 145.031 136.85 144.922 136.884C144.188 137.153 143.44 137.378 142.68 137.559C142.053 137.658 141.42 137.711 140.785 137.717L140.781 137.771Z" fill="#F71D3B"/>
<path d="M119.404 166.291C119.116 166.153 118.823 166.025 118.543 165.868L117.704 165.395C117.412 165.22 117.105 165.07 116.788 164.947C115.93 164.648 115.058 164.381 114.206 164.067C113.351 163.763 112.497 163.455 111.658 163.116C110.623 162.699 109.596 162.265 108.584 161.798L105.549 160.395C105.241 160.226 104.968 160.001 104.744 159.731C104.508 159.48 104.507 158.986 104.634 158.398C104.82 157.541 105.37 156.785 105.87 156.774C106.176 156.779 106.473 156.881 106.718 157.066C107.851 157.837 109.126 158.375 110.468 158.65C110.843 158.731 111.257 158.76 111.536 159.026C112.432 159.863 113.592 160.139 114.585 160.769C115.32 161.243 116.135 161.553 116.883 162.004C118.219 162.802 119.57 163.565 120.884 164.41C121.433 164.752 121.863 165.255 122.113 165.851C122.142 165.925 122.155 166.004 122.151 166.083C122.146 166.163 122.125 166.24 122.087 166.31C122.05 166.38 121.998 166.441 121.934 166.488C121.871 166.536 121.798 166.569 121.72 166.585C121.498 166.6 121.275 166.608 121.054 166.607C120.836 166.61 120.619 166.595 120.404 166.562C120.069 166.489 119.741 166.386 119.425 166.253L119.404 166.291Z" fill="#F71D3B"/>
<path d="M51.4019 71.3906C51.5249 72.1459 51.6399 72.9011 51.7468 73.6563C51.7934 74.0575 51.8642 74.4556 51.9588 74.8484C52.2553 75.8816 52.541 76.92 52.8073 77.9649C53.0691 79.0108 53.2908 80.0659 53.4723 81.1301C53.6817 82.4414 53.8519 83.7599 53.9658 85.0839C54.0803 86.4076 54.1586 87.7338 54.2008 89.0625C54.1948 89.4745 54.1193 89.8825 53.9775 90.2694C53.86 90.6505 53.433 90.902 52.8706 91.059C52.0511 91.2869 51.1651 91.0779 50.9455 90.5687C50.8221 90.245 50.7844 89.8948 50.8363 89.5522C51.0084 87.999 50.87 86.4272 50.4291 84.928C50.3118 84.5105 50.1311 84.0851 50.197 83.6612C50.4129 82.3016 49.994 81.0063 49.919 79.6741C49.8879 79.1784 49.8301 78.6847 49.7457 78.1953C49.6719 77.7041 49.5829 77.2153 49.5147 76.7226C49.2695 74.9663 49.0076 73.204 48.6638 71.4527C48.5425 70.7115 48.6625 69.951 49.0059 69.2832C49.1448 68.951 49.5075 68.855 49.8971 69.0758L50.2559 69.3322C50.3136 69.3693 50.3636 69.4173 50.4028 69.4736L50.5215 69.6251C50.6764 69.8263 50.8191 70.0366 50.9487 70.255C51.0511 70.4313 51.1344 70.6181 51.1974 70.8121C51.2511 71.0076 51.2966 71.206 51.3536 71.4001L51.4019 71.3906Z" fill="#F71D3B"/>
</svg>
