<svg width="82" height="83" viewBox="0 0 82 83" fill="none" xmlns="http://www.w3.org/2000/svg">
<g clip-path="url(#clip0_2343_1754)">
<path d="M30.0099 16.3202C30.4581 17.3761 31.0164 18.391 31.7085 19.2973C32.053 19.751 32.4222 20.1829 32.8268 20.5785C33.2316 20.9725 33.6625 21.3348 34.1205 21.658C34.5067 21.9331 34.9175 22.1658 35.3367 22.3791L35.3815 22.4014C35.8291 22.6303 36.009 23.1854 35.7816 23.6409C35.6658 23.8743 35.4638 24.037 35.2363 24.1092C34.4574 24.3541 33.6769 24.5575 32.9269 24.771C32.2733 24.9578 31.6444 25.1449 31.0531 25.3756C30.4608 25.6031 29.9104 25.885 29.3873 26.2221C29.2569 26.3061 29.1263 26.3915 29.0017 26.4866L28.8118 26.6244C28.7504 26.6706 28.7064 26.7162 28.654 26.7607C28.5517 26.8514 28.4465 26.9315 28.3464 27.049C28.2456 27.1606 28.1409 27.2584 28.0431 27.3807L27.7499 27.7448C27.6532 27.8687 27.5623 28.0037 27.4694 28.1326L27.3297 28.3274L27.1973 28.5334L26.9326 28.944C26.2487 30.0686 25.6455 31.2719 25.1098 32.5022C24.8488 33.1197 24.5917 33.7407 24.3715 34.3681C24.1517 34.9927 23.9437 35.6263 23.8018 36.232C23.6632 36.8249 23.0778 37.1934 22.4946 37.0551C22.0506 36.949 21.7352 36.5804 21.6722 36.1473L21.6711 36.1339C21.5542 35.319 21.5145 34.5545 21.4769 33.7962L21.3883 31.5568C21.3387 30.3428 21.2727 29.1428 21.1091 28.0092C21.023 27.4476 20.9069 26.9042 20.7498 26.4273L20.6195 26.0942C20.5655 25.9792 20.5048 25.8604 20.4482 25.7436C20.3231 25.5114 20.1921 25.2798 20.0398 25.0557C19.7427 24.6055 19.3999 24.1712 19.0255 23.7562C18.6477 23.3452 18.2412 22.9524 17.8131 22.5802C16.9567 21.8373 16.012 21.1782 15.0284 20.6243C14.4759 20.3133 14.2779 19.6039 14.5879 19.0417C14.7462 18.7522 15.0076 18.5578 15.2997 18.4796L15.3103 18.4766C16.1785 18.2468 17.0456 18.0154 17.8653 17.7156C18.6972 17.4336 19.4754 17.0766 20.2035 16.6612L20.7395 16.3361L21.2405 15.9694C21.4143 15.8544 21.5617 15.7094 21.7178 15.5744C21.8689 15.4342 22.0365 15.3111 22.1714 15.1511L22.5972 14.6975C22.7334 14.5391 22.8568 14.3672 22.9877 14.2052L23.1824 13.9575C23.2436 13.87 23.2995 13.7789 23.3579 13.691L23.7076 13.1563C24.3222 12.1255 24.8893 11.0057 25.3982 9.86617C25.5141 9.59007 25.6322 9.34079 25.7524 9.11834C25.8124 9.00711 25.8732 8.90187 25.9345 8.80261C25.9517 8.77251 25.9598 8.76624 25.9717 8.75313C25.9821 8.74126 25.9938 8.72959 26.0053 8.71937C26.0286 8.69748 26.0531 8.67723 26.0805 8.65736C26.1871 8.57752 26.3297 8.49962 26.4732 8.38352C26.6178 8.26905 26.7583 8.12159 26.8757 7.96214C27.2186 7.48844 27.2972 7.1881 27.4454 7.4102C27.4813 7.46666 27.5209 7.55902 27.5598 7.69992C27.5989 7.83937 27.6351 8.0315 27.6474 8.27197C27.6599 8.51098 27.643 8.79466 27.5931 9.08711C27.5804 9.15908 27.5655 9.23665 27.552 9.3041C27.541 9.35272 27.5313 9.40299 27.5199 9.45451C27.4972 9.55755 27.4713 9.6631 27.4419 9.77261C27.3693 10.0502 27.289 10.3311 27.2039 10.6158C27.1159 10.9001 27.0021 11.1824 26.8952 11.4671C26.6912 12.0393 26.4023 12.5955 26.1376 13.1344C26.0046 13.3758 25.8621 13.6129 25.7252 13.8522L25.5183 14.2103L25.2857 14.556C25.1269 14.785 24.9789 15.0199 24.8109 15.2417L24.2851 15.8969C23.5502 16.7463 22.6975 17.5015 21.7655 18.1147L21.0539 18.5472C20.8136 18.6825 20.567 18.7993 20.322 18.9267C20.0792 19.0588 19.8291 19.1589 19.5795 19.2665C19.33 19.3726 19.0823 19.4878 18.8299 19.5728L18.0769 19.8508L17.3212 20.0959L16.9435 20.217L16.566 20.3263L15.8093 20.5462L16.0452 18.7475C17.077 19.2991 18.0557 19.9319 18.9818 20.6533C19.5838 21.1229 20.1785 21.6356 20.7226 22.2108C21.2669 22.7845 21.759 23.4219 22.1371 24.1189C22.2582 24.3595 22.3878 24.5908 22.4928 24.8424C22.5467 24.9691 22.6068 25.082 22.6546 25.2211L22.7981 25.6268C22.852 25.7639 22.8738 25.8921 22.9122 26.0256C22.9451 26.1568 22.985 26.2905 23.011 26.4193C23.0573 26.6762 23.1203 26.9383 23.1527 27.1904C23.3102 28.2083 23.3761 29.196 23.4275 30.1729C23.4761 31.1494 23.5014 32.1154 23.5331 33.0661C23.5667 34.014 23.6005 34.9605 23.7062 35.8254L21.7991 35.7371C21.988 34.9874 22.2336 34.3015 22.4973 33.621C22.8152 32.8092 23.162 32.0191 23.5338 31.2369C23.9042 30.4544 24.2979 29.6825 24.7343 28.9267C25.1707 28.1709 25.6291 27.4239 26.1845 26.7109C26.4635 26.3552 26.7578 26.0046 27.1006 25.6709C27.1425 25.6295 27.1817 25.5861 27.2279 25.5453L27.3705 25.4246L27.6582 25.1866C27.7546 25.1069 27.8447 25.0528 27.9393 24.986C28.0336 24.9222 28.124 24.8549 28.2205 24.7958C28.7286 24.4625 29.2735 24.1784 29.8296 23.94C30.3857 23.7017 30.9508 23.5147 31.5064 23.3544C32.6201 23.0371 33.6854 22.7987 34.7139 22.4683L34.6282 23.941C33.7299 23.5064 32.8975 22.9495 32.1463 22.3078C31.4003 21.6595 30.7367 20.9281 30.1514 20.1439C29.5709 19.356 29.072 18.5128 28.6473 17.6354C28.2238 16.7598 27.892 15.8288 27.6324 14.9002C27.3029 13.7071 27.1229 12.524 27.0565 11.3903C26.9873 10.2562 27.0337 9.16875 27.1708 8.14967C27.2244 7.76634 27.337 7.54581 27.4639 7.49821L27.289 7.81346C27.2538 7.83814 27.2032 7.8578 27.1547 7.86299C27.1061 7.86818 27.0619 7.86217 27.031 7.85502C26.9679 7.83906 26.9448 7.82709 26.938 7.835C26.9341 7.84185 26.9475 7.87167 27.015 7.90885C27.0488 7.92672 27.0985 7.94527 27.1591 7.94761C27.2195 7.95141 27.288 7.93861 27.3405 7.9148L27.5751 7.49122C27.7266 7.5295 27.8742 7.79869 27.9637 8.29287C28.2309 9.77376 28.507 11.306 28.8726 12.7782C29.1697 13.986 29.4849 15.2096 29.9741 16.3168C29.9844 16.3152 29.9948 16.3137 30.008 16.3125L30.0099 16.3202Z" fill="#434141"/>
<path d="M52.8614 34.4274C52.9765 35.0209 53.1051 35.6118 53.2433 36.1951C53.279 36.3385 53.3134 36.4906 53.3502 36.6253C53.388 36.7528 53.4181 36.8837 53.4618 37.0105C53.5449 37.2635 53.6399 37.5138 53.7506 37.7558C54.1943 38.7286 54.8762 39.6026 55.7248 40.3282C56.4456 40.9584 57.2864 41.4854 58.1762 41.9189C58.6252 42.1377 58.8119 42.6849 58.5961 43.1405C58.4904 43.3635 58.3077 43.5229 58.098 43.6034L58.072 43.6132C57.8609 43.6935 57.6483 43.7634 57.4424 43.8592C56.2592 44.3778 55.1552 45.1461 54.1645 46.0417C53.1721 46.9386 52.2917 47.973 51.5451 49.0891C50.8 50.2053 50.1853 51.4086 49.7775 52.6576C49.3716 53.904 49.1718 55.202 49.299 56.4221L47.1212 56.5741C47.0684 55.2875 47.0201 54.0103 46.9211 52.7542C46.8326 51.6234 46.709 50.5054 46.5121 49.4144C46.3136 48.3246 46.0434 47.2605 45.6769 46.2437C45.5834 45.9922 45.4828 45.7397 45.3829 45.4932C45.2793 45.2521 45.1709 45.0148 45.0511 44.7862C44.8133 44.3264 44.5444 43.8933 44.2433 43.5045C43.6401 42.7238 42.8977 42.1556 42.0882 41.932C41.4786 41.7636 41.1203 41.1238 41.2887 40.504C41.3869 40.1444 41.6388 39.8706 41.9516 39.7363L41.9607 39.7331C42.7748 39.3898 43.5435 38.9533 44.2322 38.4013C44.4095 38.2707 44.5697 38.1171 44.7384 37.9749C44.8974 37.8196 45.0624 37.6726 45.2138 37.5089C45.5253 37.1916 45.8119 36.8444 46.0829 36.4832C47.1704 35.0362 47.9402 33.3013 48.5201 31.4904C48.8974 30.305 49.2721 29.0853 49.5904 27.8653C49.7408 27.2814 49.9115 26.8049 50.0959 26.4202C50.1873 26.2278 50.2843 26.0582 50.3843 25.9096C50.4401 25.7875 50.5107 25.6526 50.5863 25.5553C50.6625 25.4536 50.7419 25.3819 50.8043 25.3388C51.157 25.1347 50.8528 25.537 51.1851 25.9419C51.2668 26.034 51.3984 26.0799 51.4885 26.0789C51.5328 26.0835 51.5677 26.072 51.5875 26.0865C51.5982 26.1572 51.6085 26.2309 51.6152 26.3099C51.6477 26.6253 51.6448 27.0097 51.6002 27.4547C51.4862 28.5815 51.2304 29.8012 50.8908 30.9328C50.5643 32.0219 50.1885 33.0999 49.7302 34.1549C49.5006 34.6809 49.2541 35.2031 48.9776 35.7109C48.7037 36.2205 48.4065 36.7211 48.077 37.2025C47.4247 38.1692 46.6453 39.0685 45.7482 39.8413C45.297 40.2251 44.821 40.579 44.3193 40.897C43.8156 41.2088 43.292 41.4854 42.7528 41.7276L42.6439 39.851C43.6606 40.1087 44.5753 40.6679 45.2975 41.3528C45.9056 41.9263 46.4249 42.588 46.8378 43.2854C47.0486 43.6339 47.2306 43.9918 47.3903 44.354L47.5056 44.6262C47.5397 44.7163 47.5725 44.8063 47.6066 44.8964C47.6707 45.0761 47.7378 45.2548 47.7917 45.4345C48.3612 47.2735 48.677 49.1442 48.8736 50.9944C49.0685 52.8472 49.1404 54.6863 49.1901 56.4972L49.1906 56.515C49.2049 57.0609 48.7813 57.5192 48.2423 57.5358C47.7237 57.5522 47.2877 57.1525 47.2437 56.6335C47.1602 55.6257 47.2368 54.6249 47.446 53.6731C47.8422 51.8904 48.577 50.2421 49.508 48.7398C50.4458 47.2415 51.5853 45.8811 52.9079 44.7211C54.2549 43.5422 55.7995 42.5524 57.5467 41.9719L57.4532 43.4804C56.9596 43.2275 56.4682 42.9691 55.9978 42.6619C55.5247 42.3647 55.07 42.0287 54.6368 41.6617C54.2016 41.2989 53.799 40.8889 53.4277 40.4507C53.0564 40.0125 52.7224 39.5352 52.4436 39.0256C52.1631 38.5172 51.9315 37.9802 51.759 37.4246C51.7197 37.2866 51.6725 37.1431 51.6383 37.0102L51.5369 36.6146C51.4698 36.3505 51.4085 36.0871 51.3473 35.8223C51.1066 34.7651 50.8983 33.705 50.7246 32.6348C50.5316 31.4411 50.4176 30.2626 50.4259 29.1243C50.4379 27.9909 50.5599 26.8798 50.9137 25.9108C51.0169 25.664 51.1255 25.5048 51.2263 25.436L51.2219 25.3189C51.2204 25.2657 51.2018 25.1997 51.1686 25.1451C51.1357 25.089 51.0948 25.0481 51.0625 25.0187C50.998 24.9598 50.9645 24.9287 50.9613 24.8988C50.9606 24.8721 50.984 24.8385 51.0992 24.8453C51.1551 24.8499 51.2418 24.8735 51.3328 24.9404C51.4242 25.0045 51.5026 25.1109 51.5461 25.2068L51.5589 25.5181C51.5979 25.5838 51.6259 25.676 51.6437 25.7905C51.6628 25.9066 51.6579 26.0386 51.6646 26.2134C51.6684 26.3879 51.6586 26.5561 51.6718 26.7362C51.6809 26.9144 51.6899 27.0939 51.7003 27.2737C51.7347 27.6395 51.7619 28.0044 51.8112 28.3781C51.9002 29.1213 52.0148 29.8784 52.1486 30.6336C52.3628 31.8744 52.5588 33.1643 52.8378 34.4198C52.8492 34.4213 52.8591 34.4227 52.872 34.4244L52.8614 34.4274Z" fill="#434141"/>
<path d="M31.5457 53.1383C31.759 54.2154 32.2393 55.1637 33.0139 55.8999C33.0844 55.9788 33.1716 56.0422 33.2538 56.1094L33.5032 56.3128C33.6807 56.4372 33.8687 56.5482 34.053 56.6647L34.1185 56.706C34.538 56.9709 34.665 57.5306 34.4023 57.9578C34.2717 58.1714 34.0641 58.3112 33.8407 58.3649C33.6758 58.4044 33.5122 58.444 33.3526 58.4872C33.0214 58.5763 32.7058 58.6675 32.423 58.7735C32.14 58.881 31.8888 59.0001 31.6579 59.1515C31.1993 59.4517 30.7702 59.8975 30.392 60.3959C30.0162 60.8976 29.6889 61.4486 29.463 62.0001C29.2351 62.5455 29.1274 63.1131 29.1939 63.4774L27.0337 63.7246C26.97 62.9877 26.8935 62.2698 26.7739 61.5814C26.5897 60.5245 26.2947 59.5366 25.8023 58.709C25.3119 57.8773 24.6305 57.2024 23.8516 56.8709C23.2701 56.6238 22.9999 55.9444 23.2457 55.3528C23.3662 55.0641 23.5883 54.8496 23.8519 54.7351L23.9073 54.7117L24.2063 54.5828L24.3557 54.5191L24.4997 54.4414L24.7904 54.2878L25.0702 54.1077L25.2101 54.0177L25.3442 53.9165L25.6142 53.713L25.871 53.4884L25.9994 53.3762C26.0409 53.3376 26.0816 53.2945 26.1219 53.2543C26.7825 52.61 27.3612 51.8426 27.8485 51.0009C28.1597 50.4727 28.5126 49.9473 28.8287 49.4037C28.9868 49.148 29.1492 48.946 29.3401 48.801C29.5242 48.6521 29.7247 48.5541 29.9343 48.4956C30.2389 48.4103 30.4933 48.492 30.6452 48.7191C30.7959 48.9444 30.8523 49.3192 30.7342 49.7822C30.5878 50.3681 30.3168 50.9739 29.9931 51.5092C29.8406 51.7774 29.666 52.0366 29.5027 52.2989L29.2401 52.6833L29.1082 52.8747L28.9681 53.062C28.6064 53.5671 28.1962 54.0449 27.7641 54.502C27.3304 54.9605 26.8442 55.3778 26.3303 55.7649C25.8074 56.1434 25.2382 56.4669 24.6355 56.7387L24.6826 54.8775C25.109 55.0387 25.515 55.2531 25.8897 55.506C26.6307 55.9989 27.2999 56.6677 27.6712 57.4257C27.9248 57.9289 28.1293 58.452 28.2998 58.969C28.4703 59.486 28.5997 60.0063 28.708 60.5222C28.9185 61.5561 29.0264 62.576 29.0815 63.5682L29.0824 63.5934C29.1129 64.137 28.7039 64.6062 28.1684 64.6395C27.6578 64.6718 27.2158 64.2947 27.1483 63.7888C27.0792 63.262 27.1408 62.7766 27.2527 62.3378C27.385 61.8237 27.5785 61.3606 27.7972 60.926C28.0173 60.4916 28.267 60.0848 28.5418 59.6962C28.8164 59.309 29.1159 58.9414 29.4531 58.5952C29.7915 58.2506 30.1638 57.9239 30.6024 57.6533C31.0658 57.3611 31.5813 57.1541 32.0612 57.0174C32.5462 56.8755 32.998 56.7851 33.4407 56.6876L33.2533 58.1936C32.2287 57.6209 31.3059 56.7791 30.6739 55.7512C30.5987 55.6216 30.5298 55.4884 30.4578 55.3563L30.3528 55.1577C30.3214 55.0901 30.2945 55.0215 30.2647 54.9526L30.0928 54.5416L29.9571 54.1207L29.8899 53.9111L29.8389 53.6993L29.7385 53.2744L29.6675 52.8476C29.6432 52.7057 29.6204 52.5641 29.6094 52.421C29.5922 52.2595 29.5779 52.0984 29.5676 51.9392C29.5644 51.7811 29.5627 51.6231 29.565 51.4672C29.5645 51.3109 29.5752 51.1576 29.5914 51.0065C29.6062 50.8552 29.6222 50.7055 29.6451 50.5583C29.7454 49.9705 29.91 49.421 30.1621 48.9217C30.3915 48.462 30.864 48.5395 30.9344 49.0782C31.0379 49.8426 31.1164 50.6198 31.2218 51.3594C31.3031 51.9674 31.355 52.5773 31.506 53.1418C31.5164 53.1403 31.5266 53.1402 31.5384 53.1388L31.5457 53.1383Z" fill="#434141"/>
<path d="M69.5628 21.8166C69.6296 22.2855 69.746 22.7421 69.8931 23.1852C69.9335 23.2938 69.9643 23.4086 70.0124 23.5139L70.147 23.8358C70.2496 24.0414 70.3484 24.2538 70.4701 24.4473C70.6424 24.7478 70.8533 25.0212 71.0796 25.2775L71.0896 25.2892C71.4291 25.6729 71.398 26.2642 71.0185 26.612C70.9588 26.6673 70.8884 26.7152 70.8197 26.7516C70.6963 26.8159 70.5728 26.8816 70.4519 26.9492C69.6579 27.4544 68.9614 28.1704 68.4328 28.9963C68.1666 29.4067 67.9376 29.8428 67.7645 30.2836C67.7249 30.3932 67.6766 30.5031 67.6472 30.6126C67.6135 30.7215 67.5768 30.8315 67.5553 30.9362L67.518 31.0932L67.4979 31.2409L67.4836 31.3141C67.4805 31.3373 67.482 31.3581 67.4807 31.3786C67.4792 31.4211 67.4764 31.4635 67.4721 31.5056L67.4681 31.5567C67.4124 32.1579 66.8876 32.6039 66.2958 32.55C65.8185 32.5072 65.4419 32.1508 65.3435 31.7011C65.249 31.2652 65.1771 30.8339 65.1216 30.4313C65.0645 30.03 65.0176 29.6389 64.9536 29.2882C64.9396 29.1993 64.9237 29.1131 64.9056 29.0325C64.8878 28.9505 64.8732 28.866 64.8535 28.7867C64.8105 28.6334 64.7742 28.4737 64.7201 28.3381C64.6763 28.1906 64.6103 28.0682 64.5558 27.9355C64.5236 27.8736 64.4863 27.8169 64.4539 27.7565L64.4037 27.6671L64.3421 27.5865C64.0329 27.1509 63.5784 26.7914 62.9958 26.5102C62.428 26.2369 62.1882 25.5469 62.4597 24.9691C62.5844 24.7031 62.7966 24.5079 63.0434 24.3999L63.1035 24.3742L63.4057 24.2428C63.4566 24.2203 63.5071 24.2006 63.5567 24.1779L63.6994 24.0985C63.7938 24.045 63.893 23.9981 63.9863 23.9415L64.2573 23.7617C64.6071 23.5041 64.9455 23.2243 65.2292 22.8767C65.5176 22.5371 65.783 22.1649 66.0015 21.7524C66.1212 21.5549 66.2109 21.3327 66.3165 21.1216L66.4516 20.7891L66.5192 20.6229L66.5774 20.451C66.7516 19.9809 66.9523 19.4967 67.1462 19.0101C67.1883 18.892 67.2417 18.7872 67.3025 18.6923C67.3673 18.5891 67.4227 18.5553 67.5281 18.3456C67.6284 18.1839 67.7464 18.0628 67.8555 17.9966C67.9648 17.9289 68.0603 17.9094 68.1344 17.9195C68.3485 17.956 68.359 18.2626 68.5382 18.5346C68.6213 18.6697 68.7622 18.7861 68.8983 18.8091C68.9647 18.8225 69.0208 18.8154 69.0553 18.8068L69.0614 18.8047C69.0614 18.8047 69.0656 18.8053 69.0647 18.8125L69.0687 18.847C69.07 18.8693 69.0726 18.8932 69.0737 18.9169C69.0759 18.9644 69.0766 19.0131 69.0754 19.0646C69.0711 19.1922 69.0619 19.3236 69.0485 19.4545C69.0305 19.5862 69.0053 19.7184 68.9772 19.8502C68.9268 20.1145 68.8391 20.3753 68.7512 20.6272C68.5352 21.2022 68.3066 21.774 68.0152 22.3269C67.7284 22.879 67.4107 23.4225 67.0189 23.9249C66.2585 24.9403 65.2364 25.811 64.065 26.3814C63.9981 26.4151 63.9323 26.4503 63.864 26.4838L63.9645 24.4854C64.262 24.6231 64.5712 24.7389 64.8593 24.9358C65.0049 25.0278 65.1476 25.1194 65.2775 25.2418C65.3437 25.2994 65.4068 25.3581 65.4695 25.4197C65.5326 25.4784 65.5922 25.541 65.6448 25.613C66.0145 26.0525 66.3075 26.564 66.5266 27.0758C66.748 27.5923 66.8756 28.1153 66.9655 28.6066C67.0568 29.0981 67.114 29.5731 67.1656 30.015C67.2187 30.457 67.272 30.8755 67.3358 31.2704L65.4351 31.4438C65.4564 31.2551 65.4724 31.0524 65.5168 30.886C65.6109 30.4389 65.7554 30.0487 65.9159 29.6681L66.0383 29.387L66.1739 29.1151C66.2613 28.9309 66.3643 28.7607 66.4621 28.5853C66.8652 27.8928 67.3547 27.2592 67.9266 26.7016C68.5577 26.0932 69.2849 25.5671 70.1009 25.199L69.8717 26.5003C69.2033 25.7623 68.6809 24.91 68.335 24.0081L68.2055 23.6691L68.0956 23.3255L68.0405 23.1543L67.996 22.9803L67.907 22.6321C67.8065 22.1659 67.7222 21.6975 67.6804 21.226C67.5698 20.1408 67.7688 19.0933 68.292 18.2859C68.3619 18.1775 68.4525 18.1087 68.5445 18.0829C68.5611 18.0778 68.5706 18.0614 68.5656 18.0445C68.566 18.0416 68.5636 18.0383 68.5611 18.035L68.45 17.871C68.4041 17.8029 68.3102 17.7577 68.2519 17.738C68.191 17.7164 68.1554 17.7013 68.1445 17.6747C68.1348 17.6498 68.1474 17.6103 68.2251 17.5722C68.2639 17.5539 68.3228 17.5368 68.398 17.5382C68.472 17.538 68.559 17.5601 68.634 17.5954L68.8692 18.127C68.9651 18.1902 69.0382 18.3033 69.059 18.4595C69.144 19.0827 69.2196 19.7106 69.3137 20.3204C69.3893 20.8201 69.424 21.3334 69.5281 21.8266C69.5385 21.825 69.5486 21.8249 69.5604 21.8236L69.5628 21.8166Z" fill="#434141"/>
<path d="M60.6501 65.2563C60.661 65.3787 60.6714 65.5054 60.6859 65.6223C60.6921 65.6836 60.7005 65.7393 60.708 65.7904C60.7154 65.843 60.7226 65.897 60.7344 65.9488C60.774 66.159 60.8308 66.3702 60.907 66.5677C61.0588 66.9658 61.2793 67.3289 61.5549 67.6066C61.7083 67.7587 61.878 67.8864 62.0643 67.9781L62.124 68.0083C62.5685 68.2279 62.7526 68.7733 62.533 69.2254C62.43 69.4384 62.2536 69.5943 62.0527 69.6746C61.8379 69.7603 61.6324 69.8636 61.4424 69.9911C61.0479 70.2573 60.7025 70.5995 60.3658 71.0062C60.1975 71.2089 60.03 71.4278 59.8596 71.6567L59.5986 72.0074C59.5184 72.1174 59.4505 72.2113 59.3822 72.3185C59.1125 72.7343 58.8971 73.1768 58.7712 73.6225C58.6425 74.0678 58.5999 74.5087 58.6483 74.9206L56.4963 75.0967C56.4344 74.3248 56.3579 73.5759 56.2223 72.8661C56.061 72.0143 55.8163 71.2219 55.4337 70.536C55.053 69.8474 54.5457 69.2684 53.9494 68.9058C53.4097 68.5759 53.2354 67.8624 53.5626 67.3128C53.7075 67.0687 53.9265 66.898 54.1732 66.8122L54.2311 66.792L54.5068 66.6954L54.6451 66.6493L54.778 66.5893L55.0438 66.4692L55.2986 66.324L55.4272 66.253L55.549 66.1679L55.7923 66.0005L56.0214 65.8091C56.0591 65.7773 56.0994 65.7474 56.1358 65.7141L56.2431 65.6078C56.3152 65.5365 56.3883 65.4683 56.4591 65.3954L56.6617 65.165C56.7313 65.0904 56.7933 65.0075 56.8554 64.9245C56.9174 64.8416 56.9821 64.7605 57.0415 64.6757C57.1528 64.4977 57.2771 64.3304 57.3754 64.1403C57.4273 64.0471 57.4802 63.957 57.5308 63.8622L57.6702 63.5731C57.881 63.1109 58.1406 62.6524 58.3473 62.1675C58.4508 61.9399 58.5741 61.7473 58.7315 61.614C58.7817 61.6503 58.8809 61.7316 59.0221 61.739C59.1628 61.7493 59.3046 61.6668 59.3858 61.5496C59.6199 61.1938 59.5086 60.8602 59.7231 60.8511C59.7765 60.8525 59.8582 60.8813 59.9595 60.9791C60.0598 61.0738 60.1704 61.2524 60.22 61.4641C60.2463 61.5693 60.2592 61.6772 60.2639 61.7811C60.2647 61.8283 60.2655 61.8756 60.2662 61.9243C60.2689 61.9468 60.2717 61.9693 60.2742 61.9932C60.2832 62.0873 60.284 62.1877 60.2766 62.2957C60.264 62.5697 60.1971 62.848 60.1274 63.126C60.087 63.2635 60.038 63.3998 59.9892 63.5347C59.9641 63.602 59.939 63.6693 59.9126 63.735C59.882 63.8002 59.8528 63.8655 59.8238 63.9293C59.3309 65.0047 58.687 66.0168 57.8584 66.8932C57.4436 67.3306 56.9729 67.7191 56.4676 68.0646C55.9556 68.4048 55.3985 68.6724 54.8173 68.8926L55.0649 67.0292C55.2858 67.1536 55.5061 67.2838 55.7107 67.4325C56.3488 67.8819 56.9357 68.4732 57.2506 69.1439C58.1696 71.0908 58.4672 73.0947 58.5351 74.9642L58.5376 75.0205C58.5571 75.5597 58.1425 76.0163 57.61 76.0383C57.0849 76.0597 56.643 75.6503 56.6119 75.1213C56.5983 74.891 56.5978 74.6595 56.6184 74.4338C56.6981 73.5057 57.0017 72.6493 57.4201 71.8984C57.6293 71.5229 57.8723 71.1654 58.1355 70.84C58.3675 70.5532 58.6071 70.2526 58.8725 69.9541C59.2031 69.5819 59.5746 69.2079 60.0018 68.8827C60.4251 68.5541 60.905 68.2892 61.3948 68.0904L61.3851 69.5587C60.8891 69.3233 60.4565 68.9844 60.1143 68.5885C59.7691 68.1937 59.5076 67.7483 59.3135 67.2871C59.2145 67.0555 59.138 66.8181 59.0706 66.5775C59.0087 66.3391 58.9577 66.0845 58.9278 65.8564C58.8619 65.392 58.8287 64.9423 58.8074 64.4913C58.7825 63.9381 58.812 63.4011 58.915 62.8889C59.0178 62.3781 59.1903 61.8886 59.4631 61.4717C59.5248 61.3813 59.5985 61.3191 59.6752 61.2883L59.6692 61.311C59.6811 61.3303 59.6754 61.3723 59.6489 61.407C59.6222 61.4432 59.5813 61.4671 59.5516 61.4823C59.4896 61.5121 59.4567 61.5298 59.4475 61.5654C59.4432 61.5972 59.4497 61.6556 59.5662 61.695C59.6233 61.7131 59.7229 61.7163 59.83 61.6646C59.9368 61.6157 60.0213 61.5166 60.0592 61.4407L60.0788 61.3608C60.1568 61.4275 60.2087 61.5259 60.2249 61.6623C60.3044 62.2936 60.3886 62.9551 60.4717 63.6135C60.5398 64.1579 60.5426 64.7243 60.6153 65.256C60.6255 65.2559 60.6357 65.2558 60.6473 65.2559L60.6501 65.2563Z" fill="#434141"/>
</g>
<defs>
<clipPath id="clip0_2343_1754">
<rect width="71.8708" height="73.0301" fill="white" transform="translate(9.83984) rotate(7.74366)"/>
</clipPath>
</defs>
</svg>
